  0
SECTION
  2
HEADER
  9
$ACADVER
  1
AC1014
  9
$HANDSEED
  5
FFFF
  9
$MEASUREMENT
 70
     1
  0
ENDSEC
  0
SECTION
  2
TABLES
  0
TABLE
  2
VPORT
  5
8
330
0
100
AcDbSymbolTable
 70
     4
  0
VPORT
  5
2E
330
8
100
AcDbSymbolTableRecord
100
AcDbViewportTableRecord
  2
*ACTIVE
 70
     0
 10
0.0
 20
0.0
 11
1.0
 21
1.0
 12
210.0
 22
148.5
 13
0.0
 23
0.0
 14
10.0
 24
10.0
 15
10.0
 25
10.0
 16
0.0
 26
0.0
 36
1.0
 17
0.0
 27
0.0
 37
0.0
 40
341.0
 41
1.24
 42
50.0
 43
0.0
 44
0.0
 50
0.0
 51
0.0
 71
     0
 72
   100
 73
     1
 74
     3
 75
     0
 76
     0
 77
     0
 78
     0
  0
ENDTAB
  0
TABLE
  2
LTYPE
  5
5
330
0
100
AcDbSymbolTable
 70
     1
  0
LTYPE
  5
14
330
5
100
AcDbSymbolTableRecord
100
AcDbLinetypeTableRecord
  2
BYBLOCK
 70
     0
  3

 72
    65
 73
     0
 40
0.0
  0
LTYPE
  5
15
330
5
100
AcDbSymbolTableRecord
100
AcDbLinetypeTableRecord
  2
BYLAYER
 70
     0
  3

 72
    65
 73
     0
 40
0.0
  0
LTYPE
  5
16
330
5
100
AcDbSymbolTableRecord
100
AcDbLinetypeTableRecord
  2
CONTINUOUS
 70
     0
  3
Solid line
 72
    65
 73
     0
 40
0.0
  0
ENDTAB
  0
TABLE
  2
LAYER
  5
2
100
AcDbSymbolTable
 70
3
  0
LAYER
  5
50
100
AcDbSymbolTableRecord
100
AcDbLayerTableRecord
  2
0
 70
0
  6
CONTINUOUS
  0
LAYER
  5
51
100
AcDbSymbolTableRecord
100
AcDbLayerTableRecord
  2
Layer_1
 70
0
  6
CONTINUOUS
  0
LAYER
  5
52
100
AcDbSymbolTableRecord
100
AcDbLayerTableRecord
  2
Layer_2
 70
0
  6
CONTINUOUS
  0
ENDTAB
  0
TABLE
  2
STYLE
  5
3
330
0
100
AcDbSymbolTable
 70
     1
  0
STYLE
  5
11
330
3
100
AcDbSymbolTableRecord
100
AcDbTextStyleTableRecord
  2
STANDARD
 70
     0
 40
0.0
 41
1.0
 50
0.0
 71
     0
 42
2.5
  3
txt
  4

  0
ENDTAB
  0
TABLE
  2
VIEW
  5
6
330
0
100
AcDbSymbolTable
 70
     0
  0
ENDTAB
  0
TABLE
  2
UCS
  5
7
330
0
100
AcDbSymbolTable
 70
     0
  0
ENDTAB
  0
TABLE
  2
APPID
  5
9
330
0
100
AcDbSymbolTable
 70
     2
  0
APPID
  5
12
330
9
100
AcDbSymbolTableRecord
100
AcDbRegAppTableRecord
  2
ACAD
 70
     0
  0
ENDTAB
  0
TABLE
  2
DIMSTYLE
  5
A
330
0
100
AcDbSymbolTable
 70
     1
  0
DIMSTYLE
105
27
330
A
100
AcDbSymbolTableRecord
100
AcDbDimStyleTableRecord
  2
ISO-25
 70
     0
  3

  4

  5

  6

  7

 40
1.0
 41
2.5
 42
0.625
 43
3.75
 44
1.25
 45
0.0
 46
0.0
 47
0.0
 48
0.0
140
2.5
141
2.5
142
0.0
143
0.03937007874016
144
1.0
145
0.0
146
1.0
147
0.625
 71
     0
 72
     0
 73
     0
 74
     0
 75
     0
 76
     0
 77
     1
 78
     8
170
     0
171
     3
172
     1
173
     0
174
     0
175
     0
176
     0
177
     0
178
     0
270
     2
271
     2
272
     2
273
     2
274
     3
340
11
275
     0
280
     0
281
     0
282
     0
283
     0
284
     8
285
     0
286
     0
287
     3
288
     0
  0
ENDTAB
  0
TABLE
  2
BLOCK_RECORD
  5
1
330
0
100
AcDbSymbolTable
 70
     1
  0
BLOCK_RECORD
  5
1F
330
1
100
AcDbSymbolTableRecord
100
AcDbBlockTableRecord
  2
*MODEL_SPACE
  0
BLOCK_RECORD
  5
1B
330
1
100
AcDbSymbolTableRecord
100
AcDbBlockTableRecord
  2
*PAPER_SPACE
  0
ENDTAB
  0
ENDSEC
  0
SECTION
  2
BLOCKS
  0
BLOCK
  5
20
330
1F
100
AcDbEntity
  8
0
100
AcDbBlockBegin
  2
*MODEL_SPACE
 70
     0
 10
0.0
 20
0.0
 30
0.0
  3
*MODEL_SPACE
  1

  0
ENDBLK
  5
21
330
1F
100
AcDbEntity
  8
0
100
AcDbBlockEnd
  0
BLOCK
  5
1C
330
1B
100
AcDbEntity
 67
     1
  8
0
100
AcDbBlockBegin
  2
*PAPER_SPACE
  1

  0
ENDBLK
  5
1D
330
1B
100
AcDbEntity
 67
     1
  8
0
100
AcDbBlockEnd
  0
ENDSEC
  0
SECTION
  2
ENTITIES
  0
SPLINE
  5
100
100
AcDbEntity
  8
Layer_2
 62
7
100
AcDbSpline
 70
8
 71
3
 72
8
 73
4
 74
0
 40
0
 40
0
 40
0
 40
0
 40
1
 40
1
 40
1
 40
1
 10
125.220428
 20
154.777543
 30
0.0
 10
124.102139
 20
153.658918
 30
0.0
 10
123.410670
 20
152.113602
 30
0.0
 10
123.411186
 20
150.406844
 30
0.0
  0
LINE
  5
101
100
AcDbEntity
  8
Layer_2
 62
7
100
AcDbLine
 10
123.411186
 20
150.406844
 30
0.0
 11
124.441091
 21
150.405715
 31
0.0
  0
SPLINE
  5
102
100
AcDbEntity
  8
Layer_2
 62
7
100
AcDbSpline
 70
8
 71
3
 72
8
 73
4
 74
0
 40
0
 40
0
 40
0
 40
0
 40
1
 40
1
 40
1
 40
1
 10
124.441091
 20
150.405715
 30
0.0
 10
124.440244
 20
151.828284
 30
0.0
 10
125.016364
 20
153.116397
 30
0.0
 10
125.948299
 20
154.048865
 30
0.0
  0
LINE
  5
103
100
AcDbEntity
  8
Layer_2
 62
7
100
AcDbLine
 10
125.948299
 20
154.048865
 30
0.0
 11
125.220428
 21
154.777543
 31
0.0
  0
SPLINE
  5
104
100
AcDbEntity
  8
Layer_2
 62
7
100
AcDbSpline
 70
8
 71
3
 72
8
 73
4
 74
0
 40
0
 40
0
 40
0
 40
0
 40
1
 40
1
 40
1
 40
1
 10
125.221839
 20
146.038518
 30
0.0
 10
126.340040
 20
144.920641
 30
0.0
 10
127.884606
 20
144.229276
 30
0.0
 10
129.590636
 20
144.229276
 30
0.0
  0
LINE
  5
105
100
AcDbEntity
  8
Layer_2
 62
7
100
AcDbLine
 10
129.590636
 20
144.229276
 30
0.0
 11
129.590586
 21
145.259217
 31
0.0
  0
SPLINE
  5
106
100
AcDbEntity
  8
Layer_2
 62
7
100
AcDbSpline
 70
8
 71
3
 72
8
 73
4
 74
0
 40
0
 40
0
 40
0
 40
0
 40
1
 40
1
 40
1
 40
1
 10
129.590586
 20
145.259217
 30
0.0
 10
128.169168
 20
145.259217
 30
0.0
 10
126.882217
 20
145.835143
 30
0.0
 10
125.950410
 20
146.766422
 30
0.0
  0
LINE
  5
107
100
AcDbEntity
  8
Layer_2
 62
7
100
AcDbLine
 10
125.950410
 20
146.766422
 30
0.0
 11
125.221839
 21
146.038518
 31
0.0
  0
SPLINE
  5
108
100
AcDbEntity
  8
Layer_2
 62
7
100
AcDbSpline
 70
8
 71
3
 72
8
 73
4
 74
0
 40
0
 40
0
 40
0
 40
0
 40
1
 40
1
 40
1
 40
1
 10
133.959470
 20
146.038518
 30
0.0
 10
135.077683
 20
147.156391
 30
0.0
 10
135.769517
 20
148.700774
 30
0.0
 10
135.770033
 20
150.406801
 30
0.0
  0
LINE
  5
109
100
AcDbEntity
  8
Layer_2
 62
7
100
AcDbLine
 10
135.770033
 20
150.406801
 30
0.0
 11
134.740080
 21
150.405672
 31
0.0
  0
SPLINE
  5
10a
100
AcDbEntity
  8
Layer_2
 62
7
100
AcDbSpline
 70
8
 71
3
 72
8
 73
4
 74
0
 40
0
 40
0
 40
0
 40
0
 40
1
 40
1
 40
1
 40
1
 10
134.740080
 20
150.405672
 30
0.0
 10
134.739233
 20
148.984254
 30
0.0
 10
134.162600
 20
147.697620
 30
0.0
 10
133.230784
 20
146.766338
 30
0.0
  0
LINE
  5
10b
100
AcDbEntity
  8
Layer_2
 62
7
100
AcDbLine
 10
133.230784
 20
146.766338
 30
0.0
 11
133.959470
 21
146.038518
 31
0.0
  0
SPLINE
  5
10c
100
AcDbEntity
  8
Layer_2
 62
7
100
AcDbSpline
 70
8
 71
3
 72
8
 73
4
 74
0
 40
0
 40
0
 40
0
 40
0
 40
1
 40
1
 40
1
 40
1
 10
133.960881
 20
154.777501
 30
0.0
 10
132.842579
 20
155.896128
 30
0.0
 10
131.297449
 20
156.588063
 30
0.0
 10
129.590690
 20
156.588063
 30
0.0
  0
LINE
  5
10d
100
AcDbEntity
  8
Layer_2
 62
7
100
AcDbLine
 10
129.590690
 20
156.588063
 30
0.0
 11
129.590639
 21
155.558203
 31
0.0
  0
SPLINE
  5
10e
100
AcDbEntity
  8
Layer_2
 62
7
100
AcDbSpline
 70
8
 71
3
 72
8
 73
4
 74
0
 40
0
 40
0
 40
0
 40
0
 40
1
 40
1
 40
1
 40
1
 10
129.590639
 20
155.558203
 30
0.0
 10
131.013211
 20
155.558203
 30
0.0
 10
132.301005
 20
154.981378
 30
0.0
 10
133.232948
 20
154.048907
 30
0.0
  0
LINE
  5
10f
100
AcDbEntity
  8
Layer_2
 62
7
100
AcDbLine
 10
133.232948
 20
154.048907
 30
0.0
 11
133.960881
 21
154.777501
 31
0.0
  0
SPLINE
  5
110
100
AcDbEntity
  8
Layer_2
 62
7
100
AcDbSpline
 70
8
 71
3
 72
8
 73
4
 74
0
 40
0
 40
0
 40
0
 40
0
 40
1
 40
1
 40
1
 40
1
 10
98.646697
 20
146.049953
 30
0.0
 10
97.278998
 20
147.519799
 30
0.0
 10
96.510178
 20
149.512377
 30
0.0
 10
96.508976
 20
151.590357
 30
0.0
  0
SPLINE
  5
111
100
AcDbEntity
  8
Layer_2
 62
7
100
AcDbSpline
 70
8
 71
3
 72
8
 73
4
 74
0
 40
0
 40
0
 40
0
 40
0
 40
1
 40
1
 40
1
 40
1
 10
99.667481
 20
147.031296
 30
0.0
 10
98.629613
 20
148.324820
 30
0.0
 10
98.057399
 20
149.930062
 30
0.0
 10
98.043018
 20
151.588423
 30
0.0
  0
LINE
  5
112
100
AcDbEntity
  8
Layer_2
 62
7
100
AcDbLine
 10
96.393480
 20
151.588367
 30
0.0
 11
98.164588
 21
151.588367
 31
0.0
  0
LINE
  5
113
100
AcDbEntity
  8
Layer_2
 62
7
100
AcDbLine
 10
99.821399
 20
147.015529
 30
0.0
 11
98.463097
 21
146.083360
 31
0.0
  0
SPLINE
  5
114
100
AcDbEntity
  8
Layer_2
 62
7
100
AcDbSpline
 70
8
 71
3
 72
8
 73
4
 74
0
 40
0
 40
0
 40
0
 40
0
 40
1
 40
1
 40
1
 40
1
 10
98.966824
 20
157.696079
 30
0.0
 10
100.639775
 20
159.457423
 30
0.0
 10
102.962469
 20
160.454716
 30
0.0
 10
105.391687
 20
160.454717
 30
0.0
  0
SPLINE
  5
115
100
AcDbEntity
  8
Layer_2
 62
7
100
AcDbSpline
 70
8
 71
3
 72
8
 73
4
 74
0
 40
0
 40
0
 40
0
 40
0
 40
1
 40
1
 40
1
 40
1
 10
105.391687
 20
160.454717
 30
0.0
 10
105.400153
 20
160.454717
 30
0.0
 10
105.408620
 20
160.454704
 30
0.0
 10
105.417087
 20
160.454680
 30
0.0
  0
SPLINE
  5
116
100
AcDbEntity
  8
Layer_2
 62
7
100
AcDbSpline
 70
8
 71
3
 72
8
 73
4
 74
0
 40
0
 40
0
 40
0
 40
0
 40
1
 40
1
 40
1
 40
1
 10
100.060811
 20
156.762544
 30
0.0
 10
101.389527
 20
158.154109
 30
0.0
 10
103.388493
 20
159.009441
 30
0.0
 10
105.545024
 20
159.109169
 30
0.0
  0
LINE
  5
117
100
AcDbEntity
  8
Layer_2
 62
7
100
AcDbLine
 10
105.417391
 20
158.984601
 30
0.0
 11
105.417391
 21
160.593570
 31
0.0
  0
LINE
  5
118
100
AcDbEntity
  8
Layer_2
 62
7
100
AcDbLine
 10
99.057446
 20
157.798438
 30
0.0
 11
100.202783
 21
156.815645
 31
0.0
  0
SPLINE
  5
119
100
AcDbEntity
  8
Layer_2
 62
7
100
AcDbSpline
 70
8
 71
3
 72
8
 73
4
 74
0
 40
0
 40
0
 40
0
 40
0
 40
1
 40
1
 40
1
 40
1
 10
112.810911
 20
151.588387
 30
0.0
 10
112.810450
 20
151.534815
 30
0.0
 10
112.809405
 20
151.481250
 30
0.0
 10
112.807778
 20
151.427701
 30
0.0
  0
SPLINE
  5
11a
100
AcDbEntity
  8
Layer_2
 62
7
100
AcDbSpline
 70
8
 71
3
 72
8
 73
4
 74
0
 40
0
 40
0
 40
0
 40
0
 40
1
 40
1
 40
1
 40
1
 10
112.806000
 20
151.929221
 30
0.0
 10
112.809460
 20
151.837007
 30
0.0
 10
112.811192
 20
151.744736
 30
0.0
 10
112.811193
 20
151.652457
 30
0.0
  0
SPLINE
  5
11b
100
AcDbEntity
  8
Layer_2
 62
7
100
AcDbSpline
 70
8
 71
3
 72
8
 73
4
 74
0
 40
0
 40
0
 40
0
 40
0
 40
1
 40
1
 40
1
 40
1
 10
112.811193
 20
151.652457
 30
0.0
 10
112.811193
 20
151.652457
 30
0.0
 10
112.811193
 20
151.652457
 30
0.0
 10
112.811193
 20
151.652457
 30
0.0
  0
SPLINE
  5
11c
100
AcDbEntity
  8
Layer_2
 62
7
100
AcDbSpline
 70
8
 71
3
 72
8
 73
4
 74
0
 40
0
 40
0
 40
0
 40
0
 40
1
 40
1
 40
1
 40
1
 10
112.811193
 20
151.652457
 30
0.0
 10
112.811194
 20
151.631100
 30
0.0
 10
112.811101
 20
151.609743
 30
0.0
 10
112.810917
 20
151.588387
 30
0.0
  0
SPLINE
  5
11d
100
AcDbEntity
  8
Layer_2
 62
7
100
AcDbSpline
 70
8
 71
3
 72
8
 73
4
 74
0
 40
0
 40
0
 40
0
 40
0
 40
1
 40
1
 40
1
 40
1
 10
114.154743
 20
152.907931
 30
0.0
 10
114.219992
 20
152.472878
 30
0.0
 10
114.252753
 20
152.033569
 30
0.0
 10
114.252753
 20
151.593650
 30
0.0
  0
SPLINE
  5
11e
100
AcDbEntity
  8
Layer_2
 62
7
100
AcDbSpline
 70
8
 71
3
 72
8
 73
4
 74
0
 40
0
 40
0
 40
0
 40
0
 40
1
 40
1
 40
1
 40
1
 10
114.252753
 20
151.593650
 30
0.0
 10
114.252753
 20
151.593650
 30
0.0
 10
114.252753
 20
151.593650
 30
0.0
 10
114.252753
 20
151.593650
 30
0.0
  0
SPLINE
  5
11f
100
AcDbEntity
  8
Layer_2
 62
7
100
AcDbSpline
 70
8
 71
3
 72
8
 73
4
 74
0
 40
0
 40
0
 40
0
 40
0
 40
1
 40
1
 40
1
 40
1
 10
114.252753
 20
151.593650
 30
0.0
 10
114.252753
 20
151.591816
 30
0.0
 10
114.252752
 20
151.589981
 30
0.0
 10
114.252750
 20
151.588147
 30
0.0
  0
SPLINE
  5
120
100
AcDbEntity
  8
Layer_2
 62
7
100
AcDbSpline
 70
8
 71
3
 72
8
 73
4
 74
0
 40
0
 40
0
 40
0
 40
0
 40
1
 40
1
 40
1
 40
1
 10
111.619408
 20
157.897140
 30
0.0
 10
112.981297
 20
156.551621
 30
0.0
 10
113.870789
 20
154.801217
 30
0.0
 10
114.154743
 20
152.907931
 30
0.0
  0
SPLINE
  5
121
100
AcDbEntity
  8
Layer_2
 62
7
100
AcDbSpline
 70
8
 71
3
 72
8
 73
4
 74
0
 40
0
 40
0
 40
0
 40
0
 40
1
 40
1
 40
1
 40
1
 10
110.658083
 20
156.864190
 30
0.0
 10
111.969400
 20
155.547996
 30
0.0
 10
112.736364
 20
153.785849
 30
0.0
 10
112.806000
 20
151.929221
 30
0.0
  0
LINE
  5
122
100
AcDbEntity
  8
Layer_2
 62
7
100
AcDbLine
 10
110.649300
 20
156.737963
 30
0.0
 11
111.696785
 21
157.793093
 31
0.0
  0
LINE
  5
123
100
AcDbEntity
  8
Layer_2
 62
7
100
AcDbLine
 10
112.707612
 20
151.588367
 30
0.0
 11
114.391412
 21
151.588367
 31
0.0
  0
SPLINE
  5
124
100
AcDbEntity
  8
Layer_2
 62
7
100
AcDbSpline
 70
8
 71
3
 72
8
 73
4
 74
0
 40
0
 40
0
 40
0
 40
0
 40
1
 40
1
 40
1
 40
1
 10
111.650026
 20
145.320561
 30
0.0
 10
109.995085
 20
143.669510
 30
0.0
 10
107.754757
 20
142.739319
 30
0.0
 10
105.417075
 20
142.732620
 30
0.0
  0
SPLINE
  5
125
100
AcDbEntity
  8
Layer_2
 62
7
100
AcDbSpline
 70
8
 71
3
 72
8
 73
4
 74
0
 40
0
 40
0
 40
0
 40
0
 40
1
 40
1
 40
1
 40
1
 10
110.593869
 20
146.377055
 30
0.0
 10
109.213729
 20
145.025299
 30
0.0
 10
107.358811
 20
144.268233
 30
0.0
 10
105.426964
 20
144.268234
 30
0.0
  0
SPLINE
  5
126
100
AcDbEntity
  8
Layer_2
 62
7
100
AcDbSpline
 70
8
 71
3
 72
8
 73
4
 74
0
 40
0
 40
0
 40
0
 40
0
 40
1
 40
1
 40
1
 40
1
 10
105.426964
 20
144.268234
 30
0.0
 10
105.423653
 20
144.268233
 30
0.0
 10
105.420342
 20
144.268235
 30
0.0
 10
105.417030
 20
144.268239
 30
0.0
  0
LINE
  5
127
100
AcDbEntity
  8
Layer_2
 62
7
100
AcDbLine
 10
110.481257
 20
146.299991
 30
0.0
 11
111.578844
 21
145.202406
 31
0.0
  0
LINE
  5
128
100
AcDbEntity
  8
Layer_2
 62
7
100
AcDbLine
 10
105.417391
 20
144.385455
 30
0.0
 11
105.417391
 21
142.595638
 31
0.0
  0
ENDSEC
  0
SECTION
  2
OBJECTS
  0
DICTIONARY
  5
C
330
0
100
AcDbDictionary
  3
ACAD_GROUP
350
D
  3
ACAD_MLINESTYLE
350
17
  0
DICTIONARY
  5
D
330
C
100
AcDbDictionary
  0
DICTIONARY
  5
1A
330
C
100
AcDbDictionary
  0
DICTIONARY
  5
17
330
C
100
AcDbDictionary
  3
STANDARD
350
18
  0
DICTIONARY
  5
19
330
C
100
AcDbDictionary
  0
ENDSEC
  0
EOF
