<?xml version="1.0" encoding="UTF-8" standalone="no"?>
<!-- Created with Inkscape (http://www.inkscape.org/) -->

<svg
   xmlns:dc="http://purl.org/dc/elements/1.1/"
   xmlns:cc="http://creativecommons.org/ns#"
   xmlns:rdf="http://www.w3.org/1999/02/22-rdf-syntax-ns#"
   xmlns:svg="http://www.w3.org/2000/svg"
   xmlns="http://www.w3.org/2000/svg"
   xmlns:sodipodi="http://sodipodi.sourceforge.net/DTD/sodipodi-0.dtd"
   xmlns:inkscape="http://www.inkscape.org/namespaces/inkscape"
   width="210mm"
   height="297mm"
   viewBox="0 0 744.09448819 1052.3622047"
   id="svg208691"
   version="1.1"
   inkscape:version="0.91 r13725"
   sodipodi:docname="Eyes.svg">
  <defs
     id="defs208693" />
  <sodipodi:namedview
     id="base"
     pagecolor="#ffffff"
     bordercolor="#666666"
     borderopacity="1.0"
     inkscape:pageopacity="0.0"
     inkscape:pageshadow="2"
     inkscape:zoom="5.6"
     inkscape:cx="418.27516"
     inkscape:cy="539.29331"
     inkscape:document-units="px"
     inkscape:current-layer="layer1"
     showgrid="false"
     inkscape:window-width="1366"
     inkscape:window-height="705"
     inkscape:window-x="-8"
     inkscape:window-y="-8"
     inkscape:window-maximized="1" />
  <metadata
     id="metadata208696">
    <rdf:RDF>
      <cc:Work
         rdf:about="">
        <dc:format>image/svg+xml</dc:format>
        <dc:type
           rdf:resource="http://purl.org/dc/dcmitype/StillImage" />
        <dc:title></dc:title>
      </cc:Work>
    </rdf:RDF>
  </metadata>
  <g
     inkscape:label="Layer 1"
     inkscape:groupmode="layer"
     id="layer1"
     style="display:none">
    <path
       style="display:inline;fill:none;stroke:#000000;stroke-width:0.89999998;stroke-linecap:round"
       d="m 482.23559,519.41795 a 23.056355,23.056355 0 1 0 -46.11271,0 23.056355,23.056355 0 0 0 46.11271,0 z"
       id="path85086"
       inkscape:connector-curvature="0" />
    <path
       style="display:inline;fill:none;stroke:#000000;stroke-width:0.89998037;stroke-linecap:round"
       d="m 406.24869,515.21935 a 32.813577,32.813577 0 1 0 -65.62715,0 32.813577,32.813577 0 1 0 65.62715,0 z"
       id="path85088"
       inkscape:connector-curvature="0" />
  </g>
  <g
     inkscape:groupmode="layer"
     id="layer2"
     inkscape:label="Layer 2"
     style="display:inline">
    <path
       style="display:inline;fill:none;stroke:#000000;stroke-width:0.85468632;stroke-linecap:round"
       d="m 443.69443,503.93784 c -3.96244,3.96363 -6.41253,9.43916 -6.4107,15.48673 l 3.64927,0.004 c -0.003,-5.0406 2.03837,-9.60478 5.3405,-12.9088 z m 0.005,30.96505 c 3.96213,3.96098 9.435,6.4107 15.47999,6.4107 l -1.8e-4,-3.6494 c -5.03652,0 -9.59658,-2.04068 -12.89826,-5.34049 z m 30.96011,0 c 3.96217,-3.96097 6.41355,-9.43319 6.41538,-15.47817 l -3.64944,0.004 c -0.003,5.03652 -2.04619,9.59546 -5.3479,12.89528 z m 0.005,-30.9649 c -3.96249,-3.96364 -9.43736,-6.41538 -15.48493,-6.41538 l -1.8e-4,3.64911 c 5.04061,0 9.60366,2.04387 12.90582,5.3479 z"
       id="path85086-6"
       inkscape:connector-curvature="0"
       sodipodi:nodetypes="cccccccccccccccccccc" />
    <g
       transform="translate(196.92627,-199.83417)"
       style="display:inline"
       id="g208627">
      <g
         id="g208621">
        <path
           style="fill:none;fill-opacity:0.25490196;stroke:#000000;stroke-width:0.84109569;stroke-miterlimit:4;stroke-dasharray:none;stroke-opacity:1"
           d="m 152.60927,734.69654 a 25.88221,27.796622 0 0 1 -7.5746,-19.63135"
           id="path208427"
           inkscape:connector-curvature="0" />
        <path
           inkscape:connector-curvature="0"
           style="display:inline;fill:none;fill-opacity:0.25490196;stroke:#000000;stroke-width:0.8204692;stroke-miterlimit:4;stroke-dasharray:none;stroke-opacity:1"
           d="m 156.22622,731.21934 a 26.164568,26.164568 0 0 1 -5.75597,-16.1473"
           id="path208418" />
        <path
           style="fill:none;fill-rule:evenodd;stroke:#000000;stroke-width:1.10640764px;stroke-linecap:butt;stroke-linejoin:miter;stroke-opacity:1"
           d="m 144.62543,715.07224 6.27558,0"
           id="path208463"
           inkscape:connector-curvature="0" />
        <path
           style="fill:none;fill-rule:evenodd;stroke:#000000;stroke-width:1.06767666px;stroke-linecap:butt;stroke-linejoin:miter;stroke-opacity:1"
           d="m 156.7716,731.27521 -4.81288,3.30296"
           id="path208469"
           inkscape:connector-curvature="0"
           sodipodi:nodetypes="cc" />
      </g>
      <g
         id="g208584">
        <path
           inkscape:connector-curvature="0"
           style="fill:none;fill-opacity:0.25490196;stroke:#000000;stroke-width:0.98456305;stroke-miterlimit:4;stroke-dasharray:none;stroke-opacity:1"
           d="m 153.74358,693.43074 a 31.397482,31.397482 0 0 1 22.76526,-9.7747 31.397482,31.397482 0 0 1 0.09,1.3e-4"
           id="path208411" />
        <path
           style="display:inline;fill:none;fill-opacity:0.25490196;stroke:#000000;stroke-width:0.75260514;stroke-miterlimit:4;stroke-dasharray:none;stroke-opacity:1"
           d="m 157.61991,696.73854 a 26.550176,21.69549 0 0 1 19.43225,-8.31481"
           id="path208404"
           inkscape:connector-curvature="0" />
        <path
           style="fill:none;fill-rule:evenodd;stroke:#000000;stroke-width:1.05454671px;stroke-linecap:butt;stroke-linejoin:miter;stroke-opacity:1"
           d="m 176.59992,688.86511 0,-5.70107"
           id="path208461"
           inkscape:connector-curvature="0" />
        <path
           style="fill:none;fill-rule:evenodd;stroke:#000000;stroke-width:1.01065361px;stroke-linecap:butt;stroke-linejoin:miter;stroke-opacity:1"
           d="m 154.06468,693.06805 4.05828,3.48234"
           id="path208471"
           inkscape:connector-curvature="0" />
      </g>
      <g
         id="g208604">
        <path
           inkscape:connector-curvature="0"
           style="display:inline;fill:none;fill-opacity:0.25490196;stroke:#000000;stroke-width:0.8204692;stroke-miterlimit:4;stroke-dasharray:none;stroke-opacity:1"
           d="m 202.79743,715.07217 a 26.164568,26.164568 0 0 1 -0.0111,0.56936"
           id="path208387" />
        <path
           inkscape:connector-curvature="0"
           style="display:inline;fill:none;fill-opacity:0.25490196;stroke:#000000;stroke-width:0.8204692;stroke-miterlimit:4;stroke-dasharray:none;stroke-opacity:1"
           d="m 202.78003,713.86449 a 26.164568,26.164568 0 0 1 0.0184,0.98066 l 0,0 a 26.164568,26.164568 0 0 1 -9.8e-4,0.22702"
           id="path208452" />
        <g
           id="g208596">
          <path
             inkscape:connector-curvature="0"
             id="path208459"
             d="m 207.55904,710.39662 a 31.397482,31.397482 0 0 1 0.34728,4.6569 l 0,0 a 31.397482,31.397482 0 0 1 -1e-5,0.0195"
             style="fill:none;fill-opacity:0.25490196;stroke:#000000;stroke-width:0.98456305;stroke-miterlimit:4;stroke-dasharray:none;stroke-opacity:1" />
          <g
             id="g208590">
            <path
               inkscape:connector-curvature="0"
               style="fill:none;fill-opacity:0.25490196;stroke:#000000;stroke-width:0.98456305;stroke-miterlimit:4;stroke-dasharray:none;stroke-opacity:1"
               d="m 198.57557,692.71832 a 31.397482,31.397482 0 0 1 8.98347,17.6783"
               id="path208457" />
            <path
               inkscape:connector-curvature="0"
               style="display:inline;fill:none;fill-opacity:0.25490196;stroke:#000000;stroke-width:0.8204692;stroke-miterlimit:4;stroke-dasharray:none;stroke-opacity:1"
               d="m 195.1693,696.37838 a 26.164568,26.164568 0 0 1 7.61073,17.48611"
               id="path208450" />
            <path
               style="fill:none;fill-rule:evenodd;stroke:#000000;stroke-width:1.06703472px;stroke-linecap:butt;stroke-linejoin:miter;stroke-opacity:1"
               d="m 195.13818,696.82564 3.71156,-3.73865"
               id="path208467"
               inkscape:connector-curvature="0" />
            <path
               style="fill:none;fill-rule:evenodd;stroke:#000000;stroke-width:1.11803401px;stroke-linecap:butt;stroke-linejoin:miter;stroke-opacity:1"
               d="m 202.43141,715.07224 5.96622,0"
               id="path208473"
               inkscape:connector-curvature="0" />
          </g>
        </g>
      </g>
      <g
         id="g208615">
        <path
           inkscape:connector-curvature="0"
           style="fill:none;fill-opacity:0.25490196;stroke:#000000;stroke-width:0.98456305;stroke-miterlimit:4;stroke-dasharray:none;stroke-opacity:1"
           d="m 198.68406,737.281 a 31.397482,31.397482 0 0 1 -22.08526,9.16987"
           id="path208445" />
        <path
           inkscape:connector-curvature="0"
           style="display:inline;fill:none;fill-opacity:0.25490196;stroke:#000000;stroke-width:0.8204692;stroke-miterlimit:4;stroke-dasharray:none;stroke-opacity:1"
           d="m 194.94177,733.53752 a 26.164568,26.164568 0 0 1 -18.30793,7.4722 26.164568,26.164568 0 0 1 -0.0352,-2e-5"
           id="path208436" />
        <path
           style="fill:none;fill-rule:evenodd;stroke:#000000;stroke-width:1px;stroke-linecap:butt;stroke-linejoin:miter;stroke-opacity:1"
           d="m 194.54275,733.81058 3.88909,3.88908"
           id="path208465"
           inkscape:connector-curvature="0" />
        <path
           style="fill:none;fill-rule:evenodd;stroke:#000000;stroke-width:1.17465186px;stroke-linecap:butt;stroke-linejoin:miter;stroke-opacity:1"
           d="m 176.59992,740.59437 0,6.34187"
           id="path208475"
           inkscape:connector-curvature="0" />
      </g>
    </g>
  </g>
</svg>
