  0
SECTION
  2
HEADER
  9
$ACADVER
  1
AC1014
  9
$HANDSEED
  5
FFFF
  9
$MEASUREMENT
 70
     1
  0
ENDSEC
  0
SECTION
  2
TABLES
  0
TABLE
  2
VPORT
  5
8
330
0
100
AcDbSymbolTable
 70
     4
  0
VPORT
  5
2E
330
8
100
AcDbSymbolTableRecord
100
AcDbViewportTableRecord
  2
*ACTIVE
 70
     0
 10
0.0
 20
0.0
 11
1.0
 21
1.0
 12
210.0
 22
148.5
 13
0.0
 23
0.0
 14
10.0
 24
10.0
 15
10.0
 25
10.0
 16
0.0
 26
0.0
 36
1.0
 17
0.0
 27
0.0
 37
0.0
 40
341.0
 41
1.24
 42
50.0
 43
0.0
 44
0.0
 50
0.0
 51
0.0
 71
     0
 72
   100
 73
     1
 74
     3
 75
     0
 76
     0
 77
     0
 78
     0
  0
ENDTAB
  0
TABLE
  2
LTYPE
  5
5
330
0
100
AcDbSymbolTable
 70
     1
  0
LTYPE
  5
14
330
5
100
AcDbSymbolTableRecord
100
AcDbLinetypeTableRecord
  2
BYBLOCK
 70
     0
  3

 72
    65
 73
     0
 40
0.0
  0
LTYPE
  5
15
330
5
100
AcDbSymbolTableRecord
100
AcDbLinetypeTableRecord
  2
BYLAYER
 70
     0
  3

 72
    65
 73
     0
 40
0.0
  0
LTYPE
  5
16
330
5
100
AcDbSymbolTableRecord
100
AcDbLinetypeTableRecord
  2
CONTINUOUS
 70
     0
  3
Solid line
 72
    65
 73
     0
 40
0.0
  0
ENDTAB
  0
TABLE
  2
LAYER
  5
2
100
AcDbSymbolTable
 70
3
  0
LAYER
  5
50
100
AcDbSymbolTableRecord
100
AcDbLayerTableRecord
  2
0
 70
0
  6
CONTINUOUS
  0
LAYER
  5
51
100
AcDbSymbolTableRecord
100
AcDbLayerTableRecord
  2
Layer_1
 70
0
  6
CONTINUOUS
  0
LAYER
  5
52
100
AcDbSymbolTableRecord
100
AcDbLayerTableRecord
  2
Layer_2
 70
0
  6
CONTINUOUS
  0
ENDTAB
  0
TABLE
  2
STYLE
  5
3
330
0
100
AcDbSymbolTable
 70
     1
  0
STYLE
  5
11
330
3
100
AcDbSymbolTableRecord
100
AcDbTextStyleTableRecord
  2
STANDARD
 70
     0
 40
0.0
 41
1.0
 50
0.0
 71
     0
 42
2.5
  3
txt
  4

  0
ENDTAB
  0
TABLE
  2
VIEW
  5
6
330
0
100
AcDbSymbolTable
 70
     0
  0
ENDTAB
  0
TABLE
  2
UCS
  5
7
330
0
100
AcDbSymbolTable
 70
     0
  0
ENDTAB
  0
TABLE
  2
APPID
  5
9
330
0
100
AcDbSymbolTable
 70
     2
  0
APPID
  5
12
330
9
100
AcDbSymbolTableRecord
100
AcDbRegAppTableRecord
  2
ACAD
 70
     0
  0
ENDTAB
  0
TABLE
  2
DIMSTYLE
  5
A
330
0
100
AcDbSymbolTable
 70
     1
  0
DIMSTYLE
105
27
330
A
100
AcDbSymbolTableRecord
100
AcDbDimStyleTableRecord
  2
ISO-25
 70
     0
  3

  4

  5

  6

  7

 40
1.0
 41
2.5
 42
0.625
 43
3.75
 44
1.25
 45
0.0
 46
0.0
 47
0.0
 48
0.0
140
2.5
141
2.5
142
0.0
143
0.03937007874016
144
1.0
145
0.0
146
1.0
147
0.625
 71
     0
 72
     0
 73
     0
 74
     0
 75
     0
 76
     0
 77
     1
 78
     8
170
     0
171
     3
172
     1
173
     0
174
     0
175
     0
176
     0
177
     0
178
     0
270
     2
271
     2
272
     2
273
     2
274
     3
340
11
275
     0
280
     0
281
     0
282
     0
283
     0
284
     8
285
     0
286
     0
287
     3
288
     0
  0
ENDTAB
  0
TABLE
  2
BLOCK_RECORD
  5
1
330
0
100
AcDbSymbolTable
 70
     1
  0
BLOCK_RECORD
  5
1F
330
1
100
AcDbSymbolTableRecord
100
AcDbBlockTableRecord
  2
*MODEL_SPACE
  0
BLOCK_RECORD
  5
1B
330
1
100
AcDbSymbolTableRecord
100
AcDbBlockTableRecord
  2
*PAPER_SPACE
  0
ENDTAB
  0
ENDSEC
  0
SECTION
  2
BLOCKS
  0
BLOCK
  5
20
330
1F
100
AcDbEntity
  8
0
100
AcDbBlockBegin
  2
*MODEL_SPACE
 70
     0
 10
0.0
 20
0.0
 30
0.0
  3
*MODEL_SPACE
  1

  0
ENDBLK
  5
21
330
1F
100
AcDbEntity
  8
0
100
AcDbBlockEnd
  0
BLOCK
  5
1C
330
1B
100
AcDbEntity
 67
     1
  8
0
100
AcDbBlockBegin
  2
*PAPER_SPACE
  1

  0
ENDBLK
  5
1D
330
1B
100
AcDbEntity
 67
     1
  8
0
100
AcDbBlockEnd
  0
ENDSEC
  0
SECTION
  2
ENTITIES
  0
LWPOLYLINE
  5
100
100
AcDbEntity
  8
Layer_1
 62
7
100
AcDbPolyline
 90
513
 70
1
 10
136.097600
 20
150.408712
 30
0.0
 10
136.097035
 20
150.492814
 30
0.0
 10
136.095342
 20
150.576662
 30
0.0
 10
136.092802
 20
150.660245
 30
0.0
 10
136.089105
 20
150.743563
 30
0.0
 10
136.084364
 20
150.826604
 30
0.0
 10
136.078606
 20
150.909366
 30
0.0
 10
136.071805
 20
150.991837
 30
0.0
 10
136.063987
 20
151.074017
 30
0.0
 10
136.055154
 20
151.155895
 30
0.0
 10
136.045304
 20
151.237469
 30
0.0
 10
136.034467
 20
151.318726
 30
0.0
 10
136.022613
 20
151.399667
 30
0.0
 10
136.009772
 20
151.480281
 30
0.0
 10
135.995943
 20
151.560562
 30
0.0
 10
135.981155
 20
151.640505
 30
0.0
 10
135.965379
 20
151.720103
 30
0.0
 10
135.948643
 20
151.799351
 30
0.0
 10
135.930948
 20
151.878237
 30
0.0
 10
135.912293
 20
151.956763
 30
0.0
 10
135.892707
 20
152.034916
 30
0.0
 10
135.872189
 20
152.112693
 30
0.0
 10
135.850712
 20
152.190087
 30
0.0
 10
135.828332
 20
152.267092
 30
0.0
 10
135.805020
 20
152.343701
 30
0.0
 10
135.780805
 20
152.419906
 30
0.0
 10
135.755688
 20
152.495703
 30
0.0
 10
135.729667
 20
152.571084
 30
0.0
 10
135.702743
 20
152.646043
 30
0.0
 10
135.674944
 20
152.720575
 30
0.0
 10
135.646250
 20
152.794672
 30
0.0
 10
135.616685
 20
152.868327
 30
0.0
 10
135.586247
 20
152.941538
 30
0.0
 10
135.554946
 20
153.014292
 30
0.0
 10
135.522792
 20
153.086589
 30
0.0
 10
135.489786
 20
153.158417
 30
0.0
 10
135.455937
 20
153.229774
 30
0.0
 10
135.421251
 20
153.300649
 30
0.0
 10
135.385737
 20
153.371041
 30
0.0
 10
135.349395
 20
153.440941
 30
0.0
 10
135.312237
 20
153.510343
 30
0.0
 10
135.274270
 20
153.579239
 30
0.0
 10
135.235496
 20
153.647624
 30
0.0
 10
135.195922
 20
153.715493
 30
0.0
 10
135.155556
 20
153.782837
 30
0.0
 10
135.114405
 20
153.849650
 30
0.0
 10
135.072476
 20
153.915927
 30
0.0
 10
135.029773
 20
153.981662
 30
0.0
 10
134.986305
 20
154.046847
 30
0.0
 10
134.942075
 20
154.111476
 30
0.0
 10
134.897089
 20
154.175543
 30
0.0
 10
134.851357
 20
154.239040
 30
0.0
 10
134.804887
 20
154.301962
 30
0.0
 10
134.757679
 20
154.364305
 30
0.0
 10
134.709744
 20
154.426058
 30
0.0
 10
134.661086
 20
154.487218
 30
0.0
 10
134.611714
 20
154.547777
 30
0.0
 10
134.561631
 20
154.607730
 30
0.0
 10
134.510848
 20
154.667070
 30
0.0
 10
134.459365
 20
154.725789
 30
0.0
 10
134.407196
 20
154.783882
 30
0.0
 10
134.354341
 20
154.841342
 30
0.0
 10
134.300809
 20
154.898165
 30
0.0
 10
134.246606
 20
154.954341
 30
0.0
 10
134.191739
 20
155.009865
 30
0.0
 10
134.136215
 20
155.064732
 30
0.0
 10
134.080038
 20
155.118936
 30
0.0
 10
134.023216
 20
155.172468
 30
0.0
 10
133.965755
 20
155.225322
 30
0.0
 10
133.907660
 20
155.277494
 30
0.0
 10
133.848941
 20
155.328974
 30
0.0
 10
133.789603
 20
155.379760
 30
0.0
 10
133.729651
 20
155.429840
 30
0.0
 10
133.669092
 20
155.479212
 30
0.0
 10
133.607931
 20
155.527870
 30
0.0
 10
133.546178
 20
155.575806
 30
0.0
 10
133.483835
 20
155.623013
 30
0.0
 10
133.420911
 20
155.669487
 30
0.0
 10
133.357414
 20
155.715218
 30
0.0
 10
133.293347
 20
155.760201
 30
0.0
 10
133.228718
 20
155.804431
 30
0.0
 10
133.163533
 20
155.847899
 30
0.0
 10
133.097801
 20
155.890602
 30
0.0
 10
133.031524
 20
155.932532
 30
0.0
 10
132.964707
 20
155.973683
 30
0.0
 10
132.897364
 20
156.014049
 30
0.0
 10
132.829498
 20
156.053622
 30
0.0
 10
132.761109
 20
156.092397
 30
0.0
 10
132.692213
 20
156.130364
 30
0.0
 10
132.622812
 20
156.167521
 30
0.0
 10
132.552914
 20
156.203863
 30
0.0
 10
132.482522
 20
156.239378
 30
0.0
 10
132.411645
 20
156.274063
 30
0.0
 10
132.340288
 20
156.307913
 30
0.0
 10
132.268460
 20
156.340916
 30
0.0
 10
132.196163
 20
156.373072
 30
0.0
 10
132.123409
 20
156.404373
 30
0.0
 10
132.050200
 20
156.434808
 30
0.0
 10
131.976543
 20
156.464377
 30
0.0
 10
131.902446
 20
156.493070
 30
0.0
 10
131.827913
 20
156.520869
 30
0.0
 10
131.752955
 20
156.547793
 30
0.0
 10
131.677574
 20
156.573814
 30
0.0
 10
131.601777
 20
156.598932
 30
0.0
 10
131.525572
 20
156.623146
 30
0.0
 10
131.448962
 20
156.646458
 30
0.0
 10
131.371961
 20
156.668838
 30
0.0
 10
131.294567
 20
156.690287
 30
0.0
 10
131.216789
 20
156.710805
 30
0.0
 10
131.138634
 20
156.730391
 30
0.0
 10
131.060111
 20
156.749046
 30
0.0
 10
130.981221
 20
156.766741
 30
0.0
 10
130.901973
 20
156.783477
 30
0.0
 10
130.822375
 20
156.799253
 30
0.0
 10
130.742433
 20
156.814042
 30
0.0
 10
130.662152
 20
156.827870
 30
0.0
 10
130.581538
 20
156.840712
 30
0.0
 10
130.500600
 20
156.852565
 30
0.0
 10
130.419340
 20
156.863402
 30
0.0
 10
130.337769
 20
156.873252
 30
0.0
 10
130.255888
 20
156.882085
 30
0.0
 10
130.173710
 20
156.889903
 30
0.0
 10
130.091236
 20
156.896704
 30
0.0
 10
130.008475
 20
156.902462
 30
0.0
 10
129.925434
 20
156.907203
 30
0.0
 10
129.842119
 20
156.910900
 30
0.0
 10
129.758533
 20
156.913440
 30
0.0
 10
129.674688
 20
156.915134
 30
0.0
 10
129.590583
 20
156.915698
 30
0.0
 10
129.506480
 20
156.915134
 30
0.0
 10
129.422635
 20
156.913440
 30
0.0
 10
129.339049
 20
156.910900
 30
0.0
 10
129.255734
 20
156.907203
 30
0.0
 10
129.172693
 20
156.902462
 30
0.0
 10
129.089932
 20
156.896704
 30
0.0
 10
129.007458
 20
156.889903
 30
0.0
 10
128.925280
 20
156.882085
 30
0.0
 10
128.843399
 20
156.873252
 30
0.0
 10
128.761829
 20
156.863402
 30
0.0
 10
128.680568
 20
156.852565
 30
0.0
 10
128.599630
 20
156.840712
 30
0.0
 10
128.519016
 20
156.827870
 30
0.0
 10
128.438735
 20
156.814042
 30
0.0
 10
128.358793
 20
156.799253
 30
0.0
 10
128.279195
 20
156.783477
 30
0.0
 10
128.199947
 20
156.766741
 30
0.0
 10
128.121057
 20
156.749046
 30
0.0
 10
128.042535
 20
156.730391
 30
0.0
 10
127.964379
 20
156.710805
 30
0.0
 10
127.886601
 20
156.690287
 30
0.0
 10
127.809207
 20
156.668838
 30
0.0
 10
127.732206
 20
156.646458
 30
0.0
 10
127.655597
 20
156.623146
 30
0.0
 10
127.579391
 20
156.598932
 30
0.0
 10
127.503595
 20
156.573814
 30
0.0
 10
127.428213
 20
156.547793
 30
0.0
 10
127.353255
 20
156.520869
 30
0.0
 10
127.278723
 20
156.493070
 30
0.0
 10
127.204625
 20
156.464377
 30
0.0
 10
127.130968
 20
156.434808
 30
0.0
 10
127.057760
 20
156.404373
 30
0.0
 10
126.985006
 20
156.373072
 30
0.0
 10
126.912709
 20
156.340916
 30
0.0
 10
126.840880
 20
156.307913
 30
0.0
 10
126.769523
 20
156.274063
 30
0.0
 10
126.698646
 20
156.239378
 30
0.0
 10
126.628254
 20
156.203863
 30
0.0
 10
126.558356
 20
156.167521
 30
0.0
 10
126.488955
 20
156.130364
 30
0.0
 10
126.420059
 20
156.092397
 30
0.0
 10
126.351671
 20
156.053622
 30
0.0
 10
126.283805
 20
156.014049
 30
0.0
 10
126.216461
 20
155.973683
 30
0.0
 10
126.149645
 20
155.932532
 30
0.0
 10
126.083368
 20
155.890602
 30
0.0
 10
126.017635
 20
155.847899
 30
0.0
 10
125.952450
 20
155.804431
 30
0.0
 10
125.887821
 20
155.760201
 30
0.0
 10
125.823754
 20
155.715218
 30
0.0
 10
125.760257
 20
155.669487
 30
0.0
 10
125.697333
 20
155.623013
 30
0.0
 10
125.634990
 20
155.575806
 30
0.0
 10
125.573237
 20
155.527870
 30
0.0
 10
125.512076
 20
155.479212
 30
0.0
 10
125.451517
 20
155.429840
 30
0.0
 10
125.391565
 20
155.379760
 30
0.0
 10
125.332228
 20
155.328974
 30
0.0
 10
125.273508
 20
155.277494
 30
0.0
 10
125.215413
 20
155.225322
 30
0.0
 10
125.157952
 20
155.172468
 30
0.0
 10
125.101130
 20
155.118936
 30
0.0
 10
125.044954
 20
155.064732
 30
0.0
 10
124.989429
 20
155.009865
 30
0.0
 10
124.934562
 20
154.954341
 30
0.0
 10
124.880359
 20
154.898165
 30
0.0
 10
124.826827
 20
154.841342
 30
0.0
 10
124.773972
 20
154.783882
 30
0.0
 10
124.721803
 20
154.725789
 30
0.0
 10
124.670320
 20
154.667070
 30
0.0
 10
124.619537
 20
154.607730
 30
0.0
 10
124.569454
 20
154.547777
 30
0.0
 10
124.520082
 20
154.487218
 30
0.0
 10
124.471424
 20
154.426058
 30
0.0
 10
124.423489
 20
154.364305
 30
0.0
 10
124.376282
 20
154.301962
 30
0.0
 10
124.329811
 20
154.239040
 30
0.0
 10
124.284080
 20
154.175543
 30
0.0
 10
124.239093
 20
154.111476
 30
0.0
 10
124.194864
 20
154.046847
 30
0.0
 10
124.151396
 20
153.981662
 30
0.0
 10
124.108693
 20
153.915927
 30
0.0
 10
124.066763
 20
153.849650
 30
0.0
 10
124.025612
 20
153.782837
 30
0.0
 10
123.985246
 20
153.715493
 30
0.0
 10
123.945673
 20
153.647624
 30
0.0
 10
123.906898
 20
153.579239
 30
0.0
 10
123.868931
 20
153.510343
 30
0.0
 10
123.831773
 20
153.440941
 30
0.0
 10
123.795432
 20
153.371041
 30
0.0
 10
123.759917
 20
153.300649
 30
0.0
 10
123.725232
 20
153.229774
 30
0.0
 10
123.691382
 20
153.158417
 30
0.0
 10
123.658376
 20
153.086589
 30
0.0
 10
123.626222
 20
153.014292
 30
0.0
 10
123.594921
 20
152.941538
 30
0.0
 10
123.564483
 20
152.868327
 30
0.0
 10
123.534918
 20
152.794672
 30
0.0
 10
123.506224
 20
152.720575
 30
0.0
 10
123.478425
 20
152.646043
 30
0.0
 10
123.451501
 20
152.571084
 30
0.0
 10
123.425481
 20
152.495703
 30
0.0
 10
123.400363
 20
152.419906
 30
0.0
 10
123.376148
 20
152.343701
 30
0.0
 10
123.352837
 20
152.267092
 30
0.0
 10
123.330456
 20
152.190087
 30
0.0
 10
123.308979
 20
152.112693
 30
0.0
 10
123.288462
 20
152.034916
 30
0.0
 10
123.268875
 20
151.956763
 30
0.0
 10
123.250221
 20
151.878237
 30
0.0
 10
123.232525
 20
151.799351
 30
0.0
 10
123.215789
 20
151.720103
 30
0.0
 10
123.200013
 20
151.640505
 30
0.0
 10
123.185225
 20
151.560562
 30
0.0
 10
123.171396
 20
151.480281
 30
0.0
 10
123.158555
 20
151.399667
 30
0.0
 10
123.146701
 20
151.318726
 30
0.0
 10
123.135836
 20
151.237469
 30
0.0
 10
123.125986
 20
151.155895
 30
0.0
 10
123.117153
 20
151.074017
 30
0.0
 10
123.109335
 20
150.991837
 30
0.0
 10
123.102534
 20
150.909366
 30
0.0
 10
123.096776
 20
150.826604
 30
0.0
 10
123.092035
 20
150.743563
 30
0.0
 10
123.088338
 20
150.660245
 30
0.0
 10
123.085798
 20
150.576662
 30
0.0
 10
123.084105
 20
150.492814
 30
0.0
 10
123.083540
 20
150.408712
 30
0.0
 10
123.084105
 20
150.324610
 30
0.0
 10
123.085798
 20
150.240761
 30
0.0
 10
123.088338
 20
150.157179
 30
0.0
 10
123.092035
 20
150.073861
 30
0.0
 10
123.096776
 20
149.990820
 30
0.0
 10
123.102534
 20
149.908058
 30
0.0
 10
123.109335
 20
149.825587
 30
0.0
 10
123.117153
 20
149.743407
 30
0.0
 10
123.125986
 20
149.661529
 30
0.0
 10
123.135836
 20
149.579955
 30
0.0
 10
123.146701
 20
149.498698
 30
0.0
 10
123.158555
 20
149.417756
 30
0.0
 10
123.171396
 20
149.337142
 30
0.0
 10
123.185225
 20
149.256861
 30
0.0
 10
123.200013
 20
149.176919
 30
0.0
 10
123.215789
 20
149.097321
 30
0.0
 10
123.232525
 20
149.018073
 30
0.0
 10
123.250221
 20
148.939186
 30
0.0
 10
123.268875
 20
148.860661
 30
0.0
 10
123.288462
 20
148.782508
 30
0.0
 10
123.308979
 20
148.704730
 30
0.0
 10
123.330456
 20
148.627337
 30
0.0
 10
123.352837
 20
148.550332
 30
0.0
 10
123.376148
 20
148.473723
 30
0.0
 10
123.400363
 20
148.397517
 30
0.0
 10
123.425481
 20
148.321721
 30
0.0
 10
123.451501
 20
148.246339
 30
0.0
 10
123.478425
 20
148.171381
 30
0.0
 10
123.506224
 20
148.096849
 30
0.0
 10
123.534918
 20
148.022752
 30
0.0
 10
123.564483
 20
147.949097
 30
0.0
 10
123.594921
 20
147.875886
 30
0.0
 10
123.626222
 20
147.803132
 30
0.0
 10
123.658376
 20
147.730835
 30
0.0
 10
123.691382
 20
147.659007
 30
0.0
 10
123.725232
 20
147.587650
 30
0.0
 10
123.759917
 20
147.516775
 30
0.0
 10
123.795432
 20
147.446383
 30
0.0
 10
123.831773
 20
147.376482
 30
0.0
 10
123.868931
 20
147.307081
 30
0.0
 10
123.906898
 20
147.238185
 30
0.0
 10
123.945673
 20
147.169800
 30
0.0
 10
123.985246
 20
147.101931
 30
0.0
 10
124.025612
 20
147.034587
 30
0.0
 10
124.066763
 20
146.967774
 30
0.0
 10
124.108693
 20
146.901497
 30
0.0
 10
124.151396
 20
146.835762
 30
0.0
 10
124.194864
 20
146.770577
 30
0.0
 10
124.239093
 20
146.705948
 30
0.0
 10
124.284080
 20
146.641881
 30
0.0
 10
124.329811
 20
146.578383
 30
0.0
 10
124.376282
 20
146.515462
 30
0.0
 10
124.423489
 20
146.453119
 30
0.0
 10
124.471424
 20
146.391366
 30
0.0
 10
124.520082
 20
146.330206
 30
0.0
 10
124.569454
 20
146.269646
 30
0.0
 10
124.619537
 20
146.209694
 30
0.0
 10
124.670320
 20
146.150354
 30
0.0
 10
124.721803
 20
146.091635
 30
0.0
 10
124.773972
 20
146.033542
 30
0.0
 10
124.826827
 20
145.976082
 30
0.0
 10
124.880359
 20
145.919259
 30
0.0
 10
124.934562
 20
145.863083
 30
0.0
 10
124.989429
 20
145.807558
 30
0.0
 10
125.044954
 20
145.752692
 30
0.0
 10
125.101130
 20
145.698488
 30
0.0
 10
125.157952
 20
145.644956
 30
0.0
 10
125.215413
 20
145.592101
 30
0.0
 10
125.273508
 20
145.539930
 30
0.0
 10
125.332228
 20
145.488450
 30
0.0
 10
125.391565
 20
145.437664
 30
0.0
 10
125.451517
 20
145.387583
 30
0.0
 10
125.512076
 20
145.338211
 30
0.0
 10
125.573237
 20
145.289554
 30
0.0
 10
125.634990
 20
145.241618
 30
0.0
 10
125.697333
 20
145.194411
 30
0.0
 10
125.760257
 20
145.147937
 30
0.0
 10
125.823754
 20
145.102206
 30
0.0
 10
125.887821
 20
145.057223
 30
0.0
 10
125.952450
 20
145.012993
 30
0.0
 10
126.017635
 20
144.969525
 30
0.0
 10
126.083368
 20
144.926822
 30
0.0
 10
126.149645
 20
144.884892
 30
0.0
 10
126.216461
 20
144.843741
 30
0.0
 10
126.283805
 20
144.803375
 30
0.0
 10
126.351671
 20
144.763802
 30
0.0
 10
126.420059
 20
144.725027
 30
0.0
 10
126.488955
 20
144.687060
 30
0.0
 10
126.558356
 20
144.649903
 30
0.0
 10
126.628254
 20
144.613561
 30
0.0
 10
126.698646
 20
144.578046
 30
0.0
 10
126.769523
 20
144.543361
 30
0.0
 10
126.840880
 20
144.509511
 30
0.0
 10
126.912709
 20
144.476508
 30
0.0
 10
126.985006
 20
144.444352
 30
0.0
 10
127.057760
 20
144.413050
 30
0.0
 10
127.130968
 20
144.382616
 30
0.0
 10
127.204625
 20
144.353047
 30
0.0
 10
127.278723
 20
144.324354
 30
0.0
 10
127.353255
 20
144.296555
 30
0.0
 10
127.428213
 20
144.269631
 30
0.0
 10
127.503595
 20
144.243610
 30
0.0
 10
127.579391
 20
144.218492
 30
0.0
 10
127.655597
 20
144.194277
 30
0.0
 10
127.732206
 20
144.170966
 30
0.0
 10
127.809207
 20
144.148586
 30
0.0
 10
127.886601
 20
144.127137
 30
0.0
 10
127.964379
 20
144.106619
 30
0.0
 10
128.042535
 20
144.087033
 30
0.0
 10
128.121057
 20
144.068378
 30
0.0
 10
128.199947
 20
144.050683
 30
0.0
 10
128.279195
 20
144.033947
 30
0.0
 10
128.358793
 20
144.018171
 30
0.0
 10
128.438735
 20
144.003382
 30
0.0
 10
128.519016
 20
143.989553
 30
0.0
 10
128.599630
 20
143.976712
 30
0.0
 10
128.680568
 20
143.964859
 30
0.0
 10
128.761829
 20
143.954022
 30
0.0
 10
128.843399
 20
143.944172
 30
0.0
 10
128.925280
 20
143.935338
 30
0.0
 10
129.007458
 20
143.927521
 30
0.0
 10
129.089932
 20
143.920719
 30
0.0
 10
129.172693
 20
143.914962
 30
0.0
 10
129.255734
 20
143.910221
 30
0.0
 10
129.339049
 20
143.906524
 30
0.0
 10
129.422635
 20
143.903984
 30
0.0
 10
129.506480
 20
143.902290
 30
0.0
 10
129.590583
 20
143.901726
 30
0.0
 10
129.674688
 20
143.902290
 30
0.0
 10
129.758533
 20
143.903984
 30
0.0
 10
129.842119
 20
143.906524
 30
0.0
 10
129.925434
 20
143.910221
 30
0.0
 10
130.008475
 20
143.914962
 30
0.0
 10
130.091236
 20
143.920719
 30
0.0
 10
130.173710
 20
143.927521
 30
0.0
 10
130.255888
 20
143.935338
 30
0.0
 10
130.337769
 20
143.944172
 30
0.0
 10
130.419340
 20
143.954022
 30
0.0
 10
130.500600
 20
143.964859
 30
0.0
 10
130.581538
 20
143.976712
 30
0.0
 10
130.662152
 20
143.989553
 30
0.0
 10
130.742433
 20
144.003382
 30
0.0
 10
130.822375
 20
144.018171
 30
0.0
 10
130.901973
 20
144.033947
 30
0.0
 10
130.981221
 20
144.050683
 30
0.0
 10
131.060111
 20
144.068378
 30
0.0
 10
131.138634
 20
144.087033
 30
0.0
 10
131.216789
 20
144.106619
 30
0.0
 10
131.294567
 20
144.127137
 30
0.0
 10
131.371961
 20
144.148586
 30
0.0
 10
131.448962
 20
144.170966
 30
0.0
 10
131.525572
 20
144.194277
 30
0.0
 10
131.601777
 20
144.218492
 30
0.0
 10
131.677574
 20
144.243610
 30
0.0
 10
131.752955
 20
144.269631
 30
0.0
 10
131.827913
 20
144.296555
 30
0.0
 10
131.902446
 20
144.324354
 30
0.0
 10
131.976543
 20
144.353047
 30
0.0
 10
132.050200
 20
144.382616
 30
0.0
 10
132.123409
 20
144.413050
 30
0.0
 10
132.196163
 20
144.444352
 30
0.0
 10
132.268460
 20
144.476508
 30
0.0
 10
132.340288
 20
144.509511
 30
0.0
 10
132.411645
 20
144.543361
 30
0.0
 10
132.482522
 20
144.578046
 30
0.0
 10
132.552914
 20
144.613561
 30
0.0
 10
132.622812
 20
144.649903
 30
0.0
 10
132.692213
 20
144.687060
 30
0.0
 10
132.761109
 20
144.725027
 30
0.0
 10
132.829498
 20
144.763802
 30
0.0
 10
132.897364
 20
144.803375
 30
0.0
 10
132.964707
 20
144.843741
 30
0.0
 10
133.031524
 20
144.884892
 30
0.0
 10
133.097801
 20
144.926822
 30
0.0
 10
133.163533
 20
144.969525
 30
0.0
 10
133.228718
 20
145.012993
 30
0.0
 10
133.293347
 20
145.057223
 30
0.0
 10
133.357414
 20
145.102206
 30
0.0
 10
133.420911
 20
145.147937
 30
0.0
 10
133.483835
 20
145.194411
 30
0.0
 10
133.546178
 20
145.241618
 30
0.0
 10
133.607931
 20
145.289554
 30
0.0
 10
133.669092
 20
145.338211
 30
0.0
 10
133.729651
 20
145.387583
 30
0.0
 10
133.789603
 20
145.437664
 30
0.0
 10
133.848941
 20
145.488450
 30
0.0
 10
133.907660
 20
145.539930
 30
0.0
 10
133.965755
 20
145.592101
 30
0.0
 10
134.023216
 20
145.644956
 30
0.0
 10
134.080038
 20
145.698488
 30
0.0
 10
134.136215
 20
145.752692
 30
0.0
 10
134.191739
 20
145.807558
 30
0.0
 10
134.246606
 20
145.863083
 30
0.0
 10
134.300809
 20
145.919259
 30
0.0
 10
134.354341
 20
145.976082
 30
0.0
 10
134.407196
 20
146.033542
 30
0.0
 10
134.459365
 20
146.091635
 30
0.0
 10
134.510848
 20
146.150354
 30
0.0
 10
134.561631
 20
146.209694
 30
0.0
 10
134.611714
 20
146.269646
 30
0.0
 10
134.661086
 20
146.330206
 30
0.0
 10
134.709744
 20
146.391366
 30
0.0
 10
134.757679
 20
146.453119
 30
0.0
 10
134.804887
 20
146.515462
 30
0.0
 10
134.851357
 20
146.578383
 30
0.0
 10
134.897089
 20
146.641881
 30
0.0
 10
134.942075
 20
146.705948
 30
0.0
 10
134.986305
 20
146.770577
 30
0.0
 10
135.029773
 20
146.835762
 30
0.0
 10
135.072476
 20
146.901497
 30
0.0
 10
135.114405
 20
146.967774
 30
0.0
 10
135.155556
 20
147.034587
 30
0.0
 10
135.195922
 20
147.101931
 30
0.0
 10
135.235496
 20
147.169800
 30
0.0
 10
135.274270
 20
147.238185
 30
0.0
 10
135.312237
 20
147.307081
 30
0.0
 10
135.349395
 20
147.376482
 30
0.0
 10
135.385737
 20
147.446383
 30
0.0
 10
135.421251
 20
147.516775
 30
0.0
 10
135.455937
 20
147.587650
 30
0.0
 10
135.489786
 20
147.659007
 30
0.0
 10
135.522792
 20
147.730835
 30
0.0
 10
135.554946
 20
147.803132
 30
0.0
 10
135.586247
 20
147.875886
 30
0.0
 10
135.616685
 20
147.949097
 30
0.0
 10
135.646250
 20
148.022752
 30
0.0
 10
135.674944
 20
148.096849
 30
0.0
 10
135.702743
 20
148.171381
 30
0.0
 10
135.729667
 20
148.246339
 30
0.0
 10
135.755688
 20
148.321721
 30
0.0
 10
135.780805
 20
148.397517
 30
0.0
 10
135.805020
 20
148.473723
 30
0.0
 10
135.828332
 20
148.550332
 30
0.0
 10
135.850712
 20
148.627337
 30
0.0
 10
135.872189
 20
148.704730
 30
0.0
 10
135.892707
 20
148.782508
 30
0.0
 10
135.912293
 20
148.860661
 30
0.0
 10
135.930948
 20
148.939186
 30
0.0
 10
135.948643
 20
149.018073
 30
0.0
 10
135.965379
 20
149.097321
 30
0.0
 10
135.981155
 20
149.176919
 30
0.0
 10
135.995943
 20
149.256861
 30
0.0
 10
136.009772
 20
149.337142
 30
0.0
 10
136.022613
 20
149.417756
 30
0.0
 10
136.034467
 20
149.498698
 30
0.0
 10
136.045304
 20
149.579955
 30
0.0
 10
136.055154
 20
149.661529
 30
0.0
 10
136.063987
 20
149.743407
 30
0.0
 10
136.071805
 20
149.825587
 30
0.0
 10
136.078606
 20
149.908058
 30
0.0
 10
136.084364
 20
149.990820
 30
0.0
 10
136.089105
 20
150.073861
 30
0.0
 10
136.092802
 20
150.157179
 30
0.0
 10
136.095342
 20
150.240761
 30
0.0
 10
136.097035
 20
150.324610
 30
0.0
 10
136.097600
 20
150.408712
 30
0.0
  0
LWPOLYLINE
  5
101
100
AcDbEntity
  8
Layer_1
 62
7
100
AcDbPolyline
 90
226
 70
1
 10
114.652408
 20
151.593650
 30
0.0
 10
114.640527
 20
152.070326
 30
0.0
 10
114.604913
 20
152.540751
 30
0.0
 10
114.546154
 20
153.004338
 30
0.0
 10
114.464838
 20
153.460511
 30
0.0
 10
114.361539
 20
153.908682
 30
0.0
 10
114.236844
 20
154.348274
 30
0.0
 10
114.091336
 20
154.778700
 30
0.0
 10
113.925596
 20
155.199380
 30
0.0
 10
113.740204
 20
155.609729
 30
0.0
 10
113.535742
 20
156.009169
 30
0.0
 10
113.312798
 20
156.397115
 30
0.0
 10
113.071950
 20
156.772984
 30
0.0
 10
112.813778
 20
157.136195
 30
0.0
 10
112.538868
 20
157.486168
 30
0.0
 10
112.247801
 20
157.822314
 30
0.0
 10
111.941158
 20
158.144059
 30
0.0
 10
111.619521
 20
158.450812
 30
0.0
 10
111.283476
 20
158.741998
 30
0.0
 10
110.933600
 20
159.017029
 30
0.0
 10
110.570478
 20
159.275327
 30
0.0
 10
110.194694
 20
159.516305
 30
0.0
 10
109.806825
 20
159.739388
 30
0.0
 10
109.407458
 20
159.943985
 30
0.0
 10
108.997171
 20
160.129520
 30
0.0
 10
108.576547
 20
160.295408
 30
0.0
 10
108.146173
 20
160.441066
 30
0.0
 10
107.706626
 20
160.565915
 30
0.0
 10
107.258491
 20
160.669369
 30
0.0
 10
106.802346
 20
160.750847
 30
0.0
 10
106.338779
 20
160.809766
 30
0.0
 10
105.868368
 20
160.845544
 30
0.0
 10
105.391695
 20
160.857595
 30
0.0
 10
104.915025
 20
160.845544
 30
0.0
 10
104.444614
 20
160.809766
 30
0.0
 10
103.981047
 20
160.750847
 30
0.0
 10
103.524902
 20
160.669369
 30
0.0
 10
103.076767
 20
160.565915
 30
0.0
 10
102.637220
 20
160.441066
 30
0.0
 10
102.206846
 20
160.295408
 30
0.0
 10
101.786222
 20
160.129520
 30
0.0
 10
101.375935
 20
159.943985
 30
0.0
 10
100.976568
 20
159.739388
 30
0.0
 10
100.588699
 20
159.516305
 30
0.0
 10
100.212914
 20
159.275327
 30
0.0
 10
99.849793
 20
159.017029
 30
0.0
 10
99.499917
 20
158.741998
 30
0.0
 10
99.163872
 20
158.450812
 30
0.0
 10
98.842235
 20
158.144059
 30
0.0
 10
98.535592
 20
157.822314
 30
0.0
 10
98.244525
 20
157.486168
 30
0.0
 10
97.969615
 20
157.136195
 30
0.0
 10
97.711443
 20
156.772984
 30
0.0
 10
97.470595
 20
156.397115
 30
0.0
 10
97.247651
 20
156.009169
 30
0.0
 10
97.043189
 20
155.609729
 30
0.0
 10
96.857797
 20
155.199380
 30
0.0
 10
96.692057
 20
154.778700
 30
0.0
 10
96.546549
 20
154.348274
 30
0.0
 10
96.421854
 20
153.908682
 30
0.0
 10
96.318555
 20
153.460511
 30
0.0
 10
96.237239
 20
153.004338
 30
0.0
 10
96.178480
 20
152.540751
 30
0.0
 10
96.142866
 20
152.070326
 30
0.0
 10
96.130985
 20
151.593650
 30
0.0
 10
96.131832
 20
151.473926
 30
0.0
 10
96.134089
 20
151.354566
 30
0.0
 10
96.137815
 20
151.235581
 30
0.0
 10
96.143036
 20
151.116974
 30
0.0
 10
96.149724
 20
150.998760
 30
0.0
 10
96.157909
 20
150.880943
 30
0.0
 10
96.167561
 20
150.763539
 30
0.0
 10
96.178652
 20
150.646549
 30
0.0
 10
96.191183
 20
150.529988
 30
0.0
 10
96.205153
 20
150.413865
 30
0.0
 10
96.220562
 20
150.298185
 30
0.0
 10
96.237383
 20
150.182962
 30
0.0
 10
96.255614
 20
150.068199
 30
0.0
 10
96.275257
 20
149.953911
 30
0.0
 10
96.296282
 20
149.840105
 30
0.0
 10
96.318691
 20
149.726790
 30
0.0
 10
96.342482
 20
149.613974
 30
0.0
 10
96.367628
 20
149.501667
 30
0.0
 10
96.394129
 20
149.389878
 30
0.0
 10
96.421984
 20
149.278618
 30
0.0
 10
96.451174
 20
149.167894
 30
0.0
 10
96.481694
 20
149.057714
 30
0.0
 10
96.513531
 20
148.948088
 30
0.0
 10
96.546678
 20
148.839026
 30
0.0
 10
96.581127
 20
148.730540
 30
0.0
 10
96.616867
 20
148.622632
 30
0.0
 10
96.653892
 20
148.515317
 30
0.0
 10
96.692187
 20
148.408600
 30
0.0
 10
96.731749
 20
148.302493
 30
0.0
 10
96.772566
 20
148.197007
 30
0.0
 10
96.814629
 20
148.092144
 30
0.0
 10
96.857927
 20
147.987920
 30
0.0
 10
96.902456
 20
147.884341
 30
0.0
 10
96.948204
 20
147.781418
 30
0.0
 10
96.995161
 20
147.679157
 30
0.0
 10
97.043319
 20
147.577571
 30
0.0
 10
97.092668
 20
147.476666
 30
0.0
 10
97.143203
 20
147.376451
 30
0.0
 10
97.194909
 20
147.276937
 30
0.0
 10
97.247781
 20
147.178131
 30
0.0
 10
97.301806
 20
147.080045
 30
0.0
 10
97.356978
 20
146.982684
 30
0.0
 10
97.413287
 20
146.886062
 30
0.0
 10
97.470725
 20
146.790186
 30
0.0
 10
97.529280
 20
146.695063
 30
0.0
 10
97.588948
 20
146.600704
 30
0.0
 10
97.649716
 20
146.507119
 30
0.0
 10
97.711573
 20
146.414316
 30
0.0
 10
97.774514
 20
146.322303
 30
0.0
 10
97.838531
 20
146.231089
 30
0.0
 10
97.903609
 20
146.140688
 30
0.0
 10
97.969745
 20
146.051105
 30
0.0
 10
98.036925
 20
145.962346
 30
0.0
 10
98.105143
 20
145.874425
 30
0.0
 10
98.174389
 20
145.787351
 30
0.0
 10
98.244654
 20
145.701132
 30
0.0
 10
98.315930
 20
145.615777
 30
0.0
 10
98.388207
 20
145.531294
 30
0.0
 10
98.461472
 20
145.447694
 30
0.0
 10
98.535721
 20
145.364986
 30
0.0
 10
98.610945
 20
145.283175
 30
0.0
 10
98.687134
 20
145.202276
 30
0.0
 10
98.764276
 20
145.122295
 30
0.0
 10
98.842364
 20
145.043241
 30
0.0
 10
98.921392
 20
144.965125
 30
0.0
 10
99.001346
 20
144.887954
 30
0.0
 10
99.082217
 20
144.811740
 30
0.0
 10
99.164002
 20
144.736488
 30
0.0
 10
99.246684
 20
144.662210
 30
0.0
 10
99.330259
 20
144.588911
 30
0.0
 10
99.414717
 20
144.516609
 30
0.0
 10
99.500047
 20
144.445303
 30
0.0
 10
99.586243
 20
144.375007
 30
0.0
 10
99.673291
 20
144.305733
 30
0.0
 10
99.761190
 20
144.237483
 30
0.0
 10
99.849923
 20
144.170272
 30
0.0
 10
99.939483
 20
144.104105
 30
0.0
 10
100.029862
 20
144.038993
 30
0.0
 10
100.121054
 20
143.974948
 30
0.0
 10
100.213044
 20
143.911973
 30
0.0
 10
100.305825
 20
143.850082
 30
0.0
 10
100.399390
 20
143.789283
 30
0.0
 10
100.493728
 20
143.729584
 30
0.0
 10
100.588829
 20
143.670995
 30
0.0
 10
100.684686
 20
143.613523
 30
0.0
 10
100.781290
 20
143.557180
 30
0.0
 10
100.878629
 20
143.501972
 30
0.0
 10
100.976698
 20
143.447912
 30
0.0
 10
101.075484
 20
143.395007
 30
0.0
 10
101.174982
 20
143.343267
 30
0.0
 10
101.275176
 20
143.292699
 30
0.0
 10
101.376065
 20
143.243315
 30
0.0
 10
101.477637
 20
143.195120
 30
0.0
 10
101.579880
 20
143.148128
 30
0.0
 10
101.682790
 20
143.102345
 30
0.0
 10
101.786351
 20
143.057780
 30
0.0
 10
101.890562
 20
143.014445
 30
0.0
 10
101.995407
 20
142.972343
 30
0.0
 10
102.100882
 20
142.931491
 30
0.0
 10
102.206975
 20
142.891892
 30
0.0
 10
102.313675
 20
142.853558
 30
0.0
 10
102.420979
 20
142.816497
 30
0.0
 10
102.528872
 20
142.780719
 30
0.0
 10
102.637350
 20
142.746235
 30
0.0
 10
102.746398
 20
142.713048
 30
0.0
 10
102.856013
 20
142.681171
 30
0.0
 10
102.966181
 20
142.650615
 30
0.0
 10
103.076897
 20
142.621385
 30
0.0
 10
103.188149
 20
142.593502
 30
0.0
 10
103.299926
 20
142.566944
 30
0.0
 10
103.412225
 20
142.541770
 30
0.0
 10
103.525032
 20
142.517951
 30
0.0
 10
103.638342
 20
142.495514
 30
0.0
 10
103.752139
 20
142.474432
 30
0.0
 10
103.866422
 20
142.454761
 30
0.0
 10
103.981177
 20
142.436473
 30
0.0
 10
104.096394
 20
142.419596
 30
0.0
 10
104.212068
 20
142.404159
 30
0.0
 10
104.328189
 20
142.390132
 30
0.0
 10
104.444744
 20
142.377545
 30
0.0
 10
104.561727
 20
142.366397
 30
0.0
 10
104.679129
 20
142.356717
 30
0.0
 10
104.796943
 20
142.348504
 30
0.0
 10
104.915154
 20
142.341759
 30
0.0
 10
105.033758
 20
142.336510
 30
0.0
 10
105.152743
 20
142.332728
 30
0.0
 10
105.272103
 20
142.330470
 30
0.0
 10
105.391825
 20
142.329624
 30
0.0
 10
105.868498
 20
142.341675
 30
0.0
 10
106.338909
 20
142.377452
 30
0.0
 10
106.802476
 20
142.436372
 30
0.0
 10
107.258620
 20
142.517849
 30
0.0
 10
107.706755
 20
142.621303
 30
0.0
 10
108.146302
 20
142.746153
 30
0.0
 10
108.576677
 20
142.891810
 30
0.0
 10
108.997301
 20
143.057698
 30
0.0
 10
109.407587
 20
143.243234
 30
0.0
 10
109.806954
 20
143.447831
 30
0.0
 10
110.194824
 20
143.670913
 30
0.0
 10
110.570608
 20
143.911891
 30
0.0
 10
110.933730
 20
144.170190
 30
0.0
 10
111.283606
 20
144.445221
 30
0.0
 10
111.619651
 20
144.736406
 30
0.0
 10
111.941288
 20
145.043159
 30
0.0
 10
112.247931
 20
145.364904
 30
0.0
 10
112.538998
 20
145.701050
 30
0.0
 10
112.813908
 20
146.051023
 30
0.0
 10
113.072079
 20
146.414235
 30
0.0
 10
113.312928
 20
146.790104
 30
0.0
 10
113.535872
 20
147.178049
 30
0.0
 10
113.740334
 20
147.577490
 30
0.0
 10
113.925725
 20
147.987838
 30
0.0
 10
114.091466
 20
148.408518
 30
0.0
 10
114.236974
 20
148.838944
 30
0.0
 10
114.361668
 20
149.278536
 30
0.0
 10
114.464967
 20
149.726708
 30
0.0
 10
114.546284
 20
150.182880
 30
0.0
 10
114.605043
 20
150.646467
 30
0.0
 10
114.640656
 20
151.116892
 30
0.0
 10
114.652538
 20
151.593568
 30
0.0
 10
114.652408
 20
151.593650
 30
0.0
  0
ENDSEC
  0
SECTION
  2
OBJECTS
  0
DICTIONARY
  5
C
330
0
100
AcDbDictionary
  3
ACAD_GROUP
350
D
  3
ACAD_MLINESTYLE
350
17
  0
DICTIONARY
  5
D
330
C
100
AcDbDictionary
  0
DICTIONARY
  5
1A
330
C
100
AcDbDictionary
  0
DICTIONARY
  5
17
330
C
100
AcDbDictionary
  3
STANDARD
350
18
  0
DICTIONARY
  5
19
330
C
100
AcDbDictionary
  0
ENDSEC
  0
EOF
