%MOIN*%
%OFA0B0*%
%FSLAX46Y46*%
%IPPOS*%
%LPD*%
%AMREC47*
4,1,3,
-0.048458923562427321,0.010275280281731542,
-0.016965385239338496,-0.046540566835591407,
0.048458923562427321,-0.010275280281731542,
0.016965385239338496,0.046540566835591407,
0*%
%AMREC48*
4,1,3,
-0.037464587762598936,0.010742797670281145,
-0.010742797670281145,-0.037464587762598936,
0.037464587762598936,-0.010742797670281145,
0.010742797670281145,0.037464587762598936,
0*%
%AMREC49*
4,1,3,
-0.0352312075452709,0.0009073513787888431,
-0.017900217971110504,-0.030358581459107668,
0.0352312075452709,-0.0009073513787888431,
0.017900217971110504,0.030358581459107668,
0*%
%AMREC50*
4,1,3,
-0.049310112296344112,0.019931595090038546,
-0.0092274271578674134,-0.052379483059281584,
0.049310112296344112,-0.019931595090038546,
0.0092274271578674134,0.052379483059281584,
0*%
%AMREC51*
4,1,3,
-0.047401413004035692,0.016488210416261393,
-0.01113612645017583,-0.048936098385504431,
0.047401413004035692,-0.016488210416261393,
0.01113612645017583,0.048936098385504431,
0*%
%AMREC52*
4,1,3,
-0.048936098385504431,0.01113612645017583,
-0.016488210416261393,-0.047401413004035692,
0.048936098385504431,-0.01113612645017583,
0.016488210416261393,0.047401413004035692,
0*%
%AMREC53*
4,1,3,
-0.049796944553948716,0.010658951627098727,
-0.017349056584705681,-0.047878587827112795,
0.049796944553948716,-0.010658951627098727,
0.017349056584705681,0.047878587827112795,
0*%
%AMREC54*
4,1,3,
-0.11774584725388239,0.033763078392312178,
-0.033763078392312178,-0.11774584725388239,
0.11774584725388239,-0.033763078392312178,
0.033763078392312178,0.11774584725388239,
0*%
%AMREC2000*
4,1,3,
-0.022467250919606805,-0.044148287552437895,
0.040563770669188245,-0.028432888822538215,
0.022467250919606805,0.044148287552437895,
-0.040563770669188245,0.028432888822538215,
0*%
%AMREC2100*
4,1,3,
-0.020073294546198033,-0.033407572256415941,
0.033407572256415941,-0.020073294546198033,
0.020073294546198033,0.033407572256415941,
-0.033407572256415941,0.020073294546198033,
0*%
%AMREC2200*
4,1,3,
-0.0099949416249668823,-0.033795893441896867,
0.024691220558442757,-0.025147661898412683,
0.0099949416249668823,0.033795893441896867,
-0.024691220558442757,0.025147661898412683,
0*%
%AMREC2300*
4,1,3,
-0.032014838635042474,-0.042471234555679062,
0.0482064615688785,-0.0224698179903522,
0.032014838635042474,0.042471234555679062,
-0.0482064615688785,0.0224698179903522,
0*%
%AMREC2400*
4,1,3,
-0.028194776720570039,-0.041518786147806352,
0.044386399654406078,-0.023422266398224909,
0.028194776720570039,0.041518786147806352,
-0.044386399654406078,0.023422266398224909,
0*%
%AMREC2500*
4,1,3,
-0.023422266398224909,-0.044386399654406078,
0.041518786147806352,-0.028194776720570039,
0.023422266398224909,0.044386399654406078,
-0.041518786147806352,0.028194776720570039,
0*%
%AMREC2600*
4,1,3,
-0.023184154296256729,-0.045341415133024185,
0.041756898249774528,-0.029149792199188153,
0.023184154296256729,0.045341415133024185,
-0.041756898249774528,0.029149792199188153,
0*%
%AMREC2700*
4,1,3,
-0.063087497145193835,-0.10499522709159298,
0.10499522709159298,-0.063087497145193835,
0.063087497145193835,0.10499522709159298,
-0.10499522709159298,0.063087497145193835,
0*%
%AMCOMP1120*
4,1,3,
-0.022467250919606805,-0.044148287552437895,
0.040563770669188245,-0.028432888822538215,
0.022467250919606805,0.044148287552437895,
-0.040563770669188245,0.028432888822538215,
0*%
%AMCOMP1130*
4,1,3,
-0.020073294546198033,-0.033407572256415941,
0.033407572256415941,-0.020073294546198033,
0.020073294546198033,0.033407572256415941,
-0.033407572256415941,0.020073294546198033,
0*%
%AMCOMP1140*
4,1,3,
-0.0099949416249668823,-0.033795893441896867,
0.024691220558442757,-0.025147661898412683,
0.0099949416249668823,0.033795893441896867,
-0.024691220558442757,0.025147661898412683,
0*%
%AMCOMP1150*
4,1,3,
-0.032014838635042474,-0.042471234555679062,
0.0482064615688785,-0.0224698179903522,
0.032014838635042474,0.042471234555679062,
-0.0482064615688785,0.0224698179903522,
0*%
%AMCOMP1160*
4,1,3,
-0.028194776720570039,-0.041518786147806352,
0.044386399654406078,-0.023422266398224909,
0.028194776720570039,0.041518786147806352,
-0.044386399654406078,0.023422266398224909,
0*%
%AMCOMP1170*
4,1,3,
-0.023422266398224909,-0.044386399654406078,
0.041518786147806352,-0.028194776720570039,
0.023422266398224909,0.044386399654406078,
-0.041518786147806352,0.028194776720570039,
0*%
%AMCOMP1180*
4,1,3,
-0.023184154296256729,-0.045341415133024185,
0.041756898249774528,-0.029149792199188153,
0.023184154296256729,0.045341415133024185,
-0.041756898249774528,0.029149792199188153,
0*%
%AMCOMP1190*
4,1,3,
-0.063087497145193835,-0.10499522709159298,
0.10499522709159298,-0.063087497145193835,
0.063087497145193835,0.10499522709159298,
-0.10499522709159298,0.063087497145193835,
0*%
%ADD10C,0.0039370078740157488*%
%ADD11C,0.011811023622047244*%
%ADD12C,0.0047244094488188976*%
%ADD13C,0.005905511811023622*%
%AMCOMP120*
4,1,3,
-0.048458923562427321,0.010275280281731542,
-0.016965385239338496,-0.046540566835591407,
0.048458923562427321,-0.010275280281731542,
0.016965385239338496,0.046540566835591407,
0*%
%ADD14COMP120*%
%AMCOMP121*
4,1,3,
-0.037464587762598936,0.010742797670281145,
-0.010742797670281145,-0.037464587762598936,
0.037464587762598936,-0.010742797670281145,
0.010742797670281145,0.037464587762598936,
0*%
%ADD15COMP121*%
%AMCOMP122*
4,1,3,
-0.0352312075452709,0.0009073513787888431,
-0.017900217971110504,-0.030358581459107668,
0.0352312075452709,-0.0009073513787888431,
0.017900217971110504,0.030358581459107668,
0*%
%ADD16COMP122*%
%ADD17C,0.0905511811023622*%
%AMCOMP123*
4,1,3,
-0.049310112296344112,0.019931595090038546,
-0.0092274271578674134,-0.052379483059281584,
0.049310112296344112,-0.019931595090038546,
0.0092274271578674134,0.052379483059281584,
0*%
%ADD18COMP123*%
%ADD19C,0.13385826771653545*%
%AMCOMP124*
4,1,3,
-0.047401413004035692,0.016488210416261393,
-0.01113612645017583,-0.048936098385504431,
0.047401413004035692,-0.016488210416261393,
0.01113612645017583,0.048936098385504431,
0*%
%ADD20COMP124*%
%AMCOMP125*
4,1,3,
-0.048936098385504431,0.01113612645017583,
-0.016488210416261393,-0.047401413004035692,
0.048936098385504431,-0.01113612645017583,
0.016488210416261393,0.047401413004035692,
0*%
%ADD21COMP125*%
%AMCOMP126*
4,1,3,
-0.049796944553948716,0.010658951627098727,
-0.017349056584705681,-0.047878587827112795,
0.049796944553948716,-0.010658951627098727,
0.017349056584705681,0.047878587827112795,
0*%
%ADD22COMP126*%
%AMCOMP127*
4,1,3,
-0.11774584725388239,0.033763078392312178,
-0.033763078392312178,-0.11774584725388239,
0.11774584725388239,-0.033763078392312178,
0.033763078392312178,0.11774584725388239,
0*%
%ADD23COMP127*%
%ADD34C,0.0039370078740157488*%
%ADD35C,0.011811023622047244*%
%ADD36C,0.0047244094488188976*%
%ADD37C,0.005905511811023622*%
%ADD38R,0.064960629921259838X0.074803149606299218*%
%ADD39R,0.055118110236220472X0.055118110236220472*%
%ADD40R,0.035748031496062996X0.06074803149606299*%
%ADD41C,0.0905511811023622*%
%ADD42R,0.082677165354330714X0.066929133858267723*%
%ADD43C,0.13385826771653545*%
%ADD44R,0.074803149606299218X0.066929133858267723*%
%ADD45R,0.066929133858267723X0.074803149606299218*%
%ADD46R,0.066929133858267723X0.076771653543307089*%
%ADD47R,0.17322834645669294X0.17322834645669294*%
%ADD58C,0.0039370078740157488*%
%ADD59C,0.011811023622047244*%
%ADD60C,0.0047244094488188976*%
%ADD61C,0.005905511811023622*%
%AMCOMP128*
4,1,3,
-0.022467250919606805,-0.044148287552437895,
0.040563770669188245,-0.028432888822538215,
0.022467250919606805,0.044148287552437895,
-0.040563770669188245,0.028432888822538215,
0*%
%ADD62COMP128*%
%AMCOMP129*
4,1,3,
-0.020073294546198033,-0.033407572256415941,
0.033407572256415941,-0.020073294546198033,
0.020073294546198033,0.033407572256415941,
-0.033407572256415941,0.020073294546198033,
0*%
%ADD63COMP129*%
%AMCOMP130*
4,1,3,
-0.0099949416249668823,-0.033795893441896867,
0.024691220558442757,-0.025147661898412683,
0.0099949416249668823,0.033795893441896867,
-0.024691220558442757,0.025147661898412683,
0*%
%ADD64COMP130*%
%ADD65C,0.0905511811023622*%
%AMCOMP131*
4,1,3,
-0.032014838635042474,-0.042471234555679062,
0.0482064615688785,-0.0224698179903522,
0.032014838635042474,0.042471234555679062,
-0.0482064615688785,0.0224698179903522,
0*%
%ADD66COMP131*%
%ADD67C,0.13385826771653545*%
%AMCOMP132*
4,1,3,
-0.028194776720570039,-0.041518786147806352,
0.044386399654406078,-0.023422266398224909,
0.028194776720570039,0.041518786147806352,
-0.044386399654406078,0.023422266398224909,
0*%
%ADD68COMP132*%
%AMCOMP133*
4,1,3,
-0.023422266398224909,-0.044386399654406078,
0.041518786147806352,-0.028194776720570039,
0.023422266398224909,0.044386399654406078,
-0.041518786147806352,0.028194776720570039,
0*%
%ADD69COMP133*%
%AMCOMP134*
4,1,3,
-0.023184154296256729,-0.045341415133024185,
0.041756898249774528,-0.029149792199188153,
0.023184154296256729,0.045341415133024185,
-0.041756898249774528,0.029149792199188153,
0*%
%ADD70COMP134*%
%AMCOMP135*
4,1,3,
-0.063087497145193835,-0.10499522709159298,
0.10499522709159298,-0.063087497145193835,
0.063087497145193835,0.10499522709159298,
-0.10499522709159298,0.063087497145193835,
0*%
%ADD71COMP135*%
%LPD*%
G01*
D10*
D11*
X0000783321Y0001597821D02*
X0000771023Y0001591005D01*
X0000769125Y0001606029D02*
X0000771023Y0001591005D01*
X0000782759Y0001581433D01*
X0000757095Y0001592930D02*
X0000771023Y0001591005D01*
X0000765275Y0001578172D01*
D12*
X0000915959Y0001714107D02*
X0000950393Y0001733194D01*
X0000917945Y0001791732D02*
X0000883511Y0001772645D01*
X0001512125Y0000520845D02*
X0001570662Y0000553293D01*
X0001570662Y0000553293D02*
X0001510538Y0000661760D01*
X0001512125Y0000520845D02*
X0001452001Y0000629312D01*
X0001584436Y0000560928D02*
X0001642973Y0000593376D01*
X0001642973Y0000593376D02*
X0001582849Y0000701843D01*
X0001584436Y0000560928D02*
X0001524312Y0000669395D01*
D13*
X0000976488Y0001733705D02*
X0001073450Y0001558781D01*
X0001073450Y0001558781D02*
X0000916019Y0001471515D01*
X0000916019Y0001471515D02*
X0000819057Y0001646439D01*
X0000819057Y0001646439D02*
X0000976488Y0001733705D01*
X0000924011Y0001704616D02*
X0000933707Y0001687124D01*
X0000933707Y0001687124D02*
X0000889976Y0001662883D01*
X0000889976Y0001662883D02*
X0000880280Y0001680376D01*
D12*
X0001888989Y0000574672D02*
X0001933462Y0000494441D01*
X0001372826Y0000288558D02*
X0001413290Y0000215558D01*
X0001888989Y0000574672D02*
X0001372826Y0000288558D01*
X0002157925Y0000089499D02*
X0001641762Y-0000196614D01*
X0001989960Y0000392517D02*
X0002157925Y0000089499D01*
X0001477614Y0000099516D02*
X0001641762Y-0000196614D01*
X0001249665Y0000658949D02*
X0001226761Y0000700270D01*
X0001287364Y0000733863D02*
X0001310269Y0000692542D01*
X0001332306Y0000704758D02*
X0001309402Y0000746079D01*
X0001370005Y0000779672D02*
X0001392910Y0000738351D01*
X0001635879Y0000652463D02*
X0001612975Y0000693784D01*
X0001673578Y0000727377D02*
X0001696483Y0000686056D01*
X0000532539Y0001642467D02*
X0000573859Y0001665372D01*
X0000607452Y0001604768D02*
X0000566132Y0001581864D01*
X0001117026Y0001034665D02*
X0001116453Y0001035698D01*
X0000993724Y0001257108D02*
X0000994296Y0001256075D01*
X0001216166Y0001380410D02*
X0001216739Y0001379377D01*
X0001338896Y0001159000D02*
X0001339468Y0001157967D01*
X0001080188Y0001101123D02*
X0001030562Y0001190651D01*
X0001339468Y0001157967D02*
X0001117026Y0001034665D01*
X0001302630Y0001224425D02*
X0001253004Y0001313953D01*
X0001216166Y0001380410D02*
X0000993724Y0001257108D01*
D10*
X0000830439Y0000390417D02*
G75*
G03X0000830439Y0000390417I-0000214788J0000387487D01*
G01*
D13*
X0000892469Y0001799795D02*
X0000891738Y0001797247D01*
X0000887728Y0001792880D01*
X0000884448Y0001791063D01*
X0000878620Y0001789976D01*
X0000873523Y0001791437D01*
X0000870066Y0001793808D01*
X0000864790Y0001799458D01*
X0000862064Y0001804377D01*
X0000860068Y0001811845D01*
X0000859890Y0001816033D01*
X0000861351Y0001821130D01*
X0000865361Y0001825497D01*
X0000868641Y0001827314D01*
X0000874469Y0001828401D01*
X0000877017Y0001827670D01*
X0000927081Y0001814694D02*
X0000907404Y0001803787D01*
X0000917243Y0001809241D02*
X0000898156Y0001843675D01*
X0000897603Y0001836938D01*
X0000896141Y0001831840D01*
X0000893771Y0001828383D01*
X0001416293Y0000726019D02*
X0001450727Y0000745106D01*
X0001455272Y0000736908D01*
X0001456359Y0000731080D01*
X0001454897Y0000725983D01*
X0001452527Y0000722525D01*
X0001446877Y0000717250D01*
X0001441958Y0000714523D01*
X0001434490Y0000712527D01*
X0001430302Y0000712349D01*
X0001425204Y0000713811D01*
X0001420838Y0000717821D01*
X0001416293Y0000726019D01*
X0001467996Y0000713952D02*
X0001479812Y0000692636D01*
X0001460332Y0000696842D01*
X0001463059Y0000691923D01*
X0001463237Y0000687735D01*
X0001462506Y0000685186D01*
X0001460136Y0000681729D01*
X0001451937Y0000677184D01*
X0001447749Y0000677006D01*
X0001445200Y0000677737D01*
X0001441743Y0000680108D01*
X0001436289Y0000689946D01*
X0001436111Y0000694134D01*
X0001436842Y0000696683D01*
X0001490513Y0000762659D02*
X0001524947Y0000781746D01*
X0001529492Y0000773547D01*
X0001530579Y0000767719D01*
X0001529117Y0000762622D01*
X0001526746Y0000759164D01*
X0001521097Y0000753889D01*
X0001516177Y0000751162D01*
X0001508710Y0000749166D01*
X0001504521Y0000748988D01*
X0001499424Y0000750450D01*
X0001495058Y0000754460D01*
X0001490513Y0000762659D01*
X0001540736Y0000726192D02*
X0001517780Y0000713467D01*
X0001549309Y0000741662D02*
X0001520169Y0000736227D01*
X0001531985Y0000714911D01*
X0000991461Y0001500558D02*
X0001025895Y0001519645D01*
X0001014736Y0001466302D02*
X0001012188Y0001467033D01*
X0001007821Y0001471043D01*
X0001006004Y0001474323D01*
X0001004916Y0001480151D01*
X0001006378Y0001485248D01*
X0001008749Y0001488705D01*
X0001014399Y0001493981D01*
X0001019318Y0001496708D01*
X0001026785Y0001498703D01*
X0001030974Y0001498882D01*
X0001036071Y0001497420D01*
X0001040437Y0001493410D01*
X0001042255Y0001490130D01*
X0001043342Y0001484302D01*
X0001042611Y0001481754D01*
X0001029635Y0001431690D02*
X0001018728Y0001451367D01*
X0001024182Y0001441529D02*
X0001058615Y0001460616D01*
X0001051878Y0001461168D01*
X0001046781Y0001462630D01*
X0001043324Y0001465000D01*
X0001707512Y0000226169D02*
X0001688425Y0000260602D01*
X0001701543Y0000267874D01*
X0001705731Y0000268052D01*
X0001708280Y0000267321D01*
X0001711738Y0000264950D01*
X0001714464Y0000260031D01*
X0001714642Y0000255843D01*
X0001713912Y0000253294D01*
X0001711541Y0000249837D01*
X0001698423Y0000242566D01*
X0001759983Y0000255254D02*
X0001740307Y0000244347D01*
X0001750145Y0000249800D02*
X0001731058Y0000284234D01*
X0001730505Y0000277497D01*
X0001729044Y0000272400D01*
X0001726673Y0000268942D01*
X0001314095Y0000593682D02*
X0001324130Y0000614249D01*
X0001303188Y0000613359D02*
X0001337622Y0000632446D01*
X0001344893Y0000619328D01*
X0001345071Y0000615140D01*
X0001344340Y0000612591D01*
X0001341970Y0000609133D01*
X0001337051Y0000606407D01*
X0001332862Y0000606229D01*
X0001330314Y0000606959D01*
X0001326856Y0000609330D01*
X0001319585Y0000622448D01*
X0001332273Y0000560888D02*
X0001321366Y0000580564D01*
X0001326819Y0000570726D02*
X0001361253Y0000589813D01*
X0001354516Y0000590366D01*
X0001349419Y0000591827D01*
X0001345962Y0000594198D01*
X0001387821Y0000633649D02*
X0001397855Y0000654216D01*
X0001376914Y0000653325D02*
X0001411348Y0000672412D01*
X0001418619Y0000659295D01*
X0001418797Y0000655106D01*
X0001418066Y0000652558D01*
X0001415696Y0000649100D01*
X0001410777Y0000646373D01*
X0001406588Y0000646195D01*
X0001404040Y0000646926D01*
X0001400582Y0000649297D01*
X0001393311Y0000662414D01*
X0001426246Y0000637800D02*
X0001428795Y0000637069D01*
X0001432252Y0000634699D01*
X0001436797Y0000626500D01*
X0001436975Y0000622312D01*
X0001436244Y0000619763D01*
X0001433874Y0000616306D01*
X0001430594Y0000614488D01*
X0001424766Y0000613401D01*
X0001394183Y0000622171D01*
X0001405999Y0000600855D01*
X0001561445Y0000810915D02*
X0001571479Y0000831482D01*
X0001550538Y0000830592D02*
X0001584971Y0000849679D01*
X0001592243Y0000836561D01*
X0001592421Y0000832373D01*
X0001591690Y0000829824D01*
X0001589320Y0000826366D01*
X0001584400Y0000823640D01*
X0001580212Y0000823462D01*
X0001577663Y0000824192D01*
X0001574206Y0000826563D01*
X0001566935Y0000839681D01*
X0001602241Y0000818524D02*
X0001614056Y0000797208D01*
X0001594576Y0000801415D01*
X0001597303Y0000796495D01*
X0001597481Y0000792307D01*
X0001596750Y0000789759D01*
X0001594380Y0000786301D01*
X0001586181Y0000781757D01*
X0001581993Y0000781578D01*
X0001579445Y0000782309D01*
X0001575987Y0000784680D01*
X0001570534Y0000794518D01*
X0001570355Y0000798706D01*
X0001571086Y0000801255D01*
X0000549127Y0001666410D02*
X0000528560Y0001676444D01*
X0000529450Y0001655503D02*
X0000510363Y0001689937D01*
X0000523481Y0001697208D01*
X0000527669Y0001697386D01*
X0000530218Y0001696655D01*
X0000533675Y0001694285D01*
X0000536402Y0001689366D01*
X0000536580Y0001685177D01*
X0000535849Y0001682629D01*
X0000533479Y0001679171D01*
X0000520361Y0001671900D01*
X0000565917Y0001705726D02*
X0000578641Y0001682770D01*
X0000550447Y0001714299D02*
X0000555882Y0001685159D01*
X0000577198Y0001696975D01*
X0001205712Y0001028694D02*
X0001211540Y0001029781D01*
X0001219739Y0001034325D01*
X0001222109Y0001037783D01*
X0001222840Y0001040331D01*
X0001222662Y0001044520D01*
X0001220844Y0001047799D01*
X0001217387Y0001050170D01*
X0001214838Y0001050900D01*
X0001210650Y0001050722D01*
X0001203182Y0001048726D01*
X0001198994Y0001048548D01*
X0001196445Y0001049279D01*
X0001192988Y0001051650D01*
X0001191170Y0001054929D01*
X0001190992Y0001059117D01*
X0001191722Y0001061666D01*
X0001194093Y0001065123D01*
X0001202292Y0001069668D01*
X0001208120Y0001070755D01*
X0001218689Y0001078757D02*
X0001245974Y0001048868D01*
X0001238899Y0001077099D01*
X0001259092Y0001056139D01*
X0001248203Y0001095117D01*
X0001298445Y0001077953D02*
X0001278768Y0001067046D01*
X0001288606Y0001072499D02*
X0001269519Y0001106933D01*
X0001268967Y0001100196D01*
X0001267505Y0001095099D01*
X0001265135Y0001091641D01*
X0000277527Y0000630349D02*
X0000278614Y0000624521D01*
X0000277883Y0000621973D01*
X0000275512Y0000618515D01*
X0000270593Y0000615788D01*
X0000266405Y0000615610D01*
X0000263856Y0000616341D01*
X0000260399Y0000618712D01*
X0000253127Y0000631829D01*
X0000287561Y0000650916D01*
X0000293924Y0000639438D01*
X0000294102Y0000635250D01*
X0000293371Y0000632701D01*
X0000291000Y0000629244D01*
X0000287721Y0000627426D01*
X0000283533Y0000627248D01*
X0000280984Y0000627979D01*
X0000277527Y0000630349D01*
X0000271164Y0000641827D01*
X0000303922Y0000621402D02*
X0000314828Y0000601725D01*
X0000274941Y0000592476D02*
X0000309375Y0000611563D01*
X0000296755Y0000553123D02*
X0000285848Y0000572800D01*
X0000291301Y0000562962D02*
X0000325735Y0000582049D01*
X0000318998Y0000582601D01*
X0000313901Y0000584063D01*
X0000310444Y0000586433D01*
X0000434354Y0001490127D02*
X0000507067Y0001358950D01*
X0000405122Y0001388182D02*
X0000536299Y0001460895D01*
%LPC*%
D14*
X0000959995Y0001776778D03*
X0000873910Y0001729061D03*
D15*
X0001528987Y0000559451D03*
X0001481270Y0000645536D03*
X0001601298Y0000599534D03*
X0001553581Y0000685619D03*
D16*
X0001019220Y0001728808D03*
X0001043461Y0001685077D03*
X0001067701Y0001641346D03*
X0001091942Y0001597615D03*
X0000873287Y0001476412D03*
X0000849046Y0001520143D03*
X0000824806Y0001563874D03*
X0000800565Y0001607605D03*
D17*
X0001774825Y0000354291D03*
D18*
X0001775079Y0000460214D03*
X0001687617Y0000411733D03*
X0001617716Y0000372987D03*
X0001530255Y0000324506D03*
D19*
X0001931065Y0000426491D03*
X0001458632Y0000164618D03*
D17*
X0001619873Y0000268399D03*
D20*
X0001242747Y0000742892D03*
X0001294282Y0000649920D03*
X0001325388Y0000788701D03*
X0001376923Y0000695729D03*
X0001628961Y0000736405D03*
X0001680496Y0000643434D03*
D21*
X0000616481Y0001649385D03*
X0000523510Y0001597850D03*
D22*
X0001260697Y0001360980D03*
X0001346588Y0001206028D03*
X0001072495Y0001054095D03*
X0000986604Y0001209047D03*
D23*
X0000313122Y0001323682D03*
X0000912454Y0000242459D03*
G04 next file*
%LPD*%
G01*
D34*
D35*
X0001043307Y0002902418D02*
X0001043307Y0002888357D01*
X0001029246Y0002893982D02*
X0001043307Y0002888357D01*
X0001057367Y0002893982D01*
X0001034870Y0002877109D02*
X0001043307Y0002888357D01*
X0001051743Y0002877109D01*
D36*
X0001005905Y0003074803D02*
X0001005905Y0003114173D01*
X0000938976Y0003114173D02*
X0000938976Y0003074803D01*
X0002338582Y0003017716D02*
X0002338582Y0003084645D01*
X0002338582Y0003084645D02*
X0002214566Y0003084645D01*
X0002338582Y0003017716D02*
X0002214566Y0003017716D01*
X0002338582Y0003100393D02*
X0002338582Y0003167322D01*
X0002338582Y0003167322D02*
X0002214566Y0003167322D01*
X0002338582Y0003100393D02*
X0002214566Y0003100393D01*
D37*
X0001018110Y0003137244D02*
X0001218110Y0003137244D01*
X0001218110Y0003137244D02*
X0001218110Y0002957244D01*
X0001218110Y0002957244D02*
X0001018110Y0002957244D01*
X0001018110Y0002957244D02*
X0001018110Y0003137244D01*
X0001018110Y0003077244D02*
X0001038110Y0003077244D01*
X0001038110Y0003077244D02*
X0001038110Y0003027244D01*
X0001038110Y0003027244D02*
X0001018110Y0003027244D01*
D36*
X0002474212Y0003373425D02*
X0002565944Y0003373425D01*
X0002474212Y0002783267D02*
X0002557677Y0002783267D01*
X0002474212Y0003373425D02*
X0002474212Y0002783267D01*
X0003028937Y0003373425D02*
X0003028937Y0002783267D01*
X0002682480Y0003373425D02*
X0003028937Y0003373425D01*
X0002690354Y0002783267D02*
X0003028937Y0002783267D01*
X0002090551Y0002855118D02*
X0002043307Y0002855118D01*
X0002043307Y0002924409D02*
X0002090551Y0002924409D01*
X0002090551Y0002949606D02*
X0002043307Y0002949606D01*
X0002043307Y0003018896D02*
X0002090551Y0003018896D01*
X0002283464Y0003189762D02*
X0002236220Y0003189762D01*
X0002236220Y0003259055D02*
X0002283464Y0003259055D01*
X0000882677Y0002704724D02*
X0000882677Y0002751968D01*
X0000951968Y0002751968D02*
X0000951968Y0002704724D01*
X0001697636Y0002921259D02*
X0001696456Y0002921259D01*
X0001443306Y0002921259D02*
X0001444488Y0002921259D01*
X0001443306Y0003175590D02*
X0001444488Y0003175590D01*
X0001696456Y0003175590D02*
X0001697636Y0003175590D01*
X0001621653Y0002921259D02*
X0001519291Y0002921259D01*
X0001697636Y0003175590D02*
X0001697636Y0002921259D01*
X0001621653Y0003175590D02*
X0001519291Y0003175590D01*
X0001443306Y0003175590D02*
X0001443306Y0002921259D01*
D34*
X0002122169Y0002358267D02*
G75*
G03X0002122169Y0002358267I-0000443035D01*
G01*
D37*
X0000919572Y0003095800D02*
X0000921447Y0003093925D01*
X0000923322Y0003088301D01*
X0000923322Y0003084551D01*
X0000921447Y0003078927D01*
X0000917697Y0003075178D01*
X0000913948Y0003073302D01*
X0000906449Y0003071428D01*
X0000900824Y0003071428D01*
X0000893325Y0003073302D01*
X0000889576Y0003075178D01*
X0000885826Y0003078927D01*
X0000883952Y0003084551D01*
X0000883952Y0003088301D01*
X0000885826Y0003093925D01*
X0000887701Y0003095800D01*
X0000923322Y0003133295D02*
X0000923322Y0003110798D01*
X0000923322Y0003122047D02*
X0000883952Y0003122047D01*
X0000889576Y0003118297D01*
X0000893325Y0003114548D01*
X0000895200Y0003110798D01*
X0002112673Y0003033370D02*
X0002112673Y0003072740D01*
X0002122047Y0003072740D01*
X0002127671Y0003070866D01*
X0002131421Y0003067116D01*
X0002133295Y0003063367D01*
X0002135170Y0003055868D01*
X0002135170Y0003050243D01*
X0002133295Y0003042744D01*
X0002131421Y0003038995D01*
X0002127671Y0003035245D01*
X0002122047Y0003033370D01*
X0002112673Y0003033370D01*
X0002148293Y0003072740D02*
X0002172665Y0003072740D01*
X0002159542Y0003057742D01*
X0002165166Y0003057742D01*
X0002168916Y0003055868D01*
X0002170791Y0003053993D01*
X0002172665Y0003050243D01*
X0002172665Y0003040869D01*
X0002170791Y0003037120D01*
X0002168916Y0003035245D01*
X0002165166Y0003033370D01*
X0002153918Y0003033370D01*
X0002150168Y0003035245D01*
X0002148293Y0003037120D01*
X0002116610Y0003116047D02*
X0002116610Y0003155418D01*
X0002125984Y0003155418D01*
X0002131608Y0003153542D01*
X0002135358Y0003149793D01*
X0002137232Y0003146044D01*
X0002139107Y0003138545D01*
X0002139107Y0003132920D01*
X0002137232Y0003125421D01*
X0002135358Y0003121672D01*
X0002131608Y0003117922D01*
X0002125984Y0003116047D01*
X0002116610Y0003116047D01*
X0002172853Y0003142294D02*
X0002172853Y0003116047D01*
X0002163479Y0003157292D02*
X0002154105Y0003129170D01*
X0002178477Y0003129170D01*
X0001229283Y0003037307D02*
X0001229283Y0003076677D01*
X0001270528Y0003041057D02*
X0001268653Y0003039182D01*
X0001263028Y0003037307D01*
X0001259280Y0003037307D01*
X0001253655Y0003039182D01*
X0001249906Y0003042931D01*
X0001248031Y0003046681D01*
X0001246156Y0003054180D01*
X0001246156Y0003059805D01*
X0001248031Y0003067304D01*
X0001249906Y0003071053D01*
X0001253655Y0003074803D01*
X0001259280Y0003076677D01*
X0001263028Y0003076677D01*
X0001268653Y0003074803D01*
X0001270528Y0003072928D01*
X0001308023Y0003037307D02*
X0001285526Y0003037307D01*
X0001296775Y0003037307D02*
X0001296775Y0003076677D01*
X0001293025Y0003071053D01*
X0001289276Y0003067304D01*
X0001285526Y0003065429D01*
X0002691038Y0003045744D02*
X0002651668Y0003045744D01*
X0002651668Y0003060742D01*
X0002653543Y0003064491D01*
X0002655418Y0003066366D01*
X0002659166Y0003068241D01*
X0002664791Y0003068241D01*
X0002668541Y0003066366D01*
X0002670416Y0003064491D01*
X0002672290Y0003060742D01*
X0002672290Y0003045744D01*
X0002691038Y0003105736D02*
X0002691038Y0003083239D01*
X0002691038Y0003094488D02*
X0002651668Y0003094488D01*
X0002657292Y0003090738D01*
X0002661042Y0003086989D01*
X0002662917Y0003083239D01*
X0002178871Y0002879827D02*
X0002165747Y0002898575D01*
X0002156374Y0002879827D02*
X0002156374Y0002919197D01*
X0002171372Y0002919197D01*
X0002175121Y0002917321D01*
X0002176996Y0002915447D01*
X0002178871Y0002911698D01*
X0002178871Y0002906074D01*
X0002176996Y0002902324D01*
X0002175121Y0002900449D01*
X0002171372Y0002898575D01*
X0002156374Y0002898575D01*
X0002216366Y0002879827D02*
X0002193869Y0002879827D01*
X0002205118Y0002879827D02*
X0002205118Y0002919197D01*
X0002201368Y0002913573D01*
X0002197619Y0002909823D01*
X0002193869Y0002907949D01*
X0002179658Y0002963685D02*
X0002166535Y0002982433D01*
X0002157161Y0002963685D02*
X0002157161Y0003003055D01*
X0002172159Y0003003055D01*
X0002175909Y0003001181D01*
X0002177784Y0002999306D01*
X0002179658Y0002995556D01*
X0002179658Y0002989932D01*
X0002177784Y0002986181D01*
X0002175909Y0002984307D01*
X0002172159Y0002982433D01*
X0002157161Y0002982433D01*
X0002194656Y0002999306D02*
X0002196531Y0003001181D01*
X0002200281Y0003003055D01*
X0002209655Y0003003055D01*
X0002213404Y0003001181D01*
X0002215279Y0002999306D01*
X0002217154Y0002995556D01*
X0002217154Y0002991807D01*
X0002215279Y0002986181D01*
X0002192782Y0002963685D01*
X0002217154Y0002963685D01*
X0002108792Y0003201481D02*
X0002095669Y0003220228D01*
X0002086294Y0003201481D02*
X0002086294Y0003240851D01*
X0002101293Y0003240851D01*
X0002105043Y0003238976D01*
X0002106917Y0003237101D01*
X0002108792Y0003233352D01*
X0002108792Y0003227727D01*
X0002106917Y0003223978D01*
X0002105043Y0003222103D01*
X0002101293Y0003220228D01*
X0002086294Y0003220228D01*
X0002121916Y0003240851D02*
X0002146287Y0003240851D01*
X0002133164Y0003225853D01*
X0002138788Y0003225853D01*
X0002142538Y0003223978D01*
X0002144413Y0003222103D01*
X0002146287Y0003218353D01*
X0002146287Y0003208980D01*
X0002144413Y0003205229D01*
X0002142538Y0003203355D01*
X0002138788Y0003201481D01*
X0002127540Y0003201481D01*
X0002123790Y0003203355D01*
X0002121916Y0003205229D01*
X0000869778Y0002730839D02*
X0000851031Y0002717715D01*
X0000869778Y0002708342D02*
X0000830408Y0002708342D01*
X0000830408Y0002723340D01*
X0000832283Y0002727090D01*
X0000834158Y0002728965D01*
X0000837907Y0002730839D01*
X0000843531Y0002730839D01*
X0000847281Y0002728965D01*
X0000849155Y0002727090D01*
X0000851031Y0002723340D01*
X0000851031Y0002708342D01*
X0000843531Y0002764585D02*
X0000869778Y0002764585D01*
X0000828533Y0002755211D02*
X0000856655Y0002745838D01*
X0000856655Y0002770210D01*
X0001745856Y0002995931D02*
X0001747731Y0003001556D01*
X0001747731Y0003010929D01*
X0001745856Y0003014679D01*
X0001743982Y0003016554D01*
X0001740232Y0003018428D01*
X0001736482Y0003018428D01*
X0001732733Y0003016554D01*
X0001730858Y0003014679D01*
X0001728983Y0003010929D01*
X0001727109Y0003003430D01*
X0001725233Y0002999681D01*
X0001723359Y0002997806D01*
X0001719610Y0002995931D01*
X0001715860Y0002995931D01*
X0001712110Y0002997806D01*
X0001710236Y0002999681D01*
X0001708361Y0003003430D01*
X0001708361Y0003012804D01*
X0001710236Y0003018428D01*
X0001708361Y0003031552D02*
X0001747731Y0003040926D01*
X0001719610Y0003048425D01*
X0001747731Y0003055924D01*
X0001708361Y0003065298D01*
X0001747731Y0003100918D02*
X0001747731Y0003078421D01*
X0001747731Y0003089670D02*
X0001708361Y0003089670D01*
X0001713985Y0003085920D01*
X0001717735Y0003082170D01*
X0001719610Y0003078421D01*
X0001644263Y0001991001D02*
X0001649887Y0001989126D01*
X0001651762Y0001987251D01*
X0001653637Y0001983502D01*
X0001653637Y0001977877D01*
X0001651762Y0001974128D01*
X0001649887Y0001972253D01*
X0001646137Y0001970378D01*
X0001631139Y0001970378D01*
X0001631139Y0002009748D01*
X0001644263Y0002009748D01*
X0001648012Y0002007874D01*
X0001649887Y0002005999D01*
X0001651762Y0002002249D01*
X0001651762Y0001998500D01*
X0001649887Y0001994750D01*
X0001648012Y0001992875D01*
X0001644263Y0001991001D01*
X0001631139Y0001991001D01*
X0001664885Y0002009748D02*
X0001687382Y0002009748D01*
X0001676134Y0001970378D02*
X0001676134Y0002009748D01*
X0001721127Y0001970378D02*
X0001698631Y0001970378D01*
X0001709878Y0001970378D02*
X0001709878Y0002009748D01*
X0001706130Y0002004124D01*
X0001702380Y0002000373D01*
X0001698631Y0001998500D01*
X0000968316Y0002544994D02*
X0001118297Y0002544994D01*
X0001043307Y0002470003D02*
X0001043307Y0002619985D01*
%LPC*%
D38*
X0000972440Y0003143699D03*
X0000972440Y0003045275D03*
D39*
X0002312992Y0003051181D03*
X0002214566Y0003051181D03*
X0002312992Y0003133858D03*
X0002214566Y0003133858D03*
D40*
X0001043110Y0003172244D03*
X0001093110Y0003172244D03*
X0001143110Y0003172244D03*
X0001193110Y0003172244D03*
X0001193110Y0002922244D03*
X0001143110Y0002922244D03*
X0001093110Y0002922244D03*
X0001043110Y0002922244D03*
D41*
X0002611614Y0003166732D03*
D42*
X0002519094Y0003218307D03*
X0002519094Y0003118307D03*
X0002519094Y0003038385D03*
X0002519094Y0002938385D03*
D43*
X0002624212Y0003338385D03*
X0002624212Y0002798228D03*
D41*
X0002611614Y0002989566D03*
D44*
X0002013779Y0002889763D03*
X0002120078Y0002889763D03*
X0002013779Y0002984251D03*
X0002120078Y0002984251D03*
X0002206692Y0003224409D03*
X0002312992Y0003224409D03*
D45*
X0000917322Y0002781496D03*
X0000917322Y0002675196D03*
D46*
X0001481889Y0003205117D03*
X0001659055Y0003205117D03*
X0001659055Y0002891732D03*
X0001481889Y0002891732D03*
D47*
X0001055118Y0002358267D03*
X0002291338Y0002358267D03*
G04 next file*
%LPD*%
G04 #@! TF.FileFunction,Legend,Top*
G04 Gerber Fmt 4.6, Leading zero omitted, Abs format (unit mm)*
G04 Created by KiCad (PCBNEW 4.0.4+e1-6308~48~ubuntu16.04.1-stable) date Tue May  2 22:28:17 2017*
G01*
G04 APERTURE LIST*
G04 APERTURE END LIST*
D58*
D59*
X0002273657Y0001382070D02*
X0002277059Y0001368427D01*
X0002262055Y0001370483D02*
X0002277059Y0001368427D01*
X0002289341Y0001377286D01*
X0002271594Y0001355472D02*
X0002277059Y0001368427D01*
X0002287966Y0001359553D01*
D60*
X0002195663Y0001540286D02*
X0002186138Y0001578487D01*
X0002121197Y0001562294D02*
X0002130722Y0001524095D01*
X0003502564Y0001807298D02*
X0003486371Y0001872240D01*
X0003486371Y0001872240D02*
X0003366041Y0001842237D01*
X0003502564Y0001807298D02*
X0003382232Y0001777297D01*
X0003482562Y0001887520D02*
X0003466371Y0001952461D01*
X0003466371Y0001952461D02*
X0003346039Y0001922459D01*
X0003482562Y0001887520D02*
X0003362231Y0001857517D01*
D61*
X0002192399Y0001603825D02*
X0002386458Y0001652209D01*
X0002386458Y0001652209D02*
X0002430004Y0001477555D01*
X0002430004Y0001477555D02*
X0002235945Y0001429172D01*
X0002235945Y0001429172D02*
X0002192399Y0001603825D01*
X0002206914Y0001545607D02*
X0002226320Y0001550446D01*
X0002226320Y0001550446D02*
X0002238416Y0001501931D01*
X0002238416Y0001501931D02*
X0002219010Y0001497092D01*
D60*
X0003548112Y0002185253D02*
X0003637119Y0002207446D01*
X0003690884Y0001612626D02*
X0003771869Y0001632818D01*
X0003548112Y0002185253D02*
X0003690884Y0001612626D01*
X0004086357Y0002319453D02*
X0004229130Y0001746826D01*
X0003750193Y0002235638D02*
X0004086357Y0002319453D01*
X0003900605Y0001664915D02*
X0004229130Y0001746826D01*
X0003301236Y0001589525D02*
X0003255396Y0001578096D01*
X0003238632Y0001645330D02*
X0003284473Y0001656758D01*
X0003278378Y0001681207D02*
X0003232537Y0001669778D01*
X0003215774Y0001737011D02*
X0003261614Y0001748441D01*
X0003407460Y0001960901D02*
X0003361621Y0001949472D01*
X0003344857Y0002016705D02*
X0003390698Y0002028134D01*
X0002165625Y0001151389D02*
X0002154195Y0001197229D01*
X0002221429Y0001213993D02*
X0002232858Y0001168152D01*
X0002903993Y0001558649D02*
X0002902847Y0001558363D01*
X0002657217Y0001497121D02*
X0002658363Y0001497407D01*
X0002595689Y0001743897D02*
X0002596835Y0001744182D01*
X0002841318Y0001805139D02*
X0002842465Y0001805424D01*
X0002830266Y0001540267D02*
X0002730944Y0001515503D01*
X0002842465Y0001805424D02*
X0002903993Y0001558649D01*
X0002768738Y0001787043D02*
X0002669416Y0001762279D01*
X0002595689Y0001743897D02*
X0002657217Y0001497121D01*
D58*
X0003452115Y0001115084D02*
G75*
G03X0003452115Y0001115084I-0000429875J-0000107179D01*
G01*
D61*
X0002106814Y0001539774D02*
X0002109087Y0001538408D01*
X0002112267Y0001533405D01*
X0002113174Y0001529767D01*
X0002112715Y0001523856D01*
X0002109984Y0001519311D01*
X0002106800Y0001516584D01*
X0002099977Y0001512951D01*
X0002094520Y0001511591D01*
X0002086790Y0001511595D01*
X0002082698Y0001512507D01*
X0002078153Y0001515237D01*
X0002074973Y0001520242D01*
X0002074066Y0001523880D01*
X0002074525Y0001529791D01*
X0002075889Y0001532064D01*
X0002101382Y0001577063D02*
X0002106824Y0001555233D01*
X0002104103Y0001566148D02*
X0002065902Y0001556624D01*
X0002072267Y0001554346D01*
X0002076811Y0001551615D01*
X0002079538Y0001548431D01*
X0003279578Y0001767836D02*
X0003270054Y0001806037D01*
X0003279149Y0001808304D01*
X0003285060Y0001807846D01*
X0003289605Y0001805114D01*
X0003292331Y0001801930D01*
X0003295965Y0001795107D01*
X0003297324Y0001789649D01*
X0003297320Y0001781920D01*
X0003296407Y0001777829D01*
X0003293677Y0001773282D01*
X0003288674Y0001770104D01*
X0003279578Y0001767836D01*
X0003304616Y0001814654D02*
X0003328264Y0001820550D01*
X0003319159Y0001802823D01*
X0003324616Y0001804183D01*
X0003328708Y0001803271D01*
X0003330981Y0001801906D01*
X0003333707Y0001798721D01*
X0003335975Y0001789626D01*
X0003335063Y0001785534D01*
X0003333696Y0001783261D01*
X0003330512Y0001780535D01*
X0003319598Y0001777814D01*
X0003315506Y0001778726D01*
X0003313234Y0001780091D01*
X0003263397Y0001849009D02*
X0003253872Y0001887210D01*
X0003262968Y0001889478D01*
X0003268879Y0001889019D01*
X0003273424Y0001886289D01*
X0003276150Y0001883104D01*
X0003279783Y0001876281D01*
X0003281143Y0001870824D01*
X0003281139Y0001863094D01*
X0003280226Y0001859002D01*
X0003277496Y0001854457D01*
X0003272492Y0001851277D01*
X0003263397Y0001849009D01*
X0003311620Y0001888082D02*
X0003317969Y0001862616D01*
X0003298896Y0001900368D02*
X0003296604Y0001870814D01*
X0003320252Y0001876710D01*
X0002421477Y0001557945D02*
X0002411952Y0001596145D01*
X0002460589Y0001571561D02*
X0002459224Y0001569288D01*
X0002454220Y0001566109D01*
X0002450582Y0001565201D01*
X0002444671Y0001565660D01*
X0002440126Y0001568390D01*
X0002437400Y0001571576D01*
X0002433766Y0001578398D01*
X0002432406Y0001583856D01*
X0002432411Y0001591585D01*
X0002433323Y0001595677D01*
X0002436054Y0001600222D01*
X0002441057Y0001603402D01*
X0002444696Y0001604308D01*
X0002450606Y0001603851D01*
X0002452879Y0001602485D01*
X0002497878Y0001576994D02*
X0002476049Y0001571551D01*
X0002486963Y0001574272D02*
X0002477439Y0001612473D01*
X0002475161Y0001606109D01*
X0002472430Y0001601563D01*
X0002469246Y0001598837D01*
X0003837770Y0001919761D02*
X0003799569Y0001910236D01*
X0003795941Y0001924789D01*
X0003796852Y0001928881D01*
X0003798219Y0001931154D01*
X0003801403Y0001933880D01*
X0003806860Y0001935240D01*
X0003810952Y0001934328D01*
X0003813225Y0001932962D01*
X0003815951Y0001929778D01*
X0003819579Y0001915226D01*
X0003823257Y0001977972D02*
X0003828699Y0001956143D01*
X0003825978Y0001967057D02*
X0003787777Y0001957533D01*
X0003794142Y0001955254D01*
X0003798687Y0001952524D01*
X0003801413Y0001949339D01*
X0003380955Y0001634867D02*
X0003363686Y0001649884D01*
X0003359126Y0001629426D02*
X0003349602Y0001667626D01*
X0003364155Y0001671255D01*
X0003368246Y0001670343D01*
X0003370519Y0001668977D01*
X0003373245Y0001665793D01*
X0003374606Y0001660335D01*
X0003373694Y0001656244D01*
X0003372328Y0001653971D01*
X0003369144Y0001651245D01*
X0003354591Y0001647617D01*
X0003417337Y0001643939D02*
X0003395508Y0001638496D01*
X0003406422Y0001641218D02*
X0003396898Y0001679419D01*
X0003394620Y0001673054D01*
X0003391889Y0001668509D01*
X0003388705Y0001665783D01*
X0003361432Y0001716426D02*
X0003344163Y0001731442D01*
X0003339603Y0001710984D02*
X0003330079Y0001749184D01*
X0003344631Y0001752813D01*
X0003348723Y0001751901D01*
X0003350996Y0001750535D01*
X0003353722Y0001747350D01*
X0003355083Y0001741893D01*
X0003354171Y0001737801D01*
X0003352805Y0001735529D01*
X0003349620Y0001732803D01*
X0003335068Y0001729173D01*
X0003367367Y0001754617D02*
X0003368733Y0001756890D01*
X0003371918Y0001759616D01*
X0003381013Y0001761883D01*
X0003385105Y0001760971D01*
X0003387377Y0001759606D01*
X0003390102Y0001756421D01*
X0003391011Y0001752783D01*
X0003390552Y0001746872D01*
X0003374166Y0001719601D01*
X0003397814Y0001725497D01*
X0003235143Y0001930014D02*
X0003217874Y0001945030D01*
X0003213314Y0001924571D02*
X0003203790Y0001962772D01*
X0003218342Y0001966400D01*
X0003222434Y0001965488D01*
X0003224707Y0001964123D01*
X0003227433Y0001960938D01*
X0003228794Y0001955481D01*
X0003227882Y0001951389D01*
X0003226516Y0001949116D01*
X0003223331Y0001946390D01*
X0003208779Y0001942762D01*
X0003238352Y0001971389D02*
X0003262000Y0001977284D01*
X0003252895Y0001959558D01*
X0003258352Y0001960919D01*
X0003262444Y0001960007D01*
X0003264717Y0001958641D01*
X0003267443Y0001955456D01*
X0003269711Y0001946360D01*
X0003268799Y0001942268D01*
X0003267433Y0001939997D01*
X0003264248Y0001937270D01*
X0003253334Y0001934549D01*
X0003249242Y0001935461D01*
X0003246970Y0001936826D01*
X0002146792Y0001173608D02*
X0002131776Y0001156339D01*
X0002152234Y0001151779D02*
X0002114034Y0001142255D01*
X0002110405Y0001156807D01*
X0002111317Y0001160899D01*
X0002112683Y0001163172D01*
X0002115867Y0001165898D01*
X0002121325Y0001167258D01*
X0002125416Y0001166346D01*
X0002127689Y0001164981D01*
X0002130415Y0001161796D01*
X0002134043Y0001147244D01*
X0002113161Y0001200002D02*
X0002138628Y0001206351D01*
X0002100876Y0001187278D02*
X0002130430Y0001184986D01*
X0002124534Y0001208634D01*
X0002932715Y0001642768D02*
X0002933172Y0001648679D01*
X0002930906Y0001657774D01*
X0002928179Y0001660959D01*
X0002925907Y0001662324D01*
X0002921815Y0001663235D01*
X0002918177Y0001662329D01*
X0002914992Y0001659603D01*
X0002913627Y0001657330D01*
X0002912715Y0001653239D01*
X0002912710Y0001645509D01*
X0002911798Y0001641417D01*
X0002910432Y0001639144D01*
X0002907248Y0001636417D01*
X0002903610Y0001635511D01*
X0002899518Y0001636423D01*
X0002897245Y0001637788D01*
X0002894519Y0001640973D01*
X0002892251Y0001650069D01*
X0002892710Y0001655980D01*
X0002887716Y0001668260D02*
X0002923649Y0001686879D01*
X0002894549Y0001687353D01*
X0002920020Y0001701432D01*
X0002879552Y0001701003D01*
X0002909135Y0001745090D02*
X0002914578Y0001723261D01*
X0002911857Y0001734174D02*
X0002873656Y0001724651D01*
X0002880020Y0001722373D01*
X0002884566Y0001719642D01*
X0002887292Y0001716458D01*
X0003077254Y0000643110D02*
X0003083165Y0000642652D01*
X0003085437Y0000641286D01*
X0003088163Y0000638102D01*
X0003089524Y0000632645D01*
X0003088612Y0000628553D01*
X0003087247Y0000626280D01*
X0003084062Y0000623554D01*
X0003069509Y0000619926D01*
X0003059985Y0000658126D01*
X0003072717Y0000661300D01*
X0003076809Y0000660389D01*
X0003079083Y0000659024D01*
X0003081809Y0000655839D01*
X0003082716Y0000652200D01*
X0003081804Y0000648108D01*
X0003080438Y0000645837D01*
X0003077254Y0000643110D01*
X0003064520Y0000639935D01*
X0003092728Y0000666290D02*
X0003114557Y0000671733D01*
X0003113167Y0000630811D02*
X0003103643Y0000669011D01*
X0003156825Y0000641696D02*
X0003134996Y0000636253D01*
X0003145910Y0000638974D02*
X0003136386Y0000677175D01*
X0003134109Y0000670811D01*
X0003131377Y0000666266D01*
X0003128192Y0000663539D01*
X0002287362Y0001017121D02*
X0002432889Y0001053405D01*
X0002378267Y0000962500D02*
X0002341984Y0001108026D01*
%LPC*%
D62*
X0002146524Y0001599041D03*
X0002170335Y0001503540D03*
D63*
X0003469638Y0001833578D03*
X0003374136Y0001809767D03*
X0003449636Y0001913800D03*
X0003354135Y0001889989D03*
D64*
X0002208189Y0001643833D03*
X0002256704Y0001655929D03*
X0002305219Y0001668026D03*
X0002353734Y0001680122D03*
X0002414214Y0001437548D03*
X0002365699Y0001425452D03*
X0002317184Y0001413354D03*
X0002268670Y0001401259D03*
D65*
X0003731435Y0002017941D03*
D66*
X0003629187Y0002045601D03*
X0003653379Y0001948571D03*
X0003672714Y0001871024D03*
X0003696905Y0001773995D03*
D67*
X0003702132Y0002187543D03*
X0003832809Y0001663431D03*
D65*
X0003774295Y0001846038D03*
D68*
X0003218364Y0001604570D03*
X0003321505Y0001630286D03*
X0003195505Y0001696251D03*
X0003298647Y0001721968D03*
X0003324589Y0001975945D03*
X0003427730Y0002001661D03*
D69*
X0002180669Y0001234261D03*
X0002206385Y0001131120D03*
D70*
X0002625982Y0001781881D03*
X0002797885Y0001824741D03*
X0002873700Y0001520664D03*
X0002701797Y0001477804D03*
D71*
X0002416759Y0000856940D03*
X0003616258Y0001156009D03*
M02*