%MOIN*%
%OFA0B0*%
%FSLAX46Y46*%
%IPPOS*%
%LPD*%
%AMREC29*
4,1,3,
-0.056216196512953419,-0.0041527827573464874,
-0.033311805005252458,-0.04547339884267227,
0.056216196512953419,0.0041527827573464874,
0.033311805005252458,0.04547339884267227,
0*%
%AMREC200*
4,1,3,
-0.010538542184489363,-0.0553754953353778,
0.035302200789179762,-0.0439461144409053,
0.010538542184489363,0.0553754953353778,
-0.035302200789179762,0.0439461144409053,
0*%
%AMCOMP580*
4,1,3,
-0.010538542184489363,-0.0553754953353778,
0.035302200789179762,-0.0439461144409053,
0.010538542184489363,0.0553754953353778,
-0.035302200789179762,0.0439461144409053,
0*%
%ADD10C,0.0039370078740157488*%
%ADD11C,0.011811023622047244*%
%ADD12C,0.00039370078740157485*%
%AMCOMP59*
4,1,3,
-0.056216196512953419,-0.0041527827573464874,
-0.033311805005252458,-0.04547339884267227,
0.056216196512953419,0.0041527827573464874,
0.033311805005252458,0.04547339884267227,
0*%
%ADD13COMP59*%
%ADD14C,0.0905511811023622*%
%ADD15C,0.13385826771653545*%
%ADD26C,0.0039370078740157488*%
%ADD27C,0.011811023622047244*%
%ADD28C,0.00039370078740157485*%
%ADD29R,0.047244094488188976X0.10236220472440946*%
%ADD30C,0.0905511811023622*%
%ADD31C,0.13385826771653545*%
%ADD42C,0.0039370078740157488*%
%ADD43C,0.011811023622047244*%
%ADD44C,0.00039370078740157485*%
%AMCOMP60*
4,1,3,
-0.010538542184489363,-0.0553754953353778,
0.035302200789179762,-0.0439461144409053,
0.010538542184489363,0.0553754953353778,
-0.035302200789179762,0.0439461144409053,
0*%
%ADD45COMP60*%
%ADD46C,0.0905511811023622*%
%ADD47C,0.13385826771653545*%
%LPD*%
G01*
D10*
D11*
X0000722911Y0000375003D02*
X0000717458Y0000384841D01*
X0000712272Y0000388397D01*
X0000704626Y0000390590D01*
X0000693424Y0000387596D01*
X0000676207Y0000378052D01*
X0000667732Y0000370139D01*
X0000665540Y0000362493D01*
X0000665807Y0000356211D01*
X0000671261Y0000346373D01*
X0000676447Y0000342817D01*
X0000684093Y0000340625D01*
X0000695294Y0000343618D01*
X0000712511Y0000353162D01*
X0000720986Y0000361075D01*
X0000723178Y0000368721D01*
X0000722911Y0000375003D01*
X0000683881Y0000404813D02*
X0000668884Y0000431868D01*
X0000649447Y0000385726D01*
X0000634450Y0000412781D01*
X0000609909Y0000457053D02*
X0000623543Y0000432457D01*
X0000675194Y0000461088D01*
X0000596276Y0000481649D02*
X0000601462Y0000478093D01*
X0000605285Y0000476997D01*
X0000611568Y0000477264D01*
X0000626325Y0000485444D01*
X0000629881Y0000490630D01*
X0000630977Y0000494453D01*
X0000630710Y0000500736D01*
X0000626620Y0000508114D01*
X0000621433Y0000511670D01*
X0000617610Y0000512766D01*
X0000611328Y0000512499D01*
X0000596571Y0000504319D01*
X0000593015Y0000499133D01*
X0000591919Y0000495310D01*
X0000592186Y0000489027D01*
X0000596276Y0000481649D01*
X0000564652Y0000544501D02*
X0000564919Y0000538219D01*
X0000570372Y0000528380D01*
X0000575558Y0000524824D01*
X0000579381Y0000523728D01*
X0000585664Y0000523995D01*
X0000600421Y0000532176D01*
X0000603977Y0000537362D01*
X0000605073Y0000541185D01*
X0000604806Y0000547467D01*
X0000599353Y0000557306D01*
X0000594166Y0000560861D01*
X0000549922Y0000565274D02*
X0000601573Y0000593904D01*
X0000566872Y0000581100D02*
X0000539015Y0000584950D01*
X0000573449Y0000604037D02*
X0000564679Y0000573454D01*
X0000515304Y0000639328D02*
X0000514207Y0000635505D01*
X0000515838Y0000626763D01*
X0000518565Y0000621844D01*
X0000525114Y0000615828D01*
X0000532760Y0000613636D01*
X0000539042Y0000613903D01*
X0000550244Y0000616897D01*
X0000557623Y0000620987D01*
X0000566098Y0000628900D01*
X0000569653Y0000634086D01*
X0000571846Y0000641732D01*
X0000570215Y0000650474D01*
X0000567489Y0000655393D01*
X0000560939Y0000661408D01*
X0000557116Y0000662505D01*
X0000494024Y0000666116D02*
X0000499210Y0000662560D01*
X0000503033Y0000661464D01*
X0000509316Y0000661731D01*
X0000524073Y0000669911D01*
X0000527629Y0000675097D01*
X0000528725Y0000678920D01*
X0000528458Y0000685203D01*
X0000524368Y0000692581D01*
X0000519182Y0000696137D01*
X0000515359Y0000697233D01*
X0000509076Y0000696966D01*
X0000494319Y0000688786D01*
X0000490763Y0000683600D01*
X0000489667Y0000679777D01*
X0000489934Y0000673494D01*
X0000494024Y0000666116D01*
X0000506644Y0000724556D02*
X0000472210Y0000705469D01*
X0000501725Y0000721829D02*
X0000502821Y0000725652D01*
X0000502554Y0000731934D01*
X0000498464Y0000739313D01*
X0000493278Y0000742869D01*
X0000486995Y0000742602D01*
X0000459940Y0000727605D01*
X0000472588Y0000814997D02*
X0000473684Y0000818820D01*
X0000473417Y0000825103D01*
X0000466600Y0000837401D01*
X0000461414Y0000840956D01*
X0000457591Y0000842053D01*
X0000451309Y0000841785D01*
X0000446389Y0000839059D01*
X0000440374Y0000832509D01*
X0000427220Y0000786634D01*
X0000409496Y0000818608D01*
X0000443423Y0000879213D02*
X0000440696Y0000884132D01*
X0000435510Y0000887688D01*
X0000431687Y0000888784D01*
X0000425405Y0000888517D01*
X0000414203Y0000885523D01*
X0000401905Y0000878706D01*
X0000393430Y0000870793D01*
X0000389875Y0000865607D01*
X0000388779Y0000861784D01*
X0000389046Y0000855502D01*
X0000391772Y0000850583D01*
X0000396959Y0000847027D01*
X0000400782Y0000845931D01*
X0000407064Y0000846198D01*
X0000418266Y0000849192D01*
X0000430563Y0000856009D01*
X0000439038Y0000863922D01*
X0000442594Y0000869108D01*
X0000443690Y0000872931D01*
X0000443423Y0000879213D01*
X0000354962Y0000916991D02*
X0000371322Y0000887476D01*
X0000363142Y0000902233D02*
X0000414793Y0000930864D01*
X0000410141Y0000921855D01*
X0000407948Y0000914209D01*
X0000408215Y0000907926D01*
X0000397069Y0000962838D02*
X0000377982Y0000997272D01*
X0000338602Y0000946506D01*
D12*
G36*
X0000675588Y0001042240D02*
X0000673317Y0001041709D01*
X0000672707Y0001041394D01*
X0000670554Y0001039993D01*
X0000668848Y0001038261D01*
X0000667503Y0001035905D01*
X0000666438Y0001032636D01*
X0000665569Y0001028160D01*
X0000664811Y0001022186D01*
X0000664083Y0001014423D01*
X0000663720Y0001009989D01*
X0000663177Y0001003220D01*
X0000662485Y0000994686D01*
X0000661682Y0000984837D01*
X0000660803Y0000974122D01*
X0000659886Y0000962990D01*
X0000658968Y0000951891D01*
X0000658286Y0000943691D01*
X0000657464Y0000933728D01*
X0000656682Y0000924087D01*
X0000655966Y0000915081D01*
X0000655339Y0000907023D01*
X0000654826Y0000900225D01*
X0000654452Y0000895002D01*
X0000654239Y0000891666D01*
X0000654234Y0000891566D01*
X0000653824Y0000886464D01*
X0000653134Y0000883027D01*
X0000652018Y0000880700D01*
X0000651065Y0000879588D01*
X0000649512Y0000877907D01*
X0000648227Y0000876039D01*
X0000647171Y0000873743D01*
X0000646301Y0000870778D01*
X0000645578Y0000866903D01*
X0000644959Y0000861877D01*
X0000644405Y0000855457D01*
X0000643873Y0000847404D01*
X0000643324Y0000837477D01*
X0000643069Y0000832517D01*
X0000642603Y0000823657D01*
X0000642142Y0000815534D01*
X0000641704Y0000808405D01*
X0000641305Y0000802531D01*
X0000640964Y0000798169D01*
X0000640696Y0000795580D01*
X0000640559Y0000794959D01*
X0000639511Y0000795439D01*
X0000636678Y0000796921D01*
X0000632213Y0000799320D01*
X0000626271Y0000802552D01*
X0000619004Y0000806532D01*
X0000610567Y0000811176D01*
X0000601112Y0000816400D01*
X0000590794Y0000822119D01*
X0000579767Y0000828248D01*
X0000569122Y0000834181D01*
X0000557407Y0000840696D01*
X0000546227Y0000846874D01*
X0000535739Y0000852629D01*
X0000526102Y0000857877D01*
X0000517474Y0000862531D01*
X0000510015Y0000866507D01*
X0000503881Y0000869720D01*
X0000499232Y0000872085D01*
X0000496227Y0000873517D01*
X0000495083Y0000873937D01*
X0000490131Y0000873351D01*
X0000485498Y0000871144D01*
X0000481990Y0000867735D01*
X0000481445Y0000866855D01*
X0000479444Y0000861148D01*
X0000479553Y0000855455D01*
X0000481689Y0000850160D01*
X0000485769Y0000845648D01*
X0000486032Y0000845442D01*
X0000486731Y0000844937D01*
X0000487727Y0000844279D01*
X0000489132Y0000843407D01*
X0000491057Y0000842258D01*
X0000493612Y0000840770D01*
X0000496907Y0000838882D01*
X0000501055Y0000836530D01*
X0000506164Y0000833652D01*
X0000512347Y0000830187D01*
X0000519714Y0000826072D01*
X0000528375Y0000821245D01*
X0000538441Y0000815643D01*
X0000550024Y0000809205D01*
X0000563233Y0000801869D01*
X0000578180Y0000793571D01*
X0000592570Y0000785584D01*
X0000601999Y0000780320D01*
X0000610753Y0000775371D01*
X0000618647Y0000770846D01*
X0000625494Y0000766854D01*
X0000631110Y0000763505D01*
X0000635309Y0000760908D01*
X0000637906Y0000759171D01*
X0000638718Y0000758443D01*
X0000638734Y0000757072D01*
X0000638641Y0000753657D01*
X0000638445Y0000748372D01*
X0000638155Y0000741390D01*
X0000637780Y0000732886D01*
X0000637326Y0000723035D01*
X0000636801Y0000712010D01*
X0000636214Y0000699987D01*
X0000635573Y0000687139D01*
X0000634885Y0000673641D01*
X0000634774Y0000671486D01*
X0000633887Y0000654025D01*
X0000633141Y0000638694D01*
X0000632535Y0000625405D01*
X0000632063Y0000614069D01*
X0000631725Y0000604600D01*
X0000631517Y0000596908D01*
X0000631436Y0000590907D01*
X0000631480Y0000586508D01*
X0000631645Y0000583623D01*
X0000631900Y0000582236D01*
X0000634605Y0000577809D01*
X0000638565Y0000574798D01*
X0000643295Y0000573232D01*
X0000648312Y0000573142D01*
X0000653132Y0000574560D01*
X0000657270Y0000577515D01*
X0000659490Y0000580492D01*
X0000659938Y0000581822D01*
X0000660395Y0000584295D01*
X0000660868Y0000588030D01*
X0000661367Y0000593141D01*
X0000661900Y0000599747D01*
X0000662476Y0000607962D01*
X0000663103Y0000617904D01*
X0000663790Y0000629689D01*
X0000664546Y0000643434D01*
X0000665378Y0000659255D01*
X0000665590Y0000663366D01*
X0000666265Y0000676402D01*
X0000666918Y0000688766D01*
X0000667537Y0000700282D01*
X0000668114Y0000710773D01*
X0000668638Y0000720066D01*
X0000669099Y0000727985D01*
X0000669487Y0000734355D01*
X0000669792Y0000738999D01*
X0000670004Y0000741743D01*
X0000670101Y0000742453D01*
X0000671145Y0000741891D01*
X0000673890Y0000740379D01*
X0000678097Y0000738049D01*
X0000683526Y0000735035D01*
X0000689937Y0000731468D01*
X0000697091Y0000727483D01*
X0000700249Y0000725723D01*
X0000707871Y0000721524D01*
X0000715073Y0000717653D01*
X0000721572Y0000714256D01*
X0000727084Y0000711476D01*
X0000731327Y0000709459D01*
X0000734017Y0000708349D01*
X0000734521Y0000708205D01*
X0000738426Y0000707879D01*
X0000742171Y0000708301D01*
X0000742732Y0000708463D01*
X0000744833Y0000708878D01*
X0000747259Y0000708642D01*
X0000750509Y0000707633D01*
X0000755082Y0000705728D01*
X0000756622Y0000705037D01*
X0000761360Y0000702802D01*
X0000767827Y0000699610D01*
X0000775806Y0000695575D01*
X0000785079Y0000690809D01*
X0000795428Y0000685427D01*
X0000806636Y0000679541D01*
X0000818484Y0000673264D01*
X0000830754Y0000666709D01*
X0000840760Y0000661325D01*
X0000848780Y0000657045D01*
X0000855108Y0000653792D01*
X0000859965Y0000651466D01*
X0000863575Y0000649964D01*
X0000866158Y0000649186D01*
X0000867845Y0000649026D01*
X0000870155Y0000649017D01*
X0000871729Y0000648325D01*
X0000873191Y0000646484D01*
X0000874673Y0000643918D01*
X0000876446Y0000640868D01*
X0000877873Y0000639316D01*
X0000879686Y0000638818D01*
X0000882614Y0000638928D01*
X0000882830Y0000638944D01*
X0000886605Y0000638818D01*
X0000888776Y0000637869D01*
X0000888980Y0000637589D01*
X0000890345Y0000636445D01*
X0000891625Y0000636993D01*
X0000892159Y0000638777D01*
X0000892029Y0000639686D01*
X0000890569Y0000642598D01*
X0000887855Y0000643953D01*
X0000885206Y0000644119D01*
X0000883078Y0000644223D01*
X0000881555Y0000644996D01*
X0000880071Y0000646905D01*
X0000878470Y0000649673D01*
X0000876646Y0000652836D01*
X0000875246Y0000654486D01*
X0000873620Y0000655057D01*
X0000871118Y0000654982D01*
X0000870577Y0000654938D01*
X0000868879Y0000654908D01*
X0000867063Y0000655191D01*
X0000864848Y0000655918D01*
X0000861956Y0000657218D01*
X0000858107Y0000659222D01*
X0000853024Y0000662061D01*
X0000846426Y0000665865D01*
X0000843338Y0000667663D01*
X0000831897Y0000674400D01*
X0000819848Y0000681606D01*
X0000807621Y0000689015D01*
X0000795650Y0000696363D01*
X0000784367Y0000703384D01*
X0000774204Y0000709813D01*
X0000766487Y0000714800D01*
X0000761493Y0000718104D01*
X0000758005Y0000720558D01*
X0000755655Y0000722505D01*
X0000754074Y0000724288D01*
X0000752893Y0000726250D01*
X0000751904Y0000728374D01*
X0000749403Y0000734036D01*
X0000713999Y0000753733D01*
X0000705738Y0000758331D01*
X0000697964Y0000762664D01*
X0000690920Y0000766594D01*
X0000684854Y0000769984D01*
X0000680010Y0000772698D01*
X0000676633Y0000774597D01*
X0000675020Y0000775516D01*
X0000671445Y0000777603D01*
X0000673899Y0000823169D01*
X0000676353Y0000868736D01*
X0000672304Y0000876058D01*
X0000668255Y0000883380D01*
X0000668130Y0000906892D01*
X0000668126Y0000914394D01*
X0000668181Y0000923547D01*
X0000668287Y0000933779D01*
X0000668438Y0000944520D01*
X0000668625Y0000955197D01*
X0000668838Y0000965049D01*
X0000669061Y0000974422D01*
X0000669277Y0000983797D01*
X0000669479Y0000992748D01*
X0000669655Y0001000845D01*
X0000669798Y0001007660D01*
X0000669896Y0001012766D01*
X0000669910Y0001013524D01*
X0000670039Y0001020109D01*
X0000670220Y0001024896D01*
X0000670532Y0001028308D01*
X0000671055Y0001030767D01*
X0000671870Y0001032697D01*
X0000673058Y0001034522D01*
X0000674165Y0001035979D01*
X0000676090Y0001039084D01*
X0000676539Y0001041268D01*
X0000675588Y0001042240D01*
X0000675588Y0001042240D01*
G37*
X0000675588Y0001042240D02*
X0000673317Y0001041709D01*
X0000672707Y0001041394D01*
X0000670554Y0001039993D01*
X0000668848Y0001038261D01*
X0000667503Y0001035905D01*
X0000666438Y0001032636D01*
X0000665569Y0001028160D01*
X0000664811Y0001022186D01*
X0000664083Y0001014423D01*
X0000663720Y0001009989D01*
X0000663177Y0001003220D01*
X0000662485Y0000994686D01*
X0000661682Y0000984837D01*
X0000660803Y0000974122D01*
X0000659886Y0000962990D01*
X0000658968Y0000951891D01*
X0000658286Y0000943691D01*
X0000657464Y0000933728D01*
X0000656682Y0000924087D01*
X0000655966Y0000915081D01*
X0000655339Y0000907023D01*
X0000654826Y0000900225D01*
X0000654452Y0000895002D01*
X0000654239Y0000891666D01*
X0000654234Y0000891566D01*
X0000653824Y0000886464D01*
X0000653134Y0000883027D01*
X0000652018Y0000880700D01*
X0000651065Y0000879588D01*
X0000649512Y0000877907D01*
X0000648227Y0000876039D01*
X0000647171Y0000873743D01*
X0000646301Y0000870778D01*
X0000645578Y0000866903D01*
X0000644959Y0000861877D01*
X0000644405Y0000855457D01*
X0000643873Y0000847404D01*
X0000643324Y0000837477D01*
X0000643069Y0000832517D01*
X0000642603Y0000823657D01*
X0000642142Y0000815534D01*
X0000641704Y0000808405D01*
X0000641305Y0000802531D01*
X0000640964Y0000798169D01*
X0000640696Y0000795580D01*
X0000640559Y0000794959D01*
X0000639511Y0000795439D01*
X0000636678Y0000796921D01*
X0000632213Y0000799320D01*
X0000626271Y0000802552D01*
X0000619004Y0000806532D01*
X0000610567Y0000811176D01*
X0000601112Y0000816400D01*
X0000590794Y0000822119D01*
X0000579767Y0000828248D01*
X0000569122Y0000834181D01*
X0000557407Y0000840696D01*
X0000546227Y0000846874D01*
X0000535739Y0000852629D01*
X0000526102Y0000857877D01*
X0000517474Y0000862531D01*
X0000510015Y0000866507D01*
X0000503881Y0000869720D01*
X0000499232Y0000872085D01*
X0000496227Y0000873517D01*
X0000495083Y0000873937D01*
X0000490131Y0000873351D01*
X0000485498Y0000871144D01*
X0000481990Y0000867735D01*
X0000481445Y0000866855D01*
X0000479444Y0000861148D01*
X0000479553Y0000855455D01*
X0000481689Y0000850160D01*
X0000485769Y0000845648D01*
X0000486032Y0000845442D01*
X0000486731Y0000844937D01*
X0000487727Y0000844279D01*
X0000489132Y0000843407D01*
X0000491057Y0000842258D01*
X0000493612Y0000840770D01*
X0000496907Y0000838882D01*
X0000501055Y0000836530D01*
X0000506164Y0000833652D01*
X0000512347Y0000830187D01*
X0000519714Y0000826072D01*
X0000528375Y0000821245D01*
X0000538441Y0000815643D01*
X0000550024Y0000809205D01*
X0000563233Y0000801869D01*
X0000578180Y0000793571D01*
X0000592570Y0000785584D01*
X0000601999Y0000780320D01*
X0000610753Y0000775371D01*
X0000618647Y0000770846D01*
X0000625494Y0000766854D01*
X0000631110Y0000763505D01*
X0000635309Y0000760908D01*
X0000637906Y0000759171D01*
X0000638718Y0000758443D01*
X0000638734Y0000757072D01*
X0000638641Y0000753657D01*
X0000638445Y0000748372D01*
X0000638155Y0000741390D01*
X0000637780Y0000732886D01*
X0000637326Y0000723035D01*
X0000636801Y0000712010D01*
X0000636214Y0000699987D01*
X0000635573Y0000687139D01*
X0000634885Y0000673641D01*
X0000634774Y0000671486D01*
X0000633887Y0000654025D01*
X0000633141Y0000638694D01*
X0000632535Y0000625405D01*
X0000632063Y0000614069D01*
X0000631725Y0000604600D01*
X0000631517Y0000596908D01*
X0000631436Y0000590907D01*
X0000631480Y0000586508D01*
X0000631645Y0000583623D01*
X0000631900Y0000582236D01*
X0000634605Y0000577809D01*
X0000638565Y0000574798D01*
X0000643295Y0000573232D01*
X0000648312Y0000573142D01*
X0000653132Y0000574560D01*
X0000657270Y0000577515D01*
X0000659490Y0000580492D01*
X0000659938Y0000581822D01*
X0000660395Y0000584295D01*
X0000660868Y0000588030D01*
X0000661367Y0000593141D01*
X0000661900Y0000599747D01*
X0000662476Y0000607962D01*
X0000663103Y0000617904D01*
X0000663790Y0000629689D01*
X0000664546Y0000643434D01*
X0000665378Y0000659255D01*
X0000665590Y0000663366D01*
X0000666265Y0000676402D01*
X0000666918Y0000688766D01*
X0000667537Y0000700282D01*
X0000668114Y0000710773D01*
X0000668638Y0000720066D01*
X0000669099Y0000727985D01*
X0000669487Y0000734355D01*
X0000669792Y0000738999D01*
X0000670004Y0000741743D01*
X0000670101Y0000742453D01*
X0000671145Y0000741891D01*
X0000673890Y0000740379D01*
X0000678097Y0000738049D01*
X0000683526Y0000735035D01*
X0000689937Y0000731468D01*
X0000697091Y0000727483D01*
X0000700249Y0000725723D01*
X0000707871Y0000721524D01*
X0000715073Y0000717653D01*
X0000721572Y0000714256D01*
X0000727084Y0000711476D01*
X0000731327Y0000709459D01*
X0000734017Y0000708349D01*
X0000734521Y0000708205D01*
X0000738426Y0000707879D01*
X0000742171Y0000708301D01*
X0000742732Y0000708463D01*
X0000744833Y0000708878D01*
X0000747259Y0000708642D01*
X0000750509Y0000707633D01*
X0000755082Y0000705728D01*
X0000756622Y0000705037D01*
X0000761360Y0000702802D01*
X0000767827Y0000699610D01*
X0000775806Y0000695575D01*
X0000785079Y0000690809D01*
X0000795428Y0000685427D01*
X0000806636Y0000679541D01*
X0000818484Y0000673264D01*
X0000830754Y0000666709D01*
X0000840760Y0000661325D01*
X0000848780Y0000657045D01*
X0000855108Y0000653792D01*
X0000859965Y0000651466D01*
X0000863575Y0000649964D01*
X0000866158Y0000649186D01*
X0000867845Y0000649026D01*
X0000870155Y0000649017D01*
X0000871729Y0000648325D01*
X0000873191Y0000646484D01*
X0000874673Y0000643918D01*
X0000876446Y0000640868D01*
X0000877873Y0000639316D01*
X0000879686Y0000638818D01*
X0000882614Y0000638928D01*
X0000882830Y0000638944D01*
X0000886605Y0000638818D01*
X0000888776Y0000637869D01*
X0000888980Y0000637589D01*
X0000890345Y0000636445D01*
X0000891625Y0000636993D01*
X0000892159Y0000638777D01*
X0000892029Y0000639686D01*
X0000890569Y0000642598D01*
X0000887855Y0000643953D01*
X0000885206Y0000644119D01*
X0000883078Y0000644223D01*
X0000881555Y0000644996D01*
X0000880071Y0000646905D01*
X0000878470Y0000649673D01*
X0000876646Y0000652836D01*
X0000875246Y0000654486D01*
X0000873620Y0000655057D01*
X0000871118Y0000654982D01*
X0000870577Y0000654938D01*
X0000868879Y0000654908D01*
X0000867063Y0000655191D01*
X0000864848Y0000655918D01*
X0000861956Y0000657218D01*
X0000858107Y0000659222D01*
X0000853024Y0000662061D01*
X0000846426Y0000665865D01*
X0000843338Y0000667663D01*
X0000831897Y0000674400D01*
X0000819848Y0000681606D01*
X0000807621Y0000689015D01*
X0000795650Y0000696363D01*
X0000784367Y0000703384D01*
X0000774204Y0000709813D01*
X0000766487Y0000714800D01*
X0000761493Y0000718104D01*
X0000758005Y0000720558D01*
X0000755655Y0000722505D01*
X0000754074Y0000724288D01*
X0000752893Y0000726250D01*
X0000751904Y0000728374D01*
X0000749403Y0000734036D01*
X0000713999Y0000753733D01*
X0000705738Y0000758331D01*
X0000697964Y0000762664D01*
X0000690920Y0000766594D01*
X0000684854Y0000769984D01*
X0000680010Y0000772698D01*
X0000676633Y0000774597D01*
X0000675020Y0000775516D01*
X0000671445Y0000777603D01*
X0000673899Y0000823169D01*
X0000676353Y0000868736D01*
X0000672304Y0000876058D01*
X0000668255Y0000883380D01*
X0000668130Y0000906892D01*
X0000668126Y0000914394D01*
X0000668181Y0000923547D01*
X0000668287Y0000933779D01*
X0000668438Y0000944520D01*
X0000668625Y0000955197D01*
X0000668838Y0000965049D01*
X0000669061Y0000974422D01*
X0000669277Y0000983797D01*
X0000669479Y0000992748D01*
X0000669655Y0001000845D01*
X0000669798Y0001007660D01*
X0000669896Y0001012766D01*
X0000669910Y0001013524D01*
X0000670039Y0001020109D01*
X0000670220Y0001024896D01*
X0000670532Y0001028308D01*
X0000671055Y0001030767D01*
X0000671870Y0001032697D01*
X0000673058Y0001034522D01*
X0000674165Y0001035979D01*
X0000676090Y0001039084D01*
X0000676539Y0001041268D01*
X0000675588Y0001042240D01*
G36*
X0000936334Y0000919864D02*
X0000933432Y0000924907D01*
X0000931044Y0000928778D01*
X0000928901Y0000931871D01*
X0000926735Y0000934578D01*
X0000924274Y0000937292D01*
X0000921751Y0000939899D01*
X0000909220Y0000951192D01*
X0000895809Y0000960480D01*
X0000881572Y0000967730D01*
X0000868685Y0000972316D01*
X0000853884Y0000975525D01*
X0000839241Y0000976573D01*
X0000824886Y0000975471D01*
X0000810943Y0000972234D01*
X0000797542Y0000966873D01*
X0000793033Y0000964515D01*
X0000784195Y0000959135D01*
X0000776746Y0000953458D01*
X0000769883Y0000946821D01*
X0000765276Y0000941583D01*
X0000758591Y0000932345D01*
X0000752696Y0000921765D01*
X0000747878Y0000910500D01*
X0000744425Y0000899206D01*
X0000742806Y0000890327D01*
X0000742369Y0000886641D01*
X0000742036Y0000883906D01*
X0000741897Y0000882835D01*
X0000740943Y0000882117D01*
X0000738312Y0000880444D01*
X0000734250Y0000877967D01*
X0000729009Y0000874835D01*
X0000722837Y0000871199D01*
X0000715984Y0000867209D01*
X0000715651Y0000867017D01*
X0000689518Y0000851896D01*
X0000692293Y0000846206D01*
X0000694084Y0000842980D01*
X0000695899Y0000841132D01*
X0000698139Y0000840635D01*
X0000701205Y0000841463D01*
X0000705500Y0000843588D01*
X0000708251Y0000845139D01*
X0000712496Y0000847551D01*
X0000717941Y0000850602D01*
X0000723833Y0000853873D01*
X0000728580Y0000856484D01*
X0000741007Y0000863286D01*
X0000744778Y0000856484D01*
X0000723592Y0000844740D01*
X0000715849Y0000840399D01*
X0000709952Y0000836977D01*
X0000705764Y0000834388D01*
X0000703148Y0000832547D01*
X0000701969Y0000831369D01*
X0000701887Y0000831185D01*
X0000702082Y0000829167D01*
X0000703182Y0000826206D01*
X0000703846Y0000824902D01*
X0000705719Y0000822087D01*
X0000707539Y0000820229D01*
X0000708136Y0000819912D01*
X0000709319Y0000820081D01*
X0000711676Y0000821004D01*
X0000715351Y0000822753D01*
X0000720487Y0000825400D01*
X0000727227Y0000829016D01*
X0000735713Y0000833675D01*
X0000737450Y0000834637D01*
X0000764952Y0000849881D01*
X0000769262Y0000842107D01*
X0000741760Y0000826862D01*
X0000732970Y0000821956D01*
X0000726013Y0000817995D01*
X0000720754Y0000814895D01*
X0000717055Y0000812573D01*
X0000714779Y0000810945D01*
X0000713790Y0000809930D01*
X0000713738Y0000809805D01*
X0000713933Y0000807788D01*
X0000715033Y0000804827D01*
X0000715696Y0000803522D01*
X0000717570Y0000800708D01*
X0000719390Y0000798850D01*
X0000719987Y0000798532D01*
X0000721231Y0000798708D01*
X0000723694Y0000799674D01*
X0000727521Y0000801503D01*
X0000732856Y0000804267D01*
X0000739846Y0000808039D01*
X0000746442Y0000811672D01*
X0000771084Y0000825331D01*
X0000773075Y0000821036D01*
X0000775065Y0000816740D01*
X0000767950Y0000812416D01*
X0000763779Y0000809679D01*
X0000761470Y0000807634D01*
X0000760827Y0000806245D01*
X0000759869Y0000804468D01*
X0000757513Y0000802559D01*
X0000754515Y0000800929D01*
X0000751631Y0000799991D01*
X0000749635Y0000800145D01*
X0000748607Y0000800415D01*
X0000747009Y0000800062D01*
X0000744498Y0000798939D01*
X0000740731Y0000796896D01*
X0000736523Y0000794465D01*
X0000725070Y0000787757D01*
X0000727646Y0000782412D01*
X0000729321Y0000779182D01*
X0000730897Y0000777180D01*
X0000732761Y0000776391D01*
X0000735299Y0000776799D01*
X0000738899Y0000778390D01*
X0000743947Y0000781148D01*
X0000744985Y0000781737D01*
X0000749724Y0000784467D01*
X0000752821Y0000786388D01*
X0000754588Y0000787753D01*
X0000755338Y0000788810D01*
X0000755381Y0000789811D01*
X0000755329Y0000790040D01*
X0000755353Y0000791520D01*
X0000756552Y0000792917D01*
X0000759335Y0000794679D01*
X0000759828Y0000794954D01*
X0000762956Y0000796531D01*
X0000764870Y0000796959D01*
X0000766190Y0000796344D01*
X0000766469Y0000796071D01*
X0000768578Y0000795157D01*
X0000770044Y0000795710D01*
X0000771960Y0000796854D01*
X0000775195Y0000798660D01*
X0000779093Y0000800763D01*
X0000779634Y0000801049D01*
X0000787249Y0000805073D01*
X0000791020Y0000798270D01*
X0000764490Y0000783564D01*
X0000755855Y0000778743D01*
X0000749054Y0000774862D01*
X0000743951Y0000771839D01*
X0000740407Y0000769589D01*
X0000738286Y0000768030D01*
X0000737450Y0000767076D01*
X0000737440Y0000767046D01*
X0000737649Y0000764763D01*
X0000738909Y0000761706D01*
X0000740763Y0000758665D01*
X0000742757Y0000756426D01*
X0000743967Y0000755763D01*
X0000746040Y0000756177D01*
X0000749874Y0000757845D01*
X0000755413Y0000760741D01*
X0000757905Y0000762131D01*
X0000763479Y0000765269D01*
X0000769260Y0000768497D01*
X0000774478Y0000771388D01*
X0000777646Y0000773124D01*
X0000785455Y0000777369D01*
X0000791759Y0000772270D01*
X0000800454Y0000766216D01*
X0000810712Y0000760689D01*
X0000821889Y0000755960D01*
X0000833340Y0000752300D01*
X0000844422Y0000749980D01*
X0000844470Y0000749973D01*
X0000796230Y0000837000D01*
X0000788958Y0000850120D01*
X0000785949Y0000855646D01*
X0000783990Y0000859509D01*
X0000782979Y0000861944D01*
X0000782813Y0000863187D01*
X0000783143Y0000863474D01*
X0000784735Y0000863819D01*
X0000788015Y0000864590D01*
X0000792516Y0000865675D01*
X0000797770Y0000866962D01*
X0000798151Y0000867056D01*
X0000811701Y0000870404D01*
X0000813350Y0000874014D01*
X0000816518Y0000878918D01*
X0000820535Y0000882141D01*
X0000825022Y0000883613D01*
X0000829595Y0000883264D01*
X0000833873Y0000881023D01*
X0000836511Y0000878262D01*
X0000838960Y0000873443D01*
X0000839440Y0000868669D01*
X0000838178Y0000864308D01*
X0000835404Y0000860724D01*
X0000831348Y0000858283D01*
X0000826238Y0000857351D01*
X0000823532Y0000857539D01*
X0000818453Y0000858283D01*
X0000807341Y0000847642D01*
X0000796230Y0000837000D01*
X0000844470Y0000749973D01*
X0000844936Y0000749907D01*
X0000854022Y0000749218D01*
X0000864123Y0000749410D01*
X0000874256Y0000750415D01*
X0000883436Y0000752169D01*
X0000884953Y0000752570D01*
X0000894305Y0000755876D01*
X0000904069Y0000760546D01*
X0000913446Y0000766137D01*
X0000921634Y0000772206D01*
X0000923666Y0000773987D01*
X0000927805Y0000778396D01*
X0000909041Y0000812249D01*
X0000904274Y0000809708D01*
X0000900751Y0000808145D01*
X0000897845Y0000807335D01*
X0000894928Y0000807054D01*
X0000894493Y0000807045D01*
X0000885334Y0000807868D01*
X0000876954Y0000810560D01*
X0000873790Y0000812212D01*
X0000870020Y0000814907D01*
X0000866143Y0000818420D01*
X0000862727Y0000822163D01*
X0000860337Y0000825546D01*
X0000859734Y0000826831D01*
X0000858866Y0000829257D01*
X0000857689Y0000832527D01*
X0000857450Y0000833187D01*
X0000855957Y0000840353D01*
X0000856228Y0000848107D01*
X0000858142Y0000855858D01*
X0000861576Y0000863016D01*
X0000864356Y0000866827D01*
X0000870707Y0000872685D01*
X0000871899Y0000873345D01*
X0000855600Y0000902749D01*
X0000849585Y0000899630D01*
X0000844211Y0000898206D01*
X0000839052Y0000898275D01*
X0000833260Y0000899571D01*
X0000827803Y0000901798D01*
X0000823898Y0000904425D01*
X0000820294Y0000908972D01*
X0000817673Y0000914793D01*
X0000816366Y0000921037D01*
X0000816302Y0000923904D01*
X0000817290Y0000929488D01*
X0000819457Y0000934988D01*
X0000819718Y0000935467D01*
X0000821739Y0000938719D01*
X0000823869Y0000941067D01*
X0000826822Y0000943180D01*
X0000829724Y0000944858D01*
X0000833932Y0000947007D01*
X0000837274Y0000948140D01*
X0000840698Y0000948521D01*
X0000842702Y0000948514D01*
X0000849993Y0000947350D01*
X0000856216Y0000944448D01*
X0000861197Y0000940105D01*
X0000864760Y0000934620D01*
X0000866730Y0000928290D01*
X0000866933Y0000921412D01*
X0000865194Y0000914283D01*
X0000864192Y0000911984D01*
X0000860681Y0000907013D01*
X0000855600Y0000902749D01*
X0000871899Y0000873345D01*
X0000877967Y0000876706D01*
X0000885806Y0000878901D01*
X0000893893Y0000879279D01*
X0000901900Y0000877848D01*
X0000909497Y0000874618D01*
X0000916352Y0000869599D01*
X0000920336Y0000865278D01*
X0000924778Y0000857925D01*
X0000927275Y0000849837D01*
X0000927817Y0000841376D01*
X0000926392Y0000832902D01*
X0000922988Y0000824778D01*
X0000921698Y0000822645D01*
X0000919805Y0000819959D01*
X0000917815Y0000817847D01*
X0000915181Y0000815860D01*
X0000911356Y0000813548D01*
X0000909041Y0000812249D01*
X0000927805Y0000778396D01*
X0000933550Y0000784516D01*
X0000941748Y0000796361D01*
X0000948209Y0000809336D01*
X0000952884Y0000823253D01*
X0000955724Y0000837927D01*
X0000956676Y0000853169D01*
X0000955693Y0000868793D01*
X0000952974Y0000883596D01*
X0000951936Y0000887704D01*
X0000950910Y0000891189D01*
X0000949706Y0000894489D01*
X0000948132Y0000898042D01*
X0000945996Y0000902286D01*
X0000943107Y0000907661D01*
X0000940021Y0000913258D01*
X0000936334Y0000919864D01*
X0000936334Y0000919864D01*
G37*
X0000936334Y0000919864D02*
X0000933432Y0000924907D01*
X0000931044Y0000928778D01*
X0000928901Y0000931871D01*
X0000926735Y0000934578D01*
X0000924274Y0000937292D01*
X0000921751Y0000939899D01*
X0000909220Y0000951192D01*
X0000895809Y0000960480D01*
X0000881572Y0000967730D01*
X0000868685Y0000972316D01*
X0000853884Y0000975525D01*
X0000839241Y0000976573D01*
X0000824886Y0000975471D01*
X0000810943Y0000972234D01*
X0000797542Y0000966873D01*
X0000793033Y0000964515D01*
X0000784195Y0000959135D01*
X0000776746Y0000953458D01*
X0000769883Y0000946821D01*
X0000765276Y0000941583D01*
X0000758591Y0000932345D01*
X0000752696Y0000921765D01*
X0000747878Y0000910500D01*
X0000744425Y0000899206D01*
X0000742806Y0000890327D01*
X0000742369Y0000886641D01*
X0000742036Y0000883906D01*
X0000741897Y0000882835D01*
X0000740943Y0000882117D01*
X0000738312Y0000880444D01*
X0000734250Y0000877967D01*
X0000729009Y0000874835D01*
X0000722837Y0000871199D01*
X0000715984Y0000867209D01*
X0000715651Y0000867017D01*
X0000689518Y0000851896D01*
X0000692293Y0000846206D01*
X0000694084Y0000842980D01*
X0000695899Y0000841132D01*
X0000698139Y0000840635D01*
X0000701205Y0000841463D01*
X0000705500Y0000843588D01*
X0000708251Y0000845139D01*
X0000712496Y0000847551D01*
X0000717941Y0000850602D01*
X0000723833Y0000853873D01*
X0000728580Y0000856484D01*
X0000741007Y0000863286D01*
X0000744778Y0000856484D01*
X0000723592Y0000844740D01*
X0000715849Y0000840399D01*
X0000709952Y0000836977D01*
X0000705764Y0000834388D01*
X0000703148Y0000832547D01*
X0000701969Y0000831369D01*
X0000701887Y0000831185D01*
X0000702082Y0000829167D01*
X0000703182Y0000826206D01*
X0000703846Y0000824902D01*
X0000705719Y0000822087D01*
X0000707539Y0000820229D01*
X0000708136Y0000819912D01*
X0000709319Y0000820081D01*
X0000711676Y0000821004D01*
X0000715351Y0000822753D01*
X0000720487Y0000825400D01*
X0000727227Y0000829016D01*
X0000735713Y0000833675D01*
X0000737450Y0000834637D01*
X0000764952Y0000849881D01*
X0000769262Y0000842107D01*
X0000741760Y0000826862D01*
X0000732970Y0000821956D01*
X0000726013Y0000817995D01*
X0000720754Y0000814895D01*
X0000717055Y0000812573D01*
X0000714779Y0000810945D01*
X0000713790Y0000809930D01*
X0000713738Y0000809805D01*
X0000713933Y0000807788D01*
X0000715033Y0000804827D01*
X0000715696Y0000803522D01*
X0000717570Y0000800708D01*
X0000719390Y0000798850D01*
X0000719987Y0000798532D01*
X0000721231Y0000798708D01*
X0000723694Y0000799674D01*
X0000727521Y0000801503D01*
X0000732856Y0000804267D01*
X0000739846Y0000808039D01*
X0000746442Y0000811672D01*
X0000771084Y0000825331D01*
X0000773075Y0000821036D01*
X0000775065Y0000816740D01*
X0000767950Y0000812416D01*
X0000763779Y0000809679D01*
X0000761470Y0000807634D01*
X0000760827Y0000806245D01*
X0000759869Y0000804468D01*
X0000757513Y0000802559D01*
X0000754515Y0000800929D01*
X0000751631Y0000799991D01*
X0000749635Y0000800145D01*
X0000748607Y0000800415D01*
X0000747009Y0000800062D01*
X0000744498Y0000798939D01*
X0000740731Y0000796896D01*
X0000736523Y0000794465D01*
X0000725070Y0000787757D01*
X0000727646Y0000782412D01*
X0000729321Y0000779182D01*
X0000730897Y0000777180D01*
X0000732761Y0000776391D01*
X0000735299Y0000776799D01*
X0000738899Y0000778390D01*
X0000743947Y0000781148D01*
X0000744985Y0000781737D01*
X0000749724Y0000784467D01*
X0000752821Y0000786388D01*
X0000754588Y0000787753D01*
X0000755338Y0000788810D01*
X0000755381Y0000789811D01*
X0000755329Y0000790040D01*
X0000755353Y0000791520D01*
X0000756552Y0000792917D01*
X0000759335Y0000794679D01*
X0000759828Y0000794954D01*
X0000762956Y0000796531D01*
X0000764870Y0000796959D01*
X0000766190Y0000796344D01*
X0000766469Y0000796071D01*
X0000768578Y0000795157D01*
X0000770044Y0000795710D01*
X0000771960Y0000796854D01*
X0000775195Y0000798660D01*
X0000779093Y0000800763D01*
X0000779634Y0000801049D01*
X0000787249Y0000805073D01*
X0000791020Y0000798270D01*
X0000764490Y0000783564D01*
X0000755855Y0000778743D01*
X0000749054Y0000774862D01*
X0000743951Y0000771839D01*
X0000740407Y0000769589D01*
X0000738286Y0000768030D01*
X0000737450Y0000767076D01*
X0000737440Y0000767046D01*
X0000737649Y0000764763D01*
X0000738909Y0000761706D01*
X0000740763Y0000758665D01*
X0000742757Y0000756426D01*
X0000743967Y0000755763D01*
X0000746040Y0000756177D01*
X0000749874Y0000757845D01*
X0000755413Y0000760741D01*
X0000757905Y0000762131D01*
X0000763479Y0000765269D01*
X0000769260Y0000768497D01*
X0000774478Y0000771388D01*
X0000777646Y0000773124D01*
X0000785455Y0000777369D01*
X0000791759Y0000772270D01*
X0000800454Y0000766216D01*
X0000810712Y0000760689D01*
X0000821889Y0000755960D01*
X0000833340Y0000752300D01*
X0000844422Y0000749980D01*
X0000844470Y0000749973D01*
X0000796230Y0000837000D01*
X0000788958Y0000850120D01*
X0000785949Y0000855646D01*
X0000783990Y0000859509D01*
X0000782979Y0000861944D01*
X0000782813Y0000863187D01*
X0000783143Y0000863474D01*
X0000784735Y0000863819D01*
X0000788015Y0000864590D01*
X0000792516Y0000865675D01*
X0000797770Y0000866962D01*
X0000798151Y0000867056D01*
X0000811701Y0000870404D01*
X0000813350Y0000874014D01*
X0000816518Y0000878918D01*
X0000820535Y0000882141D01*
X0000825022Y0000883613D01*
X0000829595Y0000883264D01*
X0000833873Y0000881023D01*
X0000836511Y0000878262D01*
X0000838960Y0000873443D01*
X0000839440Y0000868669D01*
X0000838178Y0000864308D01*
X0000835404Y0000860724D01*
X0000831348Y0000858283D01*
X0000826238Y0000857351D01*
X0000823532Y0000857539D01*
X0000818453Y0000858283D01*
X0000807341Y0000847642D01*
X0000796230Y0000837000D01*
X0000844470Y0000749973D01*
X0000844936Y0000749907D01*
X0000854022Y0000749218D01*
X0000864123Y0000749410D01*
X0000874256Y0000750415D01*
X0000883436Y0000752169D01*
X0000884953Y0000752570D01*
X0000894305Y0000755876D01*
X0000904069Y0000760546D01*
X0000913446Y0000766137D01*
X0000921634Y0000772206D01*
X0000923666Y0000773987D01*
X0000927805Y0000778396D01*
X0000909041Y0000812249D01*
X0000904274Y0000809708D01*
X0000900751Y0000808145D01*
X0000897845Y0000807335D01*
X0000894928Y0000807054D01*
X0000894493Y0000807045D01*
X0000885334Y0000807868D01*
X0000876954Y0000810560D01*
X0000873790Y0000812212D01*
X0000870020Y0000814907D01*
X0000866143Y0000818420D01*
X0000862727Y0000822163D01*
X0000860337Y0000825546D01*
X0000859734Y0000826831D01*
X0000858866Y0000829257D01*
X0000857689Y0000832527D01*
X0000857450Y0000833187D01*
X0000855957Y0000840353D01*
X0000856228Y0000848107D01*
X0000858142Y0000855858D01*
X0000861576Y0000863016D01*
X0000864356Y0000866827D01*
X0000870707Y0000872685D01*
X0000871899Y0000873345D01*
X0000855600Y0000902749D01*
X0000849585Y0000899630D01*
X0000844211Y0000898206D01*
X0000839052Y0000898275D01*
X0000833260Y0000899571D01*
X0000827803Y0000901798D01*
X0000823898Y0000904425D01*
X0000820294Y0000908972D01*
X0000817673Y0000914793D01*
X0000816366Y0000921037D01*
X0000816302Y0000923904D01*
X0000817290Y0000929488D01*
X0000819457Y0000934988D01*
X0000819718Y0000935467D01*
X0000821739Y0000938719D01*
X0000823869Y0000941067D01*
X0000826822Y0000943180D01*
X0000829724Y0000944858D01*
X0000833932Y0000947007D01*
X0000837274Y0000948140D01*
X0000840698Y0000948521D01*
X0000842702Y0000948514D01*
X0000849993Y0000947350D01*
X0000856216Y0000944448D01*
X0000861197Y0000940105D01*
X0000864760Y0000934620D01*
X0000866730Y0000928290D01*
X0000866933Y0000921412D01*
X0000865194Y0000914283D01*
X0000864192Y0000911984D01*
X0000860681Y0000907013D01*
X0000855600Y0000902749D01*
X0000871899Y0000873345D01*
X0000877967Y0000876706D01*
X0000885806Y0000878901D01*
X0000893893Y0000879279D01*
X0000901900Y0000877848D01*
X0000909497Y0000874618D01*
X0000916352Y0000869599D01*
X0000920336Y0000865278D01*
X0000924778Y0000857925D01*
X0000927275Y0000849837D01*
X0000927817Y0000841376D01*
X0000926392Y0000832902D01*
X0000922988Y0000824778D01*
X0000921698Y0000822645D01*
X0000919805Y0000819959D01*
X0000917815Y0000817847D01*
X0000915181Y0000815860D01*
X0000911356Y0000813548D01*
X0000909041Y0000812249D01*
X0000927805Y0000778396D01*
X0000933550Y0000784516D01*
X0000941748Y0000796361D01*
X0000948209Y0000809336D01*
X0000952884Y0000823253D01*
X0000955724Y0000837927D01*
X0000956676Y0000853169D01*
X0000955693Y0000868793D01*
X0000952974Y0000883596D01*
X0000951936Y0000887704D01*
X0000950910Y0000891189D01*
X0000949706Y0000894489D01*
X0000948132Y0000898042D01*
X0000945996Y0000902286D01*
X0000943107Y0000907661D01*
X0000940021Y0000913258D01*
X0000936334Y0000919864D01*
D13*
X0001482507Y0000740751D03*
X0001430973Y0000833723D03*
X0000979282Y0001551146D03*
X0000927747Y0001644117D03*
D14*
X0001774825Y0000354291D03*
D15*
X0001931065Y0000426491D03*
X0001458632Y0000164618D03*
D14*
X0001619873Y0000268399D03*
G04 next file*
%LPD*%
G01*
D26*
D27*
X0002083520Y0002256749D02*
X0002072272Y0002256749D01*
X0002066647Y0002253937D01*
X0002061023Y0002248312D01*
X0002058211Y0002237064D01*
X0002058211Y0002217379D01*
X0002061023Y0002206130D01*
X0002066647Y0002200506D01*
X0002072272Y0002197694D01*
X0002083520Y0002197694D01*
X0002089144Y0002200506D01*
X0002094768Y0002206130D01*
X0002097581Y0002217379D01*
X0002097581Y0002237064D01*
X0002094768Y0002248312D01*
X0002089144Y0002253937D01*
X0002083520Y0002256749D01*
X0002038526Y0002237064D02*
X0002007591Y0002237064D01*
X0002038526Y0002197694D01*
X0002007591Y0002197694D01*
X0001956974Y0002197694D02*
X0001985095Y0002197694D01*
X0001985095Y0002256749D01*
X0001928852Y0002197694D02*
X0001934476Y0002200506D01*
X0001937288Y0002203318D01*
X0001940101Y0002208942D01*
X0001940101Y0002225815D01*
X0001937288Y0002231439D01*
X0001934476Y0002234251D01*
X0001928852Y0002237064D01*
X0001920416Y0002237064D01*
X0001914790Y0002234251D01*
X0001911978Y0002231439D01*
X0001909167Y0002225815D01*
X0001909167Y0002208942D01*
X0001911978Y0002203318D01*
X0001914790Y0002200506D01*
X0001920416Y0002197694D01*
X0001928852Y0002197694D01*
X0001858548Y0002200506D02*
X0001864173Y0002197694D01*
X0001875421Y0002197694D01*
X0001881046Y0002200506D01*
X0001883858Y0002203318D01*
X0001886669Y0002208942D01*
X0001886669Y0002225815D01*
X0001883858Y0002231439D01*
X0001881046Y0002234251D01*
X0001875421Y0002237064D01*
X0001864173Y0002237064D01*
X0001858548Y0002234251D01*
X0001833239Y0002197694D02*
X0001833239Y0002256749D01*
X0001827615Y0002220191D02*
X0001810742Y0002197694D01*
X0001810742Y0002237064D02*
X0001833239Y0002214566D01*
X0001751687Y0002203318D02*
X0001754499Y0002200506D01*
X0001762935Y0002197694D01*
X0001768560Y0002197694D01*
X0001776996Y0002200506D01*
X0001782620Y0002206130D01*
X0001785432Y0002211754D01*
X0001788245Y0002223003D01*
X0001788245Y0002231439D01*
X0001785432Y0002242688D01*
X0001782620Y0002248312D01*
X0001776996Y0002253937D01*
X0001768560Y0002256749D01*
X0001762935Y0002256749D01*
X0001754499Y0002253937D01*
X0001751687Y0002251124D01*
X0001717941Y0002197694D02*
X0001723565Y0002200506D01*
X0001726376Y0002203318D01*
X0001729190Y0002208942D01*
X0001729190Y0002225815D01*
X0001726376Y0002231439D01*
X0001723565Y0002234251D01*
X0001717941Y0002237064D01*
X0001709504Y0002237064D01*
X0001703880Y0002234251D01*
X0001701067Y0002231439D01*
X0001698256Y0002225815D01*
X0001698256Y0002208942D01*
X0001701067Y0002203318D01*
X0001703880Y0002200506D01*
X0001709504Y0002197694D01*
X0001717941Y0002197694D01*
X0001672947Y0002237064D02*
X0001672947Y0002197694D01*
X0001672947Y0002231439D02*
X0001670134Y0002234251D01*
X0001664509Y0002237064D01*
X0001656074Y0002237064D01*
X0001650449Y0002234251D01*
X0001647637Y0002228627D01*
X0001647637Y0002197694D01*
X0001577333Y0002251124D02*
X0001574521Y0002253937D01*
X0001568897Y0002256749D01*
X0001554836Y0002256749D01*
X0001549212Y0002253937D01*
X0001546400Y0002251124D01*
X0001543588Y0002245500D01*
X0001543588Y0002239876D01*
X0001546400Y0002231439D01*
X0001580146Y0002197694D01*
X0001543588Y0002197694D01*
X0001507030Y0002256749D02*
X0001501406Y0002256749D01*
X0001495781Y0002253937D01*
X0001492969Y0002251124D01*
X0001490156Y0002245500D01*
X0001487345Y0002234251D01*
X0001487345Y0002220191D01*
X0001490156Y0002208942D01*
X0001492969Y0002203318D01*
X0001495781Y0002200506D01*
X0001501406Y0002197694D01*
X0001507030Y0002197694D01*
X0001512654Y0002200506D01*
X0001515465Y0002203318D01*
X0001518278Y0002208942D01*
X0001521091Y0002220191D01*
X0001521091Y0002234251D01*
X0001518278Y0002245500D01*
X0001515465Y0002251124D01*
X0001512654Y0002253937D01*
X0001507030Y0002256749D01*
X0001431102Y0002197694D02*
X0001464847Y0002197694D01*
X0001447975Y0002197694D02*
X0001447975Y0002256749D01*
X0001453599Y0002248312D01*
X0001459223Y0002242688D01*
X0001464847Y0002239876D01*
X0001411417Y0002256749D02*
X0001372047Y0002256749D01*
X0001397356Y0002197694D01*
D28*
G36*
X0001476998Y0002538842D02*
X0001476363Y0002536598D01*
X0001476342Y0002535911D01*
X0001476523Y0002533349D01*
X0001477212Y0002531017D01*
X0001478620Y0002528700D01*
X0001480963Y0002526183D01*
X0001484457Y0002523252D01*
X0001489314Y0002519694D01*
X0001495750Y0002515293D01*
X0001499452Y0002512826D01*
X0001505110Y0002509069D01*
X0001512238Y0002504327D01*
X0001520463Y0002498849D01*
X0001529409Y0002492886D01*
X0001538701Y0002486687D01*
X0001547963Y0002480503D01*
X0001554804Y0002475931D01*
X0001563119Y0002470382D01*
X0001571172Y0002465025D01*
X0001578702Y0002460032D01*
X0001585446Y0002455577D01*
X0001591143Y0002451833D01*
X0001595529Y0002448973D01*
X0001598343Y0002447170D01*
X0001598429Y0002447117D01*
X0001602692Y0002444285D01*
X0001605364Y0002442015D01*
X0001606858Y0002439911D01*
X0001607369Y0002438538D01*
X0001608086Y0002436364D01*
X0001609096Y0002434335D01*
X0001610593Y0002432298D01*
X0001612764Y0002430100D01*
X0001615803Y0002427589D01*
X0001619899Y0002424611D01*
X0001625245Y0002421014D01*
X0001632030Y0002416645D01*
X0001640447Y0002411351D01*
X0001644662Y0002408724D01*
X0001652185Y0002404021D01*
X0001659066Y0002399680D01*
X0001665089Y0002395840D01*
X0001670033Y0002392644D01*
X0001673682Y0002390231D01*
X0001675817Y0002388742D01*
X0001676293Y0002388320D01*
X0001675365Y0002387636D01*
X0001672696Y0002385877D01*
X0001668433Y0002383135D01*
X0001662725Y0002379505D01*
X0001655721Y0002375079D01*
X0001647569Y0002369951D01*
X0001638417Y0002364214D01*
X0001628413Y0002357962D01*
X0001617705Y0002351289D01*
X0001607356Y0002344855D01*
X0001595978Y0002337768D01*
X0001585154Y0002330985D01*
X0001575036Y0002324602D01*
X0001565775Y0002318717D01*
X0001557521Y0002313428D01*
X0001550427Y0002308831D01*
X0001544643Y0002305024D01*
X0001540321Y0002302105D01*
X0001537611Y0002300170D01*
X0001536689Y0002299373D01*
X0001534801Y0002294759D01*
X0001534485Y0002289636D01*
X0001535767Y0002284915D01*
X0001536271Y0002284012D01*
X0001540294Y0002279495D01*
X0001545326Y0002276830D01*
X0001550992Y0002276131D01*
X0001556917Y0002277513D01*
X0001557224Y0002277643D01*
X0001558005Y0002278009D01*
X0001559063Y0002278561D01*
X0001560507Y0002279367D01*
X0001562445Y0002280494D01*
X0001564985Y0002282007D01*
X0001568233Y0002283974D01*
X0001572302Y0002286461D01*
X0001577296Y0002289535D01*
X0001583324Y0002293263D01*
X0001590495Y0002297711D01*
X0001598916Y0002302946D01*
X0001608695Y0002309034D01*
X0001619941Y0002316043D01*
X0001632762Y0002324039D01*
X0001647266Y0002333089D01*
X0001661227Y0002341803D01*
X0001670403Y0002347498D01*
X0001678975Y0002352755D01*
X0001686759Y0002357465D01*
X0001693571Y0002361519D01*
X0001699221Y0002364807D01*
X0001703530Y0002367220D01*
X0001706308Y0002368649D01*
X0001707339Y0002369006D01*
X0001708545Y0002368356D01*
X0001711487Y0002366619D01*
X0001716015Y0002363885D01*
X0001721981Y0002360247D01*
X0001729235Y0002355796D01*
X0001737632Y0002350623D01*
X0001747020Y0002344819D01*
X0001757251Y0002338477D01*
X0001768177Y0002331687D01*
X0001779650Y0002324541D01*
X0001781479Y0002323399D01*
X0001796322Y0002314159D01*
X0001809370Y0002306074D01*
X0001820699Y0002299100D01*
X0001830385Y0002293193D01*
X0001838503Y0002288306D01*
X0001845129Y0002284395D01*
X0001850339Y0002281415D01*
X0001854207Y0002279320D01*
X0001856810Y0002278066D01*
X0001858147Y0002277617D01*
X0001863330Y0002277837D01*
X0001867884Y0002279840D01*
X0001871547Y0002283218D01*
X0001874058Y0002287562D01*
X0001875154Y0002292465D01*
X0001874576Y0002297517D01*
X0001873049Y0002300902D01*
X0001872103Y0002301939D01*
X0001870161Y0002303537D01*
X0001867124Y0002305762D01*
X0001862895Y0002308676D01*
X0001857376Y0002312345D01*
X0001850469Y0002316831D01*
X0001842079Y0002322200D01*
X0001832104Y0002328514D01*
X0001820449Y0002335839D01*
X0001807015Y0002344237D01*
X0001803523Y0002346415D01*
X0001792448Y0002353326D01*
X0001781951Y0002359891D01*
X0001772179Y0002366016D01*
X0001763283Y0002371607D01*
X0001755409Y0002376570D01*
X0001748706Y0002380812D01*
X0001743324Y0002384239D01*
X0001739410Y0002386758D01*
X0001737112Y0002388274D01*
X0001736539Y0002388703D01*
X0001737537Y0002389344D01*
X0001740189Y0002391012D01*
X0001744266Y0002393561D01*
X0001749535Y0002396848D01*
X0001755762Y0002400726D01*
X0001762716Y0002405052D01*
X0001765787Y0002406960D01*
X0001773155Y0002411591D01*
X0001780032Y0002416013D01*
X0001786154Y0002420050D01*
X0001791257Y0002423524D01*
X0001795079Y0002426257D01*
X0001797354Y0002428071D01*
X0001797723Y0002428442D01*
X0001799902Y0002431700D01*
X0001801349Y0002435180D01*
X0001801479Y0002435749D01*
X0001802135Y0002437787D01*
X0001803516Y0002439795D01*
X0001805975Y0002442148D01*
X0001809859Y0002445224D01*
X0001811209Y0002446237D01*
X0001815461Y0002449296D01*
X0001821388Y0002453405D01*
X0001828786Y0002458427D01*
X0001837449Y0002464227D01*
X0001847174Y0002470670D01*
X0001857756Y0002477618D01*
X0001868990Y0002484938D01*
X0001880672Y0002492492D01*
X0001890231Y0002498633D01*
X0001897863Y0002503573D01*
X0001903775Y0002507530D01*
X0001908166Y0002510650D01*
X0001911229Y0002513079D01*
X0001913161Y0002514962D01*
X0001914120Y0002516360D01*
X0001915248Y0002518375D01*
X0001916616Y0002519416D01*
X0001918935Y0002519803D01*
X0001921898Y0002519855D01*
X0001925425Y0002519927D01*
X0001927474Y0002520423D01*
X0001928788Y0002521767D01*
X0001930111Y0002524381D01*
X0001930203Y0002524576D01*
X0001932143Y0002527819D01*
X0001934026Y0002529257D01*
X0001934369Y0002529300D01*
X0001936031Y0002529939D01*
X0001936173Y0002531324D01*
X0001934872Y0002532656D01*
X0001934013Y0002532983D01*
X0001930758Y0002533118D01*
X0001928257Y0002531401D01*
X0001926828Y0002529164D01*
X0001925706Y0002527354D01*
X0001924291Y0002526397D01*
X0001921902Y0002526024D01*
X0001918705Y0002525966D01*
X0001915054Y0002525904D01*
X0001912932Y0002525480D01*
X0001911644Y0002524333D01*
X0001910497Y0002522110D01*
X0001910273Y0002521615D01*
X0001909477Y0002520116D01*
X0001908348Y0002518664D01*
X0001906639Y0002517079D01*
X0001904099Y0002515180D01*
X0001900481Y0002512786D01*
X0001895534Y0002509716D01*
X0001889008Y0002505789D01*
X0001885938Y0002503960D01*
X0001874498Y0002497220D01*
X0001862355Y0002490175D01*
X0001849946Y0002483074D01*
X0001837717Y0002476166D01*
X0001826106Y0002469701D01*
X0001815556Y0002463930D01*
X0001807454Y0002459597D01*
X0001802142Y0002456831D01*
X0001798305Y0002454970D01*
X0001795463Y0002453859D01*
X0001793137Y0002453340D01*
X0001790848Y0002453259D01*
X0001788511Y0002453423D01*
X0001782346Y0002453982D01*
X0001747956Y0002432566D01*
X0001739929Y0002427570D01*
X0001732370Y0002422871D01*
X0001725518Y0002418616D01*
X0001719612Y0002414954D01*
X0001714890Y0002412032D01*
X0001711592Y0002410000D01*
X0001710006Y0002409035D01*
X0001706447Y0002406920D01*
X0001667784Y0002431157D01*
X0001629120Y0002455394D01*
X0001620753Y0002455402D01*
X0001612386Y0002455411D01*
X0001591762Y0002466700D01*
X0001585198Y0002470335D01*
X0001577219Y0002474820D01*
X0001568321Y0002479874D01*
X0001559001Y0002485212D01*
X0001549753Y0002490552D01*
X0001541240Y0002495515D01*
X0001533150Y0002500254D01*
X0001525055Y0002504989D01*
X0001517324Y0002509504D01*
X0001510328Y0002513584D01*
X0001504436Y0002517012D01*
X0001500019Y0002519574D01*
X0001499362Y0002519953D01*
X0001493665Y0002523259D01*
X0001489566Y0002525738D01*
X0001486733Y0002527665D01*
X0001484836Y0002529315D01*
X0001483542Y0002530964D01*
X0001482523Y0002532887D01*
X0001481785Y0002534562D01*
X0001480002Y0002537751D01*
X0001478310Y0002539202D01*
X0001476998Y0002538842D01*
X0001476998Y0002538842D01*
G37*
X0001476998Y0002538842D02*
X0001476363Y0002536598D01*
X0001476342Y0002535911D01*
X0001476523Y0002533349D01*
X0001477212Y0002531017D01*
X0001478620Y0002528700D01*
X0001480963Y0002526183D01*
X0001484457Y0002523252D01*
X0001489314Y0002519694D01*
X0001495750Y0002515293D01*
X0001499452Y0002512826D01*
X0001505110Y0002509069D01*
X0001512238Y0002504327D01*
X0001520463Y0002498849D01*
X0001529409Y0002492886D01*
X0001538701Y0002486687D01*
X0001547963Y0002480503D01*
X0001554804Y0002475931D01*
X0001563119Y0002470382D01*
X0001571172Y0002465025D01*
X0001578702Y0002460032D01*
X0001585446Y0002455577D01*
X0001591143Y0002451833D01*
X0001595529Y0002448973D01*
X0001598343Y0002447170D01*
X0001598429Y0002447117D01*
X0001602692Y0002444285D01*
X0001605364Y0002442015D01*
X0001606858Y0002439911D01*
X0001607369Y0002438538D01*
X0001608086Y0002436364D01*
X0001609096Y0002434335D01*
X0001610593Y0002432298D01*
X0001612764Y0002430100D01*
X0001615803Y0002427589D01*
X0001619899Y0002424611D01*
X0001625245Y0002421014D01*
X0001632030Y0002416645D01*
X0001640447Y0002411351D01*
X0001644662Y0002408724D01*
X0001652185Y0002404021D01*
X0001659066Y0002399680D01*
X0001665089Y0002395840D01*
X0001670033Y0002392644D01*
X0001673682Y0002390231D01*
X0001675817Y0002388742D01*
X0001676293Y0002388320D01*
X0001675365Y0002387636D01*
X0001672696Y0002385877D01*
X0001668433Y0002383135D01*
X0001662725Y0002379505D01*
X0001655721Y0002375079D01*
X0001647569Y0002369951D01*
X0001638417Y0002364214D01*
X0001628413Y0002357962D01*
X0001617705Y0002351289D01*
X0001607356Y0002344855D01*
X0001595978Y0002337768D01*
X0001585154Y0002330985D01*
X0001575036Y0002324602D01*
X0001565775Y0002318717D01*
X0001557521Y0002313428D01*
X0001550427Y0002308831D01*
X0001544643Y0002305024D01*
X0001540321Y0002302105D01*
X0001537611Y0002300170D01*
X0001536689Y0002299373D01*
X0001534801Y0002294759D01*
X0001534485Y0002289636D01*
X0001535767Y0002284915D01*
X0001536271Y0002284012D01*
X0001540294Y0002279495D01*
X0001545326Y0002276830D01*
X0001550992Y0002276131D01*
X0001556917Y0002277513D01*
X0001557224Y0002277643D01*
X0001558005Y0002278009D01*
X0001559063Y0002278561D01*
X0001560507Y0002279367D01*
X0001562445Y0002280494D01*
X0001564985Y0002282007D01*
X0001568233Y0002283974D01*
X0001572302Y0002286461D01*
X0001577296Y0002289535D01*
X0001583324Y0002293263D01*
X0001590495Y0002297711D01*
X0001598916Y0002302946D01*
X0001608695Y0002309034D01*
X0001619941Y0002316043D01*
X0001632762Y0002324039D01*
X0001647266Y0002333089D01*
X0001661227Y0002341803D01*
X0001670403Y0002347498D01*
X0001678975Y0002352755D01*
X0001686759Y0002357465D01*
X0001693571Y0002361519D01*
X0001699221Y0002364807D01*
X0001703530Y0002367220D01*
X0001706308Y0002368649D01*
X0001707339Y0002369006D01*
X0001708545Y0002368356D01*
X0001711487Y0002366619D01*
X0001716015Y0002363885D01*
X0001721981Y0002360247D01*
X0001729235Y0002355796D01*
X0001737632Y0002350623D01*
X0001747020Y0002344819D01*
X0001757251Y0002338477D01*
X0001768177Y0002331687D01*
X0001779650Y0002324541D01*
X0001781479Y0002323399D01*
X0001796322Y0002314159D01*
X0001809370Y0002306074D01*
X0001820699Y0002299100D01*
X0001830385Y0002293193D01*
X0001838503Y0002288306D01*
X0001845129Y0002284395D01*
X0001850339Y0002281415D01*
X0001854207Y0002279320D01*
X0001856810Y0002278066D01*
X0001858147Y0002277617D01*
X0001863330Y0002277837D01*
X0001867884Y0002279840D01*
X0001871547Y0002283218D01*
X0001874058Y0002287562D01*
X0001875154Y0002292465D01*
X0001874576Y0002297517D01*
X0001873049Y0002300902D01*
X0001872103Y0002301939D01*
X0001870161Y0002303537D01*
X0001867124Y0002305762D01*
X0001862895Y0002308676D01*
X0001857376Y0002312345D01*
X0001850469Y0002316831D01*
X0001842079Y0002322200D01*
X0001832104Y0002328514D01*
X0001820449Y0002335839D01*
X0001807015Y0002344237D01*
X0001803523Y0002346415D01*
X0001792448Y0002353326D01*
X0001781951Y0002359891D01*
X0001772179Y0002366016D01*
X0001763283Y0002371607D01*
X0001755409Y0002376570D01*
X0001748706Y0002380812D01*
X0001743324Y0002384239D01*
X0001739410Y0002386758D01*
X0001737112Y0002388274D01*
X0001736539Y0002388703D01*
X0001737537Y0002389344D01*
X0001740189Y0002391012D01*
X0001744266Y0002393561D01*
X0001749535Y0002396848D01*
X0001755762Y0002400726D01*
X0001762716Y0002405052D01*
X0001765787Y0002406960D01*
X0001773155Y0002411591D01*
X0001780032Y0002416013D01*
X0001786154Y0002420050D01*
X0001791257Y0002423524D01*
X0001795079Y0002426257D01*
X0001797354Y0002428071D01*
X0001797723Y0002428442D01*
X0001799902Y0002431700D01*
X0001801349Y0002435180D01*
X0001801479Y0002435749D01*
X0001802135Y0002437787D01*
X0001803516Y0002439795D01*
X0001805975Y0002442148D01*
X0001809859Y0002445224D01*
X0001811209Y0002446237D01*
X0001815461Y0002449296D01*
X0001821388Y0002453405D01*
X0001828786Y0002458427D01*
X0001837449Y0002464227D01*
X0001847174Y0002470670D01*
X0001857756Y0002477618D01*
X0001868990Y0002484938D01*
X0001880672Y0002492492D01*
X0001890231Y0002498633D01*
X0001897863Y0002503573D01*
X0001903775Y0002507530D01*
X0001908166Y0002510650D01*
X0001911229Y0002513079D01*
X0001913161Y0002514962D01*
X0001914120Y0002516360D01*
X0001915248Y0002518375D01*
X0001916616Y0002519416D01*
X0001918935Y0002519803D01*
X0001921898Y0002519855D01*
X0001925425Y0002519927D01*
X0001927474Y0002520423D01*
X0001928788Y0002521767D01*
X0001930111Y0002524381D01*
X0001930203Y0002524576D01*
X0001932143Y0002527819D01*
X0001934026Y0002529257D01*
X0001934369Y0002529300D01*
X0001936031Y0002529939D01*
X0001936173Y0002531324D01*
X0001934872Y0002532656D01*
X0001934013Y0002532983D01*
X0001930758Y0002533118D01*
X0001928257Y0002531401D01*
X0001926828Y0002529164D01*
X0001925706Y0002527354D01*
X0001924291Y0002526397D01*
X0001921902Y0002526024D01*
X0001918705Y0002525966D01*
X0001915054Y0002525904D01*
X0001912932Y0002525480D01*
X0001911644Y0002524333D01*
X0001910497Y0002522110D01*
X0001910273Y0002521615D01*
X0001909477Y0002520116D01*
X0001908348Y0002518664D01*
X0001906639Y0002517079D01*
X0001904099Y0002515180D01*
X0001900481Y0002512786D01*
X0001895534Y0002509716D01*
X0001889008Y0002505789D01*
X0001885938Y0002503960D01*
X0001874498Y0002497220D01*
X0001862355Y0002490175D01*
X0001849946Y0002483074D01*
X0001837717Y0002476166D01*
X0001826106Y0002469701D01*
X0001815556Y0002463930D01*
X0001807454Y0002459597D01*
X0001802142Y0002456831D01*
X0001798305Y0002454970D01*
X0001795463Y0002453859D01*
X0001793137Y0002453340D01*
X0001790848Y0002453259D01*
X0001788511Y0002453423D01*
X0001782346Y0002453982D01*
X0001747956Y0002432566D01*
X0001739929Y0002427570D01*
X0001732370Y0002422871D01*
X0001725518Y0002418616D01*
X0001719612Y0002414954D01*
X0001714890Y0002412032D01*
X0001711592Y0002410000D01*
X0001710006Y0002409035D01*
X0001706447Y0002406920D01*
X0001667784Y0002431157D01*
X0001629120Y0002455394D01*
X0001620753Y0002455402D01*
X0001612386Y0002455411D01*
X0001591762Y0002466700D01*
X0001585198Y0002470335D01*
X0001577219Y0002474820D01*
X0001568321Y0002479874D01*
X0001559001Y0002485212D01*
X0001549753Y0002490552D01*
X0001541240Y0002495515D01*
X0001533150Y0002500254D01*
X0001525055Y0002504989D01*
X0001517324Y0002509504D01*
X0001510328Y0002513584D01*
X0001504436Y0002517012D01*
X0001500019Y0002519574D01*
X0001499362Y0002519953D01*
X0001493665Y0002523259D01*
X0001489566Y0002525738D01*
X0001486733Y0002527665D01*
X0001484836Y0002529315D01*
X0001483542Y0002530964D01*
X0001482523Y0002532887D01*
X0001481785Y0002534562D01*
X0001480002Y0002537751D01*
X0001478310Y0002539202D01*
X0001476998Y0002538842D01*
G36*
X0001710444Y0002707566D02*
X0001704626Y0002707472D01*
X0001700082Y0002707261D01*
X0001696338Y0002706887D01*
X0001692920Y0002706304D01*
X0001689354Y0002705468D01*
X0001685850Y0002704524D01*
X0001669899Y0002699040D01*
X0001655273Y0002691813D01*
X0001642030Y0002682876D01*
X0001631772Y0002673828D01*
X0001621788Y0002662439D01*
X0001613773Y0002650140D01*
X0001607777Y0002637050D01*
X0001603850Y0002623285D01*
X0001602041Y0002608966D01*
X0001601917Y0002603878D01*
X0001602338Y0002593541D01*
X0001603692Y0002584274D01*
X0001606169Y0002575053D01*
X0001608517Y0002568484D01*
X0001613356Y0002558160D01*
X0001619752Y0002547874D01*
X0001627268Y0002538199D01*
X0001635472Y0002529703D01*
X0001642454Y0002523983D01*
X0001645465Y0002521813D01*
X0001647696Y0002520197D01*
X0001648565Y0002519556D01*
X0001648730Y0002518374D01*
X0001648918Y0002515261D01*
X0001649116Y0002510508D01*
X0001649314Y0002504405D01*
X0001649502Y0002497244D01*
X0001649669Y0002489316D01*
X0001649676Y0002488931D01*
X0001650231Y0002458744D01*
X0001656553Y0002458413D01*
X0001660243Y0002458416D01*
X0001662739Y0002459107D01*
X0001664259Y0002460825D01*
X0001665022Y0002463908D01*
X0001665245Y0002468695D01*
X0001665223Y0002471853D01*
X0001665172Y0002476735D01*
X0001665142Y0002482977D01*
X0001665138Y0002489715D01*
X0001665155Y0002495133D01*
X0001665231Y0002509300D01*
X0001673009Y0002509300D01*
X0001673009Y0002485077D01*
X0001673051Y0002476200D01*
X0001673186Y0002469383D01*
X0001673420Y0002464465D01*
X0001673762Y0002461285D01*
X0001674221Y0002459683D01*
X0001674342Y0002459522D01*
X0001676201Y0002458714D01*
X0001679324Y0002458240D01*
X0001680787Y0002458188D01*
X0001684156Y0002458463D01*
X0001686663Y0002459154D01*
X0001687231Y0002459522D01*
X0001687657Y0002460638D01*
X0001687992Y0002463147D01*
X0001688244Y0002467210D01*
X0001688419Y0002472985D01*
X0001688523Y0002480633D01*
X0001688564Y0002490314D01*
X0001688565Y0002492300D01*
X0001688565Y0002523744D01*
X0001697454Y0002523744D01*
X0001697454Y0002492300D01*
X0001697483Y0002482233D01*
X0001697574Y0002474228D01*
X0001697737Y0002468125D01*
X0001697974Y0002463764D01*
X0001698294Y0002460985D01*
X0001698703Y0002459628D01*
X0001698787Y0002459522D01*
X0001700646Y0002458714D01*
X0001703769Y0002458240D01*
X0001705231Y0002458188D01*
X0001708601Y0002458463D01*
X0001711109Y0002459154D01*
X0001711676Y0002459522D01*
X0001712126Y0002460695D01*
X0001712475Y0002463318D01*
X0001712729Y0002467552D01*
X0001712899Y0002473558D01*
X0001712989Y0002481500D01*
X0001713009Y0002489030D01*
X0001713009Y0002517205D01*
X0001717731Y0002516863D01*
X0001722454Y0002516522D01*
X0001722785Y0002508202D01*
X0001723157Y0002503227D01*
X0001723826Y0002500216D01*
X0001724729Y0002498981D01*
X0001725819Y0002497282D01*
X0001726347Y0002494295D01*
X0001726319Y0002490883D01*
X0001725742Y0002487906D01*
X0001724639Y0002486234D01*
X0001723904Y0002485466D01*
X0001723438Y0002483897D01*
X0001723203Y0002481157D01*
X0001723164Y0002476871D01*
X0001723249Y0002472012D01*
X0001723565Y0002458744D01*
X0001729488Y0002458405D01*
X0001733125Y0002458305D01*
X0001735640Y0002458713D01*
X0001737233Y0002459960D01*
X0001738107Y0002462378D01*
X0001738461Y0002466297D01*
X0001738496Y0002472050D01*
X0001738485Y0002473243D01*
X0001738395Y0002478712D01*
X0001738215Y0002482352D01*
X0001737879Y0002484559D01*
X0001737317Y0002485727D01*
X0001736463Y0002486250D01*
X0001736237Y0002486316D01*
X0001734955Y0002487054D01*
X0001734314Y0002488780D01*
X0001734122Y0002492068D01*
X0001734120Y0002492633D01*
X0001734258Y0002496133D01*
X0001734811Y0002498015D01*
X0001735989Y0002498871D01*
X0001736363Y0002498983D01*
X0001738185Y0002500385D01*
X0001738413Y0002501935D01*
X0001738341Y0002504165D01*
X0001738328Y0002507869D01*
X0001738380Y0002512299D01*
X0001738392Y0002512911D01*
X0001738565Y0002521522D01*
X0001746342Y0002521522D01*
X0001746342Y0002491188D01*
X0001746373Y0002481298D01*
X0001746470Y0002473469D01*
X0001746640Y0002467540D01*
X0001746889Y0002463350D01*
X0001747225Y0002460738D01*
X0001747654Y0002459545D01*
X0001747676Y0002459522D01*
X0001749774Y0002458598D01*
X0001753058Y0002458218D01*
X0001756617Y0002458365D01*
X0001759542Y0002459023D01*
X0001760708Y0002459760D01*
X0001761351Y0002461774D01*
X0001761751Y0002465936D01*
X0001761903Y0002472184D01*
X0001761895Y0002475038D01*
X0001761853Y0002481434D01*
X0001761833Y0002488056D01*
X0001761835Y0002494021D01*
X0001761852Y0002497633D01*
X0001761925Y0002506522D01*
X0001769442Y0002509563D01*
X0001778952Y0002514233D01*
X0001788759Y0002520524D01*
X0001798314Y0002528008D01*
X0001807066Y0002536249D01*
X0001814468Y0002544817D01*
X0001814497Y0002544855D01*
X0001714994Y0002544855D01*
X0001699994Y0002544855D01*
X0001693701Y0002544903D01*
X0001689373Y0002545063D01*
X0001686754Y0002545359D01*
X0001685586Y0002545816D01*
X0001685495Y0002546244D01*
X0001685965Y0002547803D01*
X0001686881Y0002551046D01*
X0001688114Y0002555508D01*
X0001689535Y0002560728D01*
X0001689638Y0002561107D01*
X0001693279Y0002574581D01*
X0001690921Y0002577773D01*
X0001688168Y0002582921D01*
X0001687296Y0002587998D01*
X0001688184Y0002592635D01*
X0001690707Y0002596466D01*
X0001694741Y0002599122D01*
X0001698435Y0002600090D01*
X0001703836Y0002599895D01*
X0001708244Y0002598001D01*
X0001711447Y0002594783D01*
X0001713237Y0002590619D01*
X0001713405Y0002585888D01*
X0001711743Y0002580967D01*
X0001710267Y0002578691D01*
X0001707154Y0002574609D01*
X0001711074Y0002559733D01*
X0001714994Y0002544855D01*
X0001814497Y0002544855D01*
X0001814781Y0002545231D01*
X0001819788Y0002552844D01*
X0001824518Y0002561771D01*
X0001828551Y0002571121D01*
X0001831468Y0002580000D01*
X0001831852Y0002581522D01*
X0001833494Y0002591304D01*
X0001834143Y0002602108D01*
X0001833800Y0002613019D01*
X0001832461Y0002623123D01*
X0001831889Y0002625764D01*
X0001830038Y0002631522D01*
X0001791334Y0002631522D01*
X0001791245Y0002626121D01*
X0001790904Y0002622282D01*
X0001790204Y0002619348D01*
X0001789035Y0002616661D01*
X0001788833Y0002616275D01*
X0001783673Y0002608664D01*
X0001777255Y0002602640D01*
X0001774276Y0002600673D01*
X0001770092Y0002598682D01*
X0001765140Y0002596995D01*
X0001760210Y0002595821D01*
X0001756092Y0002595371D01*
X0001754676Y0002595467D01*
X0001752133Y0002595884D01*
X0001748702Y0002596440D01*
X0001748009Y0002596550D01*
X0001741018Y0002598720D01*
X0001734368Y0002602715D01*
X0001728517Y0002608147D01*
X0001723921Y0002614621D01*
X0001721935Y0002618900D01*
X0001719891Y0002627293D01*
X0001719892Y0002628657D01*
X0001686272Y0002628657D01*
X0001686084Y0002621884D01*
X0001684724Y0002616494D01*
X0001682163Y0002612015D01*
X0001678221Y0002607578D01*
X0001673628Y0002603884D01*
X0001669437Y0002601742D01*
X0001663713Y0002600795D01*
X0001657351Y0002601325D01*
X0001651256Y0002603209D01*
X0001648717Y0002604542D01*
X0001644311Y0002608114D01*
X0001640553Y0002612675D01*
X0001640261Y0002613136D01*
X0001638396Y0002616480D01*
X0001637374Y0002619481D01*
X0001636959Y0002623089D01*
X0001636898Y0002626440D01*
X0001637058Y0002631163D01*
X0001637688Y0002634635D01*
X0001639015Y0002637814D01*
X0001639992Y0002639564D01*
X0001644545Y0002645376D01*
X0001650100Y0002649412D01*
X0001656313Y0002651663D01*
X0001662838Y0002652119D01*
X0001669330Y0002650774D01*
X0001675444Y0002647617D01*
X0001680835Y0002642640D01*
X0001682361Y0002640649D01*
X0001685006Y0002635168D01*
X0001686272Y0002628657D01*
X0001719892Y0002628657D01*
X0001719893Y0002635593D01*
X0001721774Y0002643514D01*
X0001725365Y0002650771D01*
X0001730498Y0002657079D01*
X0001737005Y0002662158D01*
X0001744719Y0002665719D01*
X0001750430Y0002667109D01*
X0001759014Y0002667430D01*
X0001767299Y0002665694D01*
X0001774962Y0002662066D01*
X0001781682Y0002656711D01*
X0001787137Y0002649795D01*
X0001788378Y0002647633D01*
X0001789809Y0002644674D01*
X0001790691Y0002641909D01*
X0001791152Y0002638644D01*
X0001791320Y0002634176D01*
X0001791334Y0002631522D01*
X0001830038Y0002631522D01*
X0001827472Y0002639513D01*
X0001821087Y0002652425D01*
X0001812871Y0002664367D01*
X0001802965Y0002675204D01*
X0001791508Y0002684801D01*
X0001778639Y0002693024D01*
X0001764497Y0002699738D01*
X0001750231Y0002704537D01*
X0001746135Y0002705621D01*
X0001742590Y0002706413D01*
X0001739120Y0002706959D01*
X0001735249Y0002707305D01*
X0001730502Y0002707495D01*
X0001724401Y0002707573D01*
X0001718009Y0002707588D01*
X0001710444Y0002707566D01*
X0001710444Y0002707566D01*
G37*
X0001710444Y0002707566D02*
X0001704626Y0002707472D01*
X0001700082Y0002707261D01*
X0001696338Y0002706887D01*
X0001692920Y0002706304D01*
X0001689354Y0002705468D01*
X0001685850Y0002704524D01*
X0001669899Y0002699040D01*
X0001655273Y0002691813D01*
X0001642030Y0002682876D01*
X0001631772Y0002673828D01*
X0001621788Y0002662439D01*
X0001613773Y0002650140D01*
X0001607777Y0002637050D01*
X0001603850Y0002623285D01*
X0001602041Y0002608966D01*
X0001601917Y0002603878D01*
X0001602338Y0002593541D01*
X0001603692Y0002584274D01*
X0001606169Y0002575053D01*
X0001608517Y0002568484D01*
X0001613356Y0002558160D01*
X0001619752Y0002547874D01*
X0001627268Y0002538199D01*
X0001635472Y0002529703D01*
X0001642454Y0002523983D01*
X0001645465Y0002521813D01*
X0001647696Y0002520197D01*
X0001648565Y0002519556D01*
X0001648730Y0002518374D01*
X0001648918Y0002515261D01*
X0001649116Y0002510508D01*
X0001649314Y0002504405D01*
X0001649502Y0002497244D01*
X0001649669Y0002489316D01*
X0001649676Y0002488931D01*
X0001650231Y0002458744D01*
X0001656553Y0002458413D01*
X0001660243Y0002458416D01*
X0001662739Y0002459107D01*
X0001664259Y0002460825D01*
X0001665022Y0002463908D01*
X0001665245Y0002468695D01*
X0001665223Y0002471853D01*
X0001665172Y0002476735D01*
X0001665142Y0002482977D01*
X0001665138Y0002489715D01*
X0001665155Y0002495133D01*
X0001665231Y0002509300D01*
X0001673009Y0002509300D01*
X0001673009Y0002485077D01*
X0001673051Y0002476200D01*
X0001673186Y0002469383D01*
X0001673420Y0002464465D01*
X0001673762Y0002461285D01*
X0001674221Y0002459683D01*
X0001674342Y0002459522D01*
X0001676201Y0002458714D01*
X0001679324Y0002458240D01*
X0001680787Y0002458188D01*
X0001684156Y0002458463D01*
X0001686663Y0002459154D01*
X0001687231Y0002459522D01*
X0001687657Y0002460638D01*
X0001687992Y0002463147D01*
X0001688244Y0002467210D01*
X0001688419Y0002472985D01*
X0001688523Y0002480633D01*
X0001688564Y0002490314D01*
X0001688565Y0002492300D01*
X0001688565Y0002523744D01*
X0001697454Y0002523744D01*
X0001697454Y0002492300D01*
X0001697483Y0002482233D01*
X0001697574Y0002474228D01*
X0001697737Y0002468125D01*
X0001697974Y0002463764D01*
X0001698294Y0002460985D01*
X0001698703Y0002459628D01*
X0001698787Y0002459522D01*
X0001700646Y0002458714D01*
X0001703769Y0002458240D01*
X0001705231Y0002458188D01*
X0001708601Y0002458463D01*
X0001711109Y0002459154D01*
X0001711676Y0002459522D01*
X0001712126Y0002460695D01*
X0001712475Y0002463318D01*
X0001712729Y0002467552D01*
X0001712899Y0002473558D01*
X0001712989Y0002481500D01*
X0001713009Y0002489030D01*
X0001713009Y0002517205D01*
X0001717731Y0002516863D01*
X0001722454Y0002516522D01*
X0001722785Y0002508202D01*
X0001723157Y0002503227D01*
X0001723826Y0002500216D01*
X0001724729Y0002498981D01*
X0001725819Y0002497282D01*
X0001726347Y0002494295D01*
X0001726319Y0002490883D01*
X0001725742Y0002487906D01*
X0001724639Y0002486234D01*
X0001723904Y0002485466D01*
X0001723438Y0002483897D01*
X0001723203Y0002481157D01*
X0001723164Y0002476871D01*
X0001723249Y0002472012D01*
X0001723565Y0002458744D01*
X0001729488Y0002458405D01*
X0001733125Y0002458305D01*
X0001735640Y0002458713D01*
X0001737233Y0002459960D01*
X0001738107Y0002462378D01*
X0001738461Y0002466297D01*
X0001738496Y0002472050D01*
X0001738485Y0002473243D01*
X0001738395Y0002478712D01*
X0001738215Y0002482352D01*
X0001737879Y0002484559D01*
X0001737317Y0002485727D01*
X0001736463Y0002486250D01*
X0001736237Y0002486316D01*
X0001734955Y0002487054D01*
X0001734314Y0002488780D01*
X0001734122Y0002492068D01*
X0001734120Y0002492633D01*
X0001734258Y0002496133D01*
X0001734811Y0002498015D01*
X0001735989Y0002498871D01*
X0001736363Y0002498983D01*
X0001738185Y0002500385D01*
X0001738413Y0002501935D01*
X0001738341Y0002504165D01*
X0001738328Y0002507869D01*
X0001738380Y0002512299D01*
X0001738392Y0002512911D01*
X0001738565Y0002521522D01*
X0001746342Y0002521522D01*
X0001746342Y0002491188D01*
X0001746373Y0002481298D01*
X0001746470Y0002473469D01*
X0001746640Y0002467540D01*
X0001746889Y0002463350D01*
X0001747225Y0002460738D01*
X0001747654Y0002459545D01*
X0001747676Y0002459522D01*
X0001749774Y0002458598D01*
X0001753058Y0002458218D01*
X0001756617Y0002458365D01*
X0001759542Y0002459023D01*
X0001760708Y0002459760D01*
X0001761351Y0002461774D01*
X0001761751Y0002465936D01*
X0001761903Y0002472184D01*
X0001761895Y0002475038D01*
X0001761853Y0002481434D01*
X0001761833Y0002488056D01*
X0001761835Y0002494021D01*
X0001761852Y0002497633D01*
X0001761925Y0002506522D01*
X0001769442Y0002509563D01*
X0001778952Y0002514233D01*
X0001788759Y0002520524D01*
X0001798314Y0002528008D01*
X0001807066Y0002536249D01*
X0001814468Y0002544817D01*
X0001814497Y0002544855D01*
X0001714994Y0002544855D01*
X0001699994Y0002544855D01*
X0001693701Y0002544903D01*
X0001689373Y0002545063D01*
X0001686754Y0002545359D01*
X0001685586Y0002545816D01*
X0001685495Y0002546244D01*
X0001685965Y0002547803D01*
X0001686881Y0002551046D01*
X0001688114Y0002555508D01*
X0001689535Y0002560728D01*
X0001689638Y0002561107D01*
X0001693279Y0002574581D01*
X0001690921Y0002577773D01*
X0001688168Y0002582921D01*
X0001687296Y0002587998D01*
X0001688184Y0002592635D01*
X0001690707Y0002596466D01*
X0001694741Y0002599122D01*
X0001698435Y0002600090D01*
X0001703836Y0002599895D01*
X0001708244Y0002598001D01*
X0001711447Y0002594783D01*
X0001713237Y0002590619D01*
X0001713405Y0002585888D01*
X0001711743Y0002580967D01*
X0001710267Y0002578691D01*
X0001707154Y0002574609D01*
X0001711074Y0002559733D01*
X0001714994Y0002544855D01*
X0001814497Y0002544855D01*
X0001814781Y0002545231D01*
X0001819788Y0002552844D01*
X0001824518Y0002561771D01*
X0001828551Y0002571121D01*
X0001831468Y0002580000D01*
X0001831852Y0002581522D01*
X0001833494Y0002591304D01*
X0001834143Y0002602108D01*
X0001833800Y0002613019D01*
X0001832461Y0002623123D01*
X0001831889Y0002625764D01*
X0001830038Y0002631522D01*
X0001791334Y0002631522D01*
X0001791245Y0002626121D01*
X0001790904Y0002622282D01*
X0001790204Y0002619348D01*
X0001789035Y0002616661D01*
X0001788833Y0002616275D01*
X0001783673Y0002608664D01*
X0001777255Y0002602640D01*
X0001774276Y0002600673D01*
X0001770092Y0002598682D01*
X0001765140Y0002596995D01*
X0001760210Y0002595821D01*
X0001756092Y0002595371D01*
X0001754676Y0002595467D01*
X0001752133Y0002595884D01*
X0001748702Y0002596440D01*
X0001748009Y0002596550D01*
X0001741018Y0002598720D01*
X0001734368Y0002602715D01*
X0001728517Y0002608147D01*
X0001723921Y0002614621D01*
X0001721935Y0002618900D01*
X0001719891Y0002627293D01*
X0001719892Y0002628657D01*
X0001686272Y0002628657D01*
X0001686084Y0002621884D01*
X0001684724Y0002616494D01*
X0001682163Y0002612015D01*
X0001678221Y0002607578D01*
X0001673628Y0002603884D01*
X0001669437Y0002601742D01*
X0001663713Y0002600795D01*
X0001657351Y0002601325D01*
X0001651256Y0002603209D01*
X0001648717Y0002604542D01*
X0001644311Y0002608114D01*
X0001640553Y0002612675D01*
X0001640261Y0002613136D01*
X0001638396Y0002616480D01*
X0001637374Y0002619481D01*
X0001636959Y0002623089D01*
X0001636898Y0002626440D01*
X0001637058Y0002631163D01*
X0001637688Y0002634635D01*
X0001639015Y0002637814D01*
X0001639992Y0002639564D01*
X0001644545Y0002645376D01*
X0001650100Y0002649412D01*
X0001656313Y0002651663D01*
X0001662838Y0002652119D01*
X0001669330Y0002650774D01*
X0001675444Y0002647617D01*
X0001680835Y0002642640D01*
X0001682361Y0002640649D01*
X0001685006Y0002635168D01*
X0001686272Y0002628657D01*
X0001719892Y0002628657D01*
X0001719893Y0002635593D01*
X0001721774Y0002643514D01*
X0001725365Y0002650771D01*
X0001730498Y0002657079D01*
X0001737005Y0002662158D01*
X0001744719Y0002665719D01*
X0001750430Y0002667109D01*
X0001759014Y0002667430D01*
X0001767299Y0002665694D01*
X0001774962Y0002662066D01*
X0001781682Y0002656711D01*
X0001787137Y0002649795D01*
X0001788378Y0002647633D01*
X0001789809Y0002644674D01*
X0001790691Y0002641909D01*
X0001791152Y0002638644D01*
X0001791320Y0002634176D01*
X0001791334Y0002631522D01*
X0001830038Y0002631522D01*
X0001827472Y0002639513D01*
X0001821087Y0002652425D01*
X0001812871Y0002664367D01*
X0001802965Y0002675204D01*
X0001791508Y0002684801D01*
X0001778639Y0002693024D01*
X0001764497Y0002699738D01*
X0001750231Y0002704537D01*
X0001746135Y0002705621D01*
X0001742590Y0002706413D01*
X0001739120Y0002706959D01*
X0001735249Y0002707305D01*
X0001730502Y0002707495D01*
X0001724401Y0002707573D01*
X0001718009Y0002707588D01*
X0001710444Y0002707566D01*
D29*
X0002131889Y0003098425D03*
X0002025589Y0003098425D03*
X0001179133Y0003051181D03*
X0001072834Y0003051181D03*
D30*
X0002611614Y0003166732D03*
D31*
X0002624212Y0003338385D03*
X0002624212Y0002798228D03*
D30*
X0002611614Y0002989566D03*
G04 next file*
G04 #@! TF.FileFunction,Soldermask,Bot*
G04 Gerber Fmt 4.6, Leading zero omitted, Abs format (unit mm)*
G04 Created by KiCad (PCBNEW 4.0.4+e1-6308~48~ubuntu16.04.1-stable) date Tue May  2 22:28:17 2017*
G01*
G04 APERTURE LIST*
G04 APERTURE END LIST*
D42*
D43*
X0003439173Y0001007231D02*
X0003428259Y0001004509D01*
X0003423482Y0001000420D01*
X0003419385Y0000993602D01*
X0003419378Y0000982007D01*
X0003424140Y0000962907D01*
X0003429590Y0000952672D01*
X0003436408Y0000948576D01*
X0003442546Y0000947208D01*
X0003453460Y0000949930D01*
X0003458237Y0000954019D01*
X0003462334Y0000960837D01*
X0003462341Y0000972432D01*
X0003457579Y0000991532D01*
X0003452128Y0001001765D01*
X0003445311Y0001005863D01*
X0003439173Y0001007231D01*
X0003400278Y0000977244D02*
X0003370263Y0000969762D01*
X0003409802Y0000939045D01*
X0003379787Y0000931561D01*
X0003330672Y0000919315D02*
X0003357958Y0000926118D01*
X0003343672Y0000983419D01*
X0003303386Y0000912511D02*
X0003308163Y0000916601D01*
X0003310211Y0000920010D01*
X0003311579Y0000926148D01*
X0003307497Y0000942518D01*
X0003303408Y0000947296D01*
X0003299999Y0000949345D01*
X0003293862Y0000950712D01*
X0003285675Y0000948672D01*
X0003280899Y0000944581D01*
X0003278851Y0000941173D01*
X0003277483Y0000935036D01*
X0003281565Y0000918664D01*
X0003285654Y0000913887D01*
X0003289063Y0000911839D01*
X0003295200Y0000910471D01*
X0003303386Y0000912511D01*
X0003234490Y0000898233D02*
X0003240628Y0000896865D01*
X0003251542Y0000899586D01*
X0003256319Y0000903675D01*
X0003258368Y0000907084D01*
X0003259736Y0000913222D01*
X0003255654Y0000929593D01*
X0003251564Y0000934370D01*
X0003248156Y0000936418D01*
X0003242018Y0000937787D01*
X0003231103Y0000935065D01*
X0003226327Y0000930976D01*
X0003210613Y0000889381D02*
X0003196326Y0000946682D01*
X0003199713Y0000909849D02*
X0003188784Y0000883939D01*
X0003179260Y0000922139D02*
X0003206530Y0000905753D01*
X0003130123Y0000875109D02*
X0003133532Y0000873061D01*
X0003142398Y0000872373D01*
X0003147855Y0000873734D01*
X0003155360Y0000878503D01*
X0003159457Y0000885321D01*
X0003160825Y0000891459D01*
X0003160832Y0000903054D01*
X0003158792Y0000911239D01*
X0003153342Y0000921473D01*
X0003149252Y0000926250D01*
X0003142434Y0000930347D01*
X0003133568Y0000931035D01*
X0003128111Y0000929674D01*
X0003120606Y0000924905D01*
X0003118557Y0000921496D01*
X0003098740Y0000861488D02*
X0003103516Y0000865577D01*
X0003105565Y0000868986D01*
X0003106932Y0000875124D01*
X0003102851Y0000891495D01*
X0003098762Y0000896271D01*
X0003095353Y0000898320D01*
X0003089215Y0000899689D01*
X0003081030Y0000897648D01*
X0003076252Y0000893558D01*
X0003074204Y0000890149D01*
X0003072836Y0000884012D01*
X0003076918Y0000867640D01*
X0003081008Y0000862863D01*
X0003084417Y0000860815D01*
X0003090554Y0000859447D01*
X0003098740Y0000861488D01*
X0003045558Y0000888803D02*
X0003055081Y0000850602D01*
X0003046918Y0000883346D02*
X0003043509Y0000885395D01*
X0003037372Y0000886763D01*
X0003029186Y0000884722D01*
X0003024409Y0000880632D01*
X0003023041Y0000874495D01*
X0003030524Y0000844480D01*
X0002949383Y0000879316D02*
X0002945974Y0000881364D01*
X0002939837Y0000882731D01*
X0002926193Y0000879330D01*
X0002921417Y0000875241D01*
X0002919368Y0000871832D01*
X0002918000Y0000865695D01*
X0002919361Y0000860237D01*
X0002924131Y0000852732D01*
X0002965038Y0000828152D01*
X0002929566Y0000819308D01*
X0002879807Y0000867765D02*
X0002874349Y0000866404D01*
X0002869573Y0000862315D01*
X0002867525Y0000858906D01*
X0002866157Y0000852769D01*
X0002866149Y0000841174D01*
X0002869551Y0000827531D01*
X0002875001Y0000817297D01*
X0002879090Y0000812520D01*
X0002882498Y0000810471D01*
X0002888637Y0000809103D01*
X0002894093Y0000810464D01*
X0002898871Y0000814553D01*
X0002900919Y0000817962D01*
X0002902287Y0000824100D01*
X0002902294Y0000835695D01*
X0002898893Y0000849338D01*
X0002893443Y0000859571D01*
X0002889353Y0000864348D01*
X0002885944Y0000866397D01*
X0002879807Y0000867765D01*
X0002820421Y0000792095D02*
X0002853165Y0000800259D01*
X0002836793Y0000796177D02*
X0002822506Y0000853478D01*
X0002830004Y0000846653D01*
X0002836822Y0000842556D01*
X0002842960Y0000841188D01*
X0002787034Y0000844633D02*
X0002748834Y0000835109D01*
X0002787678Y0000783932D01*
D44*
G36*
X0002782424Y0001134213D02*
X0002782349Y0001131883D01*
X0002782495Y0001131211D01*
X0002783292Y0001128769D01*
X0002784523Y0001126673D01*
X0002786450Y0001124765D01*
X0002789333Y0001122890D01*
X0002793431Y0001120891D01*
X0002799005Y0001118614D01*
X0002806315Y0001115901D01*
X0002810504Y0001114402D01*
X0002816902Y0001112126D01*
X0002824966Y0001109249D01*
X0002834271Y0001105924D01*
X0002844395Y0001102302D01*
X0002854910Y0001098535D01*
X0002865393Y0001094775D01*
X0002873137Y0001091995D01*
X0002882548Y0001088622D01*
X0002891658Y0001085372D01*
X0002900172Y0001082349D01*
X0002907793Y0001079658D01*
X0002914226Y0001077403D01*
X0002919174Y0001075689D01*
X0002922342Y0001074621D01*
X0002922437Y0001074590D01*
X0002927259Y0001072873D01*
X0002930400Y0001071317D01*
X0002932359Y0001069637D01*
X0002933187Y0001068428D01*
X0002934409Y0001066493D01*
X0002935879Y0001064769D01*
X0002937824Y0001063154D01*
X0002940462Y0001061547D01*
X0002944019Y0001059845D01*
X0002948714Y0001057947D01*
X0002954771Y0001055750D01*
X0002962412Y0001053152D01*
X0002971860Y0001050052D01*
X0002976585Y0001048522D01*
X0002985022Y0001045779D01*
X0002992749Y0001043231D01*
X0002999521Y0001040963D01*
X0003005092Y0001039056D01*
X0003009217Y0001037598D01*
X0003011648Y0001036670D01*
X0003012213Y0001036376D01*
X0003011477Y0001035489D01*
X0003009313Y0001033136D01*
X0003005840Y0001029444D01*
X0003001180Y0001024540D01*
X0002995455Y0001018551D01*
X0002988786Y0001011604D01*
X0002981293Y0001003824D01*
X0002973099Y0000995337D01*
X0002964324Y0000986272D01*
X0002955838Y0000977525D01*
X0002946513Y0000967896D01*
X0002937652Y0000958696D01*
X0002929378Y0000950055D01*
X0002921815Y0000942104D01*
X0002915087Y0000934975D01*
X0002909315Y0000928799D01*
X0002904624Y0000923706D01*
X0002901137Y0000919828D01*
X0002898976Y0000917295D01*
X0002898274Y0000916299D01*
X0002897558Y0000911364D01*
X0002898491Y0000906318D01*
X0002900876Y0000902047D01*
X0002901585Y0000901292D01*
X0002906580Y0000897883D01*
X0002912107Y0000896515D01*
X0002917774Y0000897207D01*
X0002923189Y0000899980D01*
X0002923455Y0000900182D01*
X0002924124Y0000900725D01*
X0002925018Y0000901518D01*
X0002926224Y0000902649D01*
X0002927832Y0000904210D01*
X0002929930Y0000906294D01*
X0002932607Y0000908987D01*
X0002935952Y0000912385D01*
X0002940054Y0000916576D01*
X0002945002Y0000921652D01*
X0002950883Y0000927702D01*
X0002957787Y0000934819D01*
X0002965803Y0000943092D01*
X0002975020Y0000952614D01*
X0002985525Y0000963473D01*
X0002997409Y0000975764D01*
X0003008848Y0000987597D01*
X0003016373Y0000995341D01*
X0003023419Y0001002517D01*
X0003029833Y0001008969D01*
X0003035461Y0001014551D01*
X0003040149Y0001019109D01*
X0003043745Y0001022493D01*
X0003046095Y0001024551D01*
X0003047008Y0001025147D01*
X0003048336Y0001024807D01*
X0003051611Y0001023833D01*
X0003056666Y0001022277D01*
X0003063335Y0001020189D01*
X0003071451Y0001017627D01*
X0003080849Y0001014637D01*
X0003091362Y0001011277D01*
X0003102824Y0001007600D01*
X0003115068Y0001003655D01*
X0003127928Y0000999497D01*
X0003129981Y0000998832D01*
X0003146617Y0000993456D01*
X0003161233Y0000988768D01*
X0003173913Y0000984742D01*
X0003184740Y0000981353D01*
X0003193800Y0000978575D01*
X0003201175Y0000976384D01*
X0003206951Y0000974752D01*
X0003211211Y0000973656D01*
X0003214040Y0000973069D01*
X0003215446Y0000972956D01*
X0003220422Y0000974424D01*
X0003224356Y0000977469D01*
X0003227093Y0000981633D01*
X0003228478Y0000986455D01*
X0003228356Y0000991478D01*
X0003226573Y0000996240D01*
X0003224272Y0000999155D01*
X0003223103Y0000999932D01*
X0003220832Y0001001012D01*
X0003217347Y0001002437D01*
X0003212539Y0001004242D01*
X0003206297Y0001006466D01*
X0003198510Y0001009149D01*
X0003189070Y0001012327D01*
X0003177864Y0001016041D01*
X0003164783Y0001020329D01*
X0003149717Y0001025228D01*
X0003145801Y0001026496D01*
X0003133383Y0001030523D01*
X0003121610Y0001034353D01*
X0003110647Y0001037932D01*
X0003100662Y0001041204D01*
X0003091820Y0001044114D01*
X0003084291Y0001046610D01*
X0003078239Y0001048633D01*
X0003073832Y0001050130D01*
X0003071236Y0001051045D01*
X0003070576Y0001051323D01*
X0003071388Y0001052186D01*
X0003073560Y0001054446D01*
X0003076898Y0001057906D01*
X0003081216Y0001062370D01*
X0003086320Y0001067640D01*
X0003092021Y0001073519D01*
X0003094539Y0001076113D01*
X0003100567Y0001082389D01*
X0003106170Y0001088344D01*
X0003111134Y0001093742D01*
X0003115245Y0001098347D01*
X0003118292Y0001101923D01*
X0003120060Y0001104234D01*
X0003120329Y0001104684D01*
X0003121655Y0001108372D01*
X0003122217Y0001112098D01*
X0003122206Y0001112682D01*
X0003122349Y0001114818D01*
X0003123204Y0001117101D01*
X0003125020Y0001119979D01*
X0003128044Y0001123903D01*
X0003129109Y0001125212D01*
X0003132495Y0001129209D01*
X0003137252Y0001134630D01*
X0003143215Y0001141293D01*
X0003150218Y0001149016D01*
X0003158095Y0001157620D01*
X0003166682Y0001166922D01*
X0003175812Y0001176742D01*
X0003185319Y0001186898D01*
X0003193109Y0001195169D01*
X0003199319Y0001201808D01*
X0003204099Y0001207079D01*
X0003207603Y0001211168D01*
X0003209988Y0001214266D01*
X0003211408Y0001216560D01*
X0003212000Y0001218148D01*
X0003212606Y0001220377D01*
X0003213682Y0001221718D01*
X0003215838Y0001222654D01*
X0003218701Y0001223422D01*
X0003222105Y0001224344D01*
X0003223974Y0001225321D01*
X0003224924Y0001226943D01*
X0003225575Y0001229800D01*
X0003225616Y0001230013D01*
X0003226714Y0001233627D01*
X0003228194Y0001235478D01*
X0003228517Y0001235603D01*
X0003229975Y0001236625D01*
X0003229777Y0001238003D01*
X0003228192Y0001238981D01*
X0003227280Y0001239090D01*
X0003224089Y0001238434D01*
X0003222079Y0001236163D01*
X0003221232Y0001233648D01*
X0003220582Y0001231619D01*
X0003219440Y0001230348D01*
X0003217212Y0001229408D01*
X0003214124Y0001228579D01*
X0003210597Y0001227636D01*
X0003208641Y0001226710D01*
X0003207667Y0001225287D01*
X0003207093Y0001222851D01*
X0003206996Y0001222317D01*
X0003206585Y0001220669D01*
X0003205842Y0001218988D01*
X0003204567Y0001217037D01*
X0003202562Y0001214580D01*
X0003199630Y0001211381D01*
X0003195571Y0001207205D01*
X0003190190Y0001201817D01*
X0003187654Y0001199300D01*
X0003178186Y0001189993D01*
X0003168107Y0001180218D01*
X0003157785Y0001170326D01*
X0003147590Y0001160665D01*
X0003137888Y0001151584D01*
X0003129046Y0001143431D01*
X0003122233Y0001137267D01*
X0003117749Y0001133298D01*
X0003114476Y0001130564D01*
X0003111987Y0001128798D01*
X0003109854Y0001127733D01*
X0003107655Y0001127100D01*
X0003105347Y0001126694D01*
X0003099231Y0001125745D01*
X0003071042Y0001096645D01*
X0003064462Y0001089855D01*
X0003058265Y0001083467D01*
X0003052646Y0001077681D01*
X0003047801Y0001072699D01*
X0003043926Y0001068722D01*
X0003041218Y0001065952D01*
X0003039913Y0001064632D01*
X0003036971Y0001061719D01*
X0002993593Y0001075882D01*
X0002950214Y0001090046D01*
X0002942093Y0001088030D01*
X0002933972Y0001086014D01*
X0002911230Y0001091978D01*
X0002903982Y0001093917D01*
X0002895155Y0001096339D01*
X0002885299Y0001099090D01*
X0002874964Y0001102015D01*
X0002864699Y0001104959D01*
X0002855238Y0001107715D01*
X0002846242Y0001110356D01*
X0002837242Y0001112992D01*
X0002828649Y0001115503D01*
X0002820872Y0001117769D01*
X0002814327Y0001119670D01*
X0002809421Y0001121087D01*
X0002808692Y0001121296D01*
X0002802363Y0001123126D01*
X0002797787Y0001124539D01*
X0002794573Y0001125723D01*
X0002792333Y0001126866D01*
X0002790679Y0001128153D01*
X0002789224Y0001129772D01*
X0002788104Y0001131219D01*
X0002785602Y0001133882D01*
X0002783609Y0001134880D01*
X0002782424Y0001134213D01*
X0002782424Y0001134213D01*
G37*
X0002782424Y0001134213D02*
X0002782349Y0001131883D01*
X0002782495Y0001131211D01*
X0002783292Y0001128769D01*
X0002784523Y0001126673D01*
X0002786450Y0001124765D01*
X0002789333Y0001122890D01*
X0002793431Y0001120891D01*
X0002799005Y0001118614D01*
X0002806315Y0001115901D01*
X0002810504Y0001114402D01*
X0002816902Y0001112126D01*
X0002824966Y0001109249D01*
X0002834271Y0001105924D01*
X0002844395Y0001102302D01*
X0002854910Y0001098535D01*
X0002865393Y0001094775D01*
X0002873137Y0001091995D01*
X0002882548Y0001088622D01*
X0002891658Y0001085372D01*
X0002900172Y0001082349D01*
X0002907793Y0001079658D01*
X0002914226Y0001077403D01*
X0002919174Y0001075689D01*
X0002922342Y0001074621D01*
X0002922437Y0001074590D01*
X0002927259Y0001072873D01*
X0002930400Y0001071317D01*
X0002932359Y0001069637D01*
X0002933187Y0001068428D01*
X0002934409Y0001066493D01*
X0002935879Y0001064769D01*
X0002937824Y0001063154D01*
X0002940462Y0001061547D01*
X0002944019Y0001059845D01*
X0002948714Y0001057947D01*
X0002954771Y0001055750D01*
X0002962412Y0001053152D01*
X0002971860Y0001050052D01*
X0002976585Y0001048522D01*
X0002985022Y0001045779D01*
X0002992749Y0001043231D01*
X0002999521Y0001040963D01*
X0003005092Y0001039056D01*
X0003009217Y0001037598D01*
X0003011648Y0001036670D01*
X0003012213Y0001036376D01*
X0003011477Y0001035489D01*
X0003009313Y0001033136D01*
X0003005840Y0001029444D01*
X0003001180Y0001024540D01*
X0002995455Y0001018551D01*
X0002988786Y0001011604D01*
X0002981293Y0001003824D01*
X0002973099Y0000995337D01*
X0002964324Y0000986272D01*
X0002955838Y0000977525D01*
X0002946513Y0000967896D01*
X0002937652Y0000958696D01*
X0002929378Y0000950055D01*
X0002921815Y0000942104D01*
X0002915087Y0000934975D01*
X0002909315Y0000928799D01*
X0002904624Y0000923706D01*
X0002901137Y0000919828D01*
X0002898976Y0000917295D01*
X0002898274Y0000916299D01*
X0002897558Y0000911364D01*
X0002898491Y0000906318D01*
X0002900876Y0000902047D01*
X0002901585Y0000901292D01*
X0002906580Y0000897883D01*
X0002912107Y0000896515D01*
X0002917774Y0000897207D01*
X0002923189Y0000899980D01*
X0002923455Y0000900182D01*
X0002924124Y0000900725D01*
X0002925018Y0000901518D01*
X0002926224Y0000902649D01*
X0002927832Y0000904210D01*
X0002929930Y0000906294D01*
X0002932607Y0000908987D01*
X0002935952Y0000912385D01*
X0002940054Y0000916576D01*
X0002945002Y0000921652D01*
X0002950883Y0000927702D01*
X0002957787Y0000934819D01*
X0002965803Y0000943092D01*
X0002975020Y0000952614D01*
X0002985525Y0000963473D01*
X0002997409Y0000975764D01*
X0003008848Y0000987597D01*
X0003016373Y0000995341D01*
X0003023419Y0001002517D01*
X0003029833Y0001008969D01*
X0003035461Y0001014551D01*
X0003040149Y0001019109D01*
X0003043745Y0001022493D01*
X0003046095Y0001024551D01*
X0003047008Y0001025147D01*
X0003048336Y0001024807D01*
X0003051611Y0001023833D01*
X0003056666Y0001022277D01*
X0003063335Y0001020189D01*
X0003071451Y0001017627D01*
X0003080849Y0001014637D01*
X0003091362Y0001011277D01*
X0003102824Y0001007600D01*
X0003115068Y0001003655D01*
X0003127928Y0000999497D01*
X0003129981Y0000998832D01*
X0003146617Y0000993456D01*
X0003161233Y0000988768D01*
X0003173913Y0000984742D01*
X0003184740Y0000981353D01*
X0003193800Y0000978575D01*
X0003201175Y0000976384D01*
X0003206951Y0000974752D01*
X0003211211Y0000973656D01*
X0003214040Y0000973069D01*
X0003215446Y0000972956D01*
X0003220422Y0000974424D01*
X0003224356Y0000977469D01*
X0003227093Y0000981633D01*
X0003228478Y0000986455D01*
X0003228356Y0000991478D01*
X0003226573Y0000996240D01*
X0003224272Y0000999155D01*
X0003223103Y0000999932D01*
X0003220832Y0001001012D01*
X0003217347Y0001002437D01*
X0003212539Y0001004242D01*
X0003206297Y0001006466D01*
X0003198510Y0001009149D01*
X0003189070Y0001012327D01*
X0003177864Y0001016041D01*
X0003164783Y0001020329D01*
X0003149717Y0001025228D01*
X0003145801Y0001026496D01*
X0003133383Y0001030523D01*
X0003121610Y0001034353D01*
X0003110647Y0001037932D01*
X0003100662Y0001041204D01*
X0003091820Y0001044114D01*
X0003084291Y0001046610D01*
X0003078239Y0001048633D01*
X0003073832Y0001050130D01*
X0003071236Y0001051045D01*
X0003070576Y0001051323D01*
X0003071388Y0001052186D01*
X0003073560Y0001054446D01*
X0003076898Y0001057906D01*
X0003081216Y0001062370D01*
X0003086320Y0001067640D01*
X0003092021Y0001073519D01*
X0003094539Y0001076113D01*
X0003100567Y0001082389D01*
X0003106170Y0001088344D01*
X0003111134Y0001093742D01*
X0003115245Y0001098347D01*
X0003118292Y0001101923D01*
X0003120060Y0001104234D01*
X0003120329Y0001104684D01*
X0003121655Y0001108372D01*
X0003122217Y0001112098D01*
X0003122206Y0001112682D01*
X0003122349Y0001114818D01*
X0003123204Y0001117101D01*
X0003125020Y0001119979D01*
X0003128044Y0001123903D01*
X0003129109Y0001125212D01*
X0003132495Y0001129209D01*
X0003137252Y0001134630D01*
X0003143215Y0001141293D01*
X0003150218Y0001149016D01*
X0003158095Y0001157620D01*
X0003166682Y0001166922D01*
X0003175812Y0001176742D01*
X0003185319Y0001186898D01*
X0003193109Y0001195169D01*
X0003199319Y0001201808D01*
X0003204099Y0001207079D01*
X0003207603Y0001211168D01*
X0003209988Y0001214266D01*
X0003211408Y0001216560D01*
X0003212000Y0001218148D01*
X0003212606Y0001220377D01*
X0003213682Y0001221718D01*
X0003215838Y0001222654D01*
X0003218701Y0001223422D01*
X0003222105Y0001224344D01*
X0003223974Y0001225321D01*
X0003224924Y0001226943D01*
X0003225575Y0001229800D01*
X0003225616Y0001230013D01*
X0003226714Y0001233627D01*
X0003228194Y0001235478D01*
X0003228517Y0001235603D01*
X0003229975Y0001236625D01*
X0003229777Y0001238003D01*
X0003228192Y0001238981D01*
X0003227280Y0001239090D01*
X0003224089Y0001238434D01*
X0003222079Y0001236163D01*
X0003221232Y0001233648D01*
X0003220582Y0001231619D01*
X0003219440Y0001230348D01*
X0003217212Y0001229408D01*
X0003214124Y0001228579D01*
X0003210597Y0001227636D01*
X0003208641Y0001226710D01*
X0003207667Y0001225287D01*
X0003207093Y0001222851D01*
X0003206996Y0001222317D01*
X0003206585Y0001220669D01*
X0003205842Y0001218988D01*
X0003204567Y0001217037D01*
X0003202562Y0001214580D01*
X0003199630Y0001211381D01*
X0003195571Y0001207205D01*
X0003190190Y0001201817D01*
X0003187654Y0001199300D01*
X0003178186Y0001189993D01*
X0003168107Y0001180218D01*
X0003157785Y0001170326D01*
X0003147590Y0001160665D01*
X0003137888Y0001151584D01*
X0003129046Y0001143431D01*
X0003122233Y0001137267D01*
X0003117749Y0001133298D01*
X0003114476Y0001130564D01*
X0003111987Y0001128798D01*
X0003109854Y0001127733D01*
X0003107655Y0001127100D01*
X0003105347Y0001126694D01*
X0003099231Y0001125745D01*
X0003071042Y0001096645D01*
X0003064462Y0001089855D01*
X0003058265Y0001083467D01*
X0003052646Y0001077681D01*
X0003047801Y0001072699D01*
X0003043926Y0001068722D01*
X0003041218Y0001065952D01*
X0003039913Y0001064632D01*
X0003036971Y0001061719D01*
X0002993593Y0001075882D01*
X0002950214Y0001090046D01*
X0002942093Y0001088030D01*
X0002933972Y0001086014D01*
X0002911230Y0001091978D01*
X0002903982Y0001093917D01*
X0002895155Y0001096339D01*
X0002885299Y0001099090D01*
X0002874964Y0001102015D01*
X0002864699Y0001104959D01*
X0002855238Y0001107715D01*
X0002846242Y0001110356D01*
X0002837242Y0001112992D01*
X0002828649Y0001115503D01*
X0002820872Y0001117769D01*
X0002814327Y0001119670D01*
X0002809421Y0001121087D01*
X0002808692Y0001121296D01*
X0002802363Y0001123126D01*
X0002797787Y0001124539D01*
X0002794573Y0001125723D01*
X0002792333Y0001126866D01*
X0002790679Y0001128153D01*
X0002789224Y0001129772D01*
X0002788104Y0001131219D01*
X0002785602Y0001133882D01*
X0002783609Y0001134880D01*
X0002782424Y0001134213D01*
G36*
X0002968116Y0001354402D02*
X0002962494Y0001352903D01*
X0002958136Y0001351599D01*
X0002954594Y0001350330D01*
X0002951419Y0001348937D01*
X0002948160Y0001347263D01*
X0002944990Y0001345501D01*
X0002930837Y0001336320D01*
X0002918395Y0001325770D01*
X0002907708Y0001313894D01*
X0002899942Y0001302633D01*
X0002893012Y0001289167D01*
X0002888210Y0001275294D01*
X0002885559Y0001261143D01*
X0002885076Y0001246838D01*
X0002886787Y0001232505D01*
X0002887897Y0001227540D01*
X0002890806Y0001217610D01*
X0002894362Y0001208946D01*
X0002898997Y0001200599D01*
X0002902864Y0001194794D01*
X0002910057Y0001185946D01*
X0002918751Y0001177513D01*
X0002928385Y0001169943D01*
X0002938401Y0001163684D01*
X0002946557Y0001159823D01*
X0002950005Y0001158447D01*
X0002952561Y0001157418D01*
X0002953559Y0001157006D01*
X0002954006Y0001155899D01*
X0002954940Y0001152924D01*
X0002956282Y0001148360D01*
X0002957951Y0001142487D01*
X0002959866Y0001135584D01*
X0002961945Y0001127931D01*
X0002962046Y0001127560D01*
X0002969888Y0001098404D01*
X0002976101Y0001099612D01*
X0002979681Y0001100507D01*
X0002981936Y0001101782D01*
X0002982996Y0001103817D01*
X0002982990Y0001106993D01*
X0002982049Y0001111692D01*
X0002981263Y0001114750D01*
X0002980032Y0001119475D01*
X0002978493Y0001125524D01*
X0002976859Y0001132061D01*
X0002975565Y0001137322D01*
X0002972211Y0001151086D01*
X0002979758Y0001152968D01*
X0002985618Y0001129465D01*
X0002987808Y0001120862D01*
X0002989587Y0001114280D01*
X0002991004Y0001109565D01*
X0002992105Y0001106562D01*
X0002992937Y0001105118D01*
X0002993095Y0001104991D01*
X0002995093Y0001104658D01*
X0002998238Y0001104953D01*
X0002999669Y0001105257D01*
X0003002874Y0001106338D01*
X0003005139Y0001107615D01*
X0003005600Y0001108110D01*
X0003005744Y0001109295D01*
X0003005462Y0001111811D01*
X0003004724Y0001115814D01*
X0003003496Y0001121460D01*
X0003001747Y0001128906D01*
X0002999444Y0001138309D01*
X0002998965Y0001140236D01*
X0002991358Y0001170747D01*
X0002999982Y0001172897D01*
X0003007590Y0001142387D01*
X0003010053Y0001132626D01*
X0003012079Y0001124882D01*
X0003013712Y0001118999D01*
X0003014998Y0001114825D01*
X0003015981Y0001112205D01*
X0003016706Y0001110988D01*
X0003016813Y0001110905D01*
X0003018812Y0001110571D01*
X0003021957Y0001110867D01*
X0003023388Y0001111170D01*
X0003026591Y0001112252D01*
X0003028858Y0001113529D01*
X0003029319Y0001114023D01*
X0003029472Y0001115271D01*
X0003029176Y0001117900D01*
X0003028399Y0001122069D01*
X0003027110Y0001127938D01*
X0003025276Y0001135666D01*
X0003023474Y0001142978D01*
X0003016658Y0001170316D01*
X0003021322Y0001171127D01*
X0003025987Y0001171937D01*
X0003028322Y0001163945D01*
X0003029886Y0001159208D01*
X0003031264Y0001156448D01*
X0003032438Y0001155468D01*
X0003033907Y0001154083D01*
X0003035142Y0001151313D01*
X0003035940Y0001147995D01*
X0003036100Y0001144967D01*
X0003035434Y0001143078D01*
X0003034908Y0001142155D01*
X0003034835Y0001140520D01*
X0003035269Y0001137804D01*
X0003036268Y0001133637D01*
X0003037527Y0001128943D01*
X0003041043Y0001116145D01*
X0003046871Y0001117249D01*
X0003050425Y0001118031D01*
X0003052767Y0001119036D01*
X0003054012Y0001120631D01*
X0003054274Y0001123189D01*
X0003053668Y0001127077D01*
X0003052312Y0001132667D01*
X0003052012Y0001133823D01*
X0003050602Y0001139107D01*
X0003049547Y0001142596D01*
X0003048687Y0001144656D01*
X0003047859Y0001145653D01*
X0003046903Y0001145954D01*
X0003046669Y0001145963D01*
X0003045246Y0001146369D01*
X0003044206Y0001147889D01*
X0003043225Y0001151033D01*
X0003043086Y0001151581D01*
X0003042372Y0001155010D01*
X0003042455Y0001156970D01*
X0003043390Y0001158085D01*
X0003043727Y0001158285D01*
X0003045156Y0001160085D01*
X0003045001Y0001161644D01*
X0003044392Y0001163792D01*
X0003043484Y0001167383D01*
X0003042462Y0001171693D01*
X0003042325Y0001172289D01*
X0003040409Y0001180687D01*
X0003047957Y0001182568D01*
X0003055295Y0001153136D01*
X0003057717Y0001143547D01*
X0003059706Y0001135974D01*
X0003061305Y0001130262D01*
X0003062561Y0001126256D01*
X0003063518Y0001123804D01*
X0003064222Y0001122749D01*
X0003064250Y0001122732D01*
X0003066509Y0001122343D01*
X0003069787Y0001122769D01*
X0003073205Y0001123773D01*
X0003075884Y0001125119D01*
X0003076837Y0001126116D01*
X0003076974Y0001128226D01*
X0003076355Y0001132362D01*
X0003074991Y0001138461D01*
X0003074293Y0001141228D01*
X0003072706Y0001147424D01*
X0003071083Y0001153844D01*
X0003069642Y0001159632D01*
X0003068785Y0001163141D01*
X0003066706Y0001171784D01*
X0003073262Y0001176553D01*
X0003081361Y0001183385D01*
X0003089354Y0001191862D01*
X0003096815Y0001201435D01*
X0003103314Y0001211548D01*
X0003108423Y0001221652D01*
X0003108441Y0001221696D01*
X0003011895Y0001197625D01*
X0002997340Y0001193996D01*
X0002991223Y0001192520D01*
X0002986985Y0001191628D01*
X0002984370Y0001191281D01*
X0002983128Y0001191442D01*
X0002982936Y0001191836D01*
X0002983015Y0001193462D01*
X0002983119Y0001196830D01*
X0002983236Y0001201458D01*
X0002983352Y0001206867D01*
X0002983360Y0001207259D01*
X0002983633Y0001221214D01*
X0002980573Y0001223741D01*
X0002976656Y0001228070D01*
X0002974583Y0001232785D01*
X0002974322Y0001237500D01*
X0002975842Y0001241827D01*
X0002979115Y0001245379D01*
X0002982465Y0001247212D01*
X0002987753Y0001248331D01*
X0002992488Y0001247558D01*
X0002996375Y0001245211D01*
X0002999119Y0001241604D01*
X0003000426Y0001237054D01*
X0003000004Y0001231877D01*
X0002999122Y0001229312D01*
X0002997089Y0001224599D01*
X0003004491Y0001211112D01*
X0003011895Y0001197625D01*
X0003108441Y0001221696D01*
X0003108627Y0001222130D01*
X0003111643Y0001230728D01*
X0003114073Y0001240535D01*
X0003115724Y0001250582D01*
X0003116405Y0001259903D01*
X0003116411Y0001261471D01*
X0003115638Y0001271362D01*
X0003113655Y0001282002D01*
X0003110680Y0001292505D01*
X0003106938Y0001301985D01*
X0003105744Y0001304409D01*
X0003102556Y0001309549D01*
X0003065000Y0001300185D01*
X0003066220Y0001294924D01*
X0003066819Y0001291116D01*
X0003066849Y0001288099D01*
X0003066365Y0001285209D01*
X0003066262Y0001284786D01*
X0003063097Y0001276151D01*
X0003058327Y0001268755D01*
X0003055912Y0001266127D01*
X0003052334Y0001263182D01*
X0003047937Y0001260347D01*
X0003043437Y0001258015D01*
X0003039551Y0001256582D01*
X0003038154Y0001256333D01*
X0003035585Y0001256123D01*
X0003032122Y0001255832D01*
X0003031423Y0001255772D01*
X0003024115Y0001256185D01*
X0003016695Y0001258453D01*
X0003009704Y0001262307D01*
X0003003678Y0001267477D01*
X0003000715Y0001271149D01*
X0002996702Y0001278800D01*
X0002996373Y0001280122D01*
X0002963753Y0001271989D01*
X0002965209Y0001265370D01*
X0002965193Y0001259812D01*
X0002963791Y0001254846D01*
X0002961040Y0001249588D01*
X0002957476Y0001244893D01*
X0002953928Y0001241800D01*
X0002948603Y0001239497D01*
X0002942302Y0001238472D01*
X0002935933Y0001238825D01*
X0002933147Y0001239505D01*
X0002928009Y0001241905D01*
X0002923258Y0001245422D01*
X0002922863Y0001245797D01*
X0002920243Y0001248591D01*
X0002918528Y0001251256D01*
X0002917251Y0001254656D01*
X0002916381Y0001257893D01*
X0002915394Y0001262514D01*
X0002915165Y0001266035D01*
X0002915684Y0001269441D01*
X0002916209Y0001271375D01*
X0002919220Y0001278116D01*
X0002923633Y0001283376D01*
X0002929117Y0001287062D01*
X0002935338Y0001289085D01*
X0002941962Y0001289350D01*
X0002948659Y0001287765D01*
X0002955095Y0001284241D01*
X0002957055Y0001282678D01*
X0002960948Y0001278000D01*
X0002963753Y0001271989D01*
X0002996373Y0001280122D01*
X0002994697Y0001286853D01*
X0002994606Y0001294993D01*
X0002996334Y0001302903D01*
X0002999788Y0001310267D01*
X0003004874Y0001316767D01*
X0003011497Y0001322091D01*
X0003016702Y0001324820D01*
X0003024953Y0001327208D01*
X0003033412Y0001327527D01*
X0003041724Y0001325860D01*
X0003049541Y0001322291D01*
X0003056508Y0001316900D01*
X0003058234Y0001315102D01*
X0003060338Y0001312578D01*
X0003061864Y0001310110D01*
X0003063101Y0001307051D01*
X0003064345Y0001302758D01*
X0003065000Y0001300185D01*
X0003102556Y0001309549D01*
X0003098132Y0001316681D01*
X0003088812Y0001327666D01*
X0003077952Y0001337265D01*
X0003065718Y0001345382D01*
X0003052280Y0001351923D01*
X0003037804Y0001356789D01*
X0003022458Y0001359883D01*
X0003007455Y0001361088D01*
X0003003218Y0001361148D01*
X0002999587Y0001361059D01*
X0002996088Y0001360750D01*
X0002992248Y0001360149D01*
X0002987596Y0001359185D01*
X0002981656Y0001357786D01*
X0002975452Y0001356253D01*
X0002968116Y0001354402D01*
X0002968116Y0001354402D01*
G37*
X0002968116Y0001354402D02*
X0002962494Y0001352903D01*
X0002958136Y0001351599D01*
X0002954594Y0001350330D01*
X0002951419Y0001348937D01*
X0002948160Y0001347263D01*
X0002944990Y0001345501D01*
X0002930837Y0001336320D01*
X0002918395Y0001325770D01*
X0002907708Y0001313894D01*
X0002899942Y0001302633D01*
X0002893012Y0001289167D01*
X0002888210Y0001275294D01*
X0002885559Y0001261143D01*
X0002885076Y0001246838D01*
X0002886787Y0001232505D01*
X0002887897Y0001227540D01*
X0002890806Y0001217610D01*
X0002894362Y0001208946D01*
X0002898997Y0001200599D01*
X0002902864Y0001194794D01*
X0002910057Y0001185946D01*
X0002918751Y0001177513D01*
X0002928385Y0001169943D01*
X0002938401Y0001163684D01*
X0002946557Y0001159823D01*
X0002950005Y0001158447D01*
X0002952561Y0001157418D01*
X0002953559Y0001157006D01*
X0002954006Y0001155899D01*
X0002954940Y0001152924D01*
X0002956282Y0001148360D01*
X0002957951Y0001142487D01*
X0002959866Y0001135584D01*
X0002961945Y0001127931D01*
X0002962046Y0001127560D01*
X0002969888Y0001098404D01*
X0002976101Y0001099612D01*
X0002979681Y0001100507D01*
X0002981936Y0001101782D01*
X0002982996Y0001103817D01*
X0002982990Y0001106993D01*
X0002982049Y0001111692D01*
X0002981263Y0001114750D01*
X0002980032Y0001119475D01*
X0002978493Y0001125524D01*
X0002976859Y0001132061D01*
X0002975565Y0001137322D01*
X0002972211Y0001151086D01*
X0002979758Y0001152968D01*
X0002985618Y0001129465D01*
X0002987808Y0001120862D01*
X0002989587Y0001114280D01*
X0002991004Y0001109565D01*
X0002992105Y0001106562D01*
X0002992937Y0001105118D01*
X0002993095Y0001104991D01*
X0002995093Y0001104658D01*
X0002998238Y0001104953D01*
X0002999669Y0001105257D01*
X0003002874Y0001106338D01*
X0003005139Y0001107615D01*
X0003005600Y0001108110D01*
X0003005744Y0001109295D01*
X0003005462Y0001111811D01*
X0003004724Y0001115814D01*
X0003003496Y0001121460D01*
X0003001747Y0001128906D01*
X0002999444Y0001138309D01*
X0002998965Y0001140236D01*
X0002991358Y0001170747D01*
X0002999982Y0001172897D01*
X0003007590Y0001142387D01*
X0003010053Y0001132626D01*
X0003012079Y0001124882D01*
X0003013712Y0001118999D01*
X0003014998Y0001114825D01*
X0003015981Y0001112205D01*
X0003016706Y0001110988D01*
X0003016813Y0001110905D01*
X0003018812Y0001110571D01*
X0003021957Y0001110867D01*
X0003023388Y0001111170D01*
X0003026591Y0001112252D01*
X0003028858Y0001113529D01*
X0003029319Y0001114023D01*
X0003029472Y0001115271D01*
X0003029176Y0001117900D01*
X0003028399Y0001122069D01*
X0003027110Y0001127938D01*
X0003025276Y0001135666D01*
X0003023474Y0001142978D01*
X0003016658Y0001170316D01*
X0003021322Y0001171127D01*
X0003025987Y0001171937D01*
X0003028322Y0001163945D01*
X0003029886Y0001159208D01*
X0003031264Y0001156448D01*
X0003032438Y0001155468D01*
X0003033907Y0001154083D01*
X0003035142Y0001151313D01*
X0003035940Y0001147995D01*
X0003036100Y0001144967D01*
X0003035434Y0001143078D01*
X0003034908Y0001142155D01*
X0003034835Y0001140520D01*
X0003035269Y0001137804D01*
X0003036268Y0001133637D01*
X0003037527Y0001128943D01*
X0003041043Y0001116145D01*
X0003046871Y0001117249D01*
X0003050425Y0001118031D01*
X0003052767Y0001119036D01*
X0003054012Y0001120631D01*
X0003054274Y0001123189D01*
X0003053668Y0001127077D01*
X0003052312Y0001132667D01*
X0003052012Y0001133823D01*
X0003050602Y0001139107D01*
X0003049547Y0001142596D01*
X0003048687Y0001144656D01*
X0003047859Y0001145653D01*
X0003046903Y0001145954D01*
X0003046669Y0001145963D01*
X0003045246Y0001146369D01*
X0003044206Y0001147889D01*
X0003043225Y0001151033D01*
X0003043086Y0001151581D01*
X0003042372Y0001155010D01*
X0003042455Y0001156970D01*
X0003043390Y0001158085D01*
X0003043727Y0001158285D01*
X0003045156Y0001160085D01*
X0003045001Y0001161644D01*
X0003044392Y0001163792D01*
X0003043484Y0001167383D01*
X0003042462Y0001171693D01*
X0003042325Y0001172289D01*
X0003040409Y0001180687D01*
X0003047957Y0001182568D01*
X0003055295Y0001153136D01*
X0003057717Y0001143547D01*
X0003059706Y0001135974D01*
X0003061305Y0001130262D01*
X0003062561Y0001126256D01*
X0003063518Y0001123804D01*
X0003064222Y0001122749D01*
X0003064250Y0001122732D01*
X0003066509Y0001122343D01*
X0003069787Y0001122769D01*
X0003073205Y0001123773D01*
X0003075884Y0001125119D01*
X0003076837Y0001126116D01*
X0003076974Y0001128226D01*
X0003076355Y0001132362D01*
X0003074991Y0001138461D01*
X0003074293Y0001141228D01*
X0003072706Y0001147424D01*
X0003071083Y0001153844D01*
X0003069642Y0001159632D01*
X0003068785Y0001163141D01*
X0003066706Y0001171784D01*
X0003073262Y0001176553D01*
X0003081361Y0001183385D01*
X0003089354Y0001191862D01*
X0003096815Y0001201435D01*
X0003103314Y0001211548D01*
X0003108423Y0001221652D01*
X0003108441Y0001221696D01*
X0003011895Y0001197625D01*
X0002997340Y0001193996D01*
X0002991223Y0001192520D01*
X0002986985Y0001191628D01*
X0002984370Y0001191281D01*
X0002983128Y0001191442D01*
X0002982936Y0001191836D01*
X0002983015Y0001193462D01*
X0002983119Y0001196830D01*
X0002983236Y0001201458D01*
X0002983352Y0001206867D01*
X0002983360Y0001207259D01*
X0002983633Y0001221214D01*
X0002980573Y0001223741D01*
X0002976656Y0001228070D01*
X0002974583Y0001232785D01*
X0002974322Y0001237500D01*
X0002975842Y0001241827D01*
X0002979115Y0001245379D01*
X0002982465Y0001247212D01*
X0002987753Y0001248331D01*
X0002992488Y0001247558D01*
X0002996375Y0001245211D01*
X0002999119Y0001241604D01*
X0003000426Y0001237054D01*
X0003000004Y0001231877D01*
X0002999122Y0001229312D01*
X0002997089Y0001224599D01*
X0003004491Y0001211112D01*
X0003011895Y0001197625D01*
X0003108441Y0001221696D01*
X0003108627Y0001222130D01*
X0003111643Y0001230728D01*
X0003114073Y0001240535D01*
X0003115724Y0001250582D01*
X0003116405Y0001259903D01*
X0003116411Y0001261471D01*
X0003115638Y0001271362D01*
X0003113655Y0001282002D01*
X0003110680Y0001292505D01*
X0003106938Y0001301985D01*
X0003105744Y0001304409D01*
X0003102556Y0001309549D01*
X0003065000Y0001300185D01*
X0003066220Y0001294924D01*
X0003066819Y0001291116D01*
X0003066849Y0001288099D01*
X0003066365Y0001285209D01*
X0003066262Y0001284786D01*
X0003063097Y0001276151D01*
X0003058327Y0001268755D01*
X0003055912Y0001266127D01*
X0003052334Y0001263182D01*
X0003047937Y0001260347D01*
X0003043437Y0001258015D01*
X0003039551Y0001256582D01*
X0003038154Y0001256333D01*
X0003035585Y0001256123D01*
X0003032122Y0001255832D01*
X0003031423Y0001255772D01*
X0003024115Y0001256185D01*
X0003016695Y0001258453D01*
X0003009704Y0001262307D01*
X0003003678Y0001267477D01*
X0003000715Y0001271149D01*
X0002996702Y0001278800D01*
X0002996373Y0001280122D01*
X0002963753Y0001271989D01*
X0002965209Y0001265370D01*
X0002965193Y0001259812D01*
X0002963791Y0001254846D01*
X0002961040Y0001249588D01*
X0002957476Y0001244893D01*
X0002953928Y0001241800D01*
X0002948603Y0001239497D01*
X0002942302Y0001238472D01*
X0002935933Y0001238825D01*
X0002933147Y0001239505D01*
X0002928009Y0001241905D01*
X0002923258Y0001245422D01*
X0002922863Y0001245797D01*
X0002920243Y0001248591D01*
X0002918528Y0001251256D01*
X0002917251Y0001254656D01*
X0002916381Y0001257893D01*
X0002915394Y0001262514D01*
X0002915165Y0001266035D01*
X0002915684Y0001269441D01*
X0002916209Y0001271375D01*
X0002919220Y0001278116D01*
X0002923633Y0001283376D01*
X0002929117Y0001287062D01*
X0002935338Y0001289085D01*
X0002941962Y0001289350D01*
X0002948659Y0001287765D01*
X0002955095Y0001284241D01*
X0002957055Y0001282678D01*
X0002960948Y0001278000D01*
X0002963753Y0001271989D01*
X0002996373Y0001280122D01*
X0002994697Y0001286853D01*
X0002994606Y0001294993D01*
X0002996334Y0001302903D01*
X0002999788Y0001310267D01*
X0003004874Y0001316767D01*
X0003011497Y0001322091D01*
X0003016702Y0001324820D01*
X0003024953Y0001327208D01*
X0003033412Y0001327527D01*
X0003041724Y0001325860D01*
X0003049541Y0001322291D01*
X0003056508Y0001316900D01*
X0003058234Y0001315102D01*
X0003060338Y0001312578D01*
X0003061864Y0001310110D01*
X0003063101Y0001307051D01*
X0003064345Y0001302758D01*
X0003065000Y0001300185D01*
X0003102556Y0001309549D01*
X0003098132Y0001316681D01*
X0003088812Y0001327666D01*
X0003077952Y0001337265D01*
X0003065718Y0001345382D01*
X0003052280Y0001351923D01*
X0003037804Y0001356789D01*
X0003022458Y0001359883D01*
X0003007455Y0001361088D01*
X0003003218Y0001361148D01*
X0002999587Y0001361059D01*
X0002996088Y0001360750D01*
X0002992248Y0001360149D01*
X0002987596Y0001359185D01*
X0002981656Y0001357786D01*
X0002975452Y0001356253D01*
X0002968116Y0001354402D01*
D45*
X0003282486Y0001835607D03*
X0003179344Y0001809891D03*
X0002369460Y0001559274D03*
X0002266318Y0001533557D03*
D46*
X0003731435Y0002017941D03*
D47*
X0003702132Y0002187543D03*
X0003832809Y0001663431D03*
D46*
X0003774295Y0001846038D03*
M02*