%
M48
METRIC,000.000
T01C1.90
T10C0.40
T11C2.30
T12C0.50
%
T01
X066335Y080435
X066335Y075935
X094778Y051255
X095867Y046889
X045080Y008999
X041144Y006817
T10
X028968Y075528
X029983Y079084
X031254Y080608
X031507Y074258
X043954Y070702
X053352Y078576
X059708Y037454
X059834Y041150
X060697Y042936
X062480Y036836
X075416Y036397
X082630Y046311
X022672Y039301
X026275Y040137
X028224Y039765
X022793Y036464
X025717Y023855
X037160Y019452
T11
X066655Y084795
X066655Y071075
X094034Y055563
X097353Y042251
X049049Y010832
X037049Y004181
T12
X028092Y052914
X028918Y052349
X029762Y051814
X030625Y051308
X031505Y050834
X030732Y049358
X029977Y050013
X029168Y050600
X028310Y051113
X027410Y051547
X026475Y051902
X053816Y022523
X054504Y021797
X055217Y021097
X055954Y020421
X056716Y019773
X052625Y018128
X052606Y019127
X052522Y020124
X052371Y021112
X052158Y022089
X050329Y049558
X051264Y049913
X052187Y050298
X053096Y050716
X053990Y051164
X055709Y049276
X054740Y049031
X053796Y048702
X052885Y048291
X052014Y047800
X051189Y047236
M30