%MOIN*%
%OFA0B0*%
%FSLAX46Y46*%
%IPPOS*%
%LPD*%
%ADD10C,0.0039370078740157488*%
%ADD11C,0.005905511811023622*%
%ADD22C,0.0039370078740157488*%
%ADD23C,0.005905511811023622*%
%ADD34C,0.0039370078740157488*%
%ADD35C,0.005905511811023622*%
%LPD*%
G01*
D10*
X0002653614Y0002021341D02*
X0002653614Y0002021341D01*
X0002653616Y0002021336D02*
X0002653614Y0002021341D01*
X0002672329Y0002019839D02*
X0002653616Y0002021336D01*
X0002690895Y0002019298D02*
X0002672329Y0002019839D01*
X0002709288Y0002019691D02*
X0002690895Y0002019298D01*
X0002727484Y0002020997D02*
X0002709288Y0002019691D01*
X0002745457Y0002023198D02*
X0002727484Y0002020997D01*
X0002763182Y0002026271D02*
X0002745457Y0002023198D01*
X0002780634Y0002030197D02*
X0002763182Y0002026271D01*
X0002797788Y0002034955D02*
X0002780634Y0002030197D01*
X0002814618Y0002040525D02*
X0002797788Y0002034955D01*
X0002831099Y0002046887D02*
X0002814618Y0002040525D01*
X0002847206Y0002054020D02*
X0002831099Y0002046887D01*
X0002862914Y0002061903D02*
X0002847206Y0002054020D01*
X0002878198Y0002070517D02*
X0002862914Y0002061903D01*
X0002893032Y0002079841D02*
X0002878198Y0002070517D01*
X0002907392Y0002089854D02*
X0002893032Y0002079841D01*
X0002921251Y0002100536D02*
X0002907392Y0002089854D01*
X0002934586Y0002111867D02*
X0002921251Y0002100536D01*
X0002947370Y0002123827D02*
X0002934586Y0002111867D01*
X0002959578Y0002136394D02*
X0002947370Y0002123827D01*
X0002971186Y0002149549D02*
X0002959578Y0002136394D01*
X0002982168Y0002163271D02*
X0002971186Y0002149549D01*
X0002992499Y0002177540D02*
X0002982168Y0002163271D01*
X0003002153Y0002192335D02*
X0002992499Y0002177540D01*
X0003011106Y0002207636D02*
X0003002153Y0002192335D01*
X0003019333Y0002223422D02*
X0003011106Y0002207636D01*
X0003026807Y0002239674D02*
X0003019333Y0002223422D01*
X0003033504Y0002256370D02*
X0003026807Y0002239674D01*
X0003039399Y0002273491D02*
X0003033504Y0002256370D01*
X0003044466Y0002291016D02*
X0003039399Y0002273491D01*
X0003048681Y0002308924D02*
X0003044466Y0002291016D01*
X0003052018Y0002327195D02*
X0003048681Y0002308924D01*
X0003054451Y0002345810D02*
X0003052018Y0002327195D01*
X0003054911Y0002350501D02*
X0003054451Y0002345810D01*
X0003055314Y0002355184D02*
X0003054911Y0002350501D01*
X0003055655Y0002359858D02*
X0003055314Y0002355184D01*
X0003055938Y0002364523D02*
X0003055655Y0002359858D01*
X0003056160Y0002369180D02*
X0003055938Y0002364523D01*
X0003056323Y0002373826D02*
X0003056160Y0002369180D01*
X0003056427Y0002378463D02*
X0003056323Y0002373826D01*
X0003056472Y0002383089D02*
X0003056427Y0002378463D01*
X0003056459Y0002387705D02*
X0003056472Y0002383089D01*
X0003056388Y0002392309D02*
X0003056459Y0002387705D01*
X0003056260Y0002396902D02*
X0003056388Y0002392309D01*
X0003056073Y0002401482D02*
X0003056260Y0002396902D01*
X0003055829Y0002406051D02*
X0003056073Y0002401482D01*
X0003055529Y0002410607D02*
X0003055829Y0002406051D01*
X0003055172Y0002415149D02*
X0003055529Y0002410607D01*
X0003054760Y0002419678D02*
X0003055172Y0002415149D01*
X0003054291Y0002424193D02*
X0003054760Y0002419678D01*
X0003053768Y0002428693D02*
X0003054291Y0002424193D01*
X0003053188Y0002433179D02*
X0003053768Y0002428693D01*
X0003052554Y0002437650D02*
X0003053188Y0002433179D01*
X0003051865Y0002442105D02*
X0003052554Y0002437650D01*
X0003051122Y0002446545D02*
X0003051865Y0002442105D01*
X0003050325Y0002450968D02*
X0003051122Y0002446545D01*
X0003049475Y0002455374D02*
X0003050325Y0002450968D01*
X0003048571Y0002459763D02*
X0003049475Y0002455374D01*
X0003047614Y0002464135D02*
X0003048571Y0002459763D01*
X0003046604Y0002468489D02*
X0003047614Y0002464135D01*
X0003045543Y0002472825D02*
X0003046604Y0002468489D01*
X0003044429Y0002477141D02*
X0003045543Y0002472825D01*
X0003043263Y0002481439D02*
X0003044429Y0002477141D01*
X0003042046Y0002485718D02*
X0003043263Y0002481439D01*
X0003040778Y0002489976D02*
X0003042046Y0002485718D01*
X0003039460Y0002494215D02*
X0003040778Y0002489976D01*
X0003038090Y0002498433D02*
X0003039460Y0002494215D01*
X0003036671Y0002502629D02*
X0003038090Y0002498433D01*
X0003035202Y0002506805D02*
X0003036671Y0002502629D01*
X0003033684Y0002510958D02*
X0003035202Y0002506805D01*
X0003032116Y0002515089D02*
X0003033684Y0002510958D01*
X0003030500Y0002519198D02*
X0003032116Y0002515089D01*
X0003028835Y0002523283D02*
X0003030500Y0002519198D01*
X0003027122Y0002527346D02*
X0003028835Y0002523283D01*
X0003025361Y0002531384D02*
X0003027122Y0002527346D01*
X0003023552Y0002535399D02*
X0003025361Y0002531384D01*
X0003021696Y0002539388D02*
X0003023552Y0002535399D01*
X0003019794Y0002543353D02*
X0003021696Y0002539388D01*
X0003017844Y0002547292D02*
X0003019794Y0002543353D01*
X0003015849Y0002551206D02*
X0003017844Y0002547292D01*
X0003013807Y0002555094D02*
X0003015849Y0002551206D01*
X0003011720Y0002558955D02*
X0003013807Y0002555094D01*
X0003009588Y0002562789D02*
X0003011720Y0002558955D01*
X0003007410Y0002566595D02*
X0003009588Y0002562789D01*
X0003005188Y0002570374D02*
X0003007410Y0002566595D01*
X0003002922Y0002574125D02*
X0003005188Y0002570374D01*
X0003000611Y0002577848D02*
X0003002922Y0002574125D01*
X0002998257Y0002581541D02*
X0003000611Y0002577848D01*
X0002995859Y0002585205D02*
X0002998257Y0002581541D01*
X0002993419Y0002588840D02*
X0002995859Y0002585205D01*
X0002990935Y0002592444D02*
X0002993419Y0002588840D01*
X0002988409Y0002596018D02*
X0002990935Y0002592444D01*
X0002985841Y0002599561D02*
X0002988409Y0002596018D01*
X0002983231Y0002603073D02*
X0002985841Y0002599561D01*
X0002980580Y0002606553D02*
X0002983231Y0002603073D01*
X0002977887Y0002610002D02*
X0002980580Y0002606553D01*
X0002975154Y0002613417D02*
X0002977887Y0002610002D01*
X0002972380Y0002616800D02*
X0002975154Y0002613417D01*
X0002969566Y0002620150D02*
X0002972380Y0002616800D01*
X0002966712Y0002623466D02*
X0002969566Y0002620150D01*
X0002963818Y0002626748D02*
X0002966712Y0002623466D01*
X0002960885Y0002629995D02*
X0002963818Y0002626748D01*
X0002957914Y0002633208D02*
X0002960885Y0002629995D01*
X0002954903Y0002636386D02*
X0002957914Y0002633208D01*
X0002951855Y0002639528D02*
X0002954903Y0002636386D01*
X0002948768Y0002642634D02*
X0002951855Y0002639528D01*
X0002945643Y0002645703D02*
X0002948768Y0002642634D01*
X0002942482Y0002648736D02*
X0002945643Y0002645703D01*
X0002939283Y0002651732D02*
X0002942482Y0002648736D01*
X0002936047Y0002654690D02*
X0002939283Y0002651732D01*
X0002932776Y0002657610D02*
X0002936047Y0002654690D01*
X0002929468Y0002660492D02*
X0002932776Y0002657610D01*
X0002926124Y0002663335D02*
X0002929468Y0002660492D01*
X0002922745Y0002666139D02*
X0002926124Y0002663335D01*
X0002919331Y0002668903D02*
X0002922745Y0002666139D01*
X0002915882Y0002671628D02*
X0002919331Y0002668903D01*
X0002912398Y0002674312D02*
X0002915882Y0002671628D01*
X0002908881Y0002676956D02*
X0002912398Y0002674312D01*
X0002905329Y0002679558D02*
X0002908881Y0002676956D01*
X0002901744Y0002682119D02*
X0002905329Y0002679558D01*
X0002898126Y0002684638D02*
X0002901744Y0002682119D01*
X0002894475Y0002687115D02*
X0002898126Y0002684638D01*
X0002890791Y0002689549D02*
X0002894475Y0002687115D01*
X0002887075Y0002691940D02*
X0002890791Y0002689549D01*
X0002883328Y0002694287D02*
X0002887075Y0002691940D01*
X0002879548Y0002696591D02*
X0002883328Y0002694287D01*
X0002875737Y0002698850D02*
X0002879548Y0002696591D01*
X0002871896Y0002701065D02*
X0002875737Y0002698850D01*
X0002868024Y0002703235D02*
X0002871896Y0002701065D01*
X0002864121Y0002705359D02*
X0002868024Y0002703235D01*
X0002860188Y0002707438D02*
X0002864121Y0002705359D01*
X0002856226Y0002709470D02*
X0002860188Y0002707438D01*
X0002852234Y0002711456D02*
X0002856226Y0002709470D01*
X0002848213Y0002713394D02*
X0002852234Y0002711456D01*
X0002844164Y0002715286D02*
X0002848213Y0002713394D01*
X0002840086Y0002717129D02*
X0002844164Y0002715286D01*
X0002835980Y0002718924D02*
X0002840086Y0002717129D01*
X0002831846Y0002720671D02*
X0002835980Y0002718924D01*
X0002827685Y0002722369D02*
X0002831846Y0002720671D01*
X0002823496Y0002724017D02*
X0002827685Y0002722369D01*
X0002819281Y0002725616D02*
X0002823496Y0002724017D01*
X0002815039Y0002727164D02*
X0002819281Y0002725616D01*
X0002810771Y0002728662D02*
X0002815039Y0002727164D01*
X0002806478Y0002730109D02*
X0002810771Y0002728662D01*
X0002802158Y0002731504D02*
X0002806478Y0002730109D01*
X0002797814Y0002732848D02*
X0002802158Y0002731504D01*
X0002793444Y0002734140D02*
X0002797814Y0002732848D01*
X0002789050Y0002735379D02*
X0002793444Y0002734140D01*
X0002784632Y0002736565D02*
X0002789050Y0002735379D01*
X0002780189Y0002737698D02*
X0002784632Y0002736565D01*
X0002775723Y0002738777D02*
X0002780189Y0002737698D01*
X0002771234Y0002739802D02*
X0002775723Y0002738777D01*
X0002766722Y0002740773D02*
X0002771234Y0002739802D01*
X0002762187Y0002741688D02*
X0002766722Y0002740773D01*
X0002757630Y0002742549D02*
X0002762187Y0002741688D01*
X0002753050Y0002743355D02*
X0002757630Y0002742549D01*
X0002748449Y0002744103D02*
X0002753050Y0002743355D01*
X0002743827Y0002744796D02*
X0002748449Y0002744103D01*
X0002739183Y0002745431D02*
X0002743827Y0002744796D01*
X0002734519Y0002746011D02*
X0002739183Y0002745431D01*
X0002729835Y0002746537D02*
X0002734519Y0002746011D01*
X0002711122Y0002748033D02*
X0002729835Y0002746537D01*
X0002692556Y0002748575D02*
X0002711122Y0002748033D01*
X0002674163Y0002748182D02*
X0002692556Y0002748575D01*
X0002655967Y0002746875D02*
X0002674163Y0002748182D01*
X0002637994Y0002744675D02*
X0002655967Y0002746875D01*
X0002620269Y0002741602D02*
X0002637994Y0002744675D01*
X0002602817Y0002737676D02*
X0002620269Y0002741602D01*
X0002585664Y0002732917D02*
X0002602817Y0002737676D01*
X0002568834Y0002727347D02*
X0002585664Y0002732917D01*
X0002552352Y0002720985D02*
X0002568834Y0002727347D01*
X0002536245Y0002713853D02*
X0002552352Y0002720985D01*
X0002520537Y0002705969D02*
X0002536245Y0002713853D01*
X0002505253Y0002697355D02*
X0002520537Y0002705969D01*
X0002490419Y0002688032D02*
X0002505253Y0002697355D01*
X0002476060Y0002678018D02*
X0002490419Y0002688032D01*
X0002462200Y0002667336D02*
X0002476060Y0002678018D01*
X0002448866Y0002656005D02*
X0002462200Y0002667336D01*
X0002436081Y0002644046D02*
X0002448866Y0002656005D01*
X0002423873Y0002631478D02*
X0002436081Y0002644046D01*
X0002412265Y0002618323D02*
X0002423873Y0002631478D01*
X0002401283Y0002604601D02*
X0002412265Y0002618323D01*
X0002390952Y0002590333D02*
X0002401283Y0002604601D01*
X0002381298Y0002575538D02*
X0002390952Y0002590333D01*
X0002372345Y0002560237D02*
X0002381298Y0002575538D01*
X0002364119Y0002544450D02*
X0002372345Y0002560237D01*
X0002356645Y0002528199D02*
X0002364119Y0002544450D01*
X0002349947Y0002511502D02*
X0002356645Y0002528199D01*
X0002344052Y0002494381D02*
X0002349947Y0002511502D01*
X0002338985Y0002476857D02*
X0002344052Y0002494381D01*
X0002334770Y0002458948D02*
X0002338985Y0002476857D01*
X0002331434Y0002440677D02*
X0002334770Y0002458948D01*
X0002329000Y0002422063D02*
X0002331434Y0002440677D01*
X0002327510Y0002403349D02*
X0002329000Y0002422063D01*
X0002326975Y0002384783D02*
X0002327510Y0002403349D01*
X0002327375Y0002366390D02*
X0002326975Y0002384783D01*
X0002328688Y0002348195D02*
X0002327375Y0002366390D01*
X0002330894Y0002330223D02*
X0002328688Y0002348195D01*
X0002333974Y0002312499D02*
X0002330894Y0002330223D01*
X0002337906Y0002295048D02*
X0002333974Y0002312499D01*
X0002342670Y0002277896D02*
X0002337906Y0002295048D01*
X0002348246Y0002261068D02*
X0002342670Y0002277896D01*
X0002354613Y0002244589D02*
X0002348246Y0002261068D01*
X0002361752Y0002228484D02*
X0002354613Y0002244589D01*
X0002369641Y0002212779D02*
X0002361752Y0002228484D01*
X0002378260Y0002197498D02*
X0002369641Y0002212779D01*
X0002387589Y0002182667D02*
X0002378260Y0002197498D01*
X0002397607Y0002168311D02*
X0002387589Y0002182667D01*
X0002408294Y0002154456D02*
X0002397607Y0002168311D01*
X0002419630Y0002141125D02*
X0002408294Y0002154456D01*
X0002431594Y0002128345D02*
X0002419630Y0002141125D01*
X0002444165Y0002116141D02*
X0002431594Y0002128345D01*
X0002457324Y0002104538D02*
X0002444165Y0002116141D01*
X0002471050Y0002093561D02*
X0002457324Y0002104538D01*
X0002485322Y0002083235D02*
X0002471050Y0002093561D01*
X0002500121Y0002073585D02*
X0002485322Y0002083235D01*
X0002515425Y0002064638D02*
X0002500121Y0002073585D01*
X0002531214Y0002056417D02*
X0002515425Y0002064638D01*
X0002547468Y0002048949D02*
X0002531214Y0002056417D01*
X0002564167Y0002042257D02*
X0002547468Y0002048949D01*
X0002581290Y0002036368D02*
X0002564167Y0002042257D01*
X0002598816Y0002031307D02*
X0002581290Y0002036368D01*
X0002616726Y0002027099D02*
X0002598816Y0002031307D01*
X0002634999Y0002023768D02*
X0002616726Y0002027099D01*
X0002653614Y0002021341D02*
X0002634999Y0002023768D01*
X0002611756Y0001176791D02*
X0002611756Y0001176791D01*
X0002615051Y0001176467D02*
X0002611756Y0001176791D01*
X0002618341Y0001176188D02*
X0002615051Y0001176467D01*
X0002621624Y0001175944D02*
X0002618341Y0001176188D01*
X0002624902Y0001175746D02*
X0002621624Y0001175944D01*
X0002628173Y0001175590D02*
X0002624902Y0001175746D01*
X0002631437Y0001175475D02*
X0002628173Y0001175590D01*
X0002634694Y0001175401D02*
X0002631437Y0001175475D01*
X0002637944Y0001175369D02*
X0002634694Y0001175401D01*
X0002641186Y0001175378D02*
X0002637944Y0001175369D01*
X0002644421Y0001175428D02*
X0002641186Y0001175378D01*
X0002647647Y0001175518D02*
X0002644421Y0001175428D01*
X0002650865Y0001175649D02*
X0002647647Y0001175518D01*
X0002654074Y0001175820D02*
X0002650865Y0001175649D01*
X0002657274Y0001176031D02*
X0002654074Y0001175820D01*
X0002660465Y0001176281D02*
X0002657274Y0001176031D01*
X0002663647Y0001176571D02*
X0002660465Y0001176281D01*
X0002666819Y0001176901D02*
X0002663647Y0001176571D01*
X0002669980Y0001177269D02*
X0002666819Y0001176901D01*
X0002673132Y0001177676D02*
X0002669980Y0001177269D01*
X0002676272Y0001178121D02*
X0002673132Y0001177676D01*
X0002679402Y0001178605D02*
X0002676272Y0001178121D01*
X0002682521Y0001179127D02*
X0002679402Y0001178605D01*
X0002685628Y0001179686D02*
X0002682521Y0001179127D01*
X0002688723Y0001180284D02*
X0002685628Y0001179686D01*
X0002691807Y0001180918D02*
X0002688723Y0001180284D01*
X0002694878Y0001181590D02*
X0002691807Y0001180918D01*
X0002697937Y0001182299D02*
X0002694878Y0001181590D01*
X0002700982Y0001183044D02*
X0002697937Y0001182299D01*
X0002704015Y0001183826D02*
X0002700982Y0001183044D01*
X0002707034Y0001184645D02*
X0002704015Y0001183826D01*
X0002710040Y0001185499D02*
X0002707034Y0001184645D01*
X0002713032Y0001186390D02*
X0002710040Y0001185499D01*
X0002716009Y0001187316D02*
X0002713032Y0001186390D01*
X0002718972Y0001188277D02*
X0002716009Y0001187316D01*
X0002721920Y0001189274D02*
X0002718972Y0001188277D01*
X0002724854Y0001190306D02*
X0002721920Y0001189274D01*
X0002727772Y0001191372D02*
X0002724854Y0001190306D01*
X0002730674Y0001192473D02*
X0002727772Y0001191372D01*
X0002733560Y0001193608D02*
X0002730674Y0001192473D01*
X0002736431Y0001194777D02*
X0002733560Y0001193608D01*
X0002739284Y0001195981D02*
X0002736431Y0001194777D01*
X0002742122Y0001197217D02*
X0002739284Y0001195981D01*
X0002744942Y0001198487D02*
X0002742122Y0001197217D01*
X0002747745Y0001199791D02*
X0002744942Y0001198487D01*
X0002750530Y0001201127D02*
X0002747745Y0001199791D01*
X0002753298Y0001202496D02*
X0002750530Y0001201127D01*
X0002756047Y0001203898D02*
X0002753298Y0001202496D01*
X0002758778Y0001205331D02*
X0002756047Y0001203898D01*
X0002761491Y0001206797D02*
X0002758778Y0001205331D01*
X0002764185Y0001208295D02*
X0002761491Y0001206797D01*
X0002766859Y0001209824D02*
X0002764185Y0001208295D01*
X0002769514Y0001211385D02*
X0002766859Y0001209824D01*
X0002772149Y0001212977D02*
X0002769514Y0001211385D01*
X0002774764Y0001214599D02*
X0002772149Y0001212977D01*
X0002777359Y0001216253D02*
X0002774764Y0001214599D01*
X0002779934Y0001217937D02*
X0002777359Y0001216253D01*
X0002782487Y0001219651D02*
X0002779934Y0001217937D01*
X0002785019Y0001221395D02*
X0002782487Y0001219651D01*
X0002787530Y0001223169D02*
X0002785019Y0001221395D01*
X0002790020Y0001224973D02*
X0002787530Y0001223169D01*
X0002792487Y0001226806D02*
X0002790020Y0001224973D01*
X0002794932Y0001228668D02*
X0002792487Y0001226806D01*
X0002797355Y0001230559D02*
X0002794932Y0001228668D01*
X0002799755Y0001232479D02*
X0002797355Y0001230559D01*
X0002802131Y0001234427D02*
X0002799755Y0001232479D01*
X0002804485Y0001236404D02*
X0002802131Y0001234427D01*
X0002806815Y0001238408D02*
X0002804485Y0001236404D01*
X0002809121Y0001240441D02*
X0002806815Y0001238408D01*
X0002811403Y0001242500D02*
X0002809121Y0001240441D01*
X0002813660Y0001244588D02*
X0002811403Y0001242500D01*
X0002815893Y0001246702D02*
X0002813660Y0001244588D01*
X0002818100Y0001248843D02*
X0002815893Y0001246702D01*
X0002820283Y0001251011D02*
X0002818100Y0001248843D01*
X0002822439Y0001253206D02*
X0002820283Y0001251011D01*
X0002824570Y0001255426D02*
X0002822439Y0001253206D01*
X0002826675Y0001257673D02*
X0002824570Y0001255426D01*
X0002828754Y0001259946D02*
X0002826675Y0001257673D01*
X0002830806Y0001262244D02*
X0002828754Y0001259946D01*
X0002832831Y0001264567D02*
X0002830806Y0001262244D01*
X0002834829Y0001266916D02*
X0002832831Y0001264567D01*
X0002836799Y0001269289D02*
X0002834829Y0001266916D01*
X0002838741Y0001271687D02*
X0002836799Y0001269289D01*
X0002840656Y0001274109D02*
X0002838741Y0001271687D01*
X0002842542Y0001276556D02*
X0002840656Y0001274109D01*
X0002844400Y0001279027D02*
X0002842542Y0001276556D01*
X0002846228Y0001281521D02*
X0002844400Y0001279027D01*
X0002848028Y0001284039D02*
X0002846228Y0001281521D01*
X0002849798Y0001286581D02*
X0002848028Y0001284039D01*
X0002851539Y0001289145D02*
X0002849798Y0001286581D01*
X0002853249Y0001291732D02*
X0002851539Y0001289145D01*
X0002854929Y0001294342D02*
X0002853249Y0001291732D01*
X0002856579Y0001296975D02*
X0002854929Y0001294342D01*
X0002858198Y0001299630D02*
X0002856579Y0001296975D01*
X0002859786Y0001302306D02*
X0002858198Y0001299630D01*
X0002861343Y0001305005D02*
X0002859786Y0001302306D01*
X0002862868Y0001307724D02*
X0002861343Y0001305005D01*
X0002864360Y0001310466D02*
X0002862868Y0001307724D01*
X0002865821Y0001313228D02*
X0002864360Y0001310466D01*
X0002867250Y0001316011D02*
X0002865821Y0001313228D01*
X0002868645Y0001318815D02*
X0002867250Y0001316011D01*
X0002870008Y0001321639D02*
X0002868645Y0001318815D01*
X0002871337Y0001324483D02*
X0002870008Y0001321639D01*
X0002872632Y0001327348D02*
X0002871337Y0001324483D01*
X0002873894Y0001330232D02*
X0002872632Y0001327348D01*
X0002875122Y0001333136D02*
X0002873894Y0001330232D01*
X0002876315Y0001336058D02*
X0002875122Y0001333136D01*
X0002877473Y0001339001D02*
X0002876315Y0001336058D01*
X0002878597Y0001341961D02*
X0002877473Y0001339001D01*
X0002879685Y0001344941D02*
X0002878597Y0001341961D01*
X0002880739Y0001347939D02*
X0002879685Y0001344941D01*
X0002881756Y0001350955D02*
X0002880739Y0001347939D01*
X0002882738Y0001353989D02*
X0002881756Y0001350955D01*
X0002883683Y0001357041D02*
X0002882738Y0001353989D01*
X0002884591Y0001360110D02*
X0002883683Y0001357041D01*
X0002885463Y0001363196D02*
X0002884591Y0001360110D01*
X0002886297Y0001366300D02*
X0002885463Y0001363196D01*
X0002887095Y0001369420D02*
X0002886297Y0001366300D01*
X0002887853Y0001372557D02*
X0002887095Y0001369420D01*
X0002888575Y0001375710D02*
X0002887853Y0001372557D01*
X0002889258Y0001378880D02*
X0002888575Y0001375710D01*
X0002889902Y0001382066D02*
X0002889258Y0001378880D01*
X0002890507Y0001385267D02*
X0002889902Y0001382066D01*
X0002891074Y0001388484D02*
X0002890507Y0001385267D01*
X0002891601Y0001391715D02*
X0002891074Y0001388484D01*
X0002892088Y0001394962D02*
X0002891601Y0001391715D01*
X0002892532Y0001398225D02*
X0002892088Y0001394962D01*
X0002892943Y0001401501D02*
X0002892532Y0001398225D01*
X0002893312Y0001404791D02*
X0002892943Y0001401501D01*
X0002893636Y0001408087D02*
X0002893312Y0001404791D01*
X0002893914Y0001411377D02*
X0002893636Y0001408087D01*
X0002894159Y0001414660D02*
X0002893914Y0001411377D01*
X0002894357Y0001417937D02*
X0002894159Y0001414660D01*
X0002894513Y0001421208D02*
X0002894357Y0001417937D01*
X0002894628Y0001424472D02*
X0002894513Y0001421208D01*
X0002894701Y0001427729D02*
X0002894628Y0001424472D01*
X0002894733Y0001430979D02*
X0002894701Y0001427729D01*
X0002894724Y0001434222D02*
X0002894733Y0001430979D01*
X0002894674Y0001437456D02*
X0002894724Y0001434222D01*
X0002894585Y0001440682D02*
X0002894674Y0001437456D01*
X0002894454Y0001443900D02*
X0002894585Y0001440682D01*
X0002894282Y0001447109D02*
X0002894454Y0001443900D01*
X0002894071Y0001450310D02*
X0002894282Y0001447109D01*
X0002893821Y0001453501D02*
X0002894071Y0001450310D01*
X0002893531Y0001456682D02*
X0002893821Y0001453501D01*
X0002893202Y0001459854D02*
X0002893531Y0001456682D01*
X0002892834Y0001463016D02*
X0002893202Y0001459854D01*
X0002892427Y0001466167D02*
X0002892834Y0001463016D01*
X0002891981Y0001469308D02*
X0002892427Y0001466167D01*
X0002891498Y0001472437D02*
X0002891981Y0001469308D01*
X0002890977Y0001475556D02*
X0002891498Y0001472437D01*
X0002890417Y0001478663D02*
X0002890977Y0001475556D01*
X0002889820Y0001481759D02*
X0002890417Y0001478663D01*
X0002889185Y0001484842D02*
X0002889820Y0001481759D01*
X0002888514Y0001487913D02*
X0002889185Y0001484842D01*
X0002887805Y0001490972D02*
X0002888514Y0001487913D01*
X0002887059Y0001494017D02*
X0002887805Y0001490972D01*
X0002886278Y0001497050D02*
X0002887059Y0001494017D01*
X0002885459Y0001500069D02*
X0002886278Y0001497050D01*
X0002884605Y0001503075D02*
X0002885459Y0001500069D01*
X0002883714Y0001506067D02*
X0002884605Y0001503075D01*
X0002882788Y0001509044D02*
X0002883714Y0001506067D01*
X0002881827Y0001512007D02*
X0002882788Y0001509044D01*
X0002880830Y0001514956D02*
X0002881827Y0001512007D01*
X0002879798Y0001517889D02*
X0002880830Y0001514956D01*
X0002878732Y0001520807D02*
X0002879798Y0001517889D01*
X0002877631Y0001523709D02*
X0002878732Y0001520807D01*
X0002876496Y0001526595D02*
X0002877631Y0001523709D01*
X0002875326Y0001529466D02*
X0002876496Y0001526595D01*
X0002874123Y0001532320D02*
X0002875326Y0001529466D01*
X0002872887Y0001535157D02*
X0002874123Y0001532320D01*
X0002871616Y0001537977D02*
X0002872887Y0001535157D01*
X0002870313Y0001540780D02*
X0002871616Y0001537977D01*
X0002868977Y0001543565D02*
X0002870313Y0001540780D01*
X0002867608Y0001546333D02*
X0002868977Y0001543565D01*
X0002866206Y0001549082D02*
X0002867608Y0001546333D01*
X0002864772Y0001551814D02*
X0002866206Y0001549082D01*
X0002863307Y0001554526D02*
X0002864772Y0001551814D01*
X0002861809Y0001557220D02*
X0002863307Y0001554526D01*
X0002860280Y0001559894D02*
X0002861809Y0001557220D01*
X0002858719Y0001562549D02*
X0002860280Y0001559894D01*
X0002857127Y0001565184D02*
X0002858719Y0001562549D01*
X0002855505Y0001567800D02*
X0002857127Y0001565184D01*
X0002853851Y0001570394D02*
X0002855505Y0001567800D01*
X0002852167Y0001572969D02*
X0002853851Y0001570394D01*
X0002850453Y0001575522D02*
X0002852167Y0001572969D01*
X0002848709Y0001578055D02*
X0002850453Y0001575522D01*
X0002846935Y0001580566D02*
X0002848709Y0001578055D01*
X0002845131Y0001583055D02*
X0002846935Y0001580566D01*
X0002843298Y0001585522D02*
X0002845131Y0001583055D01*
X0002841436Y0001587967D02*
X0002843298Y0001585522D01*
X0002839545Y0001590390D02*
X0002841436Y0001587967D01*
X0002837625Y0001592790D02*
X0002839545Y0001590390D01*
X0002835677Y0001595167D02*
X0002837625Y0001592790D01*
X0002833700Y0001597520D02*
X0002835677Y0001595167D01*
X0002831696Y0001599850D02*
X0002833700Y0001597520D01*
X0002829663Y0001602156D02*
X0002831696Y0001599850D01*
X0002827603Y0001604438D02*
X0002829663Y0001602156D01*
X0002825516Y0001606695D02*
X0002827603Y0001604438D01*
X0002823402Y0001608928D02*
X0002825516Y0001606695D01*
X0002821260Y0001611135D02*
X0002823402Y0001608928D01*
X0002819092Y0001613318D02*
X0002821260Y0001611135D01*
X0002816898Y0001615475D02*
X0002819092Y0001613318D01*
X0002814677Y0001617606D02*
X0002816898Y0001615475D01*
X0002812431Y0001619711D02*
X0002814677Y0001617606D01*
X0002810158Y0001621789D02*
X0002812431Y0001619711D01*
X0002807860Y0001623841D02*
X0002810158Y0001621789D01*
X0002805537Y0001625866D02*
X0002807860Y0001623841D01*
X0002803188Y0001627864D02*
X0002805537Y0001625866D01*
X0002800815Y0001629834D02*
X0002803188Y0001627864D01*
X0002798417Y0001631776D02*
X0002800815Y0001629834D01*
X0002795994Y0001633691D02*
X0002798417Y0001631776D01*
X0002793548Y0001635577D02*
X0002795994Y0001633691D01*
X0002791077Y0001637435D02*
X0002793548Y0001635577D01*
X0002788582Y0001639264D02*
X0002791077Y0001637435D01*
X0002786064Y0001641063D02*
X0002788582Y0001639264D01*
X0002783523Y0001642833D02*
X0002786064Y0001641063D01*
X0002780959Y0001644574D02*
X0002783523Y0001642833D01*
X0002778371Y0001646284D02*
X0002780959Y0001644574D01*
X0002775761Y0001647965D02*
X0002778371Y0001646284D01*
X0002773129Y0001649614D02*
X0002775761Y0001647965D01*
X0002770474Y0001651233D02*
X0002773129Y0001649614D01*
X0002767798Y0001652821D02*
X0002770474Y0001651233D01*
X0002765099Y0001654378D02*
X0002767798Y0001652821D01*
X0002762380Y0001655903D02*
X0002765099Y0001654378D01*
X0002759638Y0001657396D02*
X0002762380Y0001655903D01*
X0002756876Y0001658857D02*
X0002759638Y0001657396D01*
X0002754093Y0001660285D02*
X0002756876Y0001658857D01*
X0002751289Y0001661680D02*
X0002754093Y0001660285D01*
X0002748465Y0001663043D02*
X0002751289Y0001661680D01*
X0002745620Y0001664372D02*
X0002748465Y0001663043D01*
X0002742756Y0001665667D02*
X0002745620Y0001664372D01*
X0002739872Y0001666929D02*
X0002742756Y0001665667D01*
X0002736968Y0001668157D02*
X0002739872Y0001666929D01*
X0002734045Y0001669350D02*
X0002736968Y0001668157D01*
X0002731103Y0001670510D02*
X0002734045Y0001669350D01*
X0002728142Y0001671633D02*
X0002731103Y0001670510D01*
X0002725163Y0001672722D02*
X0002728142Y0001671633D01*
X0002722165Y0001673775D02*
X0002725163Y0001672722D01*
X0002719149Y0001674793D02*
X0002722165Y0001673775D01*
X0002716115Y0001675774D02*
X0002719149Y0001674793D01*
X0002713064Y0001676719D02*
X0002716115Y0001675774D01*
X0002709994Y0001677627D02*
X0002713064Y0001676719D01*
X0002706908Y0001678499D02*
X0002709994Y0001677627D01*
X0002703804Y0001679334D02*
X0002706908Y0001678499D01*
X0002700684Y0001680131D02*
X0002703804Y0001679334D01*
X0002697547Y0001680891D02*
X0002700684Y0001680131D01*
X0002694394Y0001681612D02*
X0002697547Y0001680891D01*
X0002691224Y0001682295D02*
X0002694394Y0001681612D01*
X0002688038Y0001682939D02*
X0002691224Y0001682295D01*
X0002684837Y0001683545D02*
X0002688038Y0001682939D01*
X0002681621Y0001684111D02*
X0002684837Y0001683545D01*
X0002678389Y0001684638D02*
X0002681621Y0001684111D01*
X0002675142Y0001685126D02*
X0002678389Y0001684638D01*
X0002671879Y0001685569D02*
X0002675142Y0001685126D01*
X0002668603Y0001685981D02*
X0002671879Y0001685569D01*
X0002665313Y0001686349D02*
X0002668603Y0001685981D01*
X0002662017Y0001686673D02*
X0002665313Y0001686349D01*
X0002658727Y0001686952D02*
X0002662017Y0001686673D01*
X0002655444Y0001687196D02*
X0002658727Y0001686952D01*
X0002652167Y0001687394D02*
X0002655444Y0001687196D01*
X0002648896Y0001687550D02*
X0002652167Y0001687394D01*
X0002645632Y0001687666D02*
X0002648896Y0001687550D01*
X0002642375Y0001687739D02*
X0002645632Y0001687666D01*
X0002639125Y0001687771D02*
X0002642375Y0001687739D01*
X0002635883Y0001687762D02*
X0002639125Y0001687771D01*
X0002632648Y0001687712D02*
X0002635883Y0001687762D01*
X0002629422Y0001687621D02*
X0002632648Y0001687712D01*
X0002626204Y0001687490D02*
X0002629422Y0001687621D01*
X0002622995Y0001687319D02*
X0002626204Y0001687490D01*
X0002619794Y0001687108D02*
X0002622995Y0001687319D01*
X0002616603Y0001686858D02*
X0002619794Y0001687108D01*
X0002613422Y0001686568D02*
X0002616603Y0001686858D01*
X0002610250Y0001686238D02*
X0002613422Y0001686568D01*
X0002607088Y0001685870D02*
X0002610250Y0001686238D01*
X0002603937Y0001685463D02*
X0002607088Y0001685870D01*
X0002600796Y0001685018D02*
X0002603937Y0001685463D01*
X0002597667Y0001684534D02*
X0002600796Y0001685018D01*
X0002594548Y0001684012D02*
X0002597667Y0001684534D01*
X0002591441Y0001683453D02*
X0002594548Y0001684012D01*
X0002588345Y0001682855D02*
X0002591441Y0001683453D01*
X0002585262Y0001682221D02*
X0002588345Y0001682855D01*
X0002582191Y0001681549D02*
X0002585262Y0001682221D01*
X0002579132Y0001680840D02*
X0002582191Y0001681549D01*
X0002576086Y0001680095D02*
X0002579132Y0001680840D01*
X0002573054Y0001679313D02*
X0002576086Y0001680095D01*
X0002570034Y0001678494D02*
X0002573054Y0001679313D01*
X0002567029Y0001677640D02*
X0002570034Y0001678494D01*
X0002564037Y0001676749D02*
X0002567029Y0001677640D01*
X0002561060Y0001675823D02*
X0002564037Y0001676749D01*
X0002558096Y0001674862D02*
X0002561060Y0001675823D01*
X0002555148Y0001673865D02*
X0002558096Y0001674862D01*
X0002552215Y0001672833D02*
X0002555148Y0001673865D01*
X0002549297Y0001671767D02*
X0002552215Y0001672833D01*
X0002546395Y0001670666D02*
X0002549297Y0001671767D01*
X0002543508Y0001669531D02*
X0002546395Y0001670666D01*
X0002540638Y0001668362D02*
X0002543508Y0001669531D01*
X0002537784Y0001667159D02*
X0002540638Y0001668362D01*
X0002534947Y0001665922D02*
X0002537784Y0001667159D01*
X0002532127Y0001664652D02*
X0002534947Y0001665922D01*
X0002529324Y0001663348D02*
X0002532127Y0001664652D01*
X0002526539Y0001662012D02*
X0002529324Y0001663348D01*
X0002523771Y0001660643D02*
X0002526539Y0001662012D01*
X0002521021Y0001659241D02*
X0002523771Y0001660643D01*
X0002518290Y0001657808D02*
X0002521021Y0001659241D01*
X0002515578Y0001656342D02*
X0002518290Y0001657808D01*
X0002512884Y0001654844D02*
X0002515578Y0001656342D01*
X0002510210Y0001653315D02*
X0002512884Y0001654844D01*
X0002507555Y0001651754D02*
X0002510210Y0001653315D01*
X0002504920Y0001650162D02*
X0002507555Y0001651754D01*
X0002502304Y0001648540D02*
X0002504920Y0001650162D01*
X0002499709Y0001646886D02*
X0002502304Y0001648540D01*
X0002497135Y0001645202D02*
X0002499709Y0001646886D01*
X0002494582Y0001643488D02*
X0002497135Y0001645202D01*
X0002492049Y0001641744D02*
X0002494582Y0001643488D01*
X0002489538Y0001639970D02*
X0002492049Y0001641744D01*
X0002487049Y0001638166D02*
X0002489538Y0001639970D01*
X0002484582Y0001636333D02*
X0002487049Y0001638166D01*
X0002482136Y0001634471D02*
X0002484582Y0001636333D01*
X0002479714Y0001632580D02*
X0002482136Y0001634471D01*
X0002477314Y0001630660D02*
X0002479714Y0001632580D01*
X0002474937Y0001628712D02*
X0002477314Y0001630660D01*
X0002472584Y0001626735D02*
X0002474937Y0001628712D01*
X0002470254Y0001624731D02*
X0002472584Y0001626735D01*
X0002467948Y0001622698D02*
X0002470254Y0001624731D01*
X0002465666Y0001620639D02*
X0002467948Y0001622698D01*
X0002463409Y0001618551D02*
X0002465666Y0001620639D01*
X0002461176Y0001616437D02*
X0002463409Y0001618551D01*
X0002458969Y0001614296D02*
X0002461176Y0001616437D01*
X0002456786Y0001612128D02*
X0002458969Y0001614296D01*
X0002454629Y0001609933D02*
X0002456786Y0001612128D01*
X0002452498Y0001607713D02*
X0002454629Y0001609933D01*
X0002450393Y0001605466D02*
X0002452498Y0001607713D01*
X0002448315Y0001603193D02*
X0002450393Y0001605466D01*
X0002446263Y0001600895D02*
X0002448315Y0001603193D01*
X0002444238Y0001598572D02*
X0002446263Y0001600895D01*
X0002442240Y0001596223D02*
X0002444238Y0001598572D01*
X0002440270Y0001593850D02*
X0002442240Y0001596223D01*
X0002438327Y0001591452D02*
X0002440270Y0001593850D01*
X0002436413Y0001589030D02*
X0002438327Y0001591452D01*
X0002434527Y0001586583D02*
X0002436413Y0001589030D01*
X0002432669Y0001584112D02*
X0002434527Y0001586583D01*
X0002430840Y0001581618D02*
X0002432669Y0001584112D01*
X0002429041Y0001579100D02*
X0002430840Y0001581618D01*
X0002427271Y0001576558D02*
X0002429041Y0001579100D01*
X0002425530Y0001573994D02*
X0002427271Y0001576558D01*
X0002423820Y0001571407D02*
X0002425530Y0001573994D01*
X0002422139Y0001568797D02*
X0002423820Y0001571407D01*
X0002420490Y0001566164D02*
X0002422139Y0001568797D01*
X0002418870Y0001563509D02*
X0002420490Y0001566164D01*
X0002417283Y0001560833D02*
X0002418870Y0001563509D01*
X0002415726Y0001558134D02*
X0002417283Y0001560833D01*
X0002414201Y0001555415D02*
X0002415726Y0001558134D01*
X0002412708Y0001552673D02*
X0002414201Y0001555415D01*
X0002411247Y0001549911D02*
X0002412708Y0001552673D01*
X0002409819Y0001547128D02*
X0002411247Y0001549911D01*
X0002408424Y0001544324D02*
X0002409819Y0001547128D01*
X0002407061Y0001541500D02*
X0002408424Y0001544324D01*
X0002405732Y0001538656D02*
X0002407061Y0001541500D01*
X0002404437Y0001535791D02*
X0002405732Y0001538656D01*
X0002403175Y0001532907D02*
X0002404437Y0001535791D01*
X0002401947Y0001530003D02*
X0002403175Y0001532907D01*
X0002400754Y0001527081D02*
X0002401947Y0001530003D01*
X0002399595Y0001524138D02*
X0002400754Y0001527081D01*
X0002398472Y0001521178D02*
X0002399595Y0001524138D01*
X0002397383Y0001518198D02*
X0002398472Y0001521178D01*
X0002396330Y0001515200D02*
X0002397383Y0001518198D01*
X0002395312Y0001512184D02*
X0002396330Y0001515200D01*
X0002394331Y0001509150D02*
X0002395312Y0001512184D01*
X0002393386Y0001506099D02*
X0002394331Y0001509150D01*
X0002392478Y0001503029D02*
X0002393386Y0001506099D01*
X0002391606Y0001499943D02*
X0002392478Y0001503029D01*
X0002390771Y0001496839D02*
X0002391606Y0001499943D01*
X0002389974Y0001493719D02*
X0002390771Y0001496839D01*
X0002389215Y0001490582D02*
X0002389974Y0001493719D01*
X0002388494Y0001487429D02*
X0002389215Y0001490582D01*
X0002387811Y0001484259D02*
X0002388494Y0001487429D01*
X0002387167Y0001481073D02*
X0002387811Y0001484259D01*
X0002386561Y0001477872D02*
X0002387167Y0001481073D01*
X0002385995Y0001474655D02*
X0002386561Y0001477872D01*
X0002385468Y0001471424D02*
X0002385995Y0001474655D01*
X0002384980Y0001468177D02*
X0002385468Y0001471424D01*
X0002384537Y0001464914D02*
X0002384980Y0001468177D01*
X0002384125Y0001461638D02*
X0002384537Y0001464914D01*
X0002383757Y0001458348D02*
X0002384125Y0001461638D01*
X0002383433Y0001455052D02*
X0002383757Y0001458348D01*
X0002383154Y0001451762D02*
X0002383433Y0001455052D01*
X0002382910Y0001448479D02*
X0002383154Y0001451762D01*
X0002382712Y0001445202D02*
X0002382910Y0001448479D01*
X0002382556Y0001441931D02*
X0002382712Y0001445202D01*
X0002382441Y0001438667D02*
X0002382556Y0001441931D01*
X0002382367Y0001435410D02*
X0002382441Y0001438667D01*
X0002382335Y0001432160D02*
X0002382367Y0001435410D01*
X0002382344Y0001428917D02*
X0002382335Y0001432160D01*
X0002382394Y0001425683D02*
X0002382344Y0001428917D01*
X0002382484Y0001422457D02*
X0002382394Y0001425683D01*
X0002382615Y0001419239D02*
X0002382484Y0001422457D01*
X0002382786Y0001416030D02*
X0002382615Y0001419239D01*
X0002382997Y0001412829D02*
X0002382786Y0001416030D01*
X0002383247Y0001409638D02*
X0002382997Y0001412829D01*
X0002383537Y0001406457D02*
X0002383247Y0001409638D01*
X0002383867Y0001403285D02*
X0002383537Y0001406457D01*
X0002384235Y0001400123D02*
X0002383867Y0001403285D01*
X0002384642Y0001396972D02*
X0002384235Y0001400123D01*
X0002385087Y0001393831D02*
X0002384642Y0001396972D01*
X0002385571Y0001390702D02*
X0002385087Y0001393831D01*
X0002386092Y0001387583D02*
X0002385571Y0001390702D01*
X0002386651Y0001384476D02*
X0002386092Y0001387583D01*
X0002387249Y0001381380D02*
X0002386651Y0001384476D01*
X0002387883Y0001378297D02*
X0002387249Y0001381380D01*
X0002388555Y0001375226D02*
X0002387883Y0001378297D01*
X0002389263Y0001372167D02*
X0002388555Y0001375226D01*
X0002390009Y0001369122D02*
X0002389263Y0001372167D01*
X0002390791Y0001366089D02*
X0002390009Y0001369122D01*
X0002391609Y0001363070D02*
X0002390791Y0001366089D01*
X0002392464Y0001360064D02*
X0002391609Y0001363070D01*
X0002393354Y0001357072D02*
X0002392464Y0001360064D01*
X0002394281Y0001354095D02*
X0002393354Y0001357072D01*
X0002395242Y0001351132D02*
X0002394281Y0001354095D01*
X0002396239Y0001348183D02*
X0002395242Y0001351132D01*
X0002397271Y0001345250D02*
X0002396239Y0001348183D01*
X0002398337Y0001342332D02*
X0002397271Y0001345250D01*
X0002399438Y0001339430D02*
X0002398337Y0001342332D01*
X0002400573Y0001336544D02*
X0002399438Y0001339430D01*
X0002401742Y0001333673D02*
X0002400573Y0001336544D01*
X0002402945Y0001330820D02*
X0002401742Y0001333673D01*
X0002404182Y0001327982D02*
X0002402945Y0001330820D01*
X0002405452Y0001325162D02*
X0002404182Y0001327982D01*
X0002406756Y0001322359D02*
X0002405452Y0001325162D01*
X0002408092Y0001319574D02*
X0002406756Y0001322359D01*
X0002409461Y0001316806D02*
X0002408092Y0001319574D01*
X0002410862Y0001314057D02*
X0002409461Y0001316806D01*
X0002412296Y0001311325D02*
X0002410862Y0001314057D01*
X0002413762Y0001308613D02*
X0002412296Y0001311325D01*
X0002415260Y0001305919D02*
X0002413762Y0001308613D01*
X0002416789Y0001303245D02*
X0002415260Y0001305919D01*
X0002418350Y0001300590D02*
X0002416789Y0001303245D01*
X0002419941Y0001297955D02*
X0002418350Y0001300590D01*
X0002421564Y0001295340D02*
X0002419941Y0001297955D01*
X0002423218Y0001292745D02*
X0002421564Y0001295340D01*
X0002424902Y0001290170D02*
X0002423218Y0001292745D01*
X0002426616Y0001287617D02*
X0002424902Y0001290170D01*
X0002428360Y0001285084D02*
X0002426616Y0001287617D01*
X0002430134Y0001282573D02*
X0002428360Y0001285084D01*
X0002431938Y0001280084D02*
X0002430134Y0001282573D01*
X0002433771Y0001277617D02*
X0002431938Y0001280084D01*
X0002435633Y0001275172D02*
X0002433771Y0001277617D01*
X0002437524Y0001272749D02*
X0002435633Y0001275172D01*
X0002439444Y0001270349D02*
X0002437524Y0001272749D01*
X0002441392Y0001267972D02*
X0002439444Y0001270349D01*
X0002443369Y0001265619D02*
X0002441392Y0001267972D01*
X0002445373Y0001263289D02*
X0002443369Y0001265619D01*
X0002447405Y0001260983D02*
X0002445373Y0001263289D01*
X0002449465Y0001258701D02*
X0002447405Y0001260983D01*
X0002451553Y0001256444D02*
X0002449465Y0001258701D01*
X0002453667Y0001254211D02*
X0002451553Y0001256444D01*
X0002455808Y0001252004D02*
X0002453667Y0001254211D01*
X0002457976Y0001249821D02*
X0002455808Y0001252004D01*
X0002460171Y0001247664D02*
X0002457976Y0001249821D01*
X0002462391Y0001245533D02*
X0002460171Y0001247664D01*
X0002464638Y0001243428D02*
X0002462391Y0001245533D01*
X0002466910Y0001241350D02*
X0002464638Y0001243428D01*
X0002469208Y0001239298D02*
X0002466910Y0001241350D01*
X0002471532Y0001237273D02*
X0002469208Y0001239298D01*
X0002473880Y0001235275D02*
X0002471532Y0001237273D01*
X0002476254Y0001233305D02*
X0002473880Y0001235275D01*
X0002478652Y0001231362D02*
X0002476254Y0001233305D01*
X0002481074Y0001229448D02*
X0002478652Y0001231362D01*
X0002483521Y0001227562D02*
X0002481074Y0001229448D01*
X0002485992Y0001225704D02*
X0002483521Y0001227562D01*
X0002488486Y0001223875D02*
X0002485992Y0001225704D01*
X0002491004Y0001222076D02*
X0002488486Y0001223875D01*
X0002493546Y0001220306D02*
X0002491004Y0001222076D01*
X0002496110Y0001218565D02*
X0002493546Y0001220306D01*
X0002498697Y0001216855D02*
X0002496110Y0001218565D01*
X0002501307Y0001215174D02*
X0002498697Y0001216855D01*
X0002503940Y0001213525D02*
X0002501307Y0001215174D01*
X0002506594Y0001211906D02*
X0002503940Y0001213525D01*
X0002509271Y0001210318D02*
X0002506594Y0001211906D01*
X0002511969Y0001208761D02*
X0002509271Y0001210318D01*
X0002514689Y0001207236D02*
X0002511969Y0001208761D01*
X0002517430Y0001205743D02*
X0002514689Y0001207236D01*
X0002520193Y0001204282D02*
X0002517430Y0001205743D01*
X0002522976Y0001202854D02*
X0002520193Y0001204282D01*
X0002525780Y0001201459D02*
X0002522976Y0001202854D01*
X0002528604Y0001200096D02*
X0002525780Y0001201459D01*
X0002531448Y0001198767D02*
X0002528604Y0001200096D01*
X0002534313Y0001197472D02*
X0002531448Y0001198767D01*
X0002537197Y0001196210D02*
X0002534313Y0001197472D01*
X0002540100Y0001194982D02*
X0002537197Y0001196210D01*
X0002543023Y0001193789D02*
X0002540100Y0001194982D01*
X0002545965Y0001192629D02*
X0002543023Y0001193789D01*
X0002548926Y0001191506D02*
X0002545965Y0001192629D01*
X0002551906Y0001190417D02*
X0002548926Y0001191506D01*
X0002554903Y0001189364D02*
X0002551906Y0001190417D01*
X0002557919Y0001188346D02*
X0002554903Y0001189364D01*
X0002560953Y0001187365D02*
X0002557919Y0001188346D01*
X0002564005Y0001186420D02*
X0002560953Y0001187365D01*
X0002567074Y0001185512D02*
X0002564005Y0001186420D01*
X0002570161Y0001184640D02*
X0002567074Y0001185512D01*
X0002573264Y0001183805D02*
X0002570161Y0001184640D01*
X0002576385Y0001183008D02*
X0002573264Y0001183805D01*
X0002579522Y0001182249D02*
X0002576385Y0001183008D01*
X0002582675Y0001181528D02*
X0002579522Y0001182249D01*
X0002585845Y0001180845D02*
X0002582675Y0001181528D01*
X0002589030Y0001180201D02*
X0002585845Y0001180845D01*
X0002592231Y0001179595D02*
X0002589030Y0001180201D01*
X0002595448Y0001179029D02*
X0002592231Y0001179595D01*
X0002598680Y0001178502D02*
X0002595448Y0001179029D01*
X0002601927Y0001178014D02*
X0002598680Y0001178502D01*
X0002605189Y0001177571D02*
X0002601927Y0001178014D01*
X0002608465Y0001177159D02*
X0002605189Y0001177571D01*
X0002611756Y0001176791D02*
X0002608465Y0001177159D01*
X0002747761Y0002431206D02*
X0002734387Y0002303955D01*
X0002734387Y0002303955D02*
X0002632585Y0002314654D01*
X0002632585Y0002314654D02*
X0002645960Y0002441906D01*
X0002695157Y0001478731D02*
X0002681782Y0001351480D01*
X0002681782Y0001351480D02*
X0002579980Y0001362179D01*
X0002579980Y0001362179D02*
X0002593355Y0001489431D01*
D11*
X0002802110Y0002401271D02*
X0002762956Y0002405386D01*
X0002761976Y0002396063D01*
X0002763253Y0002390274D01*
X0002766590Y0002386153D01*
X0002770123Y0002383897D01*
X0002777385Y0002381248D01*
X0002782978Y0002380660D01*
X0002790632Y0002381741D01*
X0002794557Y0002383214D01*
X0002798678Y0002386551D01*
X0002801131Y0002391948D01*
X0002802110Y0002401271D01*
X0002795840Y0002341607D02*
X0002798191Y0002363981D01*
X0002797015Y0002352794D02*
X0002757861Y0002356909D01*
X0002763846Y0002360050D01*
X0002767967Y0002363387D01*
X0002770224Y0002366920D01*
X0002749506Y0001448796D02*
X0002710351Y0001452911D01*
X0002709371Y0001443589D01*
X0002710648Y0001437799D01*
X0002713985Y0001433678D01*
X0002717518Y0001431422D01*
X0002724780Y0001428773D01*
X0002730374Y0001428185D01*
X0002738027Y0001429266D01*
X0002741952Y0001430739D01*
X0002746073Y0001434076D01*
X0002748526Y0001439473D01*
X0002749506Y0001448796D01*
X0002710161Y0001415229D02*
X0002708100Y0001413561D01*
X0002705844Y0001410028D01*
X0002704864Y0001400705D01*
X0002706337Y0001396780D01*
X0002708005Y0001394720D01*
X0002711538Y0001392463D01*
X0002715267Y0001392071D01*
X0002721057Y0001393348D01*
X0002745782Y0001413370D01*
X0002743235Y0001389132D01*
G04 next file*
%LPD*%
G01*
D22*
X0001123877Y0001444490D02*
X0001123877Y0001444490D01*
X0001123872Y0001444486D02*
X0001123877Y0001444490D01*
X0001124340Y0001425720D02*
X0001123872Y0001444486D01*
X0001125742Y0001407199D02*
X0001124340Y0001425720D01*
X0001128055Y0001388948D02*
X0001125742Y0001407199D01*
X0001131257Y0001370987D02*
X0001128055Y0001388948D01*
X0001135324Y0001353343D02*
X0001131257Y0001370987D01*
X0001140233Y0001336037D02*
X0001135324Y0001353343D01*
X0001145961Y0001319091D02*
X0001140233Y0001336037D01*
X0001152487Y0001302529D02*
X0001145961Y0001319091D01*
X0001159786Y0001286373D02*
X0001152487Y0001302529D01*
X0001167835Y0001270646D02*
X0001159786Y0001286373D01*
X0001176613Y0001255374D02*
X0001167835Y0001270646D01*
X0001186095Y0001240576D02*
X0001176613Y0001255374D01*
X0001196259Y0001226276D02*
X0001186095Y0001240576D01*
X0001207082Y0001212497D02*
X0001196259Y0001226276D01*
X0001218542Y0001199263D02*
X0001207082Y0001212497D01*
X0001230614Y0001186596D02*
X0001218542Y0001199263D01*
X0001243277Y0001174519D02*
X0001230614Y0001186596D01*
X0001256507Y0001163055D02*
X0001243277Y0001174519D01*
X0001270282Y0001152227D02*
X0001256507Y0001163055D01*
X0001284578Y0001142058D02*
X0001270282Y0001152227D01*
X0001299373Y0001132571D02*
X0001284578Y0001142058D01*
X0001314643Y0001123788D02*
X0001299373Y0001132571D01*
X0001330365Y0001115733D02*
X0001314643Y0001123788D01*
X0001346519Y0001108429D02*
X0001330365Y0001115733D01*
X0001363079Y0001101897D02*
X0001346519Y0001108429D01*
X0001380023Y0001096163D02*
X0001363079Y0001101897D01*
X0001397328Y0001091248D02*
X0001380023Y0001096163D01*
X0001414971Y0001087175D02*
X0001397328Y0001091248D01*
X0001432930Y0001083967D02*
X0001414971Y0001087175D01*
X0001451180Y0001081647D02*
X0001432930Y0001083967D01*
X0001469700Y0001080239D02*
X0001451180Y0001081647D01*
X0001488467Y0001079764D02*
X0001469700Y0001080239D01*
X0001493180Y0001079797D02*
X0001488467Y0001079764D01*
X0001497880Y0001079886D02*
X0001493180Y0001079797D01*
X0001502564Y0001080035D02*
X0001497880Y0001079886D01*
X0001507233Y0001080242D02*
X0001502564Y0001080035D01*
X0001511888Y0001080507D02*
X0001507233Y0001080242D01*
X0001516525Y0001080831D02*
X0001511888Y0001080507D01*
X0001521148Y0001081212D02*
X0001516525Y0001080831D01*
X0001525754Y0001081651D02*
X0001521148Y0001081212D01*
X0001530342Y0001082146D02*
X0001525754Y0001081651D01*
X0001534914Y0001082699D02*
X0001530342Y0001082146D01*
X0001539468Y0001083306D02*
X0001534914Y0001082699D01*
X0001544004Y0001083971D02*
X0001539468Y0001083306D01*
X0001548522Y0001084691D02*
X0001544004Y0001083971D01*
X0001553022Y0001085465D02*
X0001548522Y0001084691D01*
X0001557502Y0001086295D02*
X0001553022Y0001085465D01*
X0001561963Y0001087179D02*
X0001557502Y0001086295D01*
X0001566404Y0001088116D02*
X0001561963Y0001087179D01*
X0001570825Y0001089107D02*
X0001566404Y0001088116D01*
X0001575226Y0001090153D02*
X0001570825Y0001089107D01*
X0001579605Y0001091251D02*
X0001575226Y0001090153D01*
X0001583965Y0001092402D02*
X0001579605Y0001091251D01*
X0001588302Y0001093605D02*
X0001583965Y0001092402D01*
X0001592618Y0001094860D02*
X0001588302Y0001093605D01*
X0001596910Y0001096166D02*
X0001592618Y0001094860D01*
X0001601182Y0001097524D02*
X0001596910Y0001096166D01*
X0001605429Y0001098932D02*
X0001601182Y0001097524D01*
X0001609654Y0001100392D02*
X0001605429Y0001098932D01*
X0001613855Y0001101901D02*
X0001609654Y0001100392D01*
X0001618031Y0001103460D02*
X0001613855Y0001101901D01*
X0001622184Y0001105068D02*
X0001618031Y0001103460D01*
X0001626311Y0001106726D02*
X0001622184Y0001105068D01*
X0001630415Y0001108432D02*
X0001626311Y0001106726D01*
X0001634492Y0001110186D02*
X0001630415Y0001108432D01*
X0001638544Y0001111989D02*
X0001634492Y0001110186D01*
X0001642569Y0001113839D02*
X0001638544Y0001111989D01*
X0001646568Y0001115736D02*
X0001642569Y0001113839D01*
X0001650539Y0001117681D02*
X0001646568Y0001115736D01*
X0001654484Y0001119671D02*
X0001650539Y0001117681D01*
X0001658402Y0001121708D02*
X0001654484Y0001119671D01*
X0001662291Y0001123791D02*
X0001658402Y0001121708D01*
X0001666152Y0001125920D02*
X0001662291Y0001123791D01*
X0001669984Y0001128093D02*
X0001666152Y0001125920D01*
X0001673787Y0001130311D02*
X0001669984Y0001128093D01*
X0001677561Y0001132574D02*
X0001673787Y0001130311D01*
X0001681305Y0001134881D02*
X0001677561Y0001132574D01*
X0001685020Y0001137231D02*
X0001681305Y0001134881D01*
X0001688703Y0001139625D02*
X0001685020Y0001137231D01*
X0001692356Y0001142061D02*
X0001688703Y0001139625D01*
X0001695978Y0001144541D02*
X0001692356Y0001142061D01*
X0001699568Y0001147062D02*
X0001695978Y0001144541D01*
X0001703126Y0001149626D02*
X0001699568Y0001147062D01*
X0001706652Y0001152231D02*
X0001703126Y0001149626D01*
X0001710146Y0001154877D02*
X0001706652Y0001152231D01*
X0001713605Y0001157564D02*
X0001710146Y0001154877D01*
X0001717033Y0001160291D02*
X0001713605Y0001157564D01*
X0001720427Y0001163059D02*
X0001717033Y0001160291D01*
X0001723786Y0001165866D02*
X0001720427Y0001163059D01*
X0001727111Y0001168713D02*
X0001723786Y0001165866D01*
X0001730402Y0001171598D02*
X0001727111Y0001168713D01*
X0001733657Y0001174523D02*
X0001730402Y0001171598D01*
X0001736877Y0001177485D02*
X0001733657Y0001174523D01*
X0001740061Y0001180486D02*
X0001736877Y0001177485D01*
X0001743208Y0001183524D02*
X0001740061Y0001180486D01*
X0001746320Y0001186600D02*
X0001743208Y0001183524D01*
X0001749394Y0001189712D02*
X0001746320Y0001186600D01*
X0001752431Y0001192861D02*
X0001749394Y0001189712D01*
X0001755431Y0001196046D02*
X0001752431Y0001192861D01*
X0001758392Y0001199267D02*
X0001755431Y0001196046D01*
X0001761315Y0001202523D02*
X0001758392Y0001199267D01*
X0001764200Y0001205814D02*
X0001761315Y0001202523D01*
X0001767046Y0001209140D02*
X0001764200Y0001205814D01*
X0001769851Y0001212501D02*
X0001767046Y0001209140D01*
X0001772618Y0001215895D02*
X0001769851Y0001212501D01*
X0001775344Y0001219323D02*
X0001772618Y0001215895D01*
X0001778030Y0001222785D02*
X0001775344Y0001219323D01*
X0001780675Y0001226279D02*
X0001778030Y0001222785D01*
X0001783279Y0001229806D02*
X0001780675Y0001226279D01*
X0001785841Y0001233365D02*
X0001783279Y0001229806D01*
X0001788360Y0001236956D02*
X0001785841Y0001233365D01*
X0001790839Y0001240579D02*
X0001788360Y0001236956D01*
X0001793274Y0001244233D02*
X0001790839Y0001240579D01*
X0001795667Y0001247917D02*
X0001793274Y0001244233D01*
X0001798016Y0001251632D02*
X0001795667Y0001247917D01*
X0001800321Y0001255377D02*
X0001798016Y0001251632D01*
X0001802583Y0001259152D02*
X0001800321Y0001255377D01*
X0001804800Y0001262956D02*
X0001802583Y0001259152D01*
X0001806972Y0001266789D02*
X0001804800Y0001262956D01*
X0001809099Y0001270650D02*
X0001806972Y0001266789D01*
X0001811180Y0001274540D02*
X0001809099Y0001270650D01*
X0001813216Y0001278458D02*
X0001811180Y0001274540D01*
X0001815205Y0001282404D02*
X0001813216Y0001278458D01*
X0001817148Y0001286376D02*
X0001815205Y0001282404D01*
X0001819044Y0001290376D02*
X0001817148Y0001286376D01*
X0001820893Y0001294402D02*
X0001819044Y0001290376D01*
X0001822694Y0001298454D02*
X0001820893Y0001294402D01*
X0001824447Y0001302532D02*
X0001822694Y0001298454D01*
X0001826152Y0001306635D02*
X0001824447Y0001302532D01*
X0001827808Y0001310764D02*
X0001826152Y0001306635D01*
X0001829415Y0001314917D02*
X0001827808Y0001310764D01*
X0001830972Y0001319094D02*
X0001829415Y0001314917D01*
X0001832480Y0001323295D02*
X0001830972Y0001319094D01*
X0001833938Y0001327520D02*
X0001832480Y0001323295D01*
X0001835345Y0001331769D02*
X0001833938Y0001327520D01*
X0001836701Y0001336040D02*
X0001835345Y0001331769D01*
X0001838006Y0001340333D02*
X0001836701Y0001336040D01*
X0001839260Y0001344650D02*
X0001838006Y0001340333D01*
X0001840461Y0001348987D02*
X0001839260Y0001344650D01*
X0001841610Y0001353347D02*
X0001840461Y0001348987D01*
X0001842707Y0001357727D02*
X0001841610Y0001353347D01*
X0001843750Y0001362128D02*
X0001842707Y0001357727D01*
X0001844740Y0001366550D02*
X0001843750Y0001362128D01*
X0001845677Y0001370991D02*
X0001844740Y0001366550D01*
X0001846559Y0001375452D02*
X0001845677Y0001370991D01*
X0001847387Y0001379933D02*
X0001846559Y0001375452D01*
X0001848160Y0001384432D02*
X0001847387Y0001379933D01*
X0001848878Y0001388951D02*
X0001848160Y0001384432D01*
X0001849540Y0001393487D02*
X0001848878Y0001388951D01*
X0001850146Y0001398041D02*
X0001849540Y0001393487D01*
X0001850697Y0001402613D02*
X0001850146Y0001398041D01*
X0001851190Y0001407201D02*
X0001850697Y0001402613D01*
X0001851627Y0001411808D02*
X0001851190Y0001407201D01*
X0001852006Y0001416430D02*
X0001851627Y0001411808D01*
X0001852329Y0001421069D02*
X0001852006Y0001416430D01*
X0001852592Y0001425723D02*
X0001852329Y0001421069D01*
X0001852798Y0001430392D02*
X0001852592Y0001425723D01*
X0001852945Y0001435077D02*
X0001852798Y0001430392D01*
X0001853034Y0001439776D02*
X0001852945Y0001435077D01*
X0001853067Y0001444490D02*
X0001853034Y0001439776D01*
X0001852599Y0001463256D02*
X0001853067Y0001444490D01*
X0001851197Y0001481777D02*
X0001852599Y0001463256D01*
X0001848884Y0001500029D02*
X0001851197Y0001481777D01*
X0001845682Y0001517988D02*
X0001848884Y0001500029D01*
X0001841615Y0001535633D02*
X0001845682Y0001517988D01*
X0001836706Y0001552939D02*
X0001841615Y0001535633D01*
X0001830978Y0001569885D02*
X0001836706Y0001552939D01*
X0001824451Y0001586446D02*
X0001830978Y0001569885D01*
X0001817153Y0001602603D02*
X0001824451Y0001586446D01*
X0001809104Y0001618329D02*
X0001817153Y0001602603D01*
X0001800326Y0001633602D02*
X0001809104Y0001618329D01*
X0001790844Y0001648400D02*
X0001800326Y0001633602D01*
X0001780680Y0001662700D02*
X0001790844Y0001648400D01*
X0001769857Y0001676479D02*
X0001780680Y0001662700D01*
X0001758397Y0001689713D02*
X0001769857Y0001676479D01*
X0001746325Y0001702380D02*
X0001758397Y0001689713D01*
X0001733662Y0001714457D02*
X0001746325Y0001702380D01*
X0001720432Y0001725921D02*
X0001733662Y0001714457D01*
X0001706657Y0001736749D02*
X0001720432Y0001725921D01*
X0001692360Y0001746918D02*
X0001706657Y0001736749D01*
X0001677566Y0001756404D02*
X0001692360Y0001746918D01*
X0001662296Y0001765188D02*
X0001677566Y0001756404D01*
X0001646573Y0001773243D02*
X0001662296Y0001765188D01*
X0001630420Y0001780548D02*
X0001646573Y0001773243D01*
X0001613860Y0001787079D02*
X0001630420Y0001780548D01*
X0001596916Y0001792813D02*
X0001613860Y0001787079D01*
X0001579611Y0001797728D02*
X0001596916Y0001792813D01*
X0001561968Y0001801801D02*
X0001579611Y0001797728D01*
X0001544009Y0001805009D02*
X0001561968Y0001801801D01*
X0001525759Y0001807329D02*
X0001544009Y0001805009D01*
X0001507239Y0001808737D02*
X0001525759Y0001807329D01*
X0001488472Y0001809212D02*
X0001507239Y0001808737D01*
X0001469705Y0001808737D02*
X0001488472Y0001809212D01*
X0001451185Y0001807329D02*
X0001469705Y0001808737D01*
X0001432935Y0001805009D02*
X0001451185Y0001807329D01*
X0001414976Y0001801801D02*
X0001432935Y0001805009D01*
X0001397333Y0001797728D02*
X0001414976Y0001801801D01*
X0001380028Y0001792813D02*
X0001397333Y0001797728D01*
X0001363084Y0001787079D02*
X0001380028Y0001792813D01*
X0001346524Y0001780548D02*
X0001363084Y0001787079D01*
X0001330371Y0001773243D02*
X0001346524Y0001780548D01*
X0001314648Y0001765188D02*
X0001330371Y0001773243D01*
X0001299378Y0001756404D02*
X0001314648Y0001765188D01*
X0001284582Y0001746918D02*
X0001299378Y0001756404D01*
X0001270287Y0001736749D02*
X0001284582Y0001746918D01*
X0001256512Y0001725921D02*
X0001270287Y0001736749D01*
X0001243282Y0001714457D02*
X0001256512Y0001725921D01*
X0001230619Y0001702380D02*
X0001243282Y0001714457D01*
X0001218547Y0001689713D02*
X0001230619Y0001702380D01*
X0001207087Y0001676479D02*
X0001218547Y0001689713D01*
X0001196264Y0001662700D02*
X0001207087Y0001676479D01*
X0001186100Y0001648400D02*
X0001196264Y0001662700D01*
X0001176618Y0001633602D02*
X0001186100Y0001648400D01*
X0001167840Y0001618329D02*
X0001176618Y0001633602D01*
X0001159791Y0001602603D02*
X0001167840Y0001618329D01*
X0001152492Y0001586446D02*
X0001159791Y0001602603D01*
X0001145967Y0001569885D02*
X0001152492Y0001586446D01*
X0001140238Y0001552939D02*
X0001145967Y0001569885D01*
X0001135329Y0001535633D02*
X0001140238Y0001552939D01*
X0001131262Y0001517988D02*
X0001135329Y0001535633D01*
X0001128060Y0001500029D02*
X0001131262Y0001517988D01*
X0001125747Y0001481777D02*
X0001128060Y0001500029D01*
X0001124345Y0001463256D02*
X0001125747Y0001481777D01*
X0001123877Y0001444490D02*
X0001124345Y0001463256D01*
X0000279578Y0001397839D02*
X0000279578Y0001397839D01*
X0000279600Y0001394526D02*
X0000279578Y0001397839D01*
X0000279667Y0001391226D02*
X0000279600Y0001394526D01*
X0000279767Y0001387936D02*
X0000279667Y0001391226D01*
X0000279913Y0001384655D02*
X0000279767Y0001387936D01*
X0000280099Y0001381386D02*
X0000279913Y0001384655D01*
X0000280326Y0001378128D02*
X0000280099Y0001381386D01*
X0000280594Y0001374881D02*
X0000280326Y0001378128D01*
X0000280902Y0001371645D02*
X0000280594Y0001374881D01*
X0000281249Y0001368422D02*
X0000280902Y0001371645D01*
X0000281637Y0001365210D02*
X0000281249Y0001368422D01*
X0000282064Y0001362011D02*
X0000281637Y0001365210D01*
X0000282530Y0001358825D02*
X0000282064Y0001362011D01*
X0000283036Y0001355651D02*
X0000282530Y0001358825D01*
X0000283580Y0001352490D02*
X0000283036Y0001355651D01*
X0000284163Y0001349343D02*
X0000283580Y0001352490D01*
X0000284784Y0001346209D02*
X0000284163Y0001349343D01*
X0000285443Y0001343089D02*
X0000284784Y0001346209D01*
X0000286139Y0001339982D02*
X0000285443Y0001343089D01*
X0000286874Y0001336892D02*
X0000286139Y0001339982D01*
X0000287645Y0001333815D02*
X0000286874Y0001336892D01*
X0000288453Y0001330753D02*
X0000287645Y0001333815D01*
X0000289298Y0001327706D02*
X0000288453Y0001330753D01*
X0000290179Y0001324674D02*
X0000289298Y0001327706D01*
X0000291097Y0001321658D02*
X0000290179Y0001324674D01*
X0000292050Y0001318658D02*
X0000291097Y0001321658D01*
X0000293039Y0001315674D02*
X0000292050Y0001318658D01*
X0000294064Y0001312706D02*
X0000293039Y0001315674D01*
X0000295124Y0001309754D02*
X0000294064Y0001312706D01*
X0000296218Y0001306820D02*
X0000295124Y0001309754D01*
X0000297348Y0001303903D02*
X0000296218Y0001306820D01*
X0000298512Y0001301003D02*
X0000297348Y0001303903D01*
X0000299710Y0001298121D02*
X0000298512Y0001301003D01*
X0000300943Y0001295257D02*
X0000299710Y0001298121D01*
X0000302208Y0001292410D02*
X0000300943Y0001295257D01*
X0000303508Y0001289582D02*
X0000302208Y0001292410D01*
X0000304841Y0001286773D02*
X0000303508Y0001289582D01*
X0000306206Y0001283983D02*
X0000304841Y0001286773D01*
X0000307604Y0001281211D02*
X0000306206Y0001283983D01*
X0000309035Y0001278458D02*
X0000307604Y0001281211D01*
X0000310498Y0001275727D02*
X0000309035Y0001278458D01*
X0000311993Y0001273015D02*
X0000310498Y0001275727D01*
X0000313519Y0001270322D02*
X0000311993Y0001273015D01*
X0000315076Y0001267650D02*
X0000313519Y0001270322D01*
X0000316667Y0001264998D02*
X0000315076Y0001267650D01*
X0000318287Y0001262369D02*
X0000316667Y0001264998D01*
X0000319937Y0001259759D02*
X0000318287Y0001262369D01*
X0000321619Y0001257171D02*
X0000319937Y0001259759D01*
X0000323330Y0001254605D02*
X0000321619Y0001257171D01*
X0000325071Y0001252060D02*
X0000323330Y0001254605D01*
X0000326842Y0001249538D02*
X0000325071Y0001252060D01*
X0000328643Y0001247038D02*
X0000326842Y0001249538D01*
X0000330472Y0001244561D02*
X0000328643Y0001247038D01*
X0000332331Y0001242107D02*
X0000330472Y0001244561D01*
X0000334218Y0001239675D02*
X0000332331Y0001242107D01*
X0000336133Y0001237267D02*
X0000334218Y0001239675D01*
X0000338078Y0001234883D02*
X0000336133Y0001237267D01*
X0000340049Y0001232523D02*
X0000338078Y0001234883D01*
X0000342049Y0001230187D02*
X0000340049Y0001232523D01*
X0000344076Y0001227875D02*
X0000342049Y0001230187D01*
X0000346130Y0001225588D02*
X0000344076Y0001227875D01*
X0000348210Y0001223326D02*
X0000346130Y0001225588D01*
X0000350318Y0001221088D02*
X0000348210Y0001223326D01*
X0000352452Y0001218877D02*
X0000350318Y0001221088D01*
X0000354612Y0001216691D02*
X0000352452Y0001218877D01*
X0000356798Y0001214531D02*
X0000354612Y0001216691D01*
X0000359010Y0001212397D02*
X0000356798Y0001214531D01*
X0000361247Y0001210289D02*
X0000359010Y0001212397D01*
X0000363509Y0001208208D02*
X0000361247Y0001210289D01*
X0000365796Y0001206154D02*
X0000363509Y0001208208D01*
X0000368107Y0001204127D02*
X0000365796Y0001206154D01*
X0000370444Y0001202128D02*
X0000368107Y0001204127D01*
X0000372805Y0001200156D02*
X0000370444Y0001202128D01*
X0000375189Y0001198213D02*
X0000372805Y0001200156D01*
X0000377596Y0001196297D02*
X0000375189Y0001198213D01*
X0000380028Y0001194410D02*
X0000377596Y0001196297D01*
X0000382482Y0001192551D02*
X0000380028Y0001194410D01*
X0000384960Y0001190721D02*
X0000382482Y0001192551D01*
X0000387460Y0001188921D02*
X0000384960Y0001190721D01*
X0000389982Y0001187150D02*
X0000387460Y0001188921D01*
X0000392526Y0001185409D02*
X0000389982Y0001187150D01*
X0000395093Y0001183697D02*
X0000392526Y0001185409D01*
X0000397681Y0001182016D02*
X0000395093Y0001183697D01*
X0000400290Y0001180365D02*
X0000397681Y0001182016D01*
X0000402919Y0001178745D02*
X0000400290Y0001180365D01*
X0000405572Y0001177156D02*
X0000402919Y0001178745D01*
X0000408244Y0001175598D02*
X0000405572Y0001177156D01*
X0000410936Y0001174071D02*
X0000408244Y0001175598D01*
X0000413649Y0001172577D02*
X0000410936Y0001174071D01*
X0000416381Y0001171114D02*
X0000413649Y0001172577D01*
X0000419133Y0001169683D02*
X0000416381Y0001171114D01*
X0000421904Y0001168285D02*
X0000419133Y0001169683D01*
X0000424695Y0001166919D02*
X0000421904Y0001168285D01*
X0000427504Y0001165587D02*
X0000424695Y0001166919D01*
X0000430331Y0001164287D02*
X0000427504Y0001165587D01*
X0000433178Y0001163021D02*
X0000430331Y0001164287D01*
X0000436042Y0001161789D02*
X0000433178Y0001163021D01*
X0000438925Y0001160591D02*
X0000436042Y0001161789D01*
X0000441825Y0001159427D02*
X0000438925Y0001160591D01*
X0000444742Y0001158297D02*
X0000441825Y0001159427D01*
X0000447676Y0001157202D02*
X0000444742Y0001158297D01*
X0000450627Y0001156142D02*
X0000447676Y0001157202D01*
X0000453594Y0001155118D02*
X0000450627Y0001156142D01*
X0000456579Y0001154129D02*
X0000453594Y0001155118D01*
X0000459579Y0001153176D02*
X0000456579Y0001154129D01*
X0000462595Y0001152258D02*
X0000459579Y0001153176D01*
X0000465627Y0001151377D02*
X0000462595Y0001152258D01*
X0000468674Y0001150532D02*
X0000465627Y0001151377D01*
X0000471736Y0001149725D02*
X0000468674Y0001150532D01*
X0000474813Y0001148954D02*
X0000471736Y0001149725D01*
X0000477905Y0001148219D02*
X0000474813Y0001148954D01*
X0000481010Y0001147522D02*
X0000477905Y0001148219D01*
X0000484130Y0001146864D02*
X0000481010Y0001147522D01*
X0000487264Y0001146242D02*
X0000484130Y0001146864D01*
X0000490412Y0001145660D02*
X0000487264Y0001146242D01*
X0000493571Y0001145116D02*
X0000490412Y0001145660D01*
X0000496746Y0001144610D02*
X0000493571Y0001145116D01*
X0000499933Y0001144144D02*
X0000496746Y0001144610D01*
X0000503132Y0001143717D02*
X0000499933Y0001144144D01*
X0000506343Y0001143329D02*
X0000503132Y0001143717D01*
X0000509567Y0001142981D02*
X0000506343Y0001143329D01*
X0000512802Y0001142674D02*
X0000509567Y0001142981D01*
X0000516049Y0001142406D02*
X0000512802Y0001142674D01*
X0000519308Y0001142179D02*
X0000516049Y0001142406D01*
X0000522576Y0001141992D02*
X0000519308Y0001142179D01*
X0000525857Y0001141847D02*
X0000522576Y0001141992D01*
X0000529148Y0001141747D02*
X0000525857Y0001141847D01*
X0000532449Y0001141680D02*
X0000529148Y0001141747D01*
X0000535760Y0001141658D02*
X0000532449Y0001141680D01*
X0000539071Y0001141680D02*
X0000535760Y0001141658D01*
X0000542372Y0001141747D02*
X0000539071Y0001141680D01*
X0000545663Y0001141847D02*
X0000542372Y0001141747D01*
X0000548943Y0001141992D02*
X0000545663Y0001141847D01*
X0000552212Y0001142179D02*
X0000548943Y0001141992D01*
X0000555471Y0001142406D02*
X0000552212Y0001142179D01*
X0000558718Y0001142674D02*
X0000555471Y0001142406D01*
X0000561953Y0001142981D02*
X0000558718Y0001142674D01*
X0000565177Y0001143329D02*
X0000561953Y0001142981D01*
X0000568388Y0001143717D02*
X0000565177Y0001143329D01*
X0000571587Y0001144144D02*
X0000568388Y0001143717D01*
X0000574774Y0001144610D02*
X0000571587Y0001144144D01*
X0000577948Y0001145116D02*
X0000574774Y0001144610D01*
X0000581108Y0001145660D02*
X0000577948Y0001145116D01*
X0000584256Y0001146242D02*
X0000581108Y0001145660D01*
X0000587389Y0001146864D02*
X0000584256Y0001146242D01*
X0000590509Y0001147522D02*
X0000587389Y0001146864D01*
X0000593615Y0001148219D02*
X0000590509Y0001147522D01*
X0000596707Y0001148954D02*
X0000593615Y0001148219D01*
X0000599784Y0001149725D02*
X0000596707Y0001148954D01*
X0000602846Y0001150532D02*
X0000599784Y0001149725D01*
X0000605893Y0001151377D02*
X0000602846Y0001150532D01*
X0000608924Y0001152258D02*
X0000605893Y0001151377D01*
X0000611941Y0001153176D02*
X0000608924Y0001152258D01*
X0000614941Y0001154129D02*
X0000611941Y0001153176D01*
X0000617925Y0001155118D02*
X0000614941Y0001154129D01*
X0000620893Y0001156142D02*
X0000617925Y0001155118D01*
X0000623844Y0001157202D02*
X0000620893Y0001156142D01*
X0000626778Y0001158297D02*
X0000623844Y0001157202D01*
X0000629695Y0001159427D02*
X0000626778Y0001158297D01*
X0000632595Y0001160591D02*
X0000629695Y0001159427D01*
X0000635477Y0001161789D02*
X0000632595Y0001160591D01*
X0000638342Y0001163021D02*
X0000635477Y0001161789D01*
X0000641188Y0001164287D02*
X0000638342Y0001163021D01*
X0000644016Y0001165587D02*
X0000641188Y0001164287D01*
X0000646825Y0001166919D02*
X0000644016Y0001165587D01*
X0000649616Y0001168285D02*
X0000646825Y0001166919D01*
X0000652387Y0001169683D02*
X0000649616Y0001168285D01*
X0000655138Y0001171114D02*
X0000652387Y0001169683D01*
X0000657871Y0001172577D02*
X0000655138Y0001171114D01*
X0000660584Y0001174071D02*
X0000657871Y0001172577D01*
X0000663276Y0001175598D02*
X0000660584Y0001174071D01*
X0000665948Y0001177156D02*
X0000663276Y0001175598D01*
X0000668599Y0001178745D02*
X0000665948Y0001177156D01*
X0000671230Y0001180365D02*
X0000668599Y0001178745D01*
X0000673839Y0001182016D02*
X0000671230Y0001180365D01*
X0000676427Y0001183697D02*
X0000673839Y0001182016D01*
X0000678994Y0001185409D02*
X0000676427Y0001183697D01*
X0000681538Y0001187150D02*
X0000678994Y0001185409D01*
X0000684060Y0001188921D02*
X0000681538Y0001187150D01*
X0000686560Y0001190721D02*
X0000684060Y0001188921D01*
X0000689038Y0001192551D02*
X0000686560Y0001190721D01*
X0000691492Y0001194410D02*
X0000689038Y0001192551D01*
X0000693922Y0001196297D02*
X0000691492Y0001194410D01*
X0000696331Y0001198213D02*
X0000693922Y0001196297D01*
X0000698715Y0001200156D02*
X0000696331Y0001198213D01*
X0000701076Y0001202128D02*
X0000698715Y0001200156D01*
X0000703412Y0001204127D02*
X0000701076Y0001202128D01*
X0000705724Y0001206154D02*
X0000703412Y0001204127D01*
X0000708011Y0001208208D02*
X0000705724Y0001206154D01*
X0000710273Y0001210289D02*
X0000708011Y0001208208D01*
X0000712510Y0001212397D02*
X0000710273Y0001210289D01*
X0000714722Y0001214531D02*
X0000712510Y0001212397D01*
X0000716908Y0001216691D02*
X0000714722Y0001214531D01*
X0000719068Y0001218877D02*
X0000716908Y0001216691D01*
X0000721201Y0001221088D02*
X0000719068Y0001218877D01*
X0000723309Y0001223326D02*
X0000721201Y0001221088D01*
X0000725390Y0001225588D02*
X0000723309Y0001223326D01*
X0000727444Y0001227875D02*
X0000725390Y0001225588D01*
X0000729471Y0001230187D02*
X0000727444Y0001227875D01*
X0000731469Y0001232523D02*
X0000729471Y0001230187D01*
X0000733442Y0001234883D02*
X0000731469Y0001232523D01*
X0000735385Y0001237267D02*
X0000733442Y0001234883D01*
X0000737302Y0001239675D02*
X0000735385Y0001237267D01*
X0000739189Y0001242107D02*
X0000737302Y0001239675D01*
X0000741047Y0001244561D02*
X0000739189Y0001242107D01*
X0000742877Y0001247038D02*
X0000741047Y0001244561D01*
X0000744677Y0001249538D02*
X0000742877Y0001247038D01*
X0000746448Y0001252060D02*
X0000744677Y0001249538D01*
X0000748190Y0001254605D02*
X0000746448Y0001252060D01*
X0000749901Y0001257171D02*
X0000748190Y0001254605D01*
X0000751582Y0001259759D02*
X0000749901Y0001257171D01*
X0000753233Y0001262369D02*
X0000751582Y0001259759D01*
X0000754853Y0001264998D02*
X0000753233Y0001262369D01*
X0000756443Y0001267650D02*
X0000754853Y0001264998D01*
X0000758001Y0001270322D02*
X0000756443Y0001267650D01*
X0000759527Y0001273015D02*
X0000758001Y0001270322D01*
X0000761022Y0001275727D02*
X0000759527Y0001273015D01*
X0000762485Y0001278458D02*
X0000761022Y0001275727D01*
X0000763916Y0001281211D02*
X0000762485Y0001278458D01*
X0000765314Y0001283983D02*
X0000763916Y0001281211D01*
X0000766679Y0001286773D02*
X0000765314Y0001283983D01*
X0000768012Y0001289582D02*
X0000766679Y0001286773D01*
X0000769311Y0001292410D02*
X0000768012Y0001289582D01*
X0000770576Y0001295257D02*
X0000769311Y0001292410D01*
X0000771809Y0001298121D02*
X0000770576Y0001295257D01*
X0000773008Y0001301003D02*
X0000771809Y0001298121D01*
X0000774172Y0001303903D02*
X0000773008Y0001301003D01*
X0000775301Y0001306820D02*
X0000774172Y0001303903D01*
X0000776396Y0001309754D02*
X0000775301Y0001306820D01*
X0000777456Y0001312706D02*
X0000776396Y0001309754D01*
X0000778481Y0001315674D02*
X0000777456Y0001312706D01*
X0000779469Y0001318658D02*
X0000778481Y0001315674D01*
X0000780423Y0001321658D02*
X0000779469Y0001318658D01*
X0000781341Y0001324674D02*
X0000780423Y0001321658D01*
X0000782222Y0001327706D02*
X0000781341Y0001324674D01*
X0000783067Y0001330753D02*
X0000782222Y0001327706D01*
X0000783875Y0001333815D02*
X0000783067Y0001330753D01*
X0000784646Y0001336892D02*
X0000783875Y0001333815D01*
X0000785381Y0001339982D02*
X0000784646Y0001336892D01*
X0000786077Y0001343089D02*
X0000785381Y0001339982D01*
X0000786736Y0001346209D02*
X0000786077Y0001343089D01*
X0000787357Y0001349343D02*
X0000786736Y0001346209D01*
X0000787939Y0001352490D02*
X0000787357Y0001349343D01*
X0000788484Y0001355651D02*
X0000787939Y0001352490D01*
X0000788989Y0001358825D02*
X0000788484Y0001355651D01*
X0000789456Y0001362011D02*
X0000788989Y0001358825D01*
X0000789884Y0001365210D02*
X0000789456Y0001362011D01*
X0000790272Y0001368422D02*
X0000789884Y0001365210D01*
X0000790619Y0001371645D02*
X0000790272Y0001368422D01*
X0000790927Y0001374881D02*
X0000790619Y0001371645D01*
X0000791195Y0001378128D02*
X0000790927Y0001374881D01*
X0000791422Y0001381386D02*
X0000791195Y0001378128D01*
X0000791607Y0001384655D02*
X0000791422Y0001381386D01*
X0000791754Y0001387936D02*
X0000791607Y0001384655D01*
X0000791854Y0001391226D02*
X0000791754Y0001387936D01*
X0000791921Y0001394526D02*
X0000791854Y0001391226D01*
X0000791943Y0001397839D02*
X0000791921Y0001394526D01*
X0000791921Y0001401150D02*
X0000791943Y0001397839D01*
X0000791854Y0001404451D02*
X0000791921Y0001401150D01*
X0000791754Y0001407741D02*
X0000791854Y0001404451D01*
X0000791607Y0001411022D02*
X0000791754Y0001407741D01*
X0000791422Y0001414290D02*
X0000791607Y0001411022D01*
X0000791195Y0001417549D02*
X0000791422Y0001414290D01*
X0000790927Y0001420796D02*
X0000791195Y0001417549D01*
X0000790619Y0001424031D02*
X0000790927Y0001420796D01*
X0000790272Y0001427255D02*
X0000790619Y0001424031D01*
X0000789884Y0001430467D02*
X0000790272Y0001427255D01*
X0000789456Y0001433666D02*
X0000789884Y0001430467D01*
X0000788989Y0001436853D02*
X0000789456Y0001433666D01*
X0000788484Y0001440026D02*
X0000788989Y0001436853D01*
X0000787939Y0001443187D02*
X0000788484Y0001440026D01*
X0000787357Y0001446334D02*
X0000787939Y0001443187D01*
X0000786736Y0001449468D02*
X0000787357Y0001446334D01*
X0000786077Y0001452588D02*
X0000786736Y0001449468D01*
X0000785381Y0001455694D02*
X0000786077Y0001452588D01*
X0000784646Y0001458784D02*
X0000785381Y0001455694D01*
X0000783875Y0001461862D02*
X0000784646Y0001458784D01*
X0000783067Y0001464923D02*
X0000783875Y0001461862D01*
X0000782222Y0001467971D02*
X0000783067Y0001464923D01*
X0000781341Y0001471003D02*
X0000782222Y0001467971D01*
X0000780423Y0001474019D02*
X0000781341Y0001471003D01*
X0000779469Y0001477018D02*
X0000780423Y0001474019D01*
X0000778481Y0001480004D02*
X0000779469Y0001477018D01*
X0000777456Y0001482970D02*
X0000778481Y0001480004D01*
X0000776396Y0001485922D02*
X0000777456Y0001482970D01*
X0000775301Y0001488857D02*
X0000776396Y0001485922D01*
X0000774172Y0001491774D02*
X0000775301Y0001488857D01*
X0000773008Y0001494674D02*
X0000774172Y0001491774D01*
X0000771809Y0001497556D02*
X0000773008Y0001494674D01*
X0000770576Y0001500419D02*
X0000771809Y0001497556D01*
X0000769311Y0001503267D02*
X0000770576Y0001500419D01*
X0000768012Y0001506095D02*
X0000769311Y0001503267D01*
X0000766679Y0001508904D02*
X0000768012Y0001506095D01*
X0000765314Y0001511694D02*
X0000766679Y0001508904D01*
X0000763916Y0001514465D02*
X0000765314Y0001511694D01*
X0000762485Y0001517218D02*
X0000763916Y0001514465D01*
X0000761022Y0001519950D02*
X0000762485Y0001517218D01*
X0000759527Y0001522662D02*
X0000761022Y0001519950D01*
X0000758001Y0001525355D02*
X0000759527Y0001522662D01*
X0000756443Y0001528027D02*
X0000758001Y0001525355D01*
X0000754853Y0001530678D02*
X0000756443Y0001528027D01*
X0000753233Y0001533309D02*
X0000754853Y0001530678D01*
X0000751582Y0001535918D02*
X0000753233Y0001533309D01*
X0000749901Y0001538506D02*
X0000751582Y0001535918D01*
X0000748190Y0001541072D02*
X0000749901Y0001538506D01*
X0000746448Y0001543617D02*
X0000748190Y0001541072D01*
X0000744677Y0001546139D02*
X0000746448Y0001543617D01*
X0000742877Y0001548639D02*
X0000744677Y0001546139D01*
X0000741047Y0001551116D02*
X0000742877Y0001548639D01*
X0000739189Y0001553571D02*
X0000741047Y0001551116D01*
X0000737302Y0001556002D02*
X0000739189Y0001553571D01*
X0000735385Y0001558410D02*
X0000737302Y0001556002D01*
X0000733442Y0001560794D02*
X0000735385Y0001558410D01*
X0000731469Y0001563154D02*
X0000733442Y0001560794D01*
X0000729471Y0001565490D02*
X0000731469Y0001563154D01*
X0000727444Y0001567802D02*
X0000729471Y0001565490D01*
X0000725390Y0001570089D02*
X0000727444Y0001567802D01*
X0000723309Y0001572352D02*
X0000725390Y0001570089D01*
X0000721201Y0001574589D02*
X0000723309Y0001572352D01*
X0000719068Y0001576800D02*
X0000721201Y0001574589D01*
X0000716908Y0001578985D02*
X0000719068Y0001576800D01*
X0000714722Y0001581146D02*
X0000716908Y0001578985D01*
X0000712510Y0001583280D02*
X0000714722Y0001581146D01*
X0000710273Y0001585388D02*
X0000712510Y0001583280D01*
X0000708011Y0001587469D02*
X0000710273Y0001585388D01*
X0000705724Y0001589523D02*
X0000708011Y0001587469D01*
X0000703412Y0001591550D02*
X0000705724Y0001589523D01*
X0000701076Y0001593549D02*
X0000703412Y0001591550D01*
X0000698715Y0001595521D02*
X0000701076Y0001593549D01*
X0000696331Y0001597465D02*
X0000698715Y0001595521D01*
X0000693922Y0001599380D02*
X0000696331Y0001597465D01*
X0000691492Y0001601267D02*
X0000693922Y0001599380D01*
X0000689038Y0001603126D02*
X0000691492Y0001601267D01*
X0000686560Y0001604956D02*
X0000689038Y0001603126D01*
X0000684060Y0001606756D02*
X0000686560Y0001604956D01*
X0000681538Y0001608527D02*
X0000684060Y0001606756D01*
X0000678994Y0001610267D02*
X0000681538Y0001608527D01*
X0000676427Y0001611980D02*
X0000678994Y0001610267D01*
X0000673839Y0001613661D02*
X0000676427Y0001611980D01*
X0000671230Y0001615312D02*
X0000673839Y0001613661D01*
X0000668599Y0001616932D02*
X0000671230Y0001615312D01*
X0000665948Y0001618521D02*
X0000668599Y0001616932D01*
X0000663276Y0001620079D02*
X0000665948Y0001618521D01*
X0000660584Y0001621605D02*
X0000663276Y0001620079D01*
X0000657871Y0001623100D02*
X0000660584Y0001621605D01*
X0000655138Y0001624563D02*
X0000657871Y0001623100D01*
X0000652387Y0001625994D02*
X0000655138Y0001624563D01*
X0000649616Y0001627392D02*
X0000652387Y0001625994D01*
X0000646825Y0001628757D02*
X0000649616Y0001627392D01*
X0000644016Y0001630091D02*
X0000646825Y0001628757D01*
X0000641188Y0001631390D02*
X0000644016Y0001630091D01*
X0000638342Y0001632656D02*
X0000641188Y0001631390D01*
X0000635477Y0001633888D02*
X0000638342Y0001632656D01*
X0000632595Y0001635086D02*
X0000635477Y0001633888D01*
X0000629695Y0001636251D02*
X0000632595Y0001635086D01*
X0000626778Y0001637380D02*
X0000629695Y0001636251D01*
X0000623844Y0001638475D02*
X0000626778Y0001637380D01*
X0000620893Y0001639535D02*
X0000623844Y0001638475D01*
X0000617925Y0001640559D02*
X0000620893Y0001639535D01*
X0000614941Y0001641548D02*
X0000617925Y0001640559D01*
X0000611941Y0001642501D02*
X0000614941Y0001641548D01*
X0000608924Y0001643419D02*
X0000611941Y0001642501D01*
X0000605893Y0001644300D02*
X0000608924Y0001643419D01*
X0000602846Y0001645144D02*
X0000605893Y0001644300D01*
X0000599784Y0001645952D02*
X0000602846Y0001645144D01*
X0000596707Y0001646724D02*
X0000599784Y0001645952D01*
X0000593615Y0001647458D02*
X0000596707Y0001646724D01*
X0000590509Y0001648155D02*
X0000593615Y0001647458D01*
X0000587389Y0001648814D02*
X0000590509Y0001648155D01*
X0000584256Y0001649435D02*
X0000587389Y0001648814D01*
X0000581108Y0001650017D02*
X0000584256Y0001649435D01*
X0000577948Y0001650561D02*
X0000581108Y0001650017D01*
X0000574774Y0001651067D02*
X0000577948Y0001650561D01*
X0000571587Y0001651534D02*
X0000574774Y0001651067D01*
X0000568388Y0001651960D02*
X0000571587Y0001651534D01*
X0000565177Y0001652348D02*
X0000568388Y0001651960D01*
X0000561953Y0001652695D02*
X0000565177Y0001652348D01*
X0000558718Y0001653004D02*
X0000561953Y0001652695D01*
X0000555471Y0001653271D02*
X0000558718Y0001653004D01*
X0000552212Y0001653498D02*
X0000555471Y0001653271D01*
X0000548943Y0001653685D02*
X0000552212Y0001653498D01*
X0000545663Y0001653830D02*
X0000548943Y0001653685D01*
X0000542372Y0001653930D02*
X0000545663Y0001653830D01*
X0000539071Y0001653997D02*
X0000542372Y0001653930D01*
X0000535760Y0001654018D02*
X0000539071Y0001653997D01*
X0000532449Y0001653997D02*
X0000535760Y0001654018D01*
X0000529148Y0001653930D02*
X0000532449Y0001653997D01*
X0000525857Y0001653830D02*
X0000529148Y0001653930D01*
X0000522576Y0001653685D02*
X0000525857Y0001653830D01*
X0000519308Y0001653498D02*
X0000522576Y0001653685D01*
X0000516049Y0001653271D02*
X0000519308Y0001653498D01*
X0000512802Y0001653004D02*
X0000516049Y0001653271D01*
X0000509567Y0001652695D02*
X0000512802Y0001653004D01*
X0000506343Y0001652348D02*
X0000509567Y0001652695D01*
X0000503132Y0001651960D02*
X0000506343Y0001652348D01*
X0000499933Y0001651534D02*
X0000503132Y0001651960D01*
X0000496746Y0001651067D02*
X0000499933Y0001651534D01*
X0000493571Y0001650561D02*
X0000496746Y0001651067D01*
X0000490412Y0001650017D02*
X0000493571Y0001650561D01*
X0000487264Y0001649435D02*
X0000490412Y0001650017D01*
X0000484130Y0001648814D02*
X0000487264Y0001649435D01*
X0000481010Y0001648155D02*
X0000484130Y0001648814D01*
X0000477905Y0001647458D02*
X0000481010Y0001648155D01*
X0000474813Y0001646724D02*
X0000477905Y0001647458D01*
X0000471736Y0001645952D02*
X0000474813Y0001646724D01*
X0000468674Y0001645144D02*
X0000471736Y0001645952D01*
X0000465627Y0001644300D02*
X0000468674Y0001645144D01*
X0000462595Y0001643419D02*
X0000465627Y0001644300D01*
X0000459579Y0001642501D02*
X0000462595Y0001643419D01*
X0000456579Y0001641548D02*
X0000459579Y0001642501D01*
X0000453594Y0001640559D02*
X0000456579Y0001641548D01*
X0000450627Y0001639535D02*
X0000453594Y0001640559D01*
X0000447676Y0001638475D02*
X0000450627Y0001639535D01*
X0000444742Y0001637380D02*
X0000447676Y0001638475D01*
X0000441825Y0001636251D02*
X0000444742Y0001637380D01*
X0000438925Y0001635086D02*
X0000441825Y0001636251D01*
X0000436042Y0001633888D02*
X0000438925Y0001635086D01*
X0000433178Y0001632656D02*
X0000436042Y0001633888D01*
X0000430331Y0001631390D02*
X0000433178Y0001632656D01*
X0000427504Y0001630091D02*
X0000430331Y0001631390D01*
X0000424695Y0001628757D02*
X0000427504Y0001630091D01*
X0000421904Y0001627392D02*
X0000424695Y0001628757D01*
X0000419133Y0001625994D02*
X0000421904Y0001627392D01*
X0000416381Y0001624563D02*
X0000419133Y0001625994D01*
X0000413649Y0001623100D02*
X0000416381Y0001624563D01*
X0000410936Y0001621605D02*
X0000413649Y0001623100D01*
X0000408244Y0001620079D02*
X0000410936Y0001621605D01*
X0000405572Y0001618521D02*
X0000408244Y0001620079D01*
X0000402919Y0001616932D02*
X0000405572Y0001618521D01*
X0000400290Y0001615312D02*
X0000402919Y0001616932D01*
X0000397681Y0001613661D02*
X0000400290Y0001615312D01*
X0000395093Y0001611980D02*
X0000397681Y0001613661D01*
X0000392526Y0001610267D02*
X0000395093Y0001611980D01*
X0000389982Y0001608527D02*
X0000392526Y0001610267D01*
X0000387460Y0001606756D02*
X0000389982Y0001608527D01*
X0000384960Y0001604956D02*
X0000387460Y0001606756D01*
X0000382482Y0001603126D02*
X0000384960Y0001604956D01*
X0000380028Y0001601267D02*
X0000382482Y0001603126D01*
X0000377596Y0001599380D02*
X0000380028Y0001601267D01*
X0000375189Y0001597465D02*
X0000377596Y0001599380D01*
X0000372805Y0001595521D02*
X0000375189Y0001597465D01*
X0000370444Y0001593549D02*
X0000372805Y0001595521D01*
X0000368107Y0001591550D02*
X0000370444Y0001593549D01*
X0000365796Y0001589523D02*
X0000368107Y0001591550D01*
X0000363509Y0001587469D02*
X0000365796Y0001589523D01*
X0000361247Y0001585388D02*
X0000363509Y0001587469D01*
X0000359010Y0001583280D02*
X0000361247Y0001585388D01*
X0000356798Y0001581146D02*
X0000359010Y0001583280D01*
X0000354612Y0001578985D02*
X0000356798Y0001581146D01*
X0000352452Y0001576800D02*
X0000354612Y0001578985D01*
X0000350318Y0001574589D02*
X0000352452Y0001576800D01*
X0000348210Y0001572352D02*
X0000350318Y0001574589D01*
X0000346130Y0001570089D02*
X0000348210Y0001572352D01*
X0000344076Y0001567802D02*
X0000346130Y0001570089D01*
X0000342049Y0001565490D02*
X0000344076Y0001567802D01*
X0000340049Y0001563154D02*
X0000342049Y0001565490D01*
X0000338078Y0001560794D02*
X0000340049Y0001563154D01*
X0000336133Y0001558410D02*
X0000338078Y0001560794D01*
X0000334218Y0001556002D02*
X0000336133Y0001558410D01*
X0000332331Y0001553571D02*
X0000334218Y0001556002D01*
X0000330472Y0001551116D02*
X0000332331Y0001553571D01*
X0000328643Y0001548639D02*
X0000330472Y0001551116D01*
X0000326842Y0001546139D02*
X0000328643Y0001548639D01*
X0000325071Y0001543617D02*
X0000326842Y0001546139D01*
X0000323330Y0001541072D02*
X0000325071Y0001543617D01*
X0000321619Y0001538506D02*
X0000323330Y0001541072D01*
X0000319937Y0001535918D02*
X0000321619Y0001538506D01*
X0000318287Y0001533309D02*
X0000319937Y0001535918D01*
X0000316667Y0001530678D02*
X0000318287Y0001533309D01*
X0000315076Y0001528027D02*
X0000316667Y0001530678D01*
X0000313519Y0001525355D02*
X0000315076Y0001528027D01*
X0000311993Y0001522662D02*
X0000313519Y0001525355D01*
X0000310498Y0001519950D02*
X0000311993Y0001522662D01*
X0000309035Y0001517218D02*
X0000310498Y0001519950D01*
X0000307604Y0001514465D02*
X0000309035Y0001517218D01*
X0000306206Y0001511694D02*
X0000307604Y0001514465D01*
X0000304841Y0001508904D02*
X0000306206Y0001511694D01*
X0000303508Y0001506095D02*
X0000304841Y0001508904D01*
X0000302208Y0001503267D02*
X0000303508Y0001506095D01*
X0000300943Y0001500419D02*
X0000302208Y0001503267D01*
X0000299710Y0001497556D02*
X0000300943Y0001500419D01*
X0000298512Y0001494674D02*
X0000299710Y0001497556D01*
X0000297348Y0001491774D02*
X0000298512Y0001494674D01*
X0000296218Y0001488857D02*
X0000297348Y0001491774D01*
X0000295124Y0001485922D02*
X0000296218Y0001488857D01*
X0000294064Y0001482970D02*
X0000295124Y0001485922D01*
X0000293039Y0001480004D02*
X0000294064Y0001482970D01*
X0000292050Y0001477018D02*
X0000293039Y0001480004D01*
X0000291097Y0001474019D02*
X0000292050Y0001477018D01*
X0000290179Y0001471003D02*
X0000291097Y0001474019D01*
X0000289298Y0001467971D02*
X0000290179Y0001471003D01*
X0000288453Y0001464923D02*
X0000289298Y0001467971D01*
X0000287645Y0001461862D02*
X0000288453Y0001464923D01*
X0000286874Y0001458784D02*
X0000287645Y0001461862D01*
X0000286139Y0001455694D02*
X0000286874Y0001458784D01*
X0000285443Y0001452588D02*
X0000286139Y0001455694D01*
X0000284784Y0001449468D02*
X0000285443Y0001452588D01*
X0000284163Y0001446334D02*
X0000284784Y0001449468D01*
X0000283580Y0001443187D02*
X0000284163Y0001446334D01*
X0000283036Y0001440026D02*
X0000283580Y0001443187D01*
X0000282530Y0001436853D02*
X0000283036Y0001440026D01*
X0000282064Y0001433666D02*
X0000282530Y0001436853D01*
X0000281637Y0001430467D02*
X0000282064Y0001433666D01*
X0000281249Y0001427255D02*
X0000281637Y0001430467D01*
X0000280902Y0001424031D02*
X0000281249Y0001427255D01*
X0000280594Y0001420796D02*
X0000280902Y0001424031D01*
X0000280326Y0001417549D02*
X0000280594Y0001420796D01*
X0000280099Y0001414290D02*
X0000280326Y0001417549D01*
X0000279913Y0001411022D02*
X0000280099Y0001414290D01*
X0000279767Y0001407741D02*
X0000279913Y0001411022D01*
X0000279667Y0001404451D02*
X0000279767Y0001407741D01*
X0000279600Y0001401150D02*
X0000279667Y0001404451D01*
X0000279578Y0001397839D02*
X0000279600Y0001401150D01*
X0001541338Y0001393700D02*
X0001413385Y0001393700D01*
X0001413385Y0001393700D02*
X0001413385Y0001496062D01*
X0001413385Y0001496062D02*
X0001541338Y0001496062D01*
X0000588582Y0001346456D02*
X0000460629Y0001346456D01*
X0000460629Y0001346456D02*
X0000460629Y0001448818D01*
X0000460629Y0001448818D02*
X0000588582Y0001448818D01*
D23*
X0001517247Y0001336520D02*
X0001517247Y0001375890D01*
X0001507874Y0001375890D01*
X0001502249Y0001374015D01*
X0001498500Y0001370266D01*
X0001496625Y0001366516D01*
X0001494750Y0001359017D01*
X0001494750Y0001353393D01*
X0001496625Y0001345894D01*
X0001498500Y0001342144D01*
X0001502249Y0001338395D01*
X0001507874Y0001336520D01*
X0001517247Y0001336520D01*
X0001457255Y0001336520D02*
X0001479752Y0001336520D01*
X0001468503Y0001336520D02*
X0001468503Y0001375890D01*
X0001472253Y0001370266D01*
X0001476002Y0001366516D01*
X0001479752Y0001364641D01*
X0000564491Y0001289276D02*
X0000564491Y0001328646D01*
X0000555118Y0001328646D01*
X0000549493Y0001326771D01*
X0000545744Y0001323022D01*
X0000543869Y0001319272D01*
X0000541994Y0001311772D01*
X0000541994Y0001306149D01*
X0000543869Y0001298650D01*
X0000545744Y0001294900D01*
X0000549493Y0001291151D01*
X0000555118Y0001289276D01*
X0000564491Y0001289276D01*
X0000526996Y0001324895D02*
X0000525121Y0001326771D01*
X0000521371Y0001328646D01*
X0000511997Y0001328646D01*
X0000508248Y0001326771D01*
X0000506374Y0001324895D01*
X0000504499Y0001321147D01*
X0000504499Y0001317397D01*
X0000506374Y0001311772D01*
X0000528871Y0001289276D01*
X0000504499Y0001289276D01*
G04 next file*
G04 #@! TF.FileFunction,Legend,Bot*
G04 Gerber Fmt 4.6, Leading zero omitted, Abs format (unit mm)*
G04 Created by KiCad (PCBNEW 4.0.4+e1-6308~48~ubuntu16.04.1-stable) date Tue May  2 14:04:53 2017*
G01*
G04 APERTURE LIST*
G04 APERTURE END LIST*
D34*
X0001202617Y0003294883D02*
X0001202617Y0003294883D01*
X0001202612Y0003294880D02*
X0001202617Y0003294883D01*
X0001203080Y0003276113D02*
X0001202612Y0003294880D01*
X0001204482Y0003257593D02*
X0001203080Y0003276113D01*
X0001206795Y0003239341D02*
X0001204482Y0003257593D01*
X0001209997Y0003221382D02*
X0001206795Y0003239341D01*
X0001214064Y0003203737D02*
X0001209997Y0003221382D01*
X0001218973Y0003186430D02*
X0001214064Y0003203737D01*
X0001224702Y0003169484D02*
X0001218973Y0003186430D01*
X0001231227Y0003152922D02*
X0001224702Y0003169484D01*
X0001238526Y0003136767D02*
X0001231227Y0003152922D01*
X0001246575Y0003121041D02*
X0001238526Y0003136767D01*
X0001255353Y0003105767D02*
X0001246575Y0003121041D01*
X0001264835Y0003090969D02*
X0001255353Y0003105767D01*
X0001274999Y0003076670D02*
X0001264835Y0003090969D01*
X0001285822Y0003062891D02*
X0001274999Y0003076670D01*
X0001297282Y0003049657D02*
X0001285822Y0003062891D01*
X0001309354Y0003036990D02*
X0001297282Y0003049657D01*
X0001322016Y0003024913D02*
X0001309354Y0003036990D01*
X0001335247Y0003013449D02*
X0001322016Y0003024913D01*
X0001349022Y0003002621D02*
X0001335247Y0003013449D01*
X0001363318Y0002992452D02*
X0001349022Y0003002621D01*
X0001378113Y0002982964D02*
X0001363318Y0002992452D01*
X0001393383Y0002974181D02*
X0001378113Y0002982964D01*
X0001409106Y0002966127D02*
X0001393383Y0002974181D01*
X0001425259Y0002958822D02*
X0001409106Y0002966127D01*
X0001441819Y0002952291D02*
X0001425259Y0002958822D01*
X0001458763Y0002946557D02*
X0001441819Y0002952291D01*
X0001476068Y0002941641D02*
X0001458763Y0002946557D01*
X0001493710Y0002937568D02*
X0001476068Y0002941641D01*
X0001511670Y0002934361D02*
X0001493710Y0002937568D01*
X0001529920Y0002932041D02*
X0001511670Y0002934361D01*
X0001548440Y0002930632D02*
X0001529920Y0002932041D01*
X0001567207Y0002930158D02*
X0001548440Y0002930632D01*
X0001571921Y0002930191D02*
X0001567207Y0002930158D01*
X0001576620Y0002930280D02*
X0001571921Y0002930191D01*
X0001581304Y0002930429D02*
X0001576620Y0002930280D01*
X0001585974Y0002930636D02*
X0001581304Y0002930429D01*
X0001590628Y0002930901D02*
X0001585974Y0002930636D01*
X0001595266Y0002931225D02*
X0001590628Y0002930901D01*
X0001599888Y0002931606D02*
X0001595266Y0002931225D01*
X0001604494Y0002932045D02*
X0001599888Y0002931606D01*
X0001609082Y0002932540D02*
X0001604494Y0002932045D01*
X0001613654Y0002933092D02*
X0001609082Y0002932540D01*
X0001618208Y0002933700D02*
X0001613654Y0002933092D01*
X0001622745Y0002934365D02*
X0001618208Y0002933700D01*
X0001627262Y0002935085D02*
X0001622745Y0002934365D01*
X0001631762Y0002935859D02*
X0001627262Y0002935085D01*
X0001636242Y0002936689D02*
X0001631762Y0002935859D01*
X0001640703Y0002937572D02*
X0001636242Y0002936689D01*
X0001645144Y0002938510D02*
X0001640703Y0002937572D01*
X0001649565Y0002939501D02*
X0001645144Y0002938510D01*
X0001653966Y0002940547D02*
X0001649565Y0002939501D01*
X0001658346Y0002941645D02*
X0001653966Y0002940547D01*
X0001662705Y0002942795D02*
X0001658346Y0002941645D01*
X0001667042Y0002943998D02*
X0001662705Y0002942795D01*
X0001671357Y0002945253D02*
X0001667042Y0002943998D01*
X0001675651Y0002946560D02*
X0001671357Y0002945253D01*
X0001679922Y0002947918D02*
X0001675651Y0002946560D01*
X0001684170Y0002949325D02*
X0001679922Y0002947918D01*
X0001688394Y0002950785D02*
X0001684170Y0002949325D01*
X0001692595Y0002952294D02*
X0001688394Y0002950785D01*
X0001696772Y0002953852D02*
X0001692595Y0002952294D01*
X0001700924Y0002955462D02*
X0001696772Y0002953852D01*
X0001705052Y0002957119D02*
X0001700924Y0002955462D01*
X0001709155Y0002958825D02*
X0001705052Y0002957119D01*
X0001713232Y0002960580D02*
X0001709155Y0002958825D01*
X0001717283Y0002962382D02*
X0001713232Y0002960580D01*
X0001721309Y0002964233D02*
X0001717283Y0002962382D01*
X0001725308Y0002966130D02*
X0001721309Y0002964233D01*
X0001729280Y0002968074D02*
X0001725308Y0002966130D01*
X0001733225Y0002970065D02*
X0001729280Y0002968074D01*
X0001737142Y0002972102D02*
X0001733225Y0002970065D01*
X0001741031Y0002974185D02*
X0001737142Y0002972102D01*
X0001744892Y0002976313D02*
X0001741031Y0002974185D01*
X0001748724Y0002978487D02*
X0001744892Y0002976313D01*
X0001752528Y0002980705D02*
X0001748724Y0002978487D01*
X0001756302Y0002982968D02*
X0001752528Y0002980705D01*
X0001760046Y0002985274D02*
X0001756302Y0002982968D01*
X0001763760Y0002987625D02*
X0001760046Y0002985274D01*
X0001767443Y0002990018D02*
X0001763760Y0002987625D01*
X0001771096Y0002992455D02*
X0001767443Y0002990018D01*
X0001774718Y0002994934D02*
X0001771096Y0002992455D01*
X0001778308Y0002997456D02*
X0001774718Y0002994934D01*
X0001781865Y0003000019D02*
X0001778308Y0002997456D01*
X0001785391Y0003002624D02*
X0001781865Y0003000019D01*
X0001788886Y0003005270D02*
X0001785391Y0003002624D01*
X0001792346Y0003007957D02*
X0001788886Y0003005270D01*
X0001795773Y0003010684D02*
X0001792346Y0003007957D01*
X0001799167Y0003013452D02*
X0001795773Y0003010684D01*
X0001802526Y0003016260D02*
X0001799167Y0003013452D01*
X0001805851Y0003019106D02*
X0001802526Y0003016260D01*
X0001809142Y0003021992D02*
X0001805851Y0003019106D01*
X0001812397Y0003024916D02*
X0001809142Y0003021992D01*
X0001815617Y0003027878D02*
X0001812397Y0003024916D01*
X0001818801Y0003030880D02*
X0001815617Y0003027878D01*
X0001821949Y0003033918D02*
X0001818801Y0003030880D01*
X0001825060Y0003036993D02*
X0001821949Y0003033918D01*
X0001828134Y0003040105D02*
X0001825060Y0003036993D01*
X0001831171Y0003043254D02*
X0001828134Y0003040105D01*
X0001834171Y0003046439D02*
X0001831171Y0003043254D01*
X0001837133Y0003049660D02*
X0001834171Y0003046439D01*
X0001840056Y0003052917D02*
X0001837133Y0003049660D01*
X0001842940Y0003056208D02*
X0001840056Y0003052917D01*
X0001845786Y0003059534D02*
X0001842940Y0003056208D01*
X0001848592Y0003062893D02*
X0001845786Y0003059534D01*
X0001851358Y0003066289D02*
X0001848592Y0003062893D01*
X0001854084Y0003069717D02*
X0001851358Y0003066289D01*
X0001856770Y0003073178D02*
X0001854084Y0003069717D01*
X0001859415Y0003076673D02*
X0001856770Y0003073178D01*
X0001862019Y0003080200D02*
X0001859415Y0003076673D01*
X0001864581Y0003083758D02*
X0001862019Y0003080200D01*
X0001867101Y0003087350D02*
X0001864581Y0003083758D01*
X0001869578Y0003090973D02*
X0001867101Y0003087350D01*
X0001872015Y0003094626D02*
X0001869578Y0003090973D01*
X0001874407Y0003098310D02*
X0001872015Y0003094626D01*
X0001876756Y0003102026D02*
X0001874407Y0003098310D01*
X0001879061Y0003105771D02*
X0001876756Y0003102026D01*
X0001881323Y0003109545D02*
X0001879061Y0003105771D01*
X0001883540Y0003113349D02*
X0001881323Y0003109545D01*
X0001885712Y0003117182D02*
X0001883540Y0003113349D01*
X0001887839Y0003121044D02*
X0001885712Y0003117182D01*
X0001889920Y0003124933D02*
X0001887839Y0003121044D01*
X0001891956Y0003128852D02*
X0001889920Y0003124933D01*
X0001893945Y0003132797D02*
X0001891956Y0003128852D01*
X0001895889Y0003136769D02*
X0001893945Y0003132797D01*
X0001897785Y0003140769D02*
X0001895889Y0003136769D01*
X0001899633Y0003144795D02*
X0001897785Y0003140769D01*
X0001901434Y0003148848D02*
X0001899633Y0003144795D01*
X0001903187Y0003152925D02*
X0001901434Y0003148848D01*
X0001904892Y0003157028D02*
X0001903187Y0003152925D01*
X0001906548Y0003161157D02*
X0001904892Y0003157028D01*
X0001908155Y0003165310D02*
X0001906548Y0003161157D01*
X0001909713Y0003169488D02*
X0001908155Y0003165310D01*
X0001911220Y0003173689D02*
X0001909713Y0003169488D01*
X0001912678Y0003177914D02*
X0001911220Y0003173689D01*
X0001914085Y0003182162D02*
X0001912678Y0003177914D01*
X0001915441Y0003186434D02*
X0001914085Y0003182162D01*
X0001916746Y0003190727D02*
X0001915441Y0003186434D01*
X0001918000Y0003195043D02*
X0001916746Y0003190727D01*
X0001919201Y0003199381D02*
X0001918000Y0003195043D01*
X0001920351Y0003203740D02*
X0001919201Y0003199381D01*
X0001921447Y0003208121D02*
X0001920351Y0003203740D01*
X0001922491Y0003212522D02*
X0001921447Y0003208121D01*
X0001923480Y0003216943D02*
X0001922491Y0003212522D01*
X0001924417Y0003221385D02*
X0001923480Y0003216943D01*
X0001925299Y0003225846D02*
X0001924417Y0003221385D01*
X0001926127Y0003230327D02*
X0001925299Y0003225846D01*
X0001926900Y0003234826D02*
X0001926127Y0003230327D01*
X0001927618Y0003239344D02*
X0001926900Y0003234826D01*
X0001928281Y0003243881D02*
X0001927618Y0003239344D01*
X0001928887Y0003248435D02*
X0001928281Y0003243881D01*
X0001929437Y0003253007D02*
X0001928887Y0003248435D01*
X0001929931Y0003257596D02*
X0001929437Y0003253007D01*
X0001930367Y0003262202D02*
X0001929931Y0003257596D01*
X0001930747Y0003266824D02*
X0001930367Y0003262202D01*
X0001931068Y0003271462D02*
X0001930747Y0003266824D01*
X0001931333Y0003276117D02*
X0001931068Y0003271462D01*
X0001931538Y0003280786D02*
X0001931333Y0003276117D01*
X0001931685Y0003285471D02*
X0001931538Y0003280786D01*
X0001931774Y0003290170D02*
X0001931685Y0003285471D01*
X0001931807Y0003294883D02*
X0001931774Y0003290170D01*
X0001931339Y0003313650D02*
X0001931807Y0003294883D01*
X0001929937Y0003332171D02*
X0001931339Y0003313650D01*
X0001927623Y0003350422D02*
X0001929937Y0003332171D01*
X0001924423Y0003368381D02*
X0001927623Y0003350422D01*
X0001920356Y0003386026D02*
X0001924423Y0003368381D01*
X0001915446Y0003403333D02*
X0001920356Y0003386026D01*
X0001909718Y0003420279D02*
X0001915446Y0003403333D01*
X0001903193Y0003436841D02*
X0001909718Y0003420279D01*
X0001895894Y0003452996D02*
X0001903193Y0003436841D01*
X0001887844Y0003468723D02*
X0001895894Y0003452996D01*
X0001879067Y0003483996D02*
X0001887844Y0003468723D01*
X0001869584Y0003498794D02*
X0001879067Y0003483996D01*
X0001859420Y0003513094D02*
X0001869584Y0003498794D01*
X0001848597Y0003526872D02*
X0001859420Y0003513094D01*
X0001837138Y0003540106D02*
X0001848597Y0003526872D01*
X0001825064Y0003552773D02*
X0001837138Y0003540106D01*
X0001812402Y0003564850D02*
X0001825064Y0003552773D01*
X0001799172Y0003576314D02*
X0001812402Y0003564850D01*
X0001785397Y0003587142D02*
X0001799172Y0003576314D01*
X0001771101Y0003597312D02*
X0001785397Y0003587142D01*
X0001756307Y0003606799D02*
X0001771101Y0003597312D01*
X0001741035Y0003615582D02*
X0001756307Y0003606799D01*
X0001725313Y0003623637D02*
X0001741035Y0003615582D01*
X0001709160Y0003630941D02*
X0001725313Y0003623637D01*
X0001692600Y0003637472D02*
X0001709160Y0003630941D01*
X0001675656Y0003643206D02*
X0001692600Y0003637472D01*
X0001658351Y0003648122D02*
X0001675656Y0003643206D01*
X0001640708Y0003652195D02*
X0001658351Y0003648122D01*
X0001622750Y0003655403D02*
X0001640708Y0003652195D01*
X0001604499Y0003657723D02*
X0001622750Y0003655403D01*
X0001585979Y0003659131D02*
X0001604499Y0003657723D01*
X0001567212Y0003659606D02*
X0001585979Y0003659131D01*
X0001548446Y0003659131D02*
X0001567212Y0003659606D01*
X0001529924Y0003657723D02*
X0001548446Y0003659131D01*
X0001511675Y0003655403D02*
X0001529924Y0003657723D01*
X0001493716Y0003652195D02*
X0001511675Y0003655403D01*
X0001476073Y0003648122D02*
X0001493716Y0003652195D01*
X0001458768Y0003643206D02*
X0001476073Y0003648122D01*
X0001441824Y0003637472D02*
X0001458768Y0003643206D01*
X0001425263Y0003630941D02*
X0001441824Y0003637472D01*
X0001409110Y0003623637D02*
X0001425263Y0003630941D01*
X0001393388Y0003615582D02*
X0001409110Y0003623637D01*
X0001378118Y0003606799D02*
X0001393388Y0003615582D01*
X0001363323Y0003597312D02*
X0001378118Y0003606799D01*
X0001349027Y0003587142D02*
X0001363323Y0003597312D01*
X0001335252Y0003576314D02*
X0001349027Y0003587142D01*
X0001322022Y0003564850D02*
X0001335252Y0003576314D01*
X0001309359Y0003552773D02*
X0001322022Y0003564850D01*
X0001297287Y0003540106D02*
X0001309359Y0003552773D01*
X0001285828Y0003526872D02*
X0001297287Y0003540106D01*
X0001275004Y0003513094D02*
X0001285828Y0003526872D01*
X0001264840Y0003498794D02*
X0001275004Y0003513094D01*
X0001255358Y0003483996D02*
X0001264840Y0003498794D01*
X0001246581Y0003468723D02*
X0001255358Y0003483996D01*
X0001238531Y0003452996D02*
X0001246581Y0003468723D01*
X0001231232Y0003436841D02*
X0001238531Y0003452996D01*
X0001224707Y0003420279D02*
X0001231232Y0003436841D01*
X0001218978Y0003403333D02*
X0001224707Y0003420279D01*
X0001214069Y0003386026D02*
X0001218978Y0003403333D01*
X0001210002Y0003368381D02*
X0001214069Y0003386026D01*
X0001206801Y0003350422D02*
X0001210002Y0003368381D01*
X0001204487Y0003332171D02*
X0001206801Y0003350422D01*
X0001203085Y0003313650D02*
X0001204487Y0003332171D01*
X0001202617Y0003294883D02*
X0001203085Y0003313650D01*
X0000358318Y0003248232D02*
X0000358318Y0003248232D01*
X0000358341Y0003244921D02*
X0000358318Y0003248232D01*
X0000358406Y0003241620D02*
X0000358341Y0003244921D01*
X0000358507Y0003238329D02*
X0000358406Y0003241620D01*
X0000358653Y0003235049D02*
X0000358507Y0003238329D01*
X0000358840Y0003231780D02*
X0000358653Y0003235049D01*
X0000359066Y0003228521D02*
X0000358840Y0003231780D01*
X0000359334Y0003225275D02*
X0000359066Y0003228521D01*
X0000359642Y0003222039D02*
X0000359334Y0003225275D01*
X0000359989Y0003218816D02*
X0000359642Y0003222039D01*
X0000360376Y0003215603D02*
X0000359989Y0003218816D01*
X0000360803Y0003212405D02*
X0000360376Y0003215603D01*
X0000361271Y0003209218D02*
X0000360803Y0003212405D01*
X0000361776Y0003206044D02*
X0000361271Y0003209218D01*
X0000362321Y0003202884D02*
X0000361776Y0003206044D01*
X0000362903Y0003199736D02*
X0000362321Y0003202884D01*
X0000363524Y0003196603D02*
X0000362903Y0003199736D01*
X0000364183Y0003193482D02*
X0000363524Y0003196603D01*
X0000364879Y0003190377D02*
X0000364183Y0003193482D01*
X0000365614Y0003187285D02*
X0000364879Y0003190377D01*
X0000366385Y0003184208D02*
X0000365614Y0003187285D01*
X0000367193Y0003181145D02*
X0000366385Y0003184208D01*
X0000368038Y0003178099D02*
X0000367193Y0003181145D01*
X0000368920Y0003175068D02*
X0000368038Y0003178099D01*
X0000369837Y0003172052D02*
X0000368920Y0003175068D01*
X0000370791Y0003169051D02*
X0000369837Y0003172052D01*
X0000371780Y0003166066D02*
X0000370791Y0003169051D01*
X0000372804Y0003163099D02*
X0000371780Y0003166066D01*
X0000373864Y0003160148D02*
X0000372804Y0003163099D01*
X0000374958Y0003157213D02*
X0000373864Y0003160148D01*
X0000376088Y0003154297D02*
X0000374958Y0003157213D01*
X0000377252Y0003151397D02*
X0000376088Y0003154297D01*
X0000378450Y0003148515D02*
X0000377252Y0003151397D01*
X0000379683Y0003145650D02*
X0000378450Y0003148515D01*
X0000380949Y0003142803D02*
X0000379683Y0003145650D01*
X0000382248Y0003139976D02*
X0000380949Y0003142803D01*
X0000383581Y0003137167D02*
X0000382248Y0003139976D01*
X0000384946Y0003134376D02*
X0000383581Y0003137167D01*
X0000386345Y0003131605D02*
X0000384946Y0003134376D01*
X0000387775Y0003128853D02*
X0000386345Y0003131605D01*
X0000389238Y0003126121D02*
X0000387775Y0003128853D01*
X0000390733Y0003123408D02*
X0000389238Y0003126121D01*
X0000392259Y0003120716D02*
X0000390733Y0003123408D01*
X0000393817Y0003118044D02*
X0000392259Y0003120716D01*
X0000395407Y0003115392D02*
X0000393817Y0003118044D01*
X0000397027Y0003112762D02*
X0000395407Y0003115392D01*
X0000398678Y0003110153D02*
X0000397027Y0003112762D01*
X0000400358Y0003107565D02*
X0000398678Y0003110153D01*
X0000402070Y0003104999D02*
X0000400358Y0003107565D01*
X0000403812Y0003102454D02*
X0000402070Y0003104999D01*
X0000405583Y0003099932D02*
X0000403812Y0003102454D01*
X0000407383Y0003097432D02*
X0000405583Y0003099932D01*
X0000409212Y0003094955D02*
X0000407383Y0003097432D01*
X0000411070Y0003092500D02*
X0000409212Y0003094955D01*
X0000412958Y0003090068D02*
X0000411070Y0003092500D01*
X0000414874Y0003087661D02*
X0000412958Y0003090068D01*
X0000416818Y0003085277D02*
X0000414874Y0003087661D01*
X0000418789Y0003082917D02*
X0000416818Y0003085277D01*
X0000420789Y0003080580D02*
X0000418789Y0003082917D01*
X0000422816Y0003078269D02*
X0000420789Y0003080580D01*
X0000424870Y0003075981D02*
X0000422816Y0003078269D01*
X0000426951Y0003073719D02*
X0000424870Y0003075981D01*
X0000429058Y0003071482D02*
X0000426951Y0003073719D01*
X0000431192Y0003069270D02*
X0000429058Y0003071482D01*
X0000433352Y0003067083D02*
X0000431192Y0003069270D01*
X0000435538Y0003064924D02*
X0000433352Y0003067083D01*
X0000437750Y0003062790D02*
X0000435538Y0003064924D01*
X0000439987Y0003060682D02*
X0000437750Y0003062790D01*
X0000442249Y0003058602D02*
X0000439987Y0003060682D01*
X0000444537Y0003056548D02*
X0000442249Y0003058602D01*
X0000446848Y0003054521D02*
X0000444537Y0003056548D01*
X0000449184Y0003052522D02*
X0000446848Y0003054521D01*
X0000451545Y0003050550D02*
X0000449184Y0003052522D01*
X0000453929Y0003048606D02*
X0000451545Y0003050550D01*
X0000456337Y0003046691D02*
X0000453929Y0003048606D01*
X0000458768Y0003044803D02*
X0000456337Y0003046691D01*
X0000461222Y0003042945D02*
X0000458768Y0003044803D01*
X0000463700Y0003041115D02*
X0000461222Y0003042945D01*
X0000466200Y0003039315D02*
X0000463700Y0003041115D01*
X0000468722Y0003037543D02*
X0000466200Y0003039315D01*
X0000471266Y0003035802D02*
X0000468722Y0003037543D01*
X0000473833Y0003034091D02*
X0000471266Y0003035802D01*
X0000476420Y0003032410D02*
X0000473833Y0003034091D01*
X0000479029Y0003030759D02*
X0000476420Y0003032410D01*
X0000481661Y0003029139D02*
X0000479029Y0003030759D01*
X0000484312Y0003027550D02*
X0000481661Y0003029139D01*
X0000486984Y0003025992D02*
X0000484312Y0003027550D01*
X0000489676Y0003024465D02*
X0000486984Y0003025992D01*
X0000492389Y0003022970D02*
X0000489676Y0003024465D01*
X0000495121Y0003021507D02*
X0000492389Y0003022970D01*
X0000497873Y0003020077D02*
X0000495121Y0003021507D01*
X0000500644Y0003018678D02*
X0000497873Y0003020077D01*
X0000503434Y0003017313D02*
X0000500644Y0003018678D01*
X0000506244Y0003015980D02*
X0000503434Y0003017313D01*
X0000509071Y0003014680D02*
X0000506244Y0003015980D01*
X0000511918Y0003013415D02*
X0000509071Y0003014680D01*
X0000514783Y0003012183D02*
X0000511918Y0003013415D01*
X0000517665Y0003010984D02*
X0000514783Y0003012183D01*
X0000520565Y0003009820D02*
X0000517665Y0003010984D01*
X0000523482Y0003008691D02*
X0000520565Y0003009820D01*
X0000526416Y0003007596D02*
X0000523482Y0003008691D01*
X0000529367Y0003006536D02*
X0000526416Y0003007596D01*
X0000532335Y0003005511D02*
X0000529367Y0003006536D01*
X0000535319Y0003004523D02*
X0000532335Y0003005511D01*
X0000538319Y0003003569D02*
X0000535319Y0003004523D01*
X0000541336Y0003002652D02*
X0000538319Y0003003569D01*
X0000544367Y0003001771D02*
X0000541336Y0003002652D01*
X0000547414Y0003000926D02*
X0000544367Y0003001771D01*
X0000550476Y0003000118D02*
X0000547414Y0003000926D01*
X0000553553Y0002999347D02*
X0000550476Y0003000118D01*
X0000556645Y0002998613D02*
X0000553553Y0002999347D01*
X0000559751Y0002997916D02*
X0000556645Y0002998613D01*
X0000562871Y0002997257D02*
X0000559751Y0002997916D01*
X0000566004Y0002996636D02*
X0000562871Y0002997257D01*
X0000569152Y0002996054D02*
X0000566004Y0002996636D01*
X0000572312Y0002995509D02*
X0000569152Y0002996054D01*
X0000575486Y0002995004D02*
X0000572312Y0002995509D01*
X0000578673Y0002994537D02*
X0000575486Y0002995004D01*
X0000581872Y0002994111D02*
X0000578673Y0002994537D01*
X0000585083Y0002993723D02*
X0000581872Y0002994111D01*
X0000588307Y0002993375D02*
X0000585083Y0002993723D01*
X0000591542Y0002993067D02*
X0000588307Y0002993375D01*
X0000594789Y0002992799D02*
X0000591542Y0002993067D01*
X0000598048Y0002992573D02*
X0000594789Y0002992799D01*
X0000601317Y0002992386D02*
X0000598048Y0002992573D01*
X0000604597Y0002992241D02*
X0000601317Y0002992386D01*
X0000607888Y0002992141D02*
X0000604597Y0002992241D01*
X0000611189Y0002992074D02*
X0000607888Y0002992141D01*
X0000614500Y0002992052D02*
X0000611189Y0002992074D01*
X0000617811Y0002992074D02*
X0000614500Y0002992052D01*
X0000621112Y0002992141D02*
X0000617811Y0002992074D01*
X0000624403Y0002992241D02*
X0000621112Y0002992141D01*
X0000627683Y0002992386D02*
X0000624403Y0002992241D01*
X0000630952Y0002992573D02*
X0000627683Y0002992386D01*
X0000634211Y0002992799D02*
X0000630952Y0002992573D01*
X0000637458Y0002993067D02*
X0000634211Y0002992799D01*
X0000640693Y0002993375D02*
X0000637458Y0002993067D01*
X0000643917Y0002993723D02*
X0000640693Y0002993375D01*
X0000647128Y0002994111D02*
X0000643917Y0002993723D01*
X0000650328Y0002994537D02*
X0000647128Y0002994111D01*
X0000653514Y0002995004D02*
X0000650328Y0002994537D01*
X0000656688Y0002995509D02*
X0000653514Y0002995004D01*
X0000659849Y0002996054D02*
X0000656688Y0002995509D01*
X0000662996Y0002996636D02*
X0000659849Y0002996054D01*
X0000666129Y0002997257D02*
X0000662996Y0002996636D01*
X0000669250Y0002997916D02*
X0000666129Y0002997257D01*
X0000672356Y0002998613D02*
X0000669250Y0002997916D01*
X0000675446Y0002999347D02*
X0000672356Y0002998613D01*
X0000678524Y0003000118D02*
X0000675446Y0002999347D01*
X0000681586Y0003000926D02*
X0000678524Y0003000118D01*
X0000684632Y0003001771D02*
X0000681586Y0003000926D01*
X0000687665Y0003002652D02*
X0000684632Y0003001771D01*
X0000690681Y0003003569D02*
X0000687665Y0003002652D01*
X0000693681Y0003004523D02*
X0000690681Y0003003569D01*
X0000696665Y0003005511D02*
X0000693681Y0003004523D01*
X0000699633Y0003006536D02*
X0000696665Y0003005511D01*
X0000702584Y0003007596D02*
X0000699633Y0003006536D01*
X0000705518Y0003008691D02*
X0000702584Y0003007596D01*
X0000708436Y0003009820D02*
X0000705518Y0003008691D01*
X0000711335Y0003010984D02*
X0000708436Y0003009820D01*
X0000714218Y0003012183D02*
X0000711335Y0003010984D01*
X0000717082Y0003013415D02*
X0000714218Y0003012183D01*
X0000719928Y0003014680D02*
X0000717082Y0003013415D01*
X0000722756Y0003015980D02*
X0000719928Y0003014680D01*
X0000725566Y0003017313D02*
X0000722756Y0003015980D01*
X0000728356Y0003018678D02*
X0000725566Y0003017313D01*
X0000731127Y0003020077D02*
X0000728356Y0003018678D01*
X0000733879Y0003021507D02*
X0000731127Y0003020077D01*
X0000736612Y0003022970D02*
X0000733879Y0003021507D01*
X0000739324Y0003024465D02*
X0000736612Y0003022970D01*
X0000742015Y0003025992D02*
X0000739324Y0003024465D01*
X0000744688Y0003027550D02*
X0000742015Y0003025992D01*
X0000747340Y0003029139D02*
X0000744688Y0003027550D01*
X0000749970Y0003030759D02*
X0000747340Y0003029139D01*
X0000752579Y0003032410D02*
X0000749970Y0003030759D01*
X0000755167Y0003034091D02*
X0000752579Y0003032410D01*
X0000757734Y0003035802D02*
X0000755167Y0003034091D01*
X0000760277Y0003037543D02*
X0000757734Y0003035802D01*
X0000762801Y0003039315D02*
X0000760277Y0003037543D01*
X0000765299Y0003041115D02*
X0000762801Y0003039315D01*
X0000767778Y0003042945D02*
X0000765299Y0003041115D01*
X0000770231Y0003044803D02*
X0000767778Y0003042945D01*
X0000772663Y0003046691D02*
X0000770231Y0003044803D01*
X0000775071Y0003048606D02*
X0000772663Y0003046691D01*
X0000777456Y0003050550D02*
X0000775071Y0003048606D01*
X0000779816Y0003052522D02*
X0000777456Y0003050550D01*
X0000782152Y0003054521D02*
X0000779816Y0003052522D01*
X0000784463Y0003056548D02*
X0000782152Y0003054521D01*
X0000786751Y0003058602D02*
X0000784463Y0003056548D01*
X0000789013Y0003060682D02*
X0000786751Y0003058602D01*
X0000791250Y0003062790D02*
X0000789013Y0003060682D01*
X0000793462Y0003064924D02*
X0000791250Y0003062790D01*
X0000795647Y0003067083D02*
X0000793462Y0003064924D01*
X0000797807Y0003069270D02*
X0000795647Y0003067083D01*
X0000799942Y0003071482D02*
X0000797807Y0003069270D01*
X0000802050Y0003073719D02*
X0000799942Y0003071482D01*
X0000804130Y0003075981D02*
X0000802050Y0003073719D01*
X0000806184Y0003078269D02*
X0000804130Y0003075981D01*
X0000808211Y0003080580D02*
X0000806184Y0003078269D01*
X0000810210Y0003082917D02*
X0000808211Y0003080580D01*
X0000812182Y0003085277D02*
X0000810210Y0003082917D01*
X0000814126Y0003087661D02*
X0000812182Y0003085277D01*
X0000816041Y0003090068D02*
X0000814126Y0003087661D01*
X0000817929Y0003092500D02*
X0000816041Y0003090068D01*
X0000819788Y0003094955D02*
X0000817929Y0003092500D01*
X0000821617Y0003097432D02*
X0000819788Y0003094955D01*
X0000823418Y0003099932D02*
X0000821617Y0003097432D01*
X0000825189Y0003102454D02*
X0000823418Y0003099932D01*
X0000826930Y0003104999D02*
X0000825189Y0003102454D01*
X0000828641Y0003107565D02*
X0000826930Y0003104999D01*
X0000830323Y0003110153D02*
X0000828641Y0003107565D01*
X0000831973Y0003112762D02*
X0000830323Y0003110153D01*
X0000833594Y0003115392D02*
X0000831973Y0003112762D01*
X0000835183Y0003118044D02*
X0000833594Y0003115392D01*
X0000836741Y0003120716D02*
X0000835183Y0003118044D01*
X0000838267Y0003123408D02*
X0000836741Y0003120716D01*
X0000839762Y0003126121D02*
X0000838267Y0003123408D01*
X0000841225Y0003128853D02*
X0000839762Y0003126121D01*
X0000842656Y0003131605D02*
X0000841225Y0003128853D01*
X0000844054Y0003134376D02*
X0000842656Y0003131605D01*
X0000845420Y0003137167D02*
X0000844054Y0003134376D01*
X0000846752Y0003139976D02*
X0000845420Y0003137167D01*
X0000848052Y0003142803D02*
X0000846752Y0003139976D01*
X0000849317Y0003145650D02*
X0000848052Y0003142803D01*
X0000850550Y0003148515D02*
X0000849317Y0003145650D01*
X0000851748Y0003151397D02*
X0000850550Y0003148515D01*
X0000852912Y0003154297D02*
X0000851748Y0003151397D01*
X0000854042Y0003157213D02*
X0000852912Y0003154297D01*
X0000855136Y0003160148D02*
X0000854042Y0003157213D01*
X0000856196Y0003163099D02*
X0000855136Y0003160148D01*
X0000857221Y0003166066D02*
X0000856196Y0003163099D01*
X0000858210Y0003169051D02*
X0000857221Y0003166066D01*
X0000859163Y0003172052D02*
X0000858210Y0003169051D01*
X0000860081Y0003175068D02*
X0000859163Y0003172052D01*
X0000860962Y0003178099D02*
X0000860081Y0003175068D01*
X0000861807Y0003181145D02*
X0000860962Y0003178099D01*
X0000862615Y0003184208D02*
X0000861807Y0003181145D01*
X0000863386Y0003187285D02*
X0000862615Y0003184208D01*
X0000864121Y0003190377D02*
X0000863386Y0003187285D01*
X0000864817Y0003193482D02*
X0000864121Y0003190377D01*
X0000865476Y0003196603D02*
X0000864817Y0003193482D01*
X0000866097Y0003199736D02*
X0000865476Y0003196603D01*
X0000866680Y0003202884D02*
X0000866097Y0003199736D01*
X0000867224Y0003206044D02*
X0000866680Y0003202884D01*
X0000867730Y0003209218D02*
X0000867224Y0003206044D01*
X0000868196Y0003212405D02*
X0000867730Y0003209218D01*
X0000868623Y0003215603D02*
X0000868196Y0003212405D01*
X0000869012Y0003218816D02*
X0000868623Y0003215603D01*
X0000869360Y0003222039D02*
X0000869012Y0003218816D01*
X0000869667Y0003225275D02*
X0000869360Y0003222039D01*
X0000869935Y0003228521D02*
X0000869667Y0003225275D01*
X0000870162Y0003231780D02*
X0000869935Y0003228521D01*
X0000870349Y0003235049D02*
X0000870162Y0003231780D01*
X0000870493Y0003238329D02*
X0000870349Y0003235049D01*
X0000870593Y0003241620D02*
X0000870493Y0003238329D01*
X0000870661Y0003244921D02*
X0000870593Y0003241620D01*
X0000870683Y0003248232D02*
X0000870661Y0003244921D01*
X0000870661Y0003251542D02*
X0000870683Y0003248232D01*
X0000870593Y0003254844D02*
X0000870661Y0003251542D01*
X0000870493Y0003258135D02*
X0000870593Y0003254844D01*
X0000870349Y0003261415D02*
X0000870493Y0003258135D01*
X0000870162Y0003264684D02*
X0000870349Y0003261415D01*
X0000869935Y0003267943D02*
X0000870162Y0003264684D01*
X0000869667Y0003271190D02*
X0000869935Y0003267943D01*
X0000869360Y0003274425D02*
X0000869667Y0003271190D01*
X0000869012Y0003277649D02*
X0000869360Y0003274425D01*
X0000868623Y0003280860D02*
X0000869012Y0003277649D01*
X0000868196Y0003284060D02*
X0000868623Y0003280860D01*
X0000867730Y0003287245D02*
X0000868196Y0003284060D01*
X0000867224Y0003290420D02*
X0000867730Y0003287245D01*
X0000866680Y0003293581D02*
X0000867224Y0003290420D01*
X0000866097Y0003296728D02*
X0000866680Y0003293581D01*
X0000865476Y0003299862D02*
X0000866097Y0003296728D01*
X0000864817Y0003302982D02*
X0000865476Y0003299862D01*
X0000864121Y0003306088D02*
X0000864817Y0003302982D01*
X0000863386Y0003309179D02*
X0000864121Y0003306088D01*
X0000862615Y0003312256D02*
X0000863386Y0003309179D01*
X0000861807Y0003315318D02*
X0000862615Y0003312256D01*
X0000860962Y0003318365D02*
X0000861807Y0003315318D01*
X0000860081Y0003321397D02*
X0000860962Y0003318365D01*
X0000859163Y0003324413D02*
X0000860081Y0003321397D01*
X0000858210Y0003327413D02*
X0000859163Y0003324413D01*
X0000857221Y0003330397D02*
X0000858210Y0003327413D01*
X0000856196Y0003333364D02*
X0000857221Y0003330397D01*
X0000855136Y0003336316D02*
X0000856196Y0003333364D01*
X0000854042Y0003339250D02*
X0000855136Y0003336316D01*
X0000852912Y0003342168D02*
X0000854042Y0003339250D01*
X0000851748Y0003345067D02*
X0000852912Y0003342168D01*
X0000850550Y0003347949D02*
X0000851748Y0003345067D01*
X0000849317Y0003350813D02*
X0000850550Y0003347949D01*
X0000848052Y0003353660D02*
X0000849317Y0003350813D01*
X0000846752Y0003356488D02*
X0000848052Y0003353660D01*
X0000845420Y0003359298D02*
X0000846752Y0003356488D01*
X0000844054Y0003362088D02*
X0000845420Y0003359298D01*
X0000842656Y0003364859D02*
X0000844054Y0003362088D01*
X0000841225Y0003367611D02*
X0000842656Y0003364859D01*
X0000839762Y0003370344D02*
X0000841225Y0003367611D01*
X0000838267Y0003373056D02*
X0000839762Y0003370344D01*
X0000836741Y0003375748D02*
X0000838267Y0003373056D01*
X0000835183Y0003378420D02*
X0000836741Y0003375748D01*
X0000833594Y0003381072D02*
X0000835183Y0003378420D01*
X0000831973Y0003383701D02*
X0000833594Y0003381072D01*
X0000830323Y0003386312D02*
X0000831973Y0003383701D01*
X0000828641Y0003388900D02*
X0000830323Y0003386312D01*
X0000826930Y0003391466D02*
X0000828641Y0003388900D01*
X0000825189Y0003394010D02*
X0000826930Y0003391466D01*
X0000823418Y0003396533D02*
X0000825189Y0003394010D01*
X0000821617Y0003399033D02*
X0000823418Y0003396533D01*
X0000819788Y0003401510D02*
X0000821617Y0003399033D01*
X0000817929Y0003403964D02*
X0000819788Y0003401510D01*
X0000816041Y0003406395D02*
X0000817929Y0003403964D01*
X0000814126Y0003408803D02*
X0000816041Y0003406395D01*
X0000812182Y0003411188D02*
X0000814126Y0003408803D01*
X0000810210Y0003413548D02*
X0000812182Y0003411188D01*
X0000808211Y0003415884D02*
X0000810210Y0003413548D01*
X0000806184Y0003418196D02*
X0000808211Y0003415884D01*
X0000804130Y0003420483D02*
X0000806184Y0003418196D01*
X0000802050Y0003422745D02*
X0000804130Y0003420483D01*
X0000799942Y0003424982D02*
X0000802050Y0003422745D01*
X0000797807Y0003427194D02*
X0000799942Y0003424982D01*
X0000795647Y0003429380D02*
X0000797807Y0003427194D01*
X0000793462Y0003431540D02*
X0000795647Y0003429380D01*
X0000791250Y0003433673D02*
X0000793462Y0003431540D01*
X0000789013Y0003435782D02*
X0000791250Y0003433673D01*
X0000786751Y0003437863D02*
X0000789013Y0003435782D01*
X0000784463Y0003439917D02*
X0000786751Y0003437863D01*
X0000782152Y0003441943D02*
X0000784463Y0003439917D01*
X0000779816Y0003443943D02*
X0000782152Y0003441943D01*
X0000777456Y0003445914D02*
X0000779816Y0003443943D01*
X0000775071Y0003447858D02*
X0000777456Y0003445914D01*
X0000772663Y0003449774D02*
X0000775071Y0003447858D01*
X0000770231Y0003451661D02*
X0000772663Y0003449774D01*
X0000767778Y0003453520D02*
X0000770231Y0003451661D01*
X0000765299Y0003455349D02*
X0000767778Y0003453520D01*
X0000762801Y0003457149D02*
X0000765299Y0003455349D01*
X0000760277Y0003458921D02*
X0000762801Y0003457149D01*
X0000757734Y0003460661D02*
X0000760277Y0003458921D01*
X0000755167Y0003462373D02*
X0000757734Y0003460661D01*
X0000752579Y0003464055D02*
X0000755167Y0003462373D01*
X0000749970Y0003465705D02*
X0000752579Y0003464055D01*
X0000747340Y0003467326D02*
X0000749970Y0003465705D01*
X0000744688Y0003468915D02*
X0000747340Y0003467326D01*
X0000742015Y0003470473D02*
X0000744688Y0003468915D01*
X0000739324Y0003471999D02*
X0000742015Y0003470473D01*
X0000736612Y0003473494D02*
X0000739324Y0003471999D01*
X0000733879Y0003474957D02*
X0000736612Y0003473494D01*
X0000731127Y0003476388D02*
X0000733879Y0003474957D01*
X0000728356Y0003477786D02*
X0000731127Y0003476388D01*
X0000725566Y0003479151D02*
X0000728356Y0003477786D01*
X0000722756Y0003480484D02*
X0000725566Y0003479151D01*
X0000719928Y0003481784D02*
X0000722756Y0003480484D01*
X0000717082Y0003483050D02*
X0000719928Y0003481784D01*
X0000714218Y0003484282D02*
X0000717082Y0003483050D01*
X0000711335Y0003485480D02*
X0000714218Y0003484282D01*
X0000708436Y0003486644D02*
X0000711335Y0003485480D01*
X0000705518Y0003487774D02*
X0000708436Y0003486644D01*
X0000702584Y0003488868D02*
X0000705518Y0003487774D01*
X0000699633Y0003489928D02*
X0000702584Y0003488868D01*
X0000696665Y0003490953D02*
X0000699633Y0003489928D01*
X0000693681Y0003491942D02*
X0000696665Y0003490953D01*
X0000690681Y0003492895D02*
X0000693681Y0003491942D01*
X0000687665Y0003493813D02*
X0000690681Y0003492895D01*
X0000684632Y0003494694D02*
X0000687665Y0003493813D01*
X0000681586Y0003495538D02*
X0000684632Y0003494694D01*
X0000678524Y0003496345D02*
X0000681586Y0003495538D01*
X0000675446Y0003497117D02*
X0000678524Y0003496345D01*
X0000672356Y0003497852D02*
X0000675446Y0003497117D01*
X0000669250Y0003498548D02*
X0000672356Y0003497852D01*
X0000666129Y0003499207D02*
X0000669250Y0003498548D01*
X0000662996Y0003499828D02*
X0000666129Y0003499207D01*
X0000659849Y0003500411D02*
X0000662996Y0003499828D01*
X0000656688Y0003500955D02*
X0000659849Y0003500411D01*
X0000653514Y0003501461D02*
X0000656688Y0003500955D01*
X0000650328Y0003501927D02*
X0000653514Y0003501461D01*
X0000647128Y0003502353D02*
X0000650328Y0003501927D01*
X0000643917Y0003502742D02*
X0000647128Y0003502353D01*
X0000640693Y0003503088D02*
X0000643917Y0003502742D01*
X0000637458Y0003503397D02*
X0000640693Y0003503088D01*
X0000634211Y0003503665D02*
X0000637458Y0003503397D01*
X0000630952Y0003503892D02*
X0000634211Y0003503665D01*
X0000627683Y0003504078D02*
X0000630952Y0003503892D01*
X0000624403Y0003504224D02*
X0000627683Y0003504078D01*
X0000621112Y0003504323D02*
X0000624403Y0003504224D01*
X0000617811Y0003504391D02*
X0000621112Y0003504323D01*
X0000614500Y0003504412D02*
X0000617811Y0003504391D01*
X0000611189Y0003504391D02*
X0000614500Y0003504412D01*
X0000607888Y0003504323D02*
X0000611189Y0003504391D01*
X0000604597Y0003504224D02*
X0000607888Y0003504323D01*
X0000601317Y0003504078D02*
X0000604597Y0003504224D01*
X0000598048Y0003503892D02*
X0000601317Y0003504078D01*
X0000594789Y0003503665D02*
X0000598048Y0003503892D01*
X0000591542Y0003503397D02*
X0000594789Y0003503665D01*
X0000588307Y0003503088D02*
X0000591542Y0003503397D01*
X0000585083Y0003502742D02*
X0000588307Y0003503088D01*
X0000581872Y0003502353D02*
X0000585083Y0003502742D01*
X0000578673Y0003501927D02*
X0000581872Y0003502353D01*
X0000575486Y0003501461D02*
X0000578673Y0003501927D01*
X0000572312Y0003500955D02*
X0000575486Y0003501461D01*
X0000569152Y0003500411D02*
X0000572312Y0003500955D01*
X0000566004Y0003499828D02*
X0000569152Y0003500411D01*
X0000562871Y0003499207D02*
X0000566004Y0003499828D01*
X0000559751Y0003498548D02*
X0000562871Y0003499207D01*
X0000556645Y0003497852D02*
X0000559751Y0003498548D01*
X0000553553Y0003497117D02*
X0000556645Y0003497852D01*
X0000550476Y0003496345D02*
X0000553553Y0003497117D01*
X0000547414Y0003495538D02*
X0000550476Y0003496345D01*
X0000544367Y0003494694D02*
X0000547414Y0003495538D01*
X0000541336Y0003493813D02*
X0000544367Y0003494694D01*
X0000538319Y0003492895D02*
X0000541336Y0003493813D01*
X0000535319Y0003491942D02*
X0000538319Y0003492895D01*
X0000532335Y0003490953D02*
X0000535319Y0003491942D01*
X0000529367Y0003489928D02*
X0000532335Y0003490953D01*
X0000526416Y0003488868D02*
X0000529367Y0003489928D01*
X0000523482Y0003487774D02*
X0000526416Y0003488868D01*
X0000520565Y0003486644D02*
X0000523482Y0003487774D01*
X0000517665Y0003485480D02*
X0000520565Y0003486644D01*
X0000514783Y0003484282D02*
X0000517665Y0003485480D01*
X0000511918Y0003483050D02*
X0000514783Y0003484282D01*
X0000509071Y0003481784D02*
X0000511918Y0003483050D01*
X0000506244Y0003480484D02*
X0000509071Y0003481784D01*
X0000503434Y0003479151D02*
X0000506244Y0003480484D01*
X0000500644Y0003477786D02*
X0000503434Y0003479151D01*
X0000497873Y0003476388D02*
X0000500644Y0003477786D01*
X0000495121Y0003474957D02*
X0000497873Y0003476388D01*
X0000492389Y0003473494D02*
X0000495121Y0003474957D01*
X0000489676Y0003471999D02*
X0000492389Y0003473494D01*
X0000486984Y0003470473D02*
X0000489676Y0003471999D01*
X0000484312Y0003468915D02*
X0000486984Y0003470473D01*
X0000481661Y0003467326D02*
X0000484312Y0003468915D01*
X0000479029Y0003465705D02*
X0000481661Y0003467326D01*
X0000476420Y0003464055D02*
X0000479029Y0003465705D01*
X0000473833Y0003462373D02*
X0000476420Y0003464055D01*
X0000471266Y0003460661D02*
X0000473833Y0003462373D01*
X0000468722Y0003458921D02*
X0000471266Y0003460661D01*
X0000466200Y0003457149D02*
X0000468722Y0003458921D01*
X0000463700Y0003455349D02*
X0000466200Y0003457149D01*
X0000461222Y0003453520D02*
X0000463700Y0003455349D01*
X0000458768Y0003451661D02*
X0000461222Y0003453520D01*
X0000456337Y0003449774D02*
X0000458768Y0003451661D01*
X0000453929Y0003447858D02*
X0000456337Y0003449774D01*
X0000451545Y0003445914D02*
X0000453929Y0003447858D01*
X0000449184Y0003443943D02*
X0000451545Y0003445914D01*
X0000446848Y0003441943D02*
X0000449184Y0003443943D01*
X0000444537Y0003439917D02*
X0000446848Y0003441943D01*
X0000442249Y0003437863D02*
X0000444537Y0003439917D01*
X0000439987Y0003435782D02*
X0000442249Y0003437863D01*
X0000437750Y0003433673D02*
X0000439987Y0003435782D01*
X0000435538Y0003431540D02*
X0000437750Y0003433673D01*
X0000433352Y0003429380D02*
X0000435538Y0003431540D01*
X0000431192Y0003427194D02*
X0000433352Y0003429380D01*
X0000429058Y0003424982D02*
X0000431192Y0003427194D01*
X0000426951Y0003422745D02*
X0000429058Y0003424982D01*
X0000424870Y0003420483D02*
X0000426951Y0003422745D01*
X0000422816Y0003418196D02*
X0000424870Y0003420483D01*
X0000420789Y0003415884D02*
X0000422816Y0003418196D01*
X0000418789Y0003413548D02*
X0000420789Y0003415884D01*
X0000416818Y0003411188D02*
X0000418789Y0003413548D01*
X0000414874Y0003408803D02*
X0000416818Y0003411188D01*
X0000412958Y0003406395D02*
X0000414874Y0003408803D01*
X0000411070Y0003403964D02*
X0000412958Y0003406395D01*
X0000409212Y0003401510D02*
X0000411070Y0003403964D01*
X0000407383Y0003399033D02*
X0000409212Y0003401510D01*
X0000405583Y0003396533D02*
X0000407383Y0003399033D01*
X0000403812Y0003394010D02*
X0000405583Y0003396533D01*
X0000402070Y0003391466D02*
X0000403812Y0003394010D01*
X0000400358Y0003388900D02*
X0000402070Y0003391466D01*
X0000398678Y0003386312D02*
X0000400358Y0003388900D01*
X0000397027Y0003383701D02*
X0000398678Y0003386312D01*
X0000395407Y0003381072D02*
X0000397027Y0003383701D01*
X0000393817Y0003378420D02*
X0000395407Y0003381072D01*
X0000392259Y0003375748D02*
X0000393817Y0003378420D01*
X0000390733Y0003373056D02*
X0000392259Y0003375748D01*
X0000389238Y0003370344D02*
X0000390733Y0003373056D01*
X0000387775Y0003367611D02*
X0000389238Y0003370344D01*
X0000386345Y0003364859D02*
X0000387775Y0003367611D01*
X0000384946Y0003362088D02*
X0000386345Y0003364859D01*
X0000383581Y0003359298D02*
X0000384946Y0003362088D01*
X0000382248Y0003356488D02*
X0000383581Y0003359298D01*
X0000380949Y0003353660D02*
X0000382248Y0003356488D01*
X0000379683Y0003350813D02*
X0000380949Y0003353660D01*
X0000378450Y0003347949D02*
X0000379683Y0003350813D01*
X0000377252Y0003345067D02*
X0000378450Y0003347949D01*
X0000376088Y0003342168D02*
X0000377252Y0003345067D01*
X0000374958Y0003339250D02*
X0000376088Y0003342168D01*
X0000373864Y0003336316D02*
X0000374958Y0003339250D01*
X0000372804Y0003333364D02*
X0000373864Y0003336316D01*
X0000371780Y0003330397D02*
X0000372804Y0003333364D01*
X0000370791Y0003327413D02*
X0000371780Y0003330397D01*
X0000369837Y0003324413D02*
X0000370791Y0003327413D01*
X0000368920Y0003321397D02*
X0000369837Y0003324413D01*
X0000368038Y0003318365D02*
X0000368920Y0003321397D01*
X0000367193Y0003315318D02*
X0000368038Y0003318365D01*
X0000366385Y0003312256D02*
X0000367193Y0003315318D01*
X0000365614Y0003309179D02*
X0000366385Y0003312256D01*
X0000364879Y0003306088D02*
X0000365614Y0003309179D01*
X0000364183Y0003302982D02*
X0000364879Y0003306088D01*
X0000363524Y0003299862D02*
X0000364183Y0003302982D01*
X0000362903Y0003296728D02*
X0000363524Y0003299862D01*
X0000362321Y0003293581D02*
X0000362903Y0003296728D01*
X0000361776Y0003290420D02*
X0000362321Y0003293581D01*
X0000361271Y0003287245D02*
X0000361776Y0003290420D01*
X0000360803Y0003284060D02*
X0000361271Y0003287245D01*
X0000360376Y0003280860D02*
X0000360803Y0003284060D01*
X0000359989Y0003277649D02*
X0000360376Y0003280860D01*
X0000359642Y0003274425D02*
X0000359989Y0003277649D01*
X0000359334Y0003271190D02*
X0000359642Y0003274425D01*
X0000359066Y0003267943D02*
X0000359334Y0003271190D01*
X0000358840Y0003264684D02*
X0000359066Y0003267943D01*
X0000358653Y0003261415D02*
X0000358840Y0003264684D01*
X0000358507Y0003258135D02*
X0000358653Y0003261415D01*
X0000358406Y0003254844D02*
X0000358507Y0003258135D01*
X0000358341Y0003251542D02*
X0000358406Y0003254844D01*
X0000358318Y0003248232D02*
X0000358341Y0003251542D01*
X0001620077Y0003244094D02*
X0001492125Y0003244094D01*
X0001492125Y0003244094D02*
X0001492125Y0003346456D01*
X0001492125Y0003346456D02*
X0001620077Y0003346456D01*
X0000667321Y0003196850D02*
X0000539370Y0003196850D01*
X0000539370Y0003196850D02*
X0000539370Y0003299212D01*
X0000539370Y0003299212D02*
X0000667321Y0003299212D01*
D35*
X0001595987Y0003186914D02*
X0001595987Y0003226284D01*
X0001586614Y0003226284D01*
X0001580989Y0003224409D01*
X0001577240Y0003220659D01*
X0001575365Y0003216910D01*
X0001573490Y0003209411D01*
X0001573490Y0003203787D01*
X0001575365Y0003196287D01*
X0001577240Y0003192538D01*
X0001580989Y0003188788D01*
X0001586614Y0003186914D01*
X0001595987Y0003186914D01*
X0001535995Y0003186914D02*
X0001558492Y0003186914D01*
X0001547244Y0003186914D02*
X0001547244Y0003226284D01*
X0001550993Y0003220659D01*
X0001554743Y0003216910D01*
X0001558492Y0003215035D01*
X0000643231Y0003139670D02*
X0000643231Y0003179040D01*
X0000633858Y0003179040D01*
X0000628233Y0003177165D01*
X0000624484Y0003173415D01*
X0000622609Y0003169666D01*
X0000620734Y0003162166D01*
X0000620734Y0003156542D01*
X0000622609Y0003149043D01*
X0000624484Y0003145294D01*
X0000628233Y0003141544D01*
X0000633858Y0003139670D01*
X0000643231Y0003139670D01*
X0000605736Y0003175290D02*
X0000603861Y0003177165D01*
X0000600112Y0003179040D01*
X0000590738Y0003179040D01*
X0000586989Y0003177165D01*
X0000585114Y0003175290D01*
X0000583239Y0003171541D01*
X0000583239Y0003167790D01*
X0000585114Y0003162166D01*
X0000607611Y0003139670D01*
X0000583239Y0003139670D01*
M02*