%MOIN*%
%OFA0B0*%
%FSLAX46Y46*%
%IPPOS*%
%LPD*%
%AMREC47*
4,1,3,
0.033801567653702583,-0.036211913534767569,
0.040591802472270622,0.028392855258840732,
-0.033801567653702583,0.036211913534767569,
-0.040591802472270622,-0.028392855258840732,
0*%
%AMREC48*
4,1,3,
0.02452737805001708,-0.030288789411226331,
0.030288789411226331,0.02452737805001708,
-0.02452737805001708,0.030288789411226331,
-0.030288789411226331,-0.02452737805001708,
0*%
%AMREC49*
4,1,3,
0.028339280313114491,-0.020951049208983885,
0.032075967110241632,0.014601150830165412,
-0.028339280313114491,0.020951049208983885,
-0.032075967110241632,-0.014601150830165412,
0*%
%AMREC50*
4,1,3,
0.028960186009133707,-0.044610125350952469,
0.037602303050947576,0.037614125840912664,
-0.028960186009133707,0.044610125350952469,
-0.037602303050947576,-0.037614125840912664,
0*%
%AMREC51*
4,1,3,
0.029371715392077224,-0.040694684818006505,
0.037190773668004058,0.0336986853079667,
-0.029371715392077224,0.040694684818006505,
-0.037190773668004058,-0.0336986853079667,
0*%
%AMREC52*
4,1,3,
0.0336986853079667,-0.037190773668004058,
0.040694684818006505,0.029371715392077224,
-0.0336986853079667,0.037190773668004058,
-0.040694684818006505,-0.029371715392077224,
0*%
%AMREC53*
4,1,3,
0.034677545441203189,-0.037293656013739941,
0.041673544951242987,0.029268833046341345,
-0.034677545441203189,0.037293656013739941,
-0.041673544951242987,-0.029268833046341345,
0*%
%AMREC54*
4,1,3,
0.0770860453000537,-0.095193338149568471,
0.095193338149568471,0.0770860453000537,
-0.0770860453000537,0.095193338149568471,
-0.095193338149568471,-0.0770860453000537,
0*%
%ADD10C,0.0039370078740157488*%
%AMCOMP65*
4,1,3,
0.033801567653702583,-0.036211913534767569,
0.040591802472270622,0.028392855258840732,
-0.033801567653702583,0.036211913534767569,
-0.040591802472270622,-0.028392855258840732,
0*%
%ADD11COMP65*%
%AMCOMP66*
4,1,3,
0.02452737805001708,-0.030288789411226331,
0.030288789411226331,0.02452737805001708,
-0.02452737805001708,0.030288789411226331,
-0.030288789411226331,-0.02452737805001708,
0*%
%ADD12COMP66*%
%AMCOMP67*
4,1,3,
0.028339280313114491,-0.020951049208983885,
0.032075967110241632,0.014601150830165412,
-0.028339280313114491,0.020951049208983885,
-0.032075967110241632,-0.014601150830165412,
0*%
%ADD13COMP67*%
%ADD14C,0.0905511811023622*%
%AMCOMP68*
4,1,3,
0.028960186009133707,-0.044610125350952469,
0.037602303050947576,0.037614125840912664,
-0.028960186009133707,0.044610125350952469,
-0.037602303050947576,-0.037614125840912664,
0*%
%ADD15COMP68*%
%ADD16C,0.13385826771653545*%
%AMCOMP69*
4,1,3,
0.029371715392077224,-0.040694684818006505,
0.037190773668004058,0.0336986853079667,
-0.029371715392077224,0.040694684818006505,
-0.037190773668004058,-0.0336986853079667,
0*%
%ADD17COMP69*%
%AMCOMP70*
4,1,3,
0.0336986853079667,-0.037190773668004058,
0.040694684818006505,0.029371715392077224,
-0.0336986853079667,0.037190773668004058,
-0.040694684818006505,-0.029371715392077224,
0*%
%ADD18COMP70*%
%AMCOMP71*
4,1,3,
0.034677545441203189,-0.037293656013739941,
0.041673544951242987,0.029268833046341345,
-0.034677545441203189,0.037293656013739941,
-0.041673544951242987,-0.029268833046341345,
0*%
%ADD19COMP71*%
%AMCOMP72*
4,1,3,
0.0770860453000537,-0.095193338149568471,
0.095193338149568471,0.0770860453000537,
-0.0770860453000537,0.095193338149568471,
-0.095193338149568471,-0.0770860453000537,
0*%
%ADD20COMP72*%
%ADD31C,0.0039370078740157488*%
%ADD32R,0.064960629921259838X0.074803149606299218*%
%ADD33R,0.055118110236220472X0.055118110236220472*%
%ADD34R,0.035748031496062996X0.06074803149606299*%
%ADD35C,0.0905511811023622*%
%ADD36R,0.082677165354330714X0.066929133858267723*%
%ADD37C,0.13385826771653545*%
%ADD38R,0.074803149606299218X0.066929133858267723*%
%ADD39R,0.066929133858267723X0.074803149606299218*%
%ADD40R,0.066929133858267723X0.076771653543307089*%
%ADD41R,0.17322834645669294X0.17322834645669294*%
%ADD52C,0.0039370078740157488*%
%ADD53R,0.064960629921259838X0.074803149606299218*%
%ADD54R,0.055118110236220472X0.055118110236220472*%
%ADD55R,0.035748031496062996X0.06074803149606299*%
%ADD56C,0.0905511811023622*%
%ADD57R,0.082677165354330714X0.066929133858267723*%
%ADD58C,0.13385826771653545*%
%ADD59R,0.074803149606299218X0.066929133858267723*%
%ADD60R,0.066929133858267723X0.074803149606299218*%
%ADD61R,0.066929133858267723X0.076771653543307089*%
%ADD62R,0.17322834645669294X0.17322834645669294*%
%LPD*%
G01*
D10*
D11*
X-0001456692Y-0003070866D02*
X0002530638Y0001288192D03*
X0002628524Y0001277903D03*
D12*
X0002762776Y0002611728D03*
X0002752488Y0002513842D03*
X0002680552Y0002620370D03*
X0002670264Y0002522484D03*
D13*
X0002509638Y0001361457D03*
X0002514864Y0001411183D03*
X0002520091Y0001460910D03*
X0002525317Y0001510636D03*
X0002773948Y0001484504D03*
X0002768721Y0001434777D03*
X0002763495Y0001385051D03*
X0002758268Y0001335325D03*
D14*
X0002679073Y0002920793D03*
D15*
X0002618110Y0002834171D03*
X0002717562Y0002823718D03*
X0002797045Y0002815364D03*
X0002896497Y0002804911D03*
D16*
X0002509676Y0002951265D03*
X0003046875Y0002894803D03*
D14*
X0002855268Y0002902274D03*
D17*
X0002892033Y0002297282D03*
X0002903145Y0002402999D03*
X0002798063Y0002307159D03*
X0002809174Y0002412876D03*
X0002579386Y0002524119D03*
X0002590497Y0002629835D03*
D18*
X0002885097Y0001195515D03*
X0002990814Y0001184403D03*
D19*
X0002522809Y0001801269D03*
X0002541328Y0001977464D03*
X0002852997Y0001944707D03*
X0002834478Y0001768512D03*
D20*
X0003320410Y0001288316D03*
X0003449630Y0002517764D03*
G04 next file*
%LPD*%
G01*
D31*
D32*
X-0004370078Y0005000000D02*
X0000381888Y0001490156D03*
X0000381888Y0001391732D03*
D33*
X0001722440Y0001397637D03*
X0001624015Y0001397637D03*
X0001722440Y0001480314D03*
X0001624015Y0001480314D03*
D34*
X0000452559Y0001518700D03*
X0000502559Y0001518700D03*
X0000552559Y0001518700D03*
X0000602559Y0001518700D03*
X0000602559Y0001268700D03*
X0000552559Y0001268700D03*
X0000502559Y0001268700D03*
X0000452559Y0001268700D03*
D35*
X0002021062Y0001513188D03*
D36*
X0001928543Y0001564763D03*
X0001928543Y0001464763D03*
X0001928543Y0001384841D03*
X0001928543Y0001284842D03*
D37*
X0002033661Y0001684842D03*
X0002033661Y0001144685D03*
D35*
X0002021062Y0001336023D03*
D38*
X0001423228Y0001236220D03*
X0001529527Y0001236220D03*
X0001423228Y0001330708D03*
X0001529527Y0001330708D03*
X0001616141Y0001570866D03*
X0001722440Y0001570866D03*
D39*
X0000326771Y0001127952D03*
X0000326771Y0001021652D03*
D40*
X0000891338Y0001551574D03*
X0001068503Y0001551574D03*
X0001068503Y0001238188D03*
X0000891338Y0001238188D03*
D41*
X0000464566Y0000704723D03*
X0001700787Y0000704723D03*
G04 next file*
G04 #@! TF.FileFunction,Soldermask,Top*
G04 Gerber Fmt 4.6, Leading zero omitted, Abs format (unit mm)*
G04 Created by KiCad (PCBNEW 4.0.4+e1-6308~48~ubuntu16.04.1-stable) date Tue May  2 14:04:53 2017*
G01*
G04 APERTURE LIST*
G04 APERTURE END LIST*
D52*
D53*
X-0004291338Y0006850393D02*
X0000460629Y0003340551D03*
X0000460629Y0003242125D03*
D54*
X0001801181Y0003248031D03*
X0001702755Y0003248031D03*
X0001801181Y0003330708D03*
X0001702755Y0003330708D03*
D55*
X0000531299Y0003369094D03*
X0000581299Y0003369094D03*
X0000631299Y0003369094D03*
X0000681298Y0003369094D03*
X0000681298Y0003119094D03*
X0000631299Y0003119094D03*
X0000581299Y0003119094D03*
X0000531299Y0003119094D03*
D56*
X0002099803Y0003363582D03*
D57*
X0002007283Y0003415157D03*
X0002007283Y0003315157D03*
X0002007283Y0003235235D03*
X0002007283Y0003135236D03*
D58*
X0002112401Y0003535236D03*
X0002112401Y0002995078D03*
D56*
X0002099803Y0003186417D03*
D59*
X0001501968Y0003086614D03*
X0001608267Y0003086614D03*
X0001501968Y0003181102D03*
X0001608267Y0003181102D03*
X0001694881Y0003421259D03*
X0001801181Y0003421259D03*
D60*
X0000405511Y0002978346D03*
X0000405511Y0002872047D03*
D61*
X0000970078Y0003401968D03*
X0001147244Y0003401968D03*
X0001147244Y0003088582D03*
X0000970078Y0003088582D03*
D62*
X0000543307Y0002555118D03*
X0001779527Y0002555118D03*
M02*