%
M48
METRIC,000.000
T01C1.91
T10C0.41
T11C2.31
T12C0.50
%
T01
X051333Y038435
X051333Y033934
X053333Y085435
X053333Y080934
X068048Y074187
X072524Y073716
T10
X013967Y033528
X014983Y037084
X016253Y038608
X016507Y032258
X028953Y028702
X038351Y036576
X015967Y080528
X016983Y084084
X018253Y085608
X018507Y079258
X030953Y075702
X040351Y083576
X069022Y036512
X065592Y037895
X064209Y039317
X070551Y038906
X075388Y050912
X068540Y061081
T11
X051653Y042793
X051653Y029075
X053653Y089793
X053653Y076075
X063746Y074961
X077390Y073527
T12
X041409Y051345
X040414Y051442
X039415Y051467
X038440Y051243
X037466Y051019
X036383Y054236
X037329Y054558
X038264Y054913
X039187Y055298
X040096Y055716
X054145Y029244
X054330Y030227
X054483Y031215
X054601Y032208
X054685Y033205
X056569Y033353
X056772Y032374
X057059Y031417
X057429Y030488
X057882Y029597
X054395Y039179
X054169Y040153
X053879Y041110
X053529Y042047
X053116Y042957
X052646Y043839
X056223Y044249
X056345Y043257
X056467Y042264
X056588Y041271
X056710Y040279
X054723Y071457
X055072Y072394
X055390Y073342
X055674Y074301
X055926Y075269
X059728Y074228
X058956Y073593
X058225Y072910
X057541Y072182
X056907Y071408
X056324Y070596
X034543Y050344
X033568Y050120
X032594Y049895
X031619Y049670
X030645Y049445
X029671Y049221
X030523Y052995
X031516Y053117
X032503Y053275
X033485Y053465
X050828Y064498
X051417Y065306
X051978Y066134
X052509Y066981
X053013Y067845
X053486Y068725
X054913Y067954
X054560Y067019
X054271Y066062
X054044Y065087
X053882Y064101
M30