%MOIN*%
%OFA0B0*%
%FSLAX46Y46*%
%IPPOS*%
%LPD*%
%ADD10C,0.0039370078740157488*%
%ADD11C,0.011811023622047244*%
%ADD12C,0.0047244094488188976*%
%ADD13C,0.005905511811023622*%
%ADD24C,0.0039370078740157488*%
%ADD25C,0.011811023622047244*%
%ADD26C,0.0047244094488188976*%
%ADD27C,0.005905511811023622*%
%ADD38C,0.0039370078740157488*%
%ADD39C,0.011811023622047244*%
%ADD40C,0.0047244094488188976*%
%ADD41C,0.005905511811023622*%
%LPD*%
G01*
D10*
D11*
X0002816960Y0001289767D02*
X0002830944Y0001288298D01*
X0002823881Y0001274902D02*
X0002830944Y0001288298D01*
X0002826820Y0001302869D01*
X0002841249Y0001278732D02*
X0002830944Y0001288298D01*
X0002843013Y0001295512D01*
D12*
X0002602656Y0001314271D02*
X0002563502Y0001318386D01*
X0002556506Y0001251824D02*
X0002595660Y0001247709D01*
X0002798733Y0002633681D02*
X0002732170Y0002640677D01*
X0002732170Y0002640677D02*
X0002719207Y0002517340D01*
X0002798733Y0002633681D02*
X0002785769Y0002510344D01*
X0002716508Y0002642323D02*
X0002649946Y0002649319D01*
X0002649946Y0002649319D02*
X0002636983Y0002525982D01*
X0002716508Y0002642323D02*
X0002703545Y0002518986D01*
D13*
X0002541833Y0001332936D02*
X0002562739Y0001531840D01*
X0002562739Y0001531840D02*
X0002741752Y0001513025D01*
X0002741752Y0001513025D02*
X0002720847Y0001314121D01*
X0002720847Y0001314121D02*
X0002541833Y0001332936D01*
X0002601504Y0001326664D02*
X0002603595Y0001346555D01*
X0002603595Y0001346555D02*
X0002653321Y0001341328D01*
X0002653321Y0001341328D02*
X0002651230Y0001321438D01*
D12*
X0002459150Y0002805749D02*
X0002468738Y0002896979D01*
X0003046074Y0002744061D02*
X0003054799Y0002827068D01*
X0002459150Y0002805749D02*
X0003046074Y0002744061D01*
X0002517134Y0003357435D02*
X0003104059Y0003295746D01*
X0002480920Y0003012876D02*
X0002517134Y0003357435D01*
X0003068667Y0002959019D02*
X0003104059Y0003295746D01*
X0002934514Y0002370012D02*
X0002929576Y0002323026D01*
X0002860664Y0002330269D02*
X0002865602Y0002377255D01*
X0002840543Y0002379888D02*
X0002835605Y0002332903D01*
X0002766693Y0002340146D02*
X0002771632Y0002387131D01*
X0002621866Y0002596848D02*
X0002616928Y0002549863D01*
X0002548016Y0002557106D02*
X0002552955Y0002604091D01*
X0002957827Y0001153034D02*
X0002910841Y0001157972D01*
X0002918084Y0001226884D02*
X0002965069Y0001221946D01*
X0002827664Y0001986164D02*
X0002827540Y0001984990D01*
X0002801079Y0001733227D02*
X0002801203Y0001734402D01*
X0002548142Y0001759812D02*
X0002548265Y0001760986D01*
X0002574603Y0002011575D02*
X0002574726Y0002012749D01*
X0002819721Y0001910596D02*
X0002809022Y0001808795D01*
X0002574726Y0002012749D02*
X0002827664Y0001986164D01*
X0002566784Y0001937181D02*
X0002556084Y0001835380D01*
X0002548142Y0001759812D02*
X0002801079Y0001733227D01*
D10*
X0003431948Y0002349522D02*
G75*
G03X0003431948Y0002349522I-0000046309J-0000440608D01*
G01*
D13*
X0002559003Y0001239176D02*
X0002561063Y0001240845D01*
X0002566853Y0001242121D01*
X0002570582Y0001241730D01*
X0002575979Y0001239277D01*
X0002579316Y0001235156D01*
X0002580789Y0001231231D01*
X0002581870Y0001223577D01*
X0002581282Y0001217984D01*
X0002578633Y0001210722D01*
X0002576377Y0001207189D01*
X0002572256Y0001203852D01*
X0002566467Y0001202575D01*
X0002562738Y0001202967D01*
X0002557340Y0001205419D01*
X0002555672Y0001207480D01*
X0002522105Y0001246825D02*
X0002544479Y0001244473D01*
X0002533292Y0001245649D02*
X0002529177Y0001206494D01*
X0002533494Y0001211696D01*
X0002537615Y0001215033D01*
X0002541539Y0001216506D01*
X0002782799Y0002646911D02*
X0002743645Y0002651026D01*
X0002744625Y0002660349D01*
X0002747077Y0002665746D01*
X0002751198Y0002669083D01*
X0002755123Y0002670556D01*
X0002762777Y0002671636D01*
X0002768370Y0002671049D01*
X0002775632Y0002668400D01*
X0002779165Y0002666144D01*
X0002782502Y0002662023D01*
X0002783779Y0002656233D01*
X0002782799Y0002646911D01*
X0002747368Y0002686452D02*
X0002749916Y0002710690D01*
X0002763460Y0002696071D01*
X0002764048Y0002701664D01*
X0002766304Y0002705197D01*
X0002768365Y0002706866D01*
X0002772290Y0002708338D01*
X0002781612Y0002707359D01*
X0002785145Y0002705102D01*
X0002786814Y0002703042D01*
X0002788286Y0002699117D01*
X0002787110Y0002687930D01*
X0002784854Y0002684397D01*
X0002782794Y0002682728D01*
X0002708797Y0002654689D02*
X0002669643Y0002658804D01*
X0002670623Y0002668127D01*
X0002673075Y0002673524D01*
X0002677196Y0002676861D01*
X0002681121Y0002678334D01*
X0002688775Y0002679414D01*
X0002694368Y0002678826D01*
X0002701630Y0002676178D01*
X0002705163Y0002673922D01*
X0002708501Y0002669801D01*
X0002709777Y0002664011D01*
X0002708797Y0002654689D01*
X0002688573Y0002713367D02*
X0002714676Y0002710624D01*
X0002672678Y0002705612D02*
X0002699665Y0002693350D01*
X0002702213Y0002717589D01*
X0002750340Y0001532067D02*
X0002711186Y0001536182D01*
X0002750923Y0001573478D02*
X0002752591Y0001571417D01*
X0002753868Y0001565628D01*
X0002753476Y0001561899D01*
X0002751023Y0001556501D01*
X0002746902Y0001553164D01*
X0002742978Y0001551692D01*
X0002735324Y0001550611D01*
X0002729730Y0001551199D01*
X0002722468Y0001553847D01*
X0002718935Y0001556104D01*
X0002715598Y0001560225D01*
X0002714321Y0001566014D01*
X0002714713Y0001569743D01*
X0002717166Y0001575140D01*
X0002719226Y0001576809D01*
X0002758571Y0001610376D02*
X0002756219Y0001588002D01*
X0002757395Y0001599189D02*
X0002718241Y0001603304D01*
X0002723442Y0001598987D01*
X0002726779Y0001594866D01*
X0002728252Y0001590941D01*
X0002807700Y0002987135D02*
X0002803585Y0002947981D01*
X0002788669Y0002949549D01*
X0002785136Y0002951805D01*
X0002783467Y0002953866D01*
X0002781995Y0002957791D01*
X0002782583Y0002963384D01*
X0002784839Y0002966917D01*
X0002786899Y0002968586D01*
X0002790824Y0002970058D01*
X0002805740Y0002968490D01*
X0002748036Y0002993406D02*
X0002770410Y0002991055D01*
X0002759223Y0002992231D02*
X0002755108Y0002953076D01*
X0002759425Y0002958278D01*
X0002763546Y0002961615D01*
X0002767471Y0002963087D01*
X0002919172Y0002460431D02*
X0002899155Y0002449339D01*
X0002916820Y0002438057D02*
X0002877666Y0002442172D01*
X0002879234Y0002457088D01*
X0002881490Y0002460621D01*
X0002883550Y0002462290D01*
X0002887475Y0002463762D01*
X0002893069Y0002463174D01*
X0002896602Y0002460918D01*
X0002898270Y0002458858D01*
X0002899743Y0002454933D01*
X0002898175Y0002440017D01*
X0002923091Y0002497721D02*
X0002920740Y0002475347D01*
X0002921915Y0002486534D02*
X0002882761Y0002490649D01*
X0002887962Y0002486332D01*
X0002891300Y0002482211D01*
X0002892772Y0002478286D01*
X0002835855Y0002469980D02*
X0002815839Y0002458888D01*
X0002833504Y0002447606D02*
X0002794349Y0002451721D01*
X0002795917Y0002466637D01*
X0002798173Y0002470170D01*
X0002800234Y0002471838D01*
X0002804159Y0002473311D01*
X0002809752Y0002472723D01*
X0002813285Y0002470467D01*
X0002814954Y0002468406D01*
X0002816426Y0002464481D01*
X0002814859Y0002449565D01*
X0002801998Y0002488619D02*
X0002800329Y0002490679D01*
X0002798856Y0002494604D01*
X0002799836Y0002503927D01*
X0002802093Y0002507460D01*
X0002804153Y0002509128D01*
X0002808078Y0002510601D01*
X0002811807Y0002510209D01*
X0002817205Y0002507757D01*
X0002837227Y0002483031D01*
X0002839775Y0002507269D01*
X0002591955Y0002424358D02*
X0002571938Y0002413266D01*
X0002589604Y0002401984D02*
X0002550449Y0002406099D01*
X0002552017Y0002421015D01*
X0002554273Y0002424548D01*
X0002556334Y0002426217D01*
X0002560259Y0002427689D01*
X0002565852Y0002427102D01*
X0002569385Y0002424845D01*
X0002571054Y0002422785D01*
X0002572526Y0002418860D01*
X0002570959Y0002403944D01*
X0002554172Y0002441525D02*
X0002556720Y0002465763D01*
X0002570264Y0002451144D01*
X0002570852Y0002456737D01*
X0002573109Y0002460270D01*
X0002575169Y0002461939D01*
X0002579094Y0002463412D01*
X0002588416Y0002462432D01*
X0002591950Y0002460175D01*
X0002593618Y0002458115D01*
X0002595091Y0002454190D01*
X0002593915Y0002443003D01*
X0002591658Y0002439470D01*
X0002589598Y0002437801D01*
X0002930506Y0001142936D02*
X0002941598Y0001122919D01*
X0002952880Y0001140585D02*
X0002948765Y0001101430D01*
X0002933849Y0001102998D01*
X0002930315Y0001105254D01*
X0002928647Y0001107315D01*
X0002927174Y0001111240D01*
X0002927762Y0001116833D01*
X0002930019Y0001120366D01*
X0002932079Y0001122035D01*
X0002936004Y0001123507D01*
X0002950920Y0001121940D01*
X0002894201Y0001120361D02*
X0002896945Y0001146464D01*
X0002901956Y0001104465D02*
X0002914218Y0001131452D01*
X0002889980Y0001134000D01*
X0002758441Y0002041925D02*
X0002753044Y0002044377D01*
X0002743721Y0002045357D01*
X0002739796Y0002043884D01*
X0002737736Y0002042216D01*
X0002735479Y0002038683D01*
X0002735087Y0002034954D01*
X0002736560Y0002031029D01*
X0002738229Y0002028968D01*
X0002741762Y0002026712D01*
X0002749024Y0002024063D01*
X0002752557Y0002021807D01*
X0002754225Y0002019747D01*
X0002755698Y0002015822D01*
X0002755306Y0002012093D01*
X0002753049Y0002008560D01*
X0002750989Y0002006891D01*
X0002747064Y0002005418D01*
X0002737741Y0002006398D01*
X0002732344Y0002008851D01*
X0002719097Y0002008358D02*
X0002713889Y0002048492D01*
X0002703492Y0002021309D01*
X0002698973Y0002050060D01*
X0002685536Y0002011885D01*
X0002654225Y0002054763D02*
X0002676599Y0002052412D01*
X0002665412Y0002053587D02*
X0002661297Y0002014433D01*
X0002665614Y0002019634D01*
X0002669735Y0002022972D01*
X0002673660Y0002024444D01*
X0003747247Y0001835844D02*
X0003749700Y0001841241D01*
X0003751760Y0001842910D01*
X0003755685Y0001844382D01*
X0003761279Y0001843794D01*
X0003764812Y0001841538D01*
X0003766480Y0001839477D01*
X0003767953Y0001835553D01*
X0003766385Y0001820637D01*
X0003727231Y0001824752D01*
X0003728602Y0001837803D01*
X0003730859Y0001841336D01*
X0003732919Y0001843005D01*
X0003736844Y0001844477D01*
X0003740573Y0001844086D01*
X0003744106Y0001841829D01*
X0003745775Y0001839769D01*
X0003747247Y0001835844D01*
X0003745876Y0001822792D01*
X0003730758Y0001858313D02*
X0003733110Y0001880687D01*
X0003771088Y0001865384D02*
X0003731934Y0001869500D01*
X0003775791Y0001910132D02*
X0003773440Y0001887758D01*
X0003774616Y0001898945D02*
X0003735461Y0001903061D01*
X0003740663Y0001898744D01*
X0003744000Y0001894623D01*
X0003745472Y0001890698D01*
X0003125633Y0001221508D02*
X0003141311Y0001370667D01*
X0003208052Y0001288249D02*
X0003058892Y0001303926D01*
G04 next file*
%LPD*%
G01*
D24*
D25*
X0000413385Y0001205568D02*
X0000413385Y0001191507D01*
X0000399325Y0001197131D02*
X0000413385Y0001191507D01*
X0000427446Y0001197131D01*
X0000404949Y0001180258D02*
X0000413385Y0001191507D01*
X0000421822Y0001180258D01*
D26*
X0000415354Y0001421259D02*
X0000415354Y0001460629D01*
X0000348425Y0001460629D02*
X0000348425Y0001421259D01*
X0001748031Y0001364173D02*
X0001748031Y0001431102D01*
X0001748031Y0001431102D02*
X0001624015Y0001431102D01*
X0001748031Y0001364173D02*
X0001624015Y0001364173D01*
X0001748031Y0001446850D02*
X0001748031Y0001513779D01*
X0001748031Y0001513779D02*
X0001624015Y0001513779D01*
X0001748031Y0001446850D02*
X0001624015Y0001446850D01*
D27*
X0000427559Y0001483700D02*
X0000627559Y0001483700D01*
X0000627559Y0001483700D02*
X0000627559Y0001303700D01*
X0000627559Y0001303700D02*
X0000427559Y0001303700D01*
X0000427559Y0001303700D02*
X0000427559Y0001483700D01*
X0000427559Y0001423700D02*
X0000447558Y0001423700D01*
X0000447558Y0001423700D02*
X0000447558Y0001373700D01*
X0000447558Y0001373700D02*
X0000427559Y0001373700D01*
D26*
X0001883661Y0001719880D02*
X0001975393Y0001719880D01*
X0001883661Y0001129724D02*
X0001967125Y0001129724D01*
X0001883661Y0001719880D02*
X0001883661Y0001129724D01*
X0002438385Y0001719880D02*
X0002438385Y0001129724D01*
X0002091929Y0001719880D02*
X0002438385Y0001719880D01*
X0002099803Y0001129724D02*
X0002438385Y0001129724D01*
X0001499999Y0001201574D02*
X0001452755Y0001201574D01*
X0001452755Y0001270866D02*
X0001499999Y0001270866D01*
X0001499999Y0001296062D02*
X0001452755Y0001296062D01*
X0001452755Y0001365353D02*
X0001499999Y0001365353D01*
X0001692913Y0001536220D02*
X0001645668Y0001536220D01*
X0001645668Y0001605511D02*
X0001692913Y0001605511D01*
X0000292125Y0001051181D02*
X0000292125Y0001098425D01*
X0000361417Y0001098425D02*
X0000361417Y0001051181D01*
X0001107086Y0001267716D02*
X0001105905Y0001267716D01*
X0000852755Y0001267716D02*
X0000853936Y0001267716D01*
X0000852755Y0001522047D02*
X0000853936Y0001522047D01*
X0001105905Y0001522047D02*
X0001107086Y0001522047D01*
X0001031102Y0001267716D02*
X0000928740Y0001267716D01*
X0001107086Y0001522047D02*
X0001107086Y0001267716D01*
X0001031102Y0001522047D02*
X0000928740Y0001522047D01*
X0000852755Y0001522047D02*
X0000852755Y0001267716D01*
D24*
X0001531618Y0000704723D02*
G75*
G03X0001531618Y0000704723I-0000443035D01*
G01*
D27*
X0000336107Y0001456824D02*
X0000337982Y0001454949D01*
X0000339857Y0001449325D01*
X0000339857Y0001445575D01*
X0000337982Y0001439951D01*
X0000334233Y0001436201D01*
X0000330483Y0001434326D01*
X0000322984Y0001432452D01*
X0000317360Y0001432452D01*
X0000309861Y0001434326D01*
X0000306111Y0001436201D01*
X0000302362Y0001439951D01*
X0000300487Y0001445575D01*
X0000300487Y0001449325D01*
X0000302362Y0001454949D01*
X0000304236Y0001456824D01*
X0000339857Y0001494319D02*
X0000339857Y0001471822D01*
X0000339857Y0001483070D02*
X0000300487Y0001483070D01*
X0000306111Y0001479321D01*
X0000309861Y0001475571D01*
X0000311735Y0001471822D01*
X0001759523Y0001381402D02*
X0001759523Y0001420772D01*
X0001768897Y0001420772D01*
X0001774521Y0001418897D01*
X0001778271Y0001415148D01*
X0001780146Y0001411397D01*
X0001782020Y0001403899D01*
X0001782020Y0001398274D01*
X0001780146Y0001390776D01*
X0001778271Y0001387026D01*
X0001774521Y0001383277D01*
X0001768897Y0001381402D01*
X0001759523Y0001381402D01*
X0001795144Y0001420772D02*
X0001819516Y0001420772D01*
X0001806392Y0001405774D01*
X0001812017Y0001405774D01*
X0001815766Y0001403899D01*
X0001817641Y0001402024D01*
X0001819516Y0001398274D01*
X0001819516Y0001388901D01*
X0001817641Y0001385151D01*
X0001815766Y0001383277D01*
X0001812017Y0001381402D01*
X0001800768Y0001381402D01*
X0001797019Y0001383277D01*
X0001795144Y0001385151D01*
X0001759523Y0001455811D02*
X0001759523Y0001495181D01*
X0001768897Y0001495181D01*
X0001774521Y0001493307D01*
X0001778271Y0001489556D01*
X0001780146Y0001485808D01*
X0001782020Y0001478307D01*
X0001782020Y0001472684D01*
X0001780146Y0001465184D01*
X0001778271Y0001461436D01*
X0001774521Y0001457686D01*
X0001768897Y0001455811D01*
X0001759523Y0001455811D01*
X0001815766Y0001482058D02*
X0001815766Y0001455811D01*
X0001806392Y0001497056D02*
X0001797019Y0001468935D01*
X0001821391Y0001468935D01*
X0000647394Y0001297150D02*
X0000647394Y0001336520D01*
X0000688638Y0001300899D02*
X0000686764Y0001299025D01*
X0000681139Y0001297150D01*
X0000677390Y0001297150D01*
X0000671766Y0001299025D01*
X0000668016Y0001302774D01*
X0000666141Y0001306523D01*
X0000664266Y0001314023D01*
X0000664266Y0001319646D01*
X0000666141Y0001327146D01*
X0000668016Y0001330895D01*
X0000671766Y0001334645D01*
X0000677390Y0001336520D01*
X0000681139Y0001336520D01*
X0000686764Y0001334645D01*
X0000688638Y0001332769D01*
X0000726134Y0001297150D02*
X0000703637Y0001297150D01*
X0000714884Y0001297150D02*
X0000714884Y0001336520D01*
X0000711136Y0001330895D01*
X0000707386Y0001327146D01*
X0000703637Y0001325271D01*
X0002100487Y0001392200D02*
X0002061116Y0001392200D01*
X0002061116Y0001407199D01*
X0002062992Y0001410948D01*
X0002064865Y0001412823D01*
X0002068616Y0001414698D01*
X0002074240Y0001414698D01*
X0002077989Y0001412823D01*
X0002079864Y0001410948D01*
X0002081738Y0001407199D01*
X0002081738Y0001392200D01*
X0002100487Y0001452193D02*
X0002100487Y0001429696D01*
X0002100487Y0001440944D02*
X0002061116Y0001440944D01*
X0002066741Y0001437195D01*
X0002070491Y0001433445D01*
X0002072365Y0001429696D01*
X0001588320Y0001226284D02*
X0001575196Y0001245031D01*
X0001565823Y0001226284D02*
X0001565823Y0001265654D01*
X0001580821Y0001265654D01*
X0001584570Y0001263779D01*
X0001586445Y0001261904D01*
X0001588320Y0001258155D01*
X0001588320Y0001252530D01*
X0001586445Y0001248781D01*
X0001584570Y0001246906D01*
X0001580821Y0001245031D01*
X0001565823Y0001245031D01*
X0001625815Y0001226284D02*
X0001603318Y0001226284D01*
X0001614566Y0001226284D02*
X0001614566Y0001265654D01*
X0001610817Y0001260030D01*
X0001607067Y0001256280D01*
X0001603318Y0001254405D01*
X0001589107Y0001310142D02*
X0001575984Y0001328890D01*
X0001566610Y0001310142D02*
X0001566610Y0001349512D01*
X0001581608Y0001349512D01*
X0001585357Y0001347637D01*
X0001587231Y0001345763D01*
X0001589107Y0001342013D01*
X0001589107Y0001336389D01*
X0001587231Y0001332639D01*
X0001585357Y0001330764D01*
X0001581608Y0001328890D01*
X0001566610Y0001328890D01*
X0001604105Y0001345763D02*
X0001605980Y0001347637D01*
X0001609729Y0001349512D01*
X0001619103Y0001349512D01*
X0001622852Y0001347637D01*
X0001624727Y0001345763D01*
X0001626602Y0001342013D01*
X0001626602Y0001338263D01*
X0001624727Y0001332639D01*
X0001602230Y0001310142D01*
X0001626602Y0001310142D01*
X0001518241Y0001547937D02*
X0001505118Y0001566685D01*
X0001495744Y0001547937D02*
X0001495744Y0001587307D01*
X0001510742Y0001587307D01*
X0001514491Y0001585433D01*
X0001516366Y0001583558D01*
X0001518241Y0001579808D01*
X0001518241Y0001574184D01*
X0001516366Y0001570434D01*
X0001514491Y0001568560D01*
X0001510742Y0001566685D01*
X0001495744Y0001566685D01*
X0001531364Y0001587307D02*
X0001555736Y0001587307D01*
X0001542613Y0001572309D01*
X0001548237Y0001572309D01*
X0001551987Y0001570434D01*
X0001553862Y0001568560D01*
X0001555736Y0001564810D01*
X0001555736Y0001555436D01*
X0001553862Y0001551687D01*
X0001551987Y0001549812D01*
X0001548237Y0001547937D01*
X0001536989Y0001547937D01*
X0001533239Y0001549812D01*
X0001531364Y0001551687D01*
X0000279227Y0001077296D02*
X0000260479Y0001064173D01*
X0000279227Y0001054799D02*
X0000239857Y0001054799D01*
X0000239857Y0001069797D01*
X0000241732Y0001073547D01*
X0000243607Y0001075421D01*
X0000247356Y0001077296D01*
X0000252979Y0001077296D01*
X0000256730Y0001075421D01*
X0000258604Y0001073547D01*
X0000260479Y0001069797D01*
X0000260479Y0001054799D01*
X0000252979Y0001111042D02*
X0000279227Y0001111042D01*
X0000237982Y0001101668D02*
X0000266104Y0001092294D01*
X0000266104Y0001116666D01*
X0001155305Y0001342388D02*
X0001157180Y0001348012D01*
X0001157180Y0001357386D01*
X0001155305Y0001361136D01*
X0001153430Y0001363010D01*
X0001149681Y0001364885D01*
X0001145931Y0001364885D01*
X0001142182Y0001363010D01*
X0001140307Y0001361136D01*
X0001138432Y0001357386D01*
X0001136557Y0001349887D01*
X0001134683Y0001346137D01*
X0001132808Y0001344263D01*
X0001129058Y0001342388D01*
X0001125309Y0001342388D01*
X0001121559Y0001344263D01*
X0001119685Y0001346137D01*
X0001117810Y0001349887D01*
X0001117810Y0001359261D01*
X0001119685Y0001364885D01*
X0001117810Y0001378009D02*
X0001157180Y0001387382D01*
X0001129058Y0001394881D01*
X0001157180Y0001402380D01*
X0001117810Y0001411754D01*
X0001157180Y0001447375D02*
X0001157180Y0001424878D01*
X0001157180Y0001436126D02*
X0001117810Y0001436126D01*
X0001123434Y0001432377D01*
X0001127184Y0001428627D01*
X0001129058Y0001424878D01*
X0001053712Y0000337457D02*
X0001059336Y0000335583D01*
X0001061211Y0000333708D01*
X0001063085Y0000329958D01*
X0001063085Y0000324334D01*
X0001061211Y0000320584D01*
X0001059336Y0000318710D01*
X0001055586Y0000316835D01*
X0001040588Y0000316835D01*
X0001040588Y0000356205D01*
X0001053712Y0000356205D01*
X0001057461Y0000354330D01*
X0001059336Y0000352454D01*
X0001061211Y0000348706D01*
X0001061211Y0000344956D01*
X0001059336Y0000341207D01*
X0001057461Y0000339331D01*
X0001053712Y0000337457D01*
X0001040588Y0000337457D01*
X0001074334Y0000356205D02*
X0001096831Y0000356205D01*
X0001085583Y0000316835D02*
X0001085583Y0000356205D01*
X0001130577Y0000316835D02*
X0001108080Y0000316835D01*
X0001119328Y0000316835D02*
X0001119328Y0000356205D01*
X0001115579Y0000350581D01*
X0001111829Y0000346831D01*
X0001108080Y0000344956D01*
X0000377765Y0000891451D02*
X0000527746Y0000891451D01*
X0000452755Y0000816460D02*
X0000452755Y0000966441D01*
G04 next file*
G04 #@! TF.FileFunction,Legend,Top*
G04 Gerber Fmt 4.6, Leading zero omitted, Abs format (unit mm)*
G04 Created by KiCad (PCBNEW 4.0.4+e1-6308~48~ubuntu16.04.1-stable) date Tue May  2 14:04:53 2017*
G01*
G04 APERTURE LIST*
G04 APERTURE END LIST*
D38*
D39*
X0000492125Y0003055961D02*
X0000492125Y0003041901D01*
X0000478065Y0003047525D02*
X0000492125Y0003041901D01*
X0000506186Y0003047525D01*
X0000483689Y0003030652D02*
X0000492125Y0003041901D01*
X0000500561Y0003030652D01*
D40*
X0000494093Y0003271653D02*
X0000494093Y0003311023D01*
X0000427165Y0003311023D02*
X0000427165Y0003271653D01*
X0001826771Y0003214566D02*
X0001826771Y0003281496D01*
X0001826771Y0003281496D02*
X0001702755Y0003281496D01*
X0001826771Y0003214566D02*
X0001702755Y0003214566D01*
X0001826771Y0003297244D02*
X0001826771Y0003364173D01*
X0001826771Y0003364173D02*
X0001702755Y0003364173D01*
X0001826771Y0003297244D02*
X0001702755Y0003297244D01*
D41*
X0000506299Y0003334094D02*
X0000706299Y0003334094D01*
X0000706299Y0003334094D02*
X0000706299Y0003154094D01*
X0000706299Y0003154094D02*
X0000506299Y0003154094D01*
X0000506299Y0003154094D02*
X0000506299Y0003334094D01*
X0000506299Y0003274094D02*
X0000526299Y0003274094D01*
X0000526299Y0003274094D02*
X0000526299Y0003224094D01*
X0000526299Y0003224094D02*
X0000506299Y0003224094D01*
D40*
X0001962401Y0003570275D02*
X0002054133Y0003570275D01*
X0001962401Y0002980118D02*
X0002045866Y0002980118D01*
X0001962401Y0003570275D02*
X0001962401Y0002980118D01*
X0002517125Y0003570275D02*
X0002517125Y0002980118D01*
X0002170669Y0003570275D02*
X0002517125Y0003570275D01*
X0002178543Y0002980118D02*
X0002517125Y0002980118D01*
X0001578740Y0003051968D02*
X0001531495Y0003051968D01*
X0001531495Y0003121259D02*
X0001578740Y0003121259D01*
X0001578740Y0003146456D02*
X0001531495Y0003146456D01*
X0001531495Y0003215748D02*
X0001578740Y0003215748D01*
X0001771653Y0003386614D02*
X0001724409Y0003386614D01*
X0001724409Y0003455905D02*
X0001771653Y0003455905D01*
X0000370866Y0002901573D02*
X0000370866Y0002948818D01*
X0000440157Y0002948818D02*
X0000440157Y0002901573D01*
X0001185826Y0003118110D02*
X0001184645Y0003118110D01*
X0000931496Y0003118110D02*
X0000932677Y0003118110D01*
X0000931496Y0003372440D02*
X0000932677Y0003372440D01*
X0001184645Y0003372440D02*
X0001185826Y0003372440D01*
X0001109842Y0003118110D02*
X0001007479Y0003118110D01*
X0001185826Y0003372440D02*
X0001185826Y0003118110D01*
X0001109842Y0003372440D02*
X0001007479Y0003372440D01*
X0000931496Y0003372440D02*
X0000931496Y0003118110D01*
D38*
X0001610357Y0002555118D02*
G75*
G03X0001610357Y0002555118I-0000443035D01*
G01*
D41*
X0000414848Y0003307217D02*
X0000416722Y0003305343D01*
X0000418596Y0003299718D01*
X0000418596Y0003295969D01*
X0000416722Y0003290344D01*
X0000412973Y0003286595D01*
X0000409223Y0003284720D01*
X0000401724Y0003282845D01*
X0000396100Y0003282845D01*
X0000388601Y0003284720D01*
X0000384850Y0003286595D01*
X0000381102Y0003290344D01*
X0000379227Y0003295969D01*
X0000379227Y0003299718D01*
X0000381102Y0003305343D01*
X0000382977Y0003307217D01*
X0000418596Y0003344713D02*
X0000418596Y0003322215D01*
X0000418596Y0003333464D02*
X0000379227Y0003333464D01*
X0000384850Y0003329715D01*
X0000388601Y0003325965D01*
X0000390476Y0003322215D01*
X0001838263Y0003231796D02*
X0001838263Y0003271166D01*
X0001847637Y0003271166D01*
X0001853262Y0003269291D01*
X0001857011Y0003265540D01*
X0001858886Y0003261792D01*
X0001860761Y0003254293D01*
X0001860761Y0003248668D01*
X0001858886Y0003241169D01*
X0001857011Y0003237420D01*
X0001853262Y0003233670D01*
X0001847637Y0003231796D01*
X0001838263Y0003231796D01*
X0001873884Y0003271166D02*
X0001898256Y0003271166D01*
X0001885133Y0003256167D01*
X0001890757Y0003256167D01*
X0001894506Y0003254293D01*
X0001896381Y0003252418D01*
X0001898256Y0003248668D01*
X0001898256Y0003239294D01*
X0001896381Y0003235545D01*
X0001894506Y0003233670D01*
X0001890757Y0003231796D01*
X0001879508Y0003231796D01*
X0001875758Y0003233670D01*
X0001873884Y0003235545D01*
X0001838263Y0003306205D02*
X0001838263Y0003345575D01*
X0001847637Y0003345575D01*
X0001853262Y0003343700D01*
X0001857011Y0003339950D01*
X0001858886Y0003336201D01*
X0001860761Y0003328702D01*
X0001860761Y0003323078D01*
X0001858886Y0003315578D01*
X0001857011Y0003311829D01*
X0001853262Y0003308080D01*
X0001847637Y0003306205D01*
X0001838263Y0003306205D01*
X0001894506Y0003332452D02*
X0001894506Y0003306205D01*
X0001885133Y0003347450D02*
X0001875758Y0003319328D01*
X0001900130Y0003319328D01*
X0000726134Y0003147543D02*
X0000726134Y0003186914D01*
X0000767379Y0003151293D02*
X0000765504Y0003149417D01*
X0000759880Y0003147543D01*
X0000756130Y0003147543D01*
X0000750506Y0003149417D01*
X0000746756Y0003153168D01*
X0000744881Y0003156917D01*
X0000743007Y0003164416D01*
X0000743007Y0003170041D01*
X0000744881Y0003177540D01*
X0000746756Y0003181289D01*
X0000750506Y0003185039D01*
X0000756130Y0003186914D01*
X0000759880Y0003186914D01*
X0000765504Y0003185039D01*
X0000767379Y0003183164D01*
X0000804874Y0003147543D02*
X0000782377Y0003147543D01*
X0000793625Y0003147543D02*
X0000793625Y0003186914D01*
X0000789876Y0003181289D01*
X0000786126Y0003177540D01*
X0000782377Y0003175665D01*
X0002179227Y0003242593D02*
X0002139857Y0003242593D01*
X0002139857Y0003257592D01*
X0002141732Y0003261342D01*
X0002143607Y0003263217D01*
X0002147356Y0003265091D01*
X0002152980Y0003265091D01*
X0002156730Y0003263217D01*
X0002158605Y0003261342D01*
X0002160479Y0003257592D01*
X0002160479Y0003242593D01*
X0002179227Y0003302587D02*
X0002179227Y0003280090D01*
X0002179227Y0003291337D02*
X0002139857Y0003291337D01*
X0002145481Y0003287589D01*
X0002149231Y0003283839D01*
X0002151106Y0003280090D01*
X0001667060Y0003076677D02*
X0001653936Y0003095425D01*
X0001644563Y0003076677D02*
X0001644563Y0003116047D01*
X0001659561Y0003116047D01*
X0001663310Y0003114173D01*
X0001665184Y0003112298D01*
X0001667060Y0003108548D01*
X0001667060Y0003102924D01*
X0001665184Y0003099175D01*
X0001663310Y0003097300D01*
X0001659561Y0003095425D01*
X0001644563Y0003095425D01*
X0001704555Y0003076677D02*
X0001682058Y0003076677D01*
X0001693307Y0003076677D02*
X0001693307Y0003116047D01*
X0001689556Y0003110423D01*
X0001685808Y0003106674D01*
X0001682058Y0003104798D01*
X0001667847Y0003160536D02*
X0001654724Y0003179283D01*
X0001645350Y0003160536D02*
X0001645350Y0003199906D01*
X0001660348Y0003199906D01*
X0001664098Y0003198030D01*
X0001665973Y0003196156D01*
X0001667847Y0003192407D01*
X0001667847Y0003186782D01*
X0001665973Y0003183033D01*
X0001664098Y0003181158D01*
X0001660348Y0003179283D01*
X0001645350Y0003179283D01*
X0001682845Y0003196156D02*
X0001684720Y0003198030D01*
X0001688470Y0003199906D01*
X0001697844Y0003199906D01*
X0001701593Y0003198030D01*
X0001703468Y0003196156D01*
X0001705343Y0003192407D01*
X0001705343Y0003188657D01*
X0001703468Y0003183033D01*
X0001680971Y0003160536D01*
X0001705343Y0003160536D01*
X0001596981Y0003398331D02*
X0001583858Y0003417079D01*
X0001574484Y0003398331D02*
X0001574484Y0003437701D01*
X0001589482Y0003437701D01*
X0001593231Y0003435826D01*
X0001595106Y0003433952D01*
X0001596981Y0003430202D01*
X0001596981Y0003424578D01*
X0001595106Y0003420828D01*
X0001593231Y0003418953D01*
X0001589482Y0003417079D01*
X0001574484Y0003417079D01*
X0001610105Y0003437701D02*
X0001634476Y0003437701D01*
X0001621353Y0003422703D01*
X0001626977Y0003422703D01*
X0001630726Y0003420828D01*
X0001632602Y0003418953D01*
X0001634476Y0003415204D01*
X0001634476Y0003405830D01*
X0001632602Y0003402080D01*
X0001630726Y0003400206D01*
X0001626977Y0003398331D01*
X0001615729Y0003398331D01*
X0001611979Y0003400206D01*
X0001610105Y0003402080D01*
X0000357967Y0002927690D02*
X0000339219Y0002914566D01*
X0000357967Y0002905193D02*
X0000318597Y0002905193D01*
X0000318597Y0002920191D01*
X0000320472Y0002923940D01*
X0000322347Y0002925815D01*
X0000326096Y0002927690D01*
X0000331721Y0002927690D01*
X0000335470Y0002925815D01*
X0000337345Y0002923940D01*
X0000339219Y0002920191D01*
X0000339219Y0002905193D01*
X0000331721Y0002961436D02*
X0000357967Y0002961436D01*
X0000316722Y0002952062D02*
X0000344844Y0002942688D01*
X0000344844Y0002967060D01*
X0001234045Y0003192782D02*
X0001235920Y0003198406D01*
X0001235920Y0003207780D01*
X0001234045Y0003211529D01*
X0001232170Y0003213404D01*
X0001228421Y0003215279D01*
X0001224671Y0003215279D01*
X0001220922Y0003213404D01*
X0001219047Y0003211529D01*
X0001217172Y0003207780D01*
X0001215298Y0003200281D01*
X0001213423Y0003196531D01*
X0001211548Y0003194656D01*
X0001207799Y0003192782D01*
X0001204049Y0003192782D01*
X0001200299Y0003194656D01*
X0001198425Y0003196531D01*
X0001196550Y0003200281D01*
X0001196550Y0003209655D01*
X0001198425Y0003215279D01*
X0001196550Y0003228402D02*
X0001235920Y0003237776D01*
X0001207799Y0003245275D01*
X0001235920Y0003252774D01*
X0001196550Y0003262148D01*
X0001235920Y0003297769D02*
X0001235920Y0003275271D01*
X0001235920Y0003286520D02*
X0001196550Y0003286520D01*
X0001202174Y0003282770D01*
X0001205924Y0003279021D01*
X0001207799Y0003275271D01*
X0001132452Y0002187851D02*
X0001138076Y0002185976D01*
X0001139951Y0002184101D01*
X0001141826Y0002180352D01*
X0001141826Y0002174728D01*
X0001139951Y0002170978D01*
X0001138076Y0002169103D01*
X0001134326Y0002167229D01*
X0001119328Y0002167229D01*
X0001119328Y0002206599D01*
X0001132452Y0002206599D01*
X0001136201Y0002204724D01*
X0001138076Y0002202849D01*
X0001139951Y0002199100D01*
X0001139951Y0002195350D01*
X0001138076Y0002191601D01*
X0001136201Y0002189726D01*
X0001132452Y0002187851D01*
X0001119328Y0002187851D01*
X0001153074Y0002206599D02*
X0001175571Y0002206599D01*
X0001164323Y0002167229D02*
X0001164323Y0002206599D01*
X0001209317Y0002167229D02*
X0001186820Y0002167229D01*
X0001198068Y0002167229D02*
X0001198068Y0002206599D01*
X0001194319Y0002200974D01*
X0001190569Y0002197225D01*
X0001186820Y0002195350D01*
X0000456505Y0002741844D02*
X0000606486Y0002741844D01*
X0000531496Y0002666854D02*
X0000531496Y0002816834D01*
M02*