G04 #@! TF.FileFunction,Legend,Bot*
%FSLAX46Y46*%
G04 Gerber Fmt 4.6, Leading zero omitted, Abs format (unit mm)*
G04 Created by KiCad (PCBNEW 4.0.4+e1-6308~48~ubuntu16.04.1-stable) date Tue May  2 22:28:17 2017*
%MOMM*%
%LPD*%
G01*
G04 APERTURE LIST*
%ADD10C,0.100000*%
%ADD11C,0.300000*%
%ADD12C,0.150000*%
%ADD13C,0.010000*%
%ADD14R,1.200000X2.600000*%
%ADD15C,2.300000*%
%ADD16C,3.400000*%
G04 APERTURE END LIST*
D10*
D11*
X153830635Y-78938733D02*
X153570162Y-77461521D01*
X153218445Y-77523538D01*
X153019819Y-77631092D01*
X152903938Y-77796586D01*
X152858402Y-77949676D01*
X152837672Y-78243454D01*
X152874883Y-78454483D01*
X152994840Y-78723454D01*
X153089990Y-78851738D01*
X153255485Y-78967617D01*
X153478917Y-79000750D01*
X153830635Y-78938733D01*
X151778273Y-79228089D02*
X151931363Y-79273625D01*
X152212736Y-79224012D01*
X152341020Y-79128862D01*
X152386557Y-78975772D01*
X152287329Y-78413024D01*
X152192178Y-78284741D01*
X152039088Y-78239204D01*
X151757715Y-78288818D01*
X151629432Y-78383968D01*
X151583895Y-78537059D01*
X151608701Y-78677745D01*
X152336943Y-78694398D01*
X151145182Y-79339720D02*
X151016899Y-79434870D01*
X150735525Y-79484484D01*
X150582435Y-79438948D01*
X150487285Y-79310665D01*
X150474881Y-79240321D01*
X150520417Y-79087231D01*
X150648701Y-78992080D01*
X150859731Y-78954870D01*
X150988014Y-78859720D01*
X151033551Y-78706630D01*
X151021148Y-78636286D01*
X150925997Y-78508003D01*
X150772907Y-78462466D01*
X150561876Y-78499676D01*
X150433593Y-78594827D01*
X149891404Y-79633325D02*
X149717755Y-78648518D01*
X149630931Y-78156114D02*
X149713679Y-78214054D01*
X149655738Y-78296801D01*
X149572992Y-78238861D01*
X149630931Y-78156114D01*
X149655738Y-78296801D01*
X148381230Y-78884183D02*
X148592089Y-80080021D01*
X148687240Y-80208304D01*
X148769986Y-80266245D01*
X148923076Y-80311781D01*
X149134107Y-80274571D01*
X149262390Y-80179421D01*
X148542475Y-79798648D02*
X148695565Y-79844184D01*
X148976939Y-79794570D01*
X149105223Y-79699420D01*
X149163162Y-79616673D01*
X149208699Y-79463583D01*
X149134279Y-79041523D01*
X149039128Y-78913240D01*
X148956382Y-78855299D01*
X148803291Y-78809762D01*
X148521917Y-78859376D01*
X148393634Y-78954527D01*
X147677796Y-79008217D02*
X147851444Y-79993025D01*
X147702603Y-79148905D02*
X147619857Y-79090965D01*
X147466766Y-79045428D01*
X147255736Y-79082638D01*
X147127453Y-79177789D01*
X147081916Y-79330879D01*
X147218354Y-80104656D01*
X145939769Y-80257575D02*
X146092859Y-80303111D01*
X146374233Y-80253497D01*
X146502516Y-80158348D01*
X146548053Y-80005258D01*
X146448825Y-79442510D01*
X146353675Y-79314227D01*
X146200584Y-79268690D01*
X145919211Y-79318303D01*
X145790928Y-79413454D01*
X145745391Y-79566544D01*
X145770198Y-79707231D01*
X146498439Y-79723883D01*
X144615648Y-80563583D02*
X144355175Y-79086372D01*
X144603244Y-80493241D02*
X144756334Y-80538777D01*
X145037708Y-80489163D01*
X145165992Y-80394013D01*
X145223931Y-80311266D01*
X145269468Y-80158176D01*
X145195048Y-79736116D01*
X145099897Y-79607832D01*
X145017151Y-79549892D01*
X144864060Y-79504355D01*
X144582686Y-79553969D01*
X144454403Y-79649120D01*
X142786719Y-80886073D02*
X142526247Y-79408861D01*
X142625474Y-79971609D02*
X142472384Y-79926072D01*
X142191011Y-79975686D01*
X142062727Y-80070836D01*
X142004787Y-80153584D01*
X141959250Y-80306674D01*
X142033671Y-80728734D01*
X142128821Y-80857017D01*
X142211569Y-80914958D01*
X142364659Y-80960494D01*
X142646032Y-80910880D01*
X142774315Y-80815730D01*
X141417232Y-80112124D02*
X141239163Y-81158949D01*
X140713799Y-80236158D02*
X141239163Y-81158949D01*
X141441868Y-81485859D01*
X141524615Y-81543799D01*
X141677705Y-81589335D01*
X139199205Y-81518648D02*
X138938733Y-80041437D01*
X138375986Y-80140664D01*
X138247702Y-80235815D01*
X138189763Y-80318562D01*
X138144226Y-80471652D01*
X138181436Y-80682682D01*
X138276587Y-80810966D01*
X138359333Y-80868906D01*
X138512424Y-80914442D01*
X139075171Y-80815215D01*
X137146843Y-81808005D02*
X137299933Y-81853541D01*
X137581307Y-81803928D01*
X137709590Y-81708778D01*
X137755127Y-81555688D01*
X137655899Y-80992940D01*
X137560749Y-80864657D01*
X137407659Y-80819120D01*
X137126285Y-80868734D01*
X136998002Y-80963884D01*
X136952465Y-81116974D01*
X136977272Y-81257661D01*
X137705513Y-81274313D01*
X136493195Y-80980364D02*
X135930447Y-81079592D01*
X136195340Y-80525171D02*
X136418602Y-81791353D01*
X136373066Y-81944443D01*
X136244782Y-82039593D01*
X136104095Y-82064400D01*
X135036541Y-82180109D02*
X135189631Y-82225644D01*
X135471004Y-82176031D01*
X135599288Y-82080881D01*
X135644825Y-81927791D01*
X135545597Y-81365043D01*
X135450447Y-81236760D01*
X135297356Y-81191223D01*
X135015983Y-81240837D01*
X134887700Y-81335987D01*
X134842163Y-81489078D01*
X134866970Y-81629764D01*
X135595211Y-81646417D01*
X134345510Y-82374486D02*
X134171862Y-81389678D01*
X134221476Y-81671052D02*
X134126326Y-81542769D01*
X134043579Y-81484829D01*
X133890489Y-81439292D01*
X133749802Y-81464099D01*
X131676710Y-82047232D02*
X132169114Y-81960408D01*
X132305552Y-82734186D02*
X132045079Y-81256974D01*
X131341645Y-81381008D01*
X131039371Y-82957447D02*
X130865722Y-81972640D01*
X130778898Y-81480236D02*
X130861646Y-81538176D01*
X130803705Y-81620923D01*
X130720959Y-81562983D01*
X130778898Y-81480236D01*
X130803705Y-81620923D01*
X130124906Y-83118692D02*
X130253190Y-83023542D01*
X130298726Y-82870452D01*
X130075464Y-81604270D01*
X129351128Y-83255130D02*
X129479413Y-83159980D01*
X129524949Y-83006890D01*
X129301687Y-81740708D01*
X128788382Y-83354357D02*
X128614734Y-82369550D01*
X128639541Y-82510237D02*
X128556794Y-82452297D01*
X128403703Y-82406760D01*
X128192674Y-82443970D01*
X128064390Y-82539121D01*
X128018853Y-82692211D01*
X128155291Y-83465988D01*
X128018853Y-82692211D02*
X127923703Y-82563928D01*
X127770612Y-82518391D01*
X127559583Y-82555601D01*
X127431299Y-82650752D01*
X127385763Y-82803842D01*
X127522201Y-83577619D01*
X126607736Y-83738864D02*
X126736020Y-83643714D01*
X126793959Y-83560967D01*
X126839496Y-83407877D01*
X126765076Y-82985817D01*
X126669925Y-82857534D01*
X126587179Y-82799593D01*
X126434088Y-82754056D01*
X126223058Y-82791267D01*
X126094775Y-82886417D01*
X126036835Y-82969165D01*
X125991298Y-83122255D01*
X126065718Y-83544315D01*
X126160869Y-83672598D01*
X126243616Y-83730538D01*
X126396706Y-83776074D01*
X126607736Y-83738864D01*
X125482241Y-83937319D02*
X125308593Y-82952511D01*
X125358207Y-83233886D02*
X125263057Y-83105602D01*
X125180310Y-83047662D01*
X125027220Y-83002125D01*
X124886533Y-83026932D01*
X123992627Y-84127448D02*
X124145717Y-84172984D01*
X124427091Y-84123371D01*
X124555374Y-84028221D01*
X124600911Y-83875131D01*
X124501683Y-83312383D01*
X124406533Y-83184100D01*
X124253442Y-83138563D01*
X123972069Y-83188177D01*
X123843786Y-83283327D01*
X123798249Y-83436418D01*
X123823056Y-83577104D01*
X124551297Y-83593757D01*
D10*
X139546492Y-90309950D02*
X139546492Y-90309950D01*
X139546362Y-90310032D02*
X139546492Y-90309950D01*
X139558244Y-90786708D02*
X139546362Y-90310032D01*
X139593857Y-91257133D02*
X139558244Y-90786708D01*
X139652616Y-91720720D02*
X139593857Y-91257133D01*
X139733933Y-92176892D02*
X139652616Y-91720720D01*
X139837232Y-92625064D02*
X139733933Y-92176892D01*
X139961926Y-93064656D02*
X139837232Y-92625064D01*
X140107434Y-93495082D02*
X139961926Y-93064656D01*
X140273175Y-93915762D02*
X140107434Y-93495082D01*
X140458566Y-94326110D02*
X140273175Y-93915762D01*
X140663028Y-94725551D02*
X140458566Y-94326110D01*
X140885972Y-95113496D02*
X140663028Y-94725551D01*
X141126821Y-95489365D02*
X140885972Y-95113496D01*
X141384992Y-95852577D02*
X141126821Y-95489365D01*
X141659902Y-96202550D02*
X141384992Y-95852577D01*
X141950969Y-96538696D02*
X141659902Y-96202550D01*
X142257612Y-96860441D02*
X141950969Y-96538696D01*
X142579249Y-97167194D02*
X142257612Y-96860441D01*
X142915294Y-97458379D02*
X142579249Y-97167194D01*
X143265170Y-97733410D02*
X142915294Y-97458379D01*
X143628292Y-97991709D02*
X143265170Y-97733410D01*
X144004076Y-98232687D02*
X143628292Y-97991709D01*
X144391946Y-98455769D02*
X144004076Y-98232687D01*
X144791313Y-98660366D02*
X144391946Y-98455769D01*
X145201599Y-98845902D02*
X144791313Y-98660366D01*
X145622223Y-99011790D02*
X145201599Y-98845902D01*
X146052598Y-99157447D02*
X145622223Y-99011790D01*
X146492145Y-99282297D02*
X146052598Y-99157447D01*
X146940280Y-99385751D02*
X146492145Y-99282297D01*
X147396424Y-99467228D02*
X146940280Y-99385751D01*
X147859991Y-99526148D02*
X147396424Y-99467228D01*
X148330402Y-99561925D02*
X147859991Y-99526148D01*
X148807075Y-99573976D02*
X148330402Y-99561925D01*
X148926797Y-99573130D02*
X148807075Y-99573976D01*
X149046157Y-99570872D02*
X148926797Y-99573130D01*
X149165142Y-99567090D02*
X149046157Y-99570872D01*
X149283746Y-99561841D02*
X149165142Y-99567090D01*
X149401957Y-99555096D02*
X149283746Y-99561841D01*
X149519771Y-99546883D02*
X149401957Y-99555096D01*
X149637173Y-99537203D02*
X149519771Y-99546883D01*
X149754156Y-99526055D02*
X149637173Y-99537203D01*
X149870711Y-99513468D02*
X149754156Y-99526055D01*
X149986832Y-99499441D02*
X149870711Y-99513468D01*
X150102506Y-99484004D02*
X149986832Y-99499441D01*
X150217723Y-99467127D02*
X150102506Y-99484004D01*
X150332478Y-99448839D02*
X150217723Y-99467127D01*
X150446761Y-99429168D02*
X150332478Y-99448839D01*
X150560558Y-99408086D02*
X150446761Y-99429168D01*
X150673868Y-99385649D02*
X150560558Y-99408086D01*
X150786675Y-99361830D02*
X150673868Y-99385649D01*
X150898974Y-99336656D02*
X150786675Y-99361830D01*
X151010751Y-99310098D02*
X150898974Y-99336656D01*
X151122003Y-99282215D02*
X151010751Y-99310098D01*
X151232719Y-99252985D02*
X151122003Y-99282215D01*
X151342887Y-99222429D02*
X151232719Y-99252985D01*
X151452502Y-99190552D02*
X151342887Y-99222429D01*
X151561550Y-99157365D02*
X151452502Y-99190552D01*
X151670028Y-99122881D02*
X151561550Y-99157365D01*
X151777921Y-99087103D02*
X151670028Y-99122881D01*
X151885225Y-99050042D02*
X151777921Y-99087103D01*
X151991925Y-99011708D02*
X151885225Y-99050042D01*
X152098018Y-98972109D02*
X151991925Y-99011708D01*
X152203493Y-98931257D02*
X152098018Y-98972109D01*
X152308338Y-98889155D02*
X152203493Y-98931257D01*
X152412549Y-98845820D02*
X152308338Y-98889155D01*
X152516110Y-98801255D02*
X152412549Y-98845820D01*
X152619020Y-98755472D02*
X152516110Y-98801255D01*
X152721263Y-98708480D02*
X152619020Y-98755472D01*
X152822835Y-98660285D02*
X152721263Y-98708480D01*
X152923724Y-98610901D02*
X152822835Y-98660285D01*
X153023918Y-98560333D02*
X152923724Y-98610901D01*
X153123416Y-98508593D02*
X153023918Y-98560333D01*
X153222202Y-98455688D02*
X153123416Y-98508593D01*
X153320271Y-98401628D02*
X153222202Y-98455688D01*
X153417610Y-98346420D02*
X153320271Y-98401628D01*
X153514214Y-98290077D02*
X153417610Y-98346420D01*
X153610071Y-98232605D02*
X153514214Y-98290077D01*
X153705172Y-98174016D02*
X153610071Y-98232605D01*
X153799510Y-98114317D02*
X153705172Y-98174016D01*
X153893075Y-98053518D02*
X153799510Y-98114317D01*
X153985856Y-97991627D02*
X153893075Y-98053518D01*
X154077846Y-97928652D02*
X153985856Y-97991627D01*
X154169038Y-97864607D02*
X154077846Y-97928652D01*
X154259417Y-97799495D02*
X154169038Y-97864607D01*
X154348977Y-97733328D02*
X154259417Y-97799495D01*
X154437710Y-97666117D02*
X154348977Y-97733328D01*
X154525609Y-97597867D02*
X154437710Y-97666117D01*
X154612657Y-97528593D02*
X154525609Y-97597867D01*
X154698853Y-97458297D02*
X154612657Y-97528593D01*
X154784183Y-97386991D02*
X154698853Y-97458297D01*
X154868641Y-97314689D02*
X154784183Y-97386991D01*
X154952216Y-97241390D02*
X154868641Y-97314689D01*
X155034898Y-97167112D02*
X154952216Y-97241390D01*
X155116683Y-97091860D02*
X155034898Y-97167112D01*
X155197554Y-97015646D02*
X155116683Y-97091860D01*
X155277508Y-96938475D02*
X155197554Y-97015646D01*
X155356536Y-96860359D02*
X155277508Y-96938475D01*
X155434624Y-96781305D02*
X155356536Y-96860359D01*
X155511766Y-96701324D02*
X155434624Y-96781305D01*
X155587955Y-96620425D02*
X155511766Y-96701324D01*
X155663179Y-96538614D02*
X155587955Y-96620425D01*
X155737428Y-96455906D02*
X155663179Y-96538614D01*
X155810693Y-96372306D02*
X155737428Y-96455906D01*
X155882970Y-96287823D02*
X155810693Y-96372306D01*
X155954246Y-96202468D02*
X155882970Y-96287823D01*
X156024511Y-96116249D02*
X155954246Y-96202468D01*
X156093757Y-96029175D02*
X156024511Y-96116249D01*
X156161975Y-95941254D02*
X156093757Y-96029175D01*
X156229155Y-95852495D02*
X156161975Y-95941254D01*
X156295291Y-95762912D02*
X156229155Y-95852495D01*
X156360369Y-95672511D02*
X156295291Y-95762912D01*
X156424386Y-95581297D02*
X156360369Y-95672511D01*
X156487327Y-95489284D02*
X156424386Y-95581297D01*
X156549184Y-95396481D02*
X156487327Y-95489284D01*
X156609952Y-95302896D02*
X156549184Y-95396481D01*
X156669620Y-95208537D02*
X156609952Y-95302896D01*
X156728175Y-95113414D02*
X156669620Y-95208537D01*
X156785613Y-95017538D02*
X156728175Y-95113414D01*
X156841922Y-94920916D02*
X156785613Y-95017538D01*
X156897094Y-94823555D02*
X156841922Y-94920916D01*
X156951119Y-94725469D02*
X156897094Y-94823555D01*
X157003991Y-94626663D02*
X156951119Y-94725469D01*
X157055697Y-94527149D02*
X157003991Y-94626663D01*
X157106232Y-94426934D02*
X157055697Y-94527149D01*
X157155581Y-94326029D02*
X157106232Y-94426934D01*
X157203739Y-94224443D02*
X157155581Y-94326029D01*
X157250696Y-94122182D02*
X157203739Y-94224443D01*
X157296444Y-94019259D02*
X157250696Y-94122182D01*
X157340973Y-93915680D02*
X157296444Y-94019259D01*
X157384271Y-93811456D02*
X157340973Y-93915680D01*
X157426334Y-93706593D02*
X157384271Y-93811456D01*
X157467151Y-93601107D02*
X157426334Y-93706593D01*
X157506713Y-93495000D02*
X157467151Y-93601107D01*
X157545008Y-93388283D02*
X157506713Y-93495000D01*
X157582033Y-93280968D02*
X157545008Y-93388283D01*
X157617773Y-93173060D02*
X157582033Y-93280968D01*
X157652222Y-93064574D02*
X157617773Y-93173060D01*
X157685369Y-92955512D02*
X157652222Y-93064574D01*
X157717206Y-92845886D02*
X157685369Y-92955512D01*
X157747726Y-92735706D02*
X157717206Y-92845886D01*
X157776916Y-92624982D02*
X157747726Y-92735706D01*
X157804771Y-92513722D02*
X157776916Y-92624982D01*
X157831272Y-92401933D02*
X157804771Y-92513722D01*
X157856418Y-92289626D02*
X157831272Y-92401933D01*
X157880209Y-92176810D02*
X157856418Y-92289626D01*
X157902618Y-92063495D02*
X157880209Y-92176810D01*
X157923643Y-91949689D02*
X157902618Y-92063495D01*
X157943286Y-91835401D02*
X157923643Y-91949689D01*
X157961517Y-91720638D02*
X157943286Y-91835401D01*
X157978338Y-91605415D02*
X157961517Y-91720638D01*
X157993747Y-91489735D02*
X157978338Y-91605415D01*
X158007717Y-91373612D02*
X157993747Y-91489735D01*
X158020248Y-91257051D02*
X158007717Y-91373612D01*
X158031339Y-91140061D02*
X158020248Y-91257051D01*
X158040991Y-91022657D02*
X158031339Y-91140061D01*
X158049176Y-90904840D02*
X158040991Y-91022657D01*
X158055864Y-90786626D02*
X158049176Y-90904840D01*
X158061085Y-90668019D02*
X158055864Y-90786626D01*
X158064811Y-90549034D02*
X158061085Y-90668019D01*
X158067068Y-90429674D02*
X158064811Y-90549034D01*
X158067915Y-90309950D02*
X158067068Y-90429674D01*
X158056034Y-89833274D02*
X158067915Y-90309950D01*
X158020420Y-89362849D02*
X158056034Y-89833274D01*
X157961661Y-88899262D02*
X158020420Y-89362849D01*
X157880345Y-88443089D02*
X157961661Y-88899262D01*
X157777046Y-87994918D02*
X157880345Y-88443089D01*
X157652351Y-87555326D02*
X157777046Y-87994918D01*
X157506843Y-87124900D02*
X157652351Y-87555326D01*
X157341103Y-86704220D02*
X157506843Y-87124900D01*
X157155711Y-86293871D02*
X157341103Y-86704220D01*
X156951249Y-85894431D02*
X157155711Y-86293871D01*
X156728305Y-85506485D02*
X156951249Y-85894431D01*
X156487457Y-85130616D02*
X156728305Y-85506485D01*
X156229285Y-84767405D02*
X156487457Y-85130616D01*
X155954375Y-84417432D02*
X156229285Y-84767405D01*
X155663308Y-84081286D02*
X155954375Y-84417432D01*
X155356665Y-83759541D02*
X155663308Y-84081286D01*
X155035028Y-83452788D02*
X155356665Y-83759541D01*
X154698983Y-83161602D02*
X155035028Y-83452788D01*
X154349107Y-82886571D02*
X154698983Y-83161602D01*
X153985986Y-82628273D02*
X154349107Y-82886571D01*
X153610201Y-82387295D02*
X153985986Y-82628273D01*
X153222332Y-82164212D02*
X153610201Y-82387295D01*
X152822965Y-81959615D02*
X153222332Y-82164212D01*
X152412678Y-81774080D02*
X152822965Y-81959615D01*
X151992054Y-81608192D02*
X152412678Y-81774080D01*
X151561680Y-81462534D02*
X151992054Y-81608192D01*
X151122133Y-81337685D02*
X151561680Y-81462534D01*
X150673998Y-81234231D02*
X151122133Y-81337685D01*
X150217853Y-81152753D02*
X150673998Y-81234231D01*
X149754286Y-81093834D02*
X150217853Y-81152753D01*
X149283875Y-81058056D02*
X149754286Y-81093834D01*
X148807205Y-81046005D02*
X149283875Y-81058056D01*
X148330532Y-81058056D02*
X148807205Y-81046005D01*
X147860121Y-81093834D02*
X148330532Y-81058056D01*
X147396554Y-81152753D02*
X147860121Y-81093834D01*
X146940409Y-81234231D02*
X147396554Y-81152753D01*
X146492274Y-81337685D02*
X146940409Y-81234231D01*
X146052727Y-81462534D02*
X146492274Y-81337685D01*
X145622353Y-81608192D02*
X146052727Y-81462534D01*
X145201729Y-81774080D02*
X145622353Y-81608192D01*
X144791442Y-81959615D02*
X145201729Y-81774080D01*
X144392075Y-82164212D02*
X144791442Y-81959615D01*
X144004206Y-82387295D02*
X144392075Y-82164212D01*
X143628422Y-82628273D02*
X144004206Y-82387295D01*
X143265300Y-82886571D02*
X143628422Y-82628273D01*
X142915424Y-83161602D02*
X143265300Y-82886571D01*
X142579379Y-83452788D02*
X142915424Y-83161602D01*
X142257742Y-83759541D02*
X142579379Y-83452788D01*
X141951099Y-84081286D02*
X142257742Y-83759541D01*
X141660032Y-84417432D02*
X141951099Y-84081286D01*
X141385122Y-84767405D02*
X141660032Y-84417432D01*
X141126950Y-85130616D02*
X141385122Y-84767405D01*
X140886102Y-85506485D02*
X141126950Y-85130616D01*
X140663158Y-85894431D02*
X140886102Y-85506485D01*
X140458696Y-86293871D02*
X140663158Y-85894431D01*
X140273304Y-86704220D02*
X140458696Y-86293871D01*
X140107564Y-87124900D02*
X140273304Y-86704220D01*
X139962056Y-87555326D02*
X140107564Y-87124900D01*
X139837361Y-87994918D02*
X139962056Y-87555326D01*
X139734062Y-88443089D02*
X139837361Y-87994918D01*
X139652746Y-88899262D02*
X139734062Y-88443089D01*
X139593987Y-89362849D02*
X139652746Y-88899262D01*
X139558373Y-89833274D02*
X139593987Y-89362849D01*
X139546492Y-90309950D02*
X139558373Y-89833274D01*
X118101300Y-91494888D02*
X118101300Y-91494888D01*
X118101865Y-91578990D02*
X118101300Y-91494888D01*
X118103558Y-91662839D02*
X118101865Y-91578990D01*
X118106098Y-91746421D02*
X118103558Y-91662839D01*
X118109795Y-91829739D02*
X118106098Y-91746421D01*
X118114536Y-91912780D02*
X118109795Y-91829739D01*
X118120294Y-91995542D02*
X118114536Y-91912780D01*
X118127095Y-92078013D02*
X118120294Y-91995542D01*
X118134913Y-92160193D02*
X118127095Y-92078013D01*
X118143746Y-92242071D02*
X118134913Y-92160193D01*
X118153596Y-92323645D02*
X118143746Y-92242071D01*
X118164433Y-92404902D02*
X118153596Y-92323645D01*
X118176287Y-92485844D02*
X118164433Y-92404902D01*
X118189128Y-92566458D02*
X118176287Y-92485844D01*
X118202957Y-92646739D02*
X118189128Y-92566458D01*
X118217745Y-92726681D02*
X118202957Y-92646739D01*
X118233521Y-92806279D02*
X118217745Y-92726681D01*
X118250257Y-92885527D02*
X118233521Y-92806279D01*
X118267952Y-92964414D02*
X118250257Y-92885527D01*
X118286607Y-93042939D02*
X118267952Y-92964414D01*
X118306193Y-93121092D02*
X118286607Y-93042939D01*
X118326711Y-93198870D02*
X118306193Y-93121092D01*
X118348188Y-93276263D02*
X118326711Y-93198870D01*
X118370568Y-93353268D02*
X118348188Y-93276263D01*
X118393880Y-93429877D02*
X118370568Y-93353268D01*
X118418095Y-93506083D02*
X118393880Y-93429877D01*
X118443212Y-93581879D02*
X118418095Y-93506083D01*
X118469233Y-93657261D02*
X118443212Y-93581879D01*
X118496157Y-93732219D02*
X118469233Y-93657261D01*
X118523956Y-93806751D02*
X118496157Y-93732219D01*
X118552650Y-93880848D02*
X118523956Y-93806751D01*
X118582215Y-93954503D02*
X118552650Y-93880848D01*
X118612653Y-94027714D02*
X118582215Y-93954503D01*
X118643954Y-94100468D02*
X118612653Y-94027714D01*
X118676108Y-94172765D02*
X118643954Y-94100468D01*
X118709114Y-94244593D02*
X118676108Y-94172765D01*
X118742963Y-94315950D02*
X118709114Y-94244593D01*
X118777649Y-94386825D02*
X118742963Y-94315950D01*
X118813163Y-94457217D02*
X118777649Y-94386825D01*
X118849505Y-94527118D02*
X118813163Y-94457217D01*
X118886663Y-94596519D02*
X118849505Y-94527118D01*
X118924630Y-94665415D02*
X118886663Y-94596519D01*
X118963404Y-94733800D02*
X118924630Y-94665415D01*
X119002978Y-94801669D02*
X118963404Y-94733800D01*
X119043344Y-94869013D02*
X119002978Y-94801669D01*
X119084495Y-94935826D02*
X119043344Y-94869013D01*
X119126424Y-95002103D02*
X119084495Y-94935826D01*
X119169127Y-95067838D02*
X119126424Y-95002103D01*
X119212595Y-95133023D02*
X119169127Y-95067838D01*
X119256825Y-95197652D02*
X119212595Y-95133023D01*
X119301811Y-95261719D02*
X119256825Y-95197652D01*
X119347543Y-95325217D02*
X119301811Y-95261719D01*
X119394013Y-95388138D02*
X119347543Y-95325217D01*
X119441221Y-95450481D02*
X119394013Y-95388138D01*
X119489156Y-95512234D02*
X119441221Y-95450481D01*
X119537814Y-95573394D02*
X119489156Y-95512234D01*
X119587186Y-95633954D02*
X119537814Y-95573394D01*
X119637269Y-95693906D02*
X119587186Y-95633954D01*
X119688052Y-95753246D02*
X119637269Y-95693906D01*
X119739535Y-95811965D02*
X119688052Y-95753246D01*
X119791704Y-95870058D02*
X119739535Y-95811965D01*
X119844559Y-95927518D02*
X119791704Y-95870058D01*
X119898091Y-95984341D02*
X119844559Y-95927518D01*
X119952294Y-96040517D02*
X119898091Y-95984341D01*
X120007161Y-96096042D02*
X119952294Y-96040517D01*
X120062685Y-96150908D02*
X120007161Y-96096042D01*
X120118862Y-96205112D02*
X120062685Y-96150908D01*
X120175684Y-96258644D02*
X120118862Y-96205112D01*
X120233145Y-96311499D02*
X120175684Y-96258644D01*
X120291240Y-96363670D02*
X120233145Y-96311499D01*
X120349959Y-96415150D02*
X120291240Y-96363670D01*
X120409297Y-96465936D02*
X120349959Y-96415150D01*
X120469249Y-96516017D02*
X120409297Y-96465936D01*
X120529808Y-96565389D02*
X120469249Y-96516017D01*
X120590969Y-96614046D02*
X120529808Y-96565389D01*
X120652722Y-96661982D02*
X120590969Y-96614046D01*
X120715065Y-96709189D02*
X120652722Y-96661982D01*
X120777989Y-96755663D02*
X120715065Y-96709189D01*
X120841486Y-96801394D02*
X120777989Y-96755663D01*
X120905553Y-96846377D02*
X120841486Y-96801394D01*
X120970182Y-96890607D02*
X120905553Y-96846377D01*
X121035367Y-96934075D02*
X120970182Y-96890607D01*
X121101099Y-96976778D02*
X121035367Y-96934075D01*
X121167376Y-97018708D02*
X121101099Y-96976778D01*
X121234193Y-97059859D02*
X121167376Y-97018708D01*
X121301536Y-97100225D02*
X121234193Y-97059859D01*
X121369402Y-97139798D02*
X121301536Y-97100225D01*
X121437791Y-97178573D02*
X121369402Y-97139798D01*
X121506687Y-97216540D02*
X121437791Y-97178573D01*
X121576088Y-97253697D02*
X121506687Y-97216540D01*
X121645986Y-97290039D02*
X121576088Y-97253697D01*
X121716378Y-97325554D02*
X121645986Y-97290039D01*
X121787255Y-97360239D02*
X121716378Y-97325554D01*
X121858612Y-97394089D02*
X121787255Y-97360239D01*
X121930440Y-97427092D02*
X121858612Y-97394089D01*
X122002737Y-97459248D02*
X121930440Y-97427092D01*
X122075491Y-97490550D02*
X122002737Y-97459248D01*
X122148700Y-97520984D02*
X122075491Y-97490550D01*
X122222357Y-97550553D02*
X122148700Y-97520984D01*
X122296454Y-97579246D02*
X122222357Y-97550553D01*
X122370987Y-97607045D02*
X122296454Y-97579246D01*
X122445945Y-97633969D02*
X122370987Y-97607045D01*
X122521326Y-97659990D02*
X122445945Y-97633969D01*
X122597123Y-97685108D02*
X122521326Y-97659990D01*
X122673328Y-97709323D02*
X122597123Y-97685108D01*
X122749938Y-97732634D02*
X122673328Y-97709323D01*
X122826939Y-97755014D02*
X122749938Y-97732634D01*
X122904333Y-97776463D02*
X122826939Y-97755014D01*
X122982111Y-97796981D02*
X122904333Y-97776463D01*
X123060266Y-97816567D02*
X122982111Y-97796981D01*
X123138789Y-97835222D02*
X123060266Y-97816567D01*
X123217679Y-97852917D02*
X123138789Y-97835222D01*
X123296927Y-97869653D02*
X123217679Y-97852917D01*
X123376525Y-97885429D02*
X123296927Y-97869653D01*
X123456467Y-97900218D02*
X123376525Y-97885429D01*
X123536748Y-97914047D02*
X123456467Y-97900218D01*
X123617362Y-97926888D02*
X123536748Y-97914047D01*
X123698300Y-97938741D02*
X123617362Y-97926888D01*
X123779560Y-97949578D02*
X123698300Y-97938741D01*
X123861131Y-97959428D02*
X123779560Y-97949578D01*
X123943012Y-97968262D02*
X123861131Y-97959428D01*
X124025190Y-97976079D02*
X123943012Y-97968262D01*
X124107664Y-97982881D02*
X124025190Y-97976079D01*
X124190425Y-97988638D02*
X124107664Y-97982881D01*
X124273466Y-97993379D02*
X124190425Y-97988638D01*
X124356781Y-97997076D02*
X124273466Y-97993379D01*
X124440367Y-97999616D02*
X124356781Y-97997076D01*
X124524212Y-98001310D02*
X124440367Y-97999616D01*
X124608317Y-98001874D02*
X124524212Y-98001310D01*
X124692420Y-98001310D02*
X124608317Y-98001874D01*
X124776265Y-97999616D02*
X124692420Y-98001310D01*
X124859851Y-97997076D02*
X124776265Y-97999616D01*
X124943166Y-97993379D02*
X124859851Y-97997076D01*
X125026207Y-97988638D02*
X124943166Y-97993379D01*
X125108968Y-97982881D02*
X125026207Y-97988638D01*
X125191442Y-97976079D02*
X125108968Y-97982881D01*
X125273620Y-97968262D02*
X125191442Y-97976079D01*
X125355501Y-97959428D02*
X125273620Y-97968262D01*
X125437071Y-97949578D02*
X125355501Y-97959428D01*
X125518332Y-97938741D02*
X125437071Y-97949578D01*
X125599270Y-97926888D02*
X125518332Y-97938741D01*
X125679884Y-97914047D02*
X125599270Y-97926888D01*
X125760165Y-97900218D02*
X125679884Y-97914047D01*
X125840107Y-97885429D02*
X125760165Y-97900218D01*
X125919705Y-97869653D02*
X125840107Y-97885429D01*
X125998953Y-97852917D02*
X125919705Y-97869653D01*
X126077843Y-97835222D02*
X125998953Y-97852917D01*
X126156365Y-97816567D02*
X126077843Y-97835222D01*
X126234521Y-97796981D02*
X126156365Y-97816567D01*
X126312299Y-97776463D02*
X126234521Y-97796981D01*
X126389693Y-97755014D02*
X126312299Y-97776463D01*
X126466694Y-97732634D02*
X126389693Y-97755014D01*
X126543303Y-97709323D02*
X126466694Y-97732634D01*
X126619509Y-97685108D02*
X126543303Y-97709323D01*
X126695305Y-97659990D02*
X126619509Y-97685108D01*
X126770687Y-97633969D02*
X126695305Y-97659990D01*
X126845645Y-97607045D02*
X126770687Y-97633969D01*
X126920177Y-97579246D02*
X126845645Y-97607045D01*
X126994275Y-97550553D02*
X126920177Y-97579246D01*
X127067932Y-97520984D02*
X126994275Y-97550553D01*
X127141140Y-97490550D02*
X127067932Y-97520984D01*
X127213894Y-97459248D02*
X127141140Y-97490550D01*
X127286191Y-97427092D02*
X127213894Y-97459248D01*
X127358020Y-97394089D02*
X127286191Y-97427092D01*
X127429377Y-97360239D02*
X127358020Y-97394089D01*
X127500254Y-97325554D02*
X127429377Y-97360239D01*
X127570646Y-97290039D02*
X127500254Y-97325554D01*
X127640544Y-97253697D02*
X127570646Y-97290039D01*
X127709945Y-97216540D02*
X127640544Y-97253697D01*
X127778841Y-97178573D02*
X127709945Y-97216540D01*
X127847229Y-97139798D02*
X127778841Y-97178573D01*
X127915095Y-97100225D02*
X127847229Y-97139798D01*
X127982439Y-97059859D02*
X127915095Y-97100225D01*
X128049255Y-97018708D02*
X127982439Y-97059859D01*
X128115532Y-96976778D02*
X128049255Y-97018708D01*
X128181265Y-96934075D02*
X128115532Y-96976778D01*
X128246450Y-96890607D02*
X128181265Y-96934075D01*
X128311079Y-96846377D02*
X128246450Y-96890607D01*
X128375146Y-96801394D02*
X128311079Y-96846377D01*
X128438643Y-96755663D02*
X128375146Y-96801394D01*
X128501567Y-96709189D02*
X128438643Y-96755663D01*
X128563910Y-96661982D02*
X128501567Y-96709189D01*
X128625663Y-96614046D02*
X128563910Y-96661982D01*
X128686824Y-96565389D02*
X128625663Y-96614046D01*
X128747383Y-96516017D02*
X128686824Y-96565389D01*
X128807335Y-96465936D02*
X128747383Y-96516017D01*
X128866672Y-96415150D02*
X128807335Y-96465936D01*
X128925392Y-96363670D02*
X128866672Y-96415150D01*
X128983487Y-96311499D02*
X128925392Y-96363670D01*
X129040948Y-96258644D02*
X128983487Y-96311499D01*
X129097770Y-96205112D02*
X129040948Y-96258644D01*
X129153946Y-96150908D02*
X129097770Y-96205112D01*
X129209471Y-96096042D02*
X129153946Y-96150908D01*
X129264338Y-96040517D02*
X129209471Y-96096042D01*
X129318541Y-95984341D02*
X129264338Y-96040517D01*
X129372073Y-95927518D02*
X129318541Y-95984341D01*
X129424928Y-95870058D02*
X129372073Y-95927518D01*
X129477097Y-95811965D02*
X129424928Y-95870058D01*
X129528580Y-95753246D02*
X129477097Y-95811965D01*
X129579363Y-95693906D02*
X129528580Y-95753246D01*
X129629446Y-95633954D02*
X129579363Y-95693906D01*
X129678818Y-95573394D02*
X129629446Y-95633954D01*
X129727476Y-95512234D02*
X129678818Y-95573394D01*
X129775411Y-95450481D02*
X129727476Y-95512234D01*
X129822618Y-95388138D02*
X129775411Y-95450481D01*
X129869089Y-95325217D02*
X129822618Y-95388138D01*
X129914820Y-95261719D02*
X129869089Y-95325217D01*
X129959807Y-95197652D02*
X129914820Y-95261719D01*
X130004036Y-95133023D02*
X129959807Y-95197652D01*
X130047504Y-95067838D02*
X130004036Y-95133023D01*
X130090207Y-95002103D02*
X130047504Y-95067838D01*
X130132137Y-94935826D02*
X130090207Y-95002103D01*
X130173288Y-94869013D02*
X130132137Y-94935826D01*
X130213654Y-94801669D02*
X130173288Y-94869013D01*
X130253227Y-94733800D02*
X130213654Y-94801669D01*
X130292002Y-94665415D02*
X130253227Y-94733800D01*
X130329969Y-94596519D02*
X130292002Y-94665415D01*
X130367127Y-94527118D02*
X130329969Y-94596519D01*
X130403468Y-94457217D02*
X130367127Y-94527118D01*
X130438983Y-94386825D02*
X130403468Y-94457217D01*
X130473668Y-94315950D02*
X130438983Y-94386825D01*
X130507518Y-94244593D02*
X130473668Y-94315950D01*
X130540524Y-94172765D02*
X130507518Y-94244593D01*
X130572678Y-94100468D02*
X130540524Y-94172765D01*
X130603979Y-94027714D02*
X130572678Y-94100468D01*
X130634417Y-93954503D02*
X130603979Y-94027714D01*
X130663982Y-93880848D02*
X130634417Y-93954503D01*
X130692676Y-93806751D02*
X130663982Y-93880848D01*
X130720475Y-93732219D02*
X130692676Y-93806751D01*
X130747399Y-93657261D02*
X130720475Y-93732219D01*
X130773419Y-93581879D02*
X130747399Y-93657261D01*
X130798537Y-93506083D02*
X130773419Y-93581879D01*
X130822752Y-93429877D02*
X130798537Y-93506083D01*
X130846063Y-93353268D02*
X130822752Y-93429877D01*
X130868444Y-93276263D02*
X130846063Y-93353268D01*
X130889921Y-93198870D02*
X130868444Y-93276263D01*
X130910438Y-93121092D02*
X130889921Y-93198870D01*
X130930025Y-93042939D02*
X130910438Y-93121092D01*
X130948679Y-92964414D02*
X130930025Y-93042939D01*
X130966375Y-92885527D02*
X130948679Y-92964414D01*
X130983111Y-92806279D02*
X130966375Y-92885527D01*
X130998887Y-92726681D02*
X130983111Y-92806279D01*
X131013675Y-92646739D02*
X130998887Y-92726681D01*
X131027504Y-92566458D02*
X131013675Y-92646739D01*
X131040345Y-92485844D02*
X131027504Y-92566458D01*
X131052199Y-92404902D02*
X131040345Y-92485844D01*
X131063064Y-92323645D02*
X131052199Y-92404902D01*
X131072914Y-92242071D02*
X131063064Y-92323645D01*
X131081747Y-92160193D02*
X131072914Y-92242071D01*
X131089565Y-92078013D02*
X131081747Y-92160193D01*
X131096366Y-91995542D02*
X131089565Y-92078013D01*
X131102124Y-91912780D02*
X131096366Y-91995542D01*
X131106865Y-91829739D02*
X131102124Y-91912780D01*
X131110562Y-91746421D02*
X131106865Y-91829739D01*
X131113102Y-91662839D02*
X131110562Y-91746421D01*
X131114795Y-91578990D02*
X131113102Y-91662839D01*
X131115360Y-91494888D02*
X131114795Y-91578990D01*
X131114795Y-91410786D02*
X131115360Y-91494888D01*
X131113102Y-91326938D02*
X131114795Y-91410786D01*
X131110562Y-91243355D02*
X131113102Y-91326938D01*
X131106865Y-91160037D02*
X131110562Y-91243355D01*
X131102124Y-91076996D02*
X131106865Y-91160037D01*
X131096366Y-90994234D02*
X131102124Y-91076996D01*
X131089565Y-90911763D02*
X131096366Y-90994234D01*
X131081747Y-90829583D02*
X131089565Y-90911763D01*
X131072914Y-90747705D02*
X131081747Y-90829583D01*
X131063064Y-90666131D02*
X131072914Y-90747705D01*
X131052199Y-90584874D02*
X131063064Y-90666131D01*
X131040345Y-90503933D02*
X131052199Y-90584874D01*
X131027504Y-90423319D02*
X131040345Y-90503933D01*
X131013675Y-90343038D02*
X131027504Y-90423319D01*
X130998887Y-90263095D02*
X131013675Y-90343038D01*
X130983111Y-90183497D02*
X130998887Y-90263095D01*
X130966375Y-90104249D02*
X130983111Y-90183497D01*
X130948679Y-90025363D02*
X130966375Y-90104249D01*
X130930025Y-89946837D02*
X130948679Y-90025363D01*
X130910438Y-89868684D02*
X130930025Y-89946837D01*
X130889921Y-89790907D02*
X130910438Y-89868684D01*
X130868444Y-89713513D02*
X130889921Y-89790907D01*
X130846063Y-89636508D02*
X130868444Y-89713513D01*
X130822752Y-89559899D02*
X130846063Y-89636508D01*
X130798537Y-89483694D02*
X130822752Y-89559899D01*
X130773419Y-89407897D02*
X130798537Y-89483694D01*
X130747399Y-89332516D02*
X130773419Y-89407897D01*
X130720475Y-89257557D02*
X130747399Y-89332516D01*
X130692676Y-89183025D02*
X130720475Y-89257557D01*
X130663982Y-89108928D02*
X130692676Y-89183025D01*
X130634417Y-89035273D02*
X130663982Y-89108928D01*
X130603979Y-88962062D02*
X130634417Y-89035273D01*
X130572678Y-88889308D02*
X130603979Y-88962062D01*
X130540524Y-88817011D02*
X130572678Y-88889308D01*
X130507518Y-88745183D02*
X130540524Y-88817011D01*
X130473668Y-88673826D02*
X130507518Y-88745183D01*
X130438983Y-88602951D02*
X130473668Y-88673826D01*
X130403468Y-88532559D02*
X130438983Y-88602951D01*
X130367127Y-88462659D02*
X130403468Y-88532559D01*
X130329969Y-88393257D02*
X130367127Y-88462659D01*
X130292002Y-88324361D02*
X130329969Y-88393257D01*
X130253227Y-88255976D02*
X130292002Y-88324361D01*
X130213654Y-88188107D02*
X130253227Y-88255976D01*
X130173288Y-88120763D02*
X130213654Y-88188107D01*
X130132137Y-88053950D02*
X130173288Y-88120763D01*
X130090207Y-87987673D02*
X130132137Y-88053950D01*
X130047504Y-87921938D02*
X130090207Y-87987673D01*
X130004036Y-87856753D02*
X130047504Y-87921938D01*
X129959807Y-87792124D02*
X130004036Y-87856753D01*
X129914820Y-87728057D02*
X129959807Y-87792124D01*
X129869089Y-87664560D02*
X129914820Y-87728057D01*
X129822618Y-87601638D02*
X129869089Y-87664560D01*
X129775411Y-87539295D02*
X129822618Y-87601638D01*
X129727476Y-87477542D02*
X129775411Y-87539295D01*
X129678818Y-87416382D02*
X129727476Y-87477542D01*
X129629446Y-87355823D02*
X129678818Y-87416382D01*
X129579363Y-87295870D02*
X129629446Y-87355823D01*
X129528580Y-87236530D02*
X129579363Y-87295870D01*
X129477097Y-87177811D02*
X129528580Y-87236530D01*
X129424928Y-87119718D02*
X129477097Y-87177811D01*
X129372073Y-87062258D02*
X129424928Y-87119718D01*
X129318541Y-87005435D02*
X129372073Y-87062258D01*
X129264338Y-86949259D02*
X129318541Y-87005435D01*
X129209471Y-86893735D02*
X129264338Y-86949259D01*
X129153946Y-86838868D02*
X129209471Y-86893735D01*
X129097770Y-86784664D02*
X129153946Y-86838868D01*
X129040948Y-86731132D02*
X129097770Y-86784664D01*
X128983487Y-86678278D02*
X129040948Y-86731132D01*
X128925392Y-86626106D02*
X128983487Y-86678278D01*
X128866672Y-86574626D02*
X128925392Y-86626106D01*
X128807335Y-86523840D02*
X128866672Y-86574626D01*
X128747383Y-86473760D02*
X128807335Y-86523840D01*
X128686824Y-86424388D02*
X128747383Y-86473760D01*
X128625663Y-86375730D02*
X128686824Y-86424388D01*
X128563910Y-86327794D02*
X128625663Y-86375730D01*
X128501567Y-86280587D02*
X128563910Y-86327794D01*
X128438643Y-86234113D02*
X128501567Y-86280587D01*
X128375146Y-86188382D02*
X128438643Y-86234113D01*
X128311079Y-86143399D02*
X128375146Y-86188382D01*
X128246450Y-86099169D02*
X128311079Y-86143399D01*
X128181265Y-86055701D02*
X128246450Y-86099169D01*
X128115532Y-86012998D02*
X128181265Y-86055701D01*
X128049255Y-85971068D02*
X128115532Y-86012998D01*
X127982439Y-85929917D02*
X128049255Y-85971068D01*
X127915095Y-85889551D02*
X127982439Y-85929917D01*
X127847229Y-85849978D02*
X127915095Y-85889551D01*
X127778841Y-85811203D02*
X127847229Y-85849978D01*
X127709945Y-85773236D02*
X127778841Y-85811203D01*
X127640544Y-85736079D02*
X127709945Y-85773236D01*
X127570646Y-85699737D02*
X127640544Y-85736079D01*
X127500254Y-85664222D02*
X127570646Y-85699737D01*
X127429377Y-85629537D02*
X127500254Y-85664222D01*
X127358020Y-85595687D02*
X127429377Y-85629537D01*
X127286191Y-85562684D02*
X127358020Y-85595687D01*
X127213894Y-85530528D02*
X127286191Y-85562684D01*
X127141140Y-85499227D02*
X127213894Y-85530528D01*
X127067932Y-85468792D02*
X127141140Y-85499227D01*
X126994275Y-85439223D02*
X127067932Y-85468792D01*
X126920177Y-85410530D02*
X126994275Y-85439223D01*
X126845645Y-85382731D02*
X126920177Y-85410530D01*
X126770687Y-85355807D02*
X126845645Y-85382731D01*
X126695305Y-85329786D02*
X126770687Y-85355807D01*
X126619509Y-85304668D02*
X126695305Y-85329786D01*
X126543303Y-85280454D02*
X126619509Y-85304668D01*
X126466694Y-85257142D02*
X126543303Y-85280454D01*
X126389693Y-85234762D02*
X126466694Y-85257142D01*
X126312299Y-85213313D02*
X126389693Y-85234762D01*
X126234521Y-85192795D02*
X126312299Y-85213313D01*
X126156365Y-85173209D02*
X126234521Y-85192795D01*
X126077843Y-85154554D02*
X126156365Y-85173209D01*
X125998953Y-85136859D02*
X126077843Y-85154554D01*
X125919705Y-85120123D02*
X125998953Y-85136859D01*
X125840107Y-85104347D02*
X125919705Y-85120123D01*
X125760165Y-85089558D02*
X125840107Y-85104347D01*
X125679884Y-85075730D02*
X125760165Y-85089558D01*
X125599270Y-85062888D02*
X125679884Y-85075730D01*
X125518332Y-85051035D02*
X125599270Y-85062888D01*
X125437071Y-85040198D02*
X125518332Y-85051035D01*
X125355501Y-85030348D02*
X125437071Y-85040198D01*
X125273620Y-85021515D02*
X125355501Y-85030348D01*
X125191442Y-85013697D02*
X125273620Y-85021515D01*
X125108968Y-85006896D02*
X125191442Y-85013697D01*
X125026207Y-85001138D02*
X125108968Y-85006896D01*
X124943166Y-84996397D02*
X125026207Y-85001138D01*
X124859851Y-84992700D02*
X124943166Y-84996397D01*
X124776265Y-84990160D02*
X124859851Y-84992700D01*
X124692420Y-84988466D02*
X124776265Y-84990160D01*
X124608317Y-84987902D02*
X124692420Y-84988466D01*
X124524212Y-84988466D02*
X124608317Y-84987902D01*
X124440367Y-84990160D02*
X124524212Y-84988466D01*
X124356781Y-84992700D02*
X124440367Y-84990160D01*
X124273466Y-84996397D02*
X124356781Y-84992700D01*
X124190425Y-85001138D02*
X124273466Y-84996397D01*
X124107664Y-85006896D02*
X124190425Y-85001138D01*
X124025190Y-85013697D02*
X124107664Y-85006896D01*
X123943012Y-85021515D02*
X124025190Y-85013697D01*
X123861131Y-85030348D02*
X123943012Y-85021515D01*
X123779560Y-85040198D02*
X123861131Y-85030348D01*
X123698300Y-85051035D02*
X123779560Y-85040198D01*
X123617362Y-85062888D02*
X123698300Y-85051035D01*
X123536748Y-85075730D02*
X123617362Y-85062888D01*
X123456467Y-85089558D02*
X123536748Y-85075730D01*
X123376525Y-85104347D02*
X123456467Y-85089558D01*
X123296927Y-85120123D02*
X123376525Y-85104347D01*
X123217679Y-85136859D02*
X123296927Y-85120123D01*
X123138789Y-85154554D02*
X123217679Y-85136859D01*
X123060266Y-85173209D02*
X123138789Y-85154554D01*
X122982111Y-85192795D02*
X123060266Y-85173209D01*
X122904333Y-85213313D02*
X122982111Y-85192795D01*
X122826939Y-85234762D02*
X122904333Y-85213313D01*
X122749938Y-85257142D02*
X122826939Y-85234762D01*
X122673328Y-85280454D02*
X122749938Y-85257142D01*
X122597123Y-85304668D02*
X122673328Y-85280454D01*
X122521326Y-85329786D02*
X122597123Y-85304668D01*
X122445945Y-85355807D02*
X122521326Y-85329786D01*
X122370987Y-85382731D02*
X122445945Y-85355807D01*
X122296454Y-85410530D02*
X122370987Y-85382731D01*
X122222357Y-85439223D02*
X122296454Y-85410530D01*
X122148700Y-85468792D02*
X122222357Y-85439223D01*
X122075491Y-85499227D02*
X122148700Y-85468792D01*
X122002737Y-85530528D02*
X122075491Y-85499227D01*
X121930440Y-85562684D02*
X122002737Y-85530528D01*
X121858612Y-85595687D02*
X121930440Y-85562684D01*
X121787255Y-85629537D02*
X121858612Y-85595687D01*
X121716378Y-85664222D02*
X121787255Y-85629537D01*
X121645986Y-85699737D02*
X121716378Y-85664222D01*
X121576088Y-85736079D02*
X121645986Y-85699737D01*
X121506687Y-85773236D02*
X121576088Y-85736079D01*
X121437791Y-85811203D02*
X121506687Y-85773236D01*
X121369402Y-85849978D02*
X121437791Y-85811203D01*
X121301536Y-85889551D02*
X121369402Y-85849978D01*
X121234193Y-85929917D02*
X121301536Y-85889551D01*
X121167376Y-85971068D02*
X121234193Y-85929917D01*
X121101099Y-86012998D02*
X121167376Y-85971068D01*
X121035367Y-86055701D02*
X121101099Y-86012998D01*
X120970182Y-86099169D02*
X121035367Y-86055701D01*
X120905553Y-86143399D02*
X120970182Y-86099169D01*
X120841486Y-86188382D02*
X120905553Y-86143399D01*
X120777989Y-86234113D02*
X120841486Y-86188382D01*
X120715065Y-86280587D02*
X120777989Y-86234113D01*
X120652722Y-86327794D02*
X120715065Y-86280587D01*
X120590969Y-86375730D02*
X120652722Y-86327794D01*
X120529808Y-86424388D02*
X120590969Y-86375730D01*
X120469249Y-86473760D02*
X120529808Y-86424388D01*
X120409297Y-86523840D02*
X120469249Y-86473760D01*
X120349959Y-86574626D02*
X120409297Y-86523840D01*
X120291240Y-86626106D02*
X120349959Y-86574626D01*
X120233145Y-86678278D02*
X120291240Y-86626106D01*
X120175684Y-86731132D02*
X120233145Y-86678278D01*
X120118862Y-86784664D02*
X120175684Y-86731132D01*
X120062685Y-86838868D02*
X120118862Y-86784664D01*
X120007161Y-86893735D02*
X120062685Y-86838868D01*
X119952294Y-86949259D02*
X120007161Y-86893735D01*
X119898091Y-87005435D02*
X119952294Y-86949259D01*
X119844559Y-87062258D02*
X119898091Y-87005435D01*
X119791704Y-87119718D02*
X119844559Y-87062258D01*
X119739535Y-87177811D02*
X119791704Y-87119718D01*
X119688052Y-87236530D02*
X119739535Y-87177811D01*
X119637269Y-87295870D02*
X119688052Y-87236530D01*
X119587186Y-87355823D02*
X119637269Y-87295870D01*
X119537814Y-87416382D02*
X119587186Y-87355823D01*
X119489156Y-87477542D02*
X119537814Y-87416382D01*
X119441221Y-87539295D02*
X119489156Y-87477542D01*
X119394013Y-87601638D02*
X119441221Y-87539295D01*
X119347543Y-87664560D02*
X119394013Y-87601638D01*
X119301811Y-87728057D02*
X119347543Y-87664560D01*
X119256825Y-87792124D02*
X119301811Y-87728057D01*
X119212595Y-87856753D02*
X119256825Y-87792124D01*
X119169127Y-87921938D02*
X119212595Y-87856753D01*
X119126424Y-87987673D02*
X119169127Y-87921938D01*
X119084495Y-88053950D02*
X119126424Y-87987673D01*
X119043344Y-88120763D02*
X119084495Y-88053950D01*
X119002978Y-88188107D02*
X119043344Y-88120763D01*
X118963404Y-88255976D02*
X119002978Y-88188107D01*
X118924630Y-88324361D02*
X118963404Y-88255976D01*
X118886663Y-88393257D02*
X118924630Y-88324361D01*
X118849505Y-88462659D02*
X118886663Y-88393257D01*
X118813163Y-88532559D02*
X118849505Y-88462659D01*
X118777649Y-88602951D02*
X118813163Y-88532559D01*
X118742963Y-88673826D02*
X118777649Y-88602951D01*
X118709114Y-88745183D02*
X118742963Y-88673826D01*
X118676108Y-88817011D02*
X118709114Y-88745183D01*
X118643954Y-88889308D02*
X118676108Y-88817011D01*
X118612653Y-88962062D02*
X118643954Y-88889308D01*
X118582215Y-89035273D02*
X118612653Y-88962062D01*
X118552650Y-89108928D02*
X118582215Y-89035273D01*
X118523956Y-89183025D02*
X118552650Y-89108928D01*
X118496157Y-89257557D02*
X118523956Y-89183025D01*
X118469233Y-89332516D02*
X118496157Y-89257557D01*
X118443212Y-89407897D02*
X118469233Y-89332516D01*
X118418095Y-89483694D02*
X118443212Y-89407897D01*
X118393880Y-89559899D02*
X118418095Y-89483694D01*
X118370568Y-89636508D02*
X118393880Y-89559899D01*
X118348188Y-89713513D02*
X118370568Y-89636508D01*
X118326711Y-89790907D02*
X118348188Y-89713513D01*
X118306193Y-89868684D02*
X118326711Y-89790907D01*
X118286607Y-89946837D02*
X118306193Y-89868684D01*
X118267952Y-90025363D02*
X118286607Y-89946837D01*
X118250257Y-90104249D02*
X118267952Y-90025363D01*
X118233521Y-90183497D02*
X118250257Y-90104249D01*
X118217745Y-90263095D02*
X118233521Y-90183497D01*
X118202957Y-90343038D02*
X118217745Y-90263095D01*
X118189128Y-90423319D02*
X118202957Y-90343038D01*
X118176287Y-90503933D02*
X118189128Y-90423319D01*
X118164433Y-90584874D02*
X118176287Y-90503933D01*
X118153596Y-90666131D02*
X118164433Y-90584874D01*
X118143746Y-90747705D02*
X118153596Y-90666131D01*
X118134913Y-90829583D02*
X118143746Y-90747705D01*
X118127095Y-90911763D02*
X118134913Y-90829583D01*
X118120294Y-90994234D02*
X118127095Y-90911763D01*
X118114536Y-91076996D02*
X118120294Y-90994234D01*
X118109795Y-91160037D02*
X118114536Y-91076996D01*
X118106098Y-91243355D02*
X118109795Y-91160037D01*
X118103558Y-91326938D02*
X118106098Y-91243355D01*
X118101865Y-91410786D02*
X118103558Y-91326938D01*
X118101300Y-91494888D02*
X118101865Y-91410786D01*
X150150000Y-91600000D02*
X146900000Y-91600000D01*
X146900000Y-91600000D02*
X146900000Y-89000000D01*
X146900000Y-89000000D02*
X150150000Y-89000000D01*
X125950000Y-92800000D02*
X122700000Y-92800000D01*
X122700000Y-92800000D02*
X122700000Y-90200000D01*
X122700000Y-90200000D02*
X125950000Y-90200000D01*
D12*
X149538095Y-93052381D02*
X149538095Y-92052381D01*
X149300000Y-92052381D01*
X149157142Y-92100000D01*
X149061904Y-92195238D01*
X149014285Y-92290476D01*
X148966666Y-92480952D01*
X148966666Y-92623810D01*
X149014285Y-92814286D01*
X149061904Y-92909524D01*
X149157142Y-93004762D01*
X149300000Y-93052381D01*
X149538095Y-93052381D01*
X148014285Y-93052381D02*
X148585714Y-93052381D01*
X148300000Y-93052381D02*
X148300000Y-92052381D01*
X148395238Y-92195238D01*
X148490476Y-92290476D01*
X148585714Y-92338095D01*
X125338095Y-94252381D02*
X125338095Y-93252381D01*
X125100000Y-93252381D01*
X124957142Y-93300000D01*
X124861904Y-93395238D01*
X124814285Y-93490476D01*
X124766666Y-93680952D01*
X124766666Y-93823810D01*
X124814285Y-94014286D01*
X124861904Y-94109524D01*
X124957142Y-94204762D01*
X125100000Y-94252381D01*
X125338095Y-94252381D01*
X124385714Y-93347619D02*
X124338095Y-93300000D01*
X124242857Y-93252381D01*
X124004761Y-93252381D01*
X123909523Y-93300000D01*
X123861904Y-93347619D01*
X123814285Y-93442857D01*
X123814285Y-93538095D01*
X123861904Y-93680952D01*
X124433333Y-94252381D01*
X123814285Y-94252381D01*
%LPC*%
D11*
X148921428Y-111678571D02*
X148635714Y-111678571D01*
X148492856Y-111750000D01*
X148349999Y-111892857D01*
X148278571Y-112178571D01*
X148278571Y-112678571D01*
X148349999Y-112964286D01*
X148492856Y-113107143D01*
X148635714Y-113178571D01*
X148921428Y-113178571D01*
X149064285Y-113107143D01*
X149207142Y-112964286D01*
X149278571Y-112678571D01*
X149278571Y-112178571D01*
X149207142Y-111892857D01*
X149064285Y-111750000D01*
X148921428Y-111678571D01*
X147778570Y-112178571D02*
X146992856Y-112178571D01*
X147778570Y-113178571D01*
X146992856Y-113178571D01*
X145707141Y-113178571D02*
X146421427Y-113178571D01*
X146421427Y-111678571D01*
X144992855Y-113178571D02*
X145135713Y-113107143D01*
X145207141Y-113035714D01*
X145278570Y-112892857D01*
X145278570Y-112464286D01*
X145207141Y-112321429D01*
X145135713Y-112250000D01*
X144992855Y-112178571D01*
X144778570Y-112178571D01*
X144635713Y-112250000D01*
X144564284Y-112321429D01*
X144492855Y-112464286D01*
X144492855Y-112892857D01*
X144564284Y-113035714D01*
X144635713Y-113107143D01*
X144778570Y-113178571D01*
X144992855Y-113178571D01*
X143207141Y-113107143D02*
X143349998Y-113178571D01*
X143635712Y-113178571D01*
X143778570Y-113107143D01*
X143849998Y-113035714D01*
X143921427Y-112892857D01*
X143921427Y-112464286D01*
X143849998Y-112321429D01*
X143778570Y-112250000D01*
X143635712Y-112178571D01*
X143349998Y-112178571D01*
X143207141Y-112250000D01*
X142564284Y-113178571D02*
X142564284Y-111678571D01*
X142421427Y-112607143D02*
X141992856Y-113178571D01*
X141992856Y-112178571D02*
X142564284Y-112750000D01*
X140492855Y-113035714D02*
X140564284Y-113107143D01*
X140778570Y-113178571D01*
X140921427Y-113178571D01*
X141135712Y-113107143D01*
X141278570Y-112964286D01*
X141349998Y-112821429D01*
X141421427Y-112535714D01*
X141421427Y-112321429D01*
X141349998Y-112035714D01*
X141278570Y-111892857D01*
X141135712Y-111750000D01*
X140921427Y-111678571D01*
X140778570Y-111678571D01*
X140564284Y-111750000D01*
X140492855Y-111821429D01*
X139635712Y-113178571D02*
X139778570Y-113107143D01*
X139849998Y-113035714D01*
X139921427Y-112892857D01*
X139921427Y-112464286D01*
X139849998Y-112321429D01*
X139778570Y-112250000D01*
X139635712Y-112178571D01*
X139421427Y-112178571D01*
X139278570Y-112250000D01*
X139207141Y-112321429D01*
X139135712Y-112464286D01*
X139135712Y-112892857D01*
X139207141Y-113035714D01*
X139278570Y-113107143D01*
X139421427Y-113178571D01*
X139635712Y-113178571D01*
X138492855Y-112178571D02*
X138492855Y-113178571D01*
X138492855Y-112321429D02*
X138421427Y-112250000D01*
X138278569Y-112178571D01*
X138064284Y-112178571D01*
X137921427Y-112250000D01*
X137849998Y-112392857D01*
X137849998Y-113178571D01*
X136064284Y-111821429D02*
X135992855Y-111750000D01*
X135849998Y-111678571D01*
X135492855Y-111678571D01*
X135349998Y-111750000D01*
X135278569Y-111821429D01*
X135207141Y-111964286D01*
X135207141Y-112107143D01*
X135278569Y-112321429D01*
X136135712Y-113178571D01*
X135207141Y-113178571D01*
X134278570Y-111678571D02*
X134135713Y-111678571D01*
X133992856Y-111750000D01*
X133921427Y-111821429D01*
X133849998Y-111964286D01*
X133778570Y-112250000D01*
X133778570Y-112607143D01*
X133849998Y-112892857D01*
X133921427Y-113035714D01*
X133992856Y-113107143D01*
X134135713Y-113178571D01*
X134278570Y-113178571D01*
X134421427Y-113107143D01*
X134492856Y-113035714D01*
X134564284Y-112892857D01*
X134635713Y-112607143D01*
X134635713Y-112250000D01*
X134564284Y-111964286D01*
X134492856Y-111821429D01*
X134421427Y-111750000D01*
X134278570Y-111678571D01*
X132349999Y-113178571D02*
X133207142Y-113178571D01*
X132778570Y-113178571D02*
X132778570Y-111678571D01*
X132921427Y-111892857D01*
X133064285Y-112035714D01*
X133207142Y-112107143D01*
X131849999Y-111678571D02*
X130849999Y-111678571D01*
X131492856Y-113178571D01*
D13*
G36*
X133515791Y-104513411D02*
X133499631Y-104570395D01*
X133499111Y-104587846D01*
X133503722Y-104652912D01*
X133521189Y-104712156D01*
X133556960Y-104771020D01*
X133616484Y-104834947D01*
X133705211Y-104909382D01*
X133828589Y-104999767D01*
X133992068Y-105111545D01*
X134086105Y-105174212D01*
X134229795Y-105269623D01*
X134410863Y-105390074D01*
X134619776Y-105529211D01*
X134847002Y-105680682D01*
X135083010Y-105838133D01*
X135318268Y-105995210D01*
X135492041Y-106111328D01*
X135703236Y-106252277D01*
X135907789Y-106388358D01*
X136099045Y-106515175D01*
X136270346Y-106628331D01*
X136415036Y-106723431D01*
X136526460Y-106796077D01*
X136597960Y-106841873D01*
X136600107Y-106843216D01*
X136708387Y-106915161D01*
X136776256Y-106972815D01*
X136814214Y-107026255D01*
X136827178Y-107061128D01*
X136845398Y-107116334D01*
X136871077Y-107167867D01*
X136909069Y-107219607D01*
X136964228Y-107275434D01*
X137041405Y-107339228D01*
X137145455Y-107414869D01*
X137281231Y-107506236D01*
X137453584Y-107617209D01*
X137667370Y-107751669D01*
X137774419Y-107818404D01*
X137965500Y-107937849D01*
X138140295Y-108048119D01*
X138293261Y-108145639D01*
X138418854Y-108226834D01*
X138511532Y-108288128D01*
X138565753Y-108325946D01*
X138577867Y-108336663D01*
X138554289Y-108354020D01*
X138486481Y-108398707D01*
X138378208Y-108468347D01*
X138233237Y-108560566D01*
X138055335Y-108672989D01*
X137848267Y-108803243D01*
X137615800Y-108948951D01*
X137361700Y-109107741D01*
X137089733Y-109277236D01*
X136826851Y-109440667D01*
X136537851Y-109620675D01*
X136262930Y-109792976D01*
X136005929Y-109955100D01*
X135770689Y-110104574D01*
X135561052Y-110238926D01*
X135380857Y-110355682D01*
X135233947Y-110452372D01*
X135124162Y-110526523D01*
X135055345Y-110575663D01*
X135031932Y-110595913D01*
X134983961Y-110713120D01*
X134975937Y-110843227D01*
X135008490Y-110963138D01*
X135021306Y-110986092D01*
X135123469Y-111100809D01*
X135251282Y-111168495D01*
X135395204Y-111186248D01*
X135545694Y-111151169D01*
X135553496Y-111147857D01*
X135573330Y-111138566D01*
X135600214Y-111124529D01*
X135636893Y-111104053D01*
X135686115Y-111075444D01*
X135750623Y-111037008D01*
X135833165Y-110987051D01*
X135936485Y-110923879D01*
X136063330Y-110845799D01*
X136216445Y-110751117D01*
X136398575Y-110638138D01*
X136612467Y-110505170D01*
X136860866Y-110350518D01*
X137146517Y-110172488D01*
X137472167Y-109969387D01*
X137840561Y-109739520D01*
X138195189Y-109518182D01*
X138428251Y-109373538D01*
X138645995Y-109240009D01*
X138843717Y-109120372D01*
X139016709Y-109017406D01*
X139160264Y-108933885D01*
X139269674Y-108872587D01*
X139340234Y-108836290D01*
X139366412Y-108827222D01*
X139397058Y-108843734D01*
X139471777Y-108887868D01*
X139586793Y-108957300D01*
X139738331Y-109049710D01*
X139922616Y-109162774D01*
X140135872Y-109294170D01*
X140374325Y-109441577D01*
X140634200Y-109602672D01*
X140911720Y-109775133D01*
X141203112Y-109956637D01*
X141249617Y-109985642D01*
X141626596Y-110220358D01*
X141958004Y-110425708D01*
X142245761Y-110602838D01*
X142491783Y-110752891D01*
X142697988Y-110877015D01*
X142866294Y-110976353D01*
X142998619Y-111052051D01*
X143096879Y-111105255D01*
X143162993Y-111137108D01*
X143196950Y-111148524D01*
X143328608Y-111142934D01*
X143444273Y-111092052D01*
X143537308Y-111006251D01*
X143601075Y-110895904D01*
X143628936Y-110771381D01*
X143614254Y-110643056D01*
X143575446Y-110557066D01*
X143551426Y-110530744D01*
X143502090Y-110490144D01*
X143424957Y-110433642D01*
X143317546Y-110359613D01*
X143177372Y-110266431D01*
X143001955Y-110152473D01*
X142788812Y-110016112D01*
X142535461Y-109855724D01*
X142239420Y-109669685D01*
X141898205Y-109456369D01*
X141809491Y-109401042D01*
X141528196Y-109225502D01*
X141261568Y-109058757D01*
X141013378Y-108903189D01*
X140787398Y-108761179D01*
X140587401Y-108635108D01*
X140417156Y-108527356D01*
X140280437Y-108440306D01*
X140181014Y-108376337D01*
X140122659Y-108337832D01*
X140108100Y-108326927D01*
X140133440Y-108310652D01*
X140200838Y-108268294D01*
X140304394Y-108203534D01*
X140438207Y-108120055D01*
X140596378Y-108021541D01*
X140773008Y-107911674D01*
X140851000Y-107863202D01*
X141038141Y-107745581D01*
X141212815Y-107633249D01*
X141368320Y-107530714D01*
X141497954Y-107442485D01*
X141595013Y-107373071D01*
X141652795Y-107326979D01*
X141662188Y-107317556D01*
X141717532Y-107234809D01*
X141754267Y-107146411D01*
X141757585Y-107131965D01*
X141774239Y-107080193D01*
X141809349Y-107029198D01*
X141871787Y-106969418D01*
X141970422Y-106891291D01*
X142004729Y-106865574D01*
X142112722Y-106787862D01*
X142263268Y-106683500D01*
X142451169Y-106555935D01*
X142671227Y-106408613D01*
X142918244Y-106244980D01*
X143187022Y-106068484D01*
X143472363Y-105882571D01*
X143769069Y-105690687D01*
X144011889Y-105534708D01*
X144205733Y-105409238D01*
X144355921Y-105308722D01*
X144467428Y-105229467D01*
X144545234Y-105167779D01*
X144594314Y-105119965D01*
X144618666Y-105084454D01*
X144647305Y-105033262D01*
X144682056Y-105006811D01*
X144740956Y-104996993D01*
X144816222Y-104995667D01*
X144905809Y-104993854D01*
X144957846Y-104981251D01*
X144991227Y-104947115D01*
X145024844Y-104880703D01*
X145027158Y-104875723D01*
X145076441Y-104793389D01*
X145124263Y-104756870D01*
X145132992Y-104755778D01*
X145175204Y-104739540D01*
X145178807Y-104704356D01*
X145145761Y-104670520D01*
X145123944Y-104662222D01*
X145041269Y-104658794D01*
X144977772Y-104702405D01*
X144941453Y-104759198D01*
X144912947Y-104805195D01*
X144877011Y-104829516D01*
X144816326Y-104838983D01*
X144735117Y-104840445D01*
X144642395Y-104842019D01*
X144588491Y-104852805D01*
X144555780Y-104881900D01*
X144526635Y-104938401D01*
X144520952Y-104950974D01*
X144500718Y-104989051D01*
X144472060Y-105025923D01*
X144428647Y-105066181D01*
X144364148Y-105114419D01*
X144272231Y-105175229D01*
X144146566Y-105253206D01*
X143980822Y-105352941D01*
X143902833Y-105399392D01*
X143612289Y-105570588D01*
X143303831Y-105749543D01*
X142988671Y-105929918D01*
X142678026Y-106105374D01*
X142383111Y-106269571D01*
X142115140Y-106416171D01*
X141909333Y-106526213D01*
X141774428Y-106596474D01*
X141676957Y-106643740D01*
X141604762Y-106671976D01*
X141545684Y-106685142D01*
X141487566Y-106687203D01*
X141428194Y-106683033D01*
X141271611Y-106668844D01*
X140398083Y-107212815D01*
X140194200Y-107339710D01*
X140002205Y-107459074D01*
X139828164Y-107567145D01*
X139678145Y-107660161D01*
X139558214Y-107734361D01*
X139474438Y-107785983D01*
X139434163Y-107810508D01*
X139343770Y-107864229D01*
X138361718Y-107248601D01*
X137379666Y-106632974D01*
X137167147Y-106632765D01*
X136954627Y-106632556D01*
X136430756Y-106345808D01*
X136264039Y-106253488D01*
X136061378Y-106139556D01*
X135835375Y-106011200D01*
X135598632Y-105875606D01*
X135363748Y-105739962D01*
X135147498Y-105613901D01*
X134942021Y-105493544D01*
X134736404Y-105373279D01*
X134540045Y-105258589D01*
X134362340Y-105154958D01*
X134212687Y-105067871D01*
X134100484Y-105002810D01*
X134083809Y-104993181D01*
X133939099Y-104909204D01*
X133834978Y-104846243D01*
X133763032Y-104797303D01*
X133714846Y-104755389D01*
X133682004Y-104713509D01*
X133656091Y-104664666D01*
X133637369Y-104622122D01*
X133592099Y-104541119D01*
X133549093Y-104504267D01*
X133515791Y-104513411D01*
X133515791Y-104513411D01*
G37*
X133515791Y-104513411D02*
X133499631Y-104570395D01*
X133499111Y-104587846D01*
X133503722Y-104652912D01*
X133521189Y-104712156D01*
X133556960Y-104771020D01*
X133616484Y-104834947D01*
X133705211Y-104909382D01*
X133828589Y-104999767D01*
X133992068Y-105111545D01*
X134086105Y-105174212D01*
X134229795Y-105269623D01*
X134410863Y-105390074D01*
X134619776Y-105529211D01*
X134847002Y-105680682D01*
X135083010Y-105838133D01*
X135318268Y-105995210D01*
X135492041Y-106111328D01*
X135703236Y-106252277D01*
X135907789Y-106388358D01*
X136099045Y-106515175D01*
X136270346Y-106628331D01*
X136415036Y-106723431D01*
X136526460Y-106796077D01*
X136597960Y-106841873D01*
X136600107Y-106843216D01*
X136708387Y-106915161D01*
X136776256Y-106972815D01*
X136814214Y-107026255D01*
X136827178Y-107061128D01*
X136845398Y-107116334D01*
X136871077Y-107167867D01*
X136909069Y-107219607D01*
X136964228Y-107275434D01*
X137041405Y-107339228D01*
X137145455Y-107414869D01*
X137281231Y-107506236D01*
X137453584Y-107617209D01*
X137667370Y-107751669D01*
X137774419Y-107818404D01*
X137965500Y-107937849D01*
X138140295Y-108048119D01*
X138293261Y-108145639D01*
X138418854Y-108226834D01*
X138511532Y-108288128D01*
X138565753Y-108325946D01*
X138577867Y-108336663D01*
X138554289Y-108354020D01*
X138486481Y-108398707D01*
X138378208Y-108468347D01*
X138233237Y-108560566D01*
X138055335Y-108672989D01*
X137848267Y-108803243D01*
X137615800Y-108948951D01*
X137361700Y-109107741D01*
X137089733Y-109277236D01*
X136826851Y-109440667D01*
X136537851Y-109620675D01*
X136262930Y-109792976D01*
X136005929Y-109955100D01*
X135770689Y-110104574D01*
X135561052Y-110238926D01*
X135380857Y-110355682D01*
X135233947Y-110452372D01*
X135124162Y-110526523D01*
X135055345Y-110575663D01*
X135031932Y-110595913D01*
X134983961Y-110713120D01*
X134975937Y-110843227D01*
X135008490Y-110963138D01*
X135021306Y-110986092D01*
X135123469Y-111100809D01*
X135251282Y-111168495D01*
X135395204Y-111186248D01*
X135545694Y-111151169D01*
X135553496Y-111147857D01*
X135573330Y-111138566D01*
X135600214Y-111124529D01*
X135636893Y-111104053D01*
X135686115Y-111075444D01*
X135750623Y-111037008D01*
X135833165Y-110987051D01*
X135936485Y-110923879D01*
X136063330Y-110845799D01*
X136216445Y-110751117D01*
X136398575Y-110638138D01*
X136612467Y-110505170D01*
X136860866Y-110350518D01*
X137146517Y-110172488D01*
X137472167Y-109969387D01*
X137840561Y-109739520D01*
X138195189Y-109518182D01*
X138428251Y-109373538D01*
X138645995Y-109240009D01*
X138843717Y-109120372D01*
X139016709Y-109017406D01*
X139160264Y-108933885D01*
X139269674Y-108872587D01*
X139340234Y-108836290D01*
X139366412Y-108827222D01*
X139397058Y-108843734D01*
X139471777Y-108887868D01*
X139586793Y-108957300D01*
X139738331Y-109049710D01*
X139922616Y-109162774D01*
X140135872Y-109294170D01*
X140374325Y-109441577D01*
X140634200Y-109602672D01*
X140911720Y-109775133D01*
X141203112Y-109956637D01*
X141249617Y-109985642D01*
X141626596Y-110220358D01*
X141958004Y-110425708D01*
X142245761Y-110602838D01*
X142491783Y-110752891D01*
X142697988Y-110877015D01*
X142866294Y-110976353D01*
X142998619Y-111052051D01*
X143096879Y-111105255D01*
X143162993Y-111137108D01*
X143196950Y-111148524D01*
X143328608Y-111142934D01*
X143444273Y-111092052D01*
X143537308Y-111006251D01*
X143601075Y-110895904D01*
X143628936Y-110771381D01*
X143614254Y-110643056D01*
X143575446Y-110557066D01*
X143551426Y-110530744D01*
X143502090Y-110490144D01*
X143424957Y-110433642D01*
X143317546Y-110359613D01*
X143177372Y-110266431D01*
X143001955Y-110152473D01*
X142788812Y-110016112D01*
X142535461Y-109855724D01*
X142239420Y-109669685D01*
X141898205Y-109456369D01*
X141809491Y-109401042D01*
X141528196Y-109225502D01*
X141261568Y-109058757D01*
X141013378Y-108903189D01*
X140787398Y-108761179D01*
X140587401Y-108635108D01*
X140417156Y-108527356D01*
X140280437Y-108440306D01*
X140181014Y-108376337D01*
X140122659Y-108337832D01*
X140108100Y-108326927D01*
X140133440Y-108310652D01*
X140200838Y-108268294D01*
X140304394Y-108203534D01*
X140438207Y-108120055D01*
X140596378Y-108021541D01*
X140773008Y-107911674D01*
X140851000Y-107863202D01*
X141038141Y-107745581D01*
X141212815Y-107633249D01*
X141368320Y-107530714D01*
X141497954Y-107442485D01*
X141595013Y-107373071D01*
X141652795Y-107326979D01*
X141662188Y-107317556D01*
X141717532Y-107234809D01*
X141754267Y-107146411D01*
X141757585Y-107131965D01*
X141774239Y-107080193D01*
X141809349Y-107029198D01*
X141871787Y-106969418D01*
X141970422Y-106891291D01*
X142004729Y-106865574D01*
X142112722Y-106787862D01*
X142263268Y-106683500D01*
X142451169Y-106555935D01*
X142671227Y-106408613D01*
X142918244Y-106244980D01*
X143187022Y-106068484D01*
X143472363Y-105882571D01*
X143769069Y-105690687D01*
X144011889Y-105534708D01*
X144205733Y-105409238D01*
X144355921Y-105308722D01*
X144467428Y-105229467D01*
X144545234Y-105167779D01*
X144594314Y-105119965D01*
X144618666Y-105084454D01*
X144647305Y-105033262D01*
X144682056Y-105006811D01*
X144740956Y-104996993D01*
X144816222Y-104995667D01*
X144905809Y-104993854D01*
X144957846Y-104981251D01*
X144991227Y-104947115D01*
X145024844Y-104880703D01*
X145027158Y-104875723D01*
X145076441Y-104793389D01*
X145124263Y-104756870D01*
X145132992Y-104755778D01*
X145175204Y-104739540D01*
X145178807Y-104704356D01*
X145145761Y-104670520D01*
X145123944Y-104662222D01*
X145041269Y-104658794D01*
X144977772Y-104702405D01*
X144941453Y-104759198D01*
X144912947Y-104805195D01*
X144877011Y-104829516D01*
X144816326Y-104838983D01*
X144735117Y-104840445D01*
X144642395Y-104842019D01*
X144588491Y-104852805D01*
X144555780Y-104881900D01*
X144526635Y-104938401D01*
X144520952Y-104950974D01*
X144500718Y-104989051D01*
X144472060Y-105025923D01*
X144428647Y-105066181D01*
X144364148Y-105114419D01*
X144272231Y-105175229D01*
X144146566Y-105253206D01*
X143980822Y-105352941D01*
X143902833Y-105399392D01*
X143612289Y-105570588D01*
X143303831Y-105749543D01*
X142988671Y-105929918D01*
X142678026Y-106105374D01*
X142383111Y-106269571D01*
X142115140Y-106416171D01*
X141909333Y-106526213D01*
X141774428Y-106596474D01*
X141676957Y-106643740D01*
X141604762Y-106671976D01*
X141545684Y-106685142D01*
X141487566Y-106687203D01*
X141428194Y-106683033D01*
X141271611Y-106668844D01*
X140398083Y-107212815D01*
X140194200Y-107339710D01*
X140002205Y-107459074D01*
X139828164Y-107567145D01*
X139678145Y-107660161D01*
X139558214Y-107734361D01*
X139474438Y-107785983D01*
X139434163Y-107810508D01*
X139343770Y-107864229D01*
X138361718Y-107248601D01*
X137379666Y-106632974D01*
X137167147Y-106632765D01*
X136954627Y-106632556D01*
X136430756Y-106345808D01*
X136264039Y-106253488D01*
X136061378Y-106139556D01*
X135835375Y-106011200D01*
X135598632Y-105875606D01*
X135363748Y-105739962D01*
X135147498Y-105613901D01*
X134942021Y-105493544D01*
X134736404Y-105373279D01*
X134540045Y-105258589D01*
X134362340Y-105154958D01*
X134212687Y-105067871D01*
X134100484Y-105002810D01*
X134083809Y-104993181D01*
X133939099Y-104909204D01*
X133834978Y-104846243D01*
X133763032Y-104797303D01*
X133714846Y-104755389D01*
X133682004Y-104713509D01*
X133656091Y-104664666D01*
X133637369Y-104622122D01*
X133592099Y-104541119D01*
X133549093Y-104504267D01*
X133515791Y-104513411D01*
G36*
X139445278Y-100227795D02*
X139297511Y-100230179D01*
X139182101Y-100235555D01*
X139087008Y-100245069D01*
X139000189Y-100259868D01*
X138909605Y-100281101D01*
X138820630Y-100305069D01*
X138415435Y-100444374D01*
X138043942Y-100627930D01*
X137707576Y-100854929D01*
X137447012Y-101084744D01*
X137193437Y-101374049D01*
X136989860Y-101686433D01*
X136837555Y-102018915D01*
X136737792Y-102368515D01*
X136691846Y-102732251D01*
X136688712Y-102861452D01*
X136699407Y-103124043D01*
X136733792Y-103359433D01*
X136796717Y-103593629D01*
X136856350Y-103760465D01*
X136979265Y-104022728D01*
X137141704Y-104283975D01*
X137332630Y-104529735D01*
X137541008Y-104745533D01*
X137718333Y-104890825D01*
X137794827Y-104945910D01*
X137851498Y-104986992D01*
X137873555Y-105003276D01*
X137877766Y-105033294D01*
X137882520Y-105112363D01*
X137887548Y-105233092D01*
X137892582Y-105388095D01*
X137897354Y-105569983D01*
X137901597Y-105771367D01*
X137901777Y-105781135D01*
X137915889Y-106547889D01*
X138076447Y-106556302D01*
X138170184Y-106556228D01*
X138233587Y-106538669D01*
X138272202Y-106495029D01*
X138291574Y-106416714D01*
X138297249Y-106295127D01*
X138296675Y-106214933D01*
X138295372Y-106090920D01*
X138294634Y-105932380D01*
X138294523Y-105761228D01*
X138294962Y-105623611D01*
X138296889Y-105263778D01*
X138494444Y-105263778D01*
X138494444Y-105879022D01*
X138495533Y-106104499D01*
X138498942Y-106277655D01*
X138504884Y-106402574D01*
X138513572Y-106483341D01*
X138525219Y-106524039D01*
X138528311Y-106528134D01*
X138575524Y-106548646D01*
X138654849Y-106560680D01*
X138692000Y-106562000D01*
X138777598Y-106555035D01*
X138841281Y-106537481D01*
X138855689Y-106528134D01*
X138866499Y-106499784D01*
X138875021Y-106436048D01*
X138881420Y-106332864D01*
X138885862Y-106186173D01*
X138888510Y-105991912D01*
X138889532Y-105746023D01*
X138889555Y-105695578D01*
X138889555Y-104896889D01*
X139115333Y-104896889D01*
X139115333Y-105695578D01*
X139116077Y-105951267D01*
X139118418Y-106154589D01*
X139122522Y-106309607D01*
X139128554Y-106420381D01*
X139136679Y-106490970D01*
X139147062Y-106525436D01*
X139149200Y-106528134D01*
X139196413Y-106548646D01*
X139275738Y-106560680D01*
X139312889Y-106562000D01*
X139398487Y-106555035D01*
X139462170Y-106537481D01*
X139476578Y-106528134D01*
X139488004Y-106498329D01*
X139496867Y-106431715D01*
X139503353Y-106324179D01*
X139507646Y-106171611D01*
X139509933Y-105969899D01*
X139510444Y-105778622D01*
X139510444Y-105062977D01*
X139630389Y-105071655D01*
X139750333Y-105080334D01*
X139758760Y-105291646D01*
X139768210Y-105418018D01*
X139785200Y-105494499D01*
X139808149Y-105525882D01*
X139835832Y-105569036D01*
X139849239Y-105644886D01*
X139848527Y-105731561D01*
X139833852Y-105807186D01*
X139805835Y-105849636D01*
X139787183Y-105869157D01*
X139775337Y-105908997D01*
X139769374Y-105978611D01*
X139768370Y-106087456D01*
X139770557Y-106210872D01*
X139778555Y-106547889D01*
X139929013Y-106556499D01*
X140021387Y-106559047D01*
X140085265Y-106548685D01*
X140125748Y-106517002D01*
X140147935Y-106455589D01*
X140156925Y-106356035D01*
X140157818Y-106209928D01*
X140157528Y-106179603D01*
X140155242Y-106040711D01*
X140150684Y-105948245D01*
X140142133Y-105892187D01*
X140127867Y-105862522D01*
X140106164Y-105849232D01*
X140100439Y-105847569D01*
X140067865Y-105828813D01*
X140051587Y-105784971D01*
X140046717Y-105701454D01*
X140046666Y-105687111D01*
X140050166Y-105598199D01*
X140064217Y-105550410D01*
X140094144Y-105528668D01*
X140103641Y-105525817D01*
X140149923Y-105490220D01*
X140155696Y-105450848D01*
X140153866Y-105394186D01*
X140153578Y-105300104D01*
X140154869Y-105187604D01*
X140155166Y-105172056D01*
X140159555Y-104953334D01*
X140357111Y-104953334D01*
X140357111Y-105723800D01*
X140357893Y-105975008D01*
X140360355Y-106173873D01*
X140364668Y-106324478D01*
X140371004Y-106430905D01*
X140379535Y-106497237D01*
X140390434Y-106527555D01*
X140390977Y-106528134D01*
X140444269Y-106551605D01*
X140527683Y-106561258D01*
X140618093Y-106557514D01*
X140692372Y-106540798D01*
X140721997Y-106522080D01*
X140738337Y-106470919D01*
X140748498Y-106365205D01*
X140752357Y-106206506D01*
X140752157Y-106134025D01*
X140751106Y-105971553D01*
X140750576Y-105803364D01*
X140750610Y-105651854D01*
X140751052Y-105560111D01*
X140752917Y-105334334D01*
X140943828Y-105257083D01*
X141185390Y-105138475D01*
X141434491Y-104978651D01*
X141677178Y-104788587D01*
X141899497Y-104579258D01*
X142087497Y-104361641D01*
X142088234Y-104360667D01*
X139560866Y-104360667D01*
X139179858Y-104360667D01*
X139020029Y-104359453D01*
X138910096Y-104355396D01*
X138843553Y-104347872D01*
X138813897Y-104336259D01*
X138811591Y-104325389D01*
X138823519Y-104285786D01*
X138846783Y-104203428D01*
X138878106Y-104090077D01*
X138914208Y-103957498D01*
X138916810Y-103947874D01*
X139009288Y-103605638D01*
X138949415Y-103524541D01*
X138879469Y-103393786D01*
X138857343Y-103264841D01*
X138879891Y-103147051D01*
X138943968Y-103049756D01*
X139046430Y-102982300D01*
X139140249Y-102957709D01*
X139277473Y-102962642D01*
X139389415Y-103010772D01*
X139470770Y-103092509D01*
X139516236Y-103198260D01*
X139520507Y-103318431D01*
X139478280Y-103443432D01*
X139440783Y-103501226D01*
X139361714Y-103604890D01*
X139461290Y-103982779D01*
X139560866Y-104360667D01*
X142088234Y-104360667D01*
X142095460Y-104351120D01*
X142222632Y-104157746D01*
X142342769Y-103930991D01*
X142445210Y-103693518D01*
X142519296Y-103467988D01*
X142529054Y-103429334D01*
X142570772Y-103180865D01*
X142587271Y-102906442D01*
X142578532Y-102629298D01*
X142544535Y-102372667D01*
X142529994Y-102305584D01*
X142483014Y-102159334D01*
X141499897Y-102159334D01*
X141497642Y-102296497D01*
X141488983Y-102394012D01*
X141471185Y-102468556D01*
X141441510Y-102536805D01*
X141436360Y-102546604D01*
X141305300Y-102739932D01*
X141142302Y-102892941D01*
X141066635Y-102942881D01*
X140960341Y-102993460D01*
X140834557Y-103036319D01*
X140709341Y-103066129D01*
X140604751Y-103077563D01*
X140568777Y-103075133D01*
X140504195Y-103064524D01*
X140417056Y-103050419D01*
X140399444Y-103047590D01*
X140221870Y-102992509D01*
X140052962Y-102891016D01*
X139904334Y-102753065D01*
X139787601Y-102588613D01*
X139737163Y-102479926D01*
X139685248Y-102266714D01*
X139685257Y-102232103D01*
X138831334Y-102232103D01*
X138826552Y-102404143D01*
X138792007Y-102541042D01*
X138726943Y-102654816D01*
X138626837Y-102767518D01*
X138510158Y-102861325D01*
X138403708Y-102915736D01*
X138258316Y-102939789D01*
X138096720Y-102926334D01*
X137941913Y-102878478D01*
X137877430Y-102844610D01*
X137765543Y-102753896D01*
X137670069Y-102638029D01*
X137662635Y-102626338D01*
X137615269Y-102541402D01*
X137589344Y-102465174D01*
X137578763Y-102373537D01*
X137577222Y-102288417D01*
X137581284Y-102168457D01*
X137597294Y-102080266D01*
X137630989Y-101999510D01*
X137655819Y-101955070D01*
X137771462Y-101807444D01*
X137912562Y-101704932D01*
X138070358Y-101647758D01*
X138236086Y-101636145D01*
X138400984Y-101670320D01*
X138556291Y-101750506D01*
X138693245Y-101876927D01*
X138731984Y-101927498D01*
X138799174Y-102066712D01*
X138831334Y-102232103D01*
X139685257Y-102232103D01*
X139685306Y-102055913D01*
X139733072Y-101854740D01*
X139824278Y-101670414D01*
X139954658Y-101510151D01*
X140119947Y-101381171D01*
X140315879Y-101290690D01*
X140460933Y-101255401D01*
X140678966Y-101247262D01*
X140889396Y-101291367D01*
X141084045Y-101383521D01*
X141254739Y-101519528D01*
X141393301Y-101695190D01*
X141424802Y-101750111D01*
X141461163Y-101825263D01*
X141483571Y-101895465D01*
X141495281Y-101978438D01*
X141499542Y-102091905D01*
X141499897Y-102159334D01*
X142483014Y-102159334D01*
X142417812Y-101956361D01*
X142255615Y-101628383D01*
X142046941Y-101325063D01*
X141795328Y-101049816D01*
X141504315Y-100806054D01*
X141177439Y-100597190D01*
X140818239Y-100426638D01*
X140455889Y-100304744D01*
X140351846Y-100277226D01*
X140261804Y-100257099D01*
X140173670Y-100243219D01*
X140075351Y-100234441D01*
X139954757Y-100229619D01*
X139799793Y-100227609D01*
X139637444Y-100227256D01*
X139445278Y-100227795D01*
X139445278Y-100227795D01*
G37*
X139445278Y-100227795D02*
X139297511Y-100230179D01*
X139182101Y-100235555D01*
X139087008Y-100245069D01*
X139000189Y-100259868D01*
X138909605Y-100281101D01*
X138820630Y-100305069D01*
X138415435Y-100444374D01*
X138043942Y-100627930D01*
X137707576Y-100854929D01*
X137447012Y-101084744D01*
X137193437Y-101374049D01*
X136989860Y-101686433D01*
X136837555Y-102018915D01*
X136737792Y-102368515D01*
X136691846Y-102732251D01*
X136688712Y-102861452D01*
X136699407Y-103124043D01*
X136733792Y-103359433D01*
X136796717Y-103593629D01*
X136856350Y-103760465D01*
X136979265Y-104022728D01*
X137141704Y-104283975D01*
X137332630Y-104529735D01*
X137541008Y-104745533D01*
X137718333Y-104890825D01*
X137794827Y-104945910D01*
X137851498Y-104986992D01*
X137873555Y-105003276D01*
X137877766Y-105033294D01*
X137882520Y-105112363D01*
X137887548Y-105233092D01*
X137892582Y-105388095D01*
X137897354Y-105569983D01*
X137901597Y-105771367D01*
X137901777Y-105781135D01*
X137915889Y-106547889D01*
X138076447Y-106556302D01*
X138170184Y-106556228D01*
X138233587Y-106538669D01*
X138272202Y-106495029D01*
X138291574Y-106416714D01*
X138297249Y-106295127D01*
X138296675Y-106214933D01*
X138295372Y-106090920D01*
X138294634Y-105932380D01*
X138294523Y-105761228D01*
X138294962Y-105623611D01*
X138296889Y-105263778D01*
X138494444Y-105263778D01*
X138494444Y-105879022D01*
X138495533Y-106104499D01*
X138498942Y-106277655D01*
X138504884Y-106402574D01*
X138513572Y-106483341D01*
X138525219Y-106524039D01*
X138528311Y-106528134D01*
X138575524Y-106548646D01*
X138654849Y-106560680D01*
X138692000Y-106562000D01*
X138777598Y-106555035D01*
X138841281Y-106537481D01*
X138855689Y-106528134D01*
X138866499Y-106499784D01*
X138875021Y-106436048D01*
X138881420Y-106332864D01*
X138885862Y-106186173D01*
X138888510Y-105991912D01*
X138889532Y-105746023D01*
X138889555Y-105695578D01*
X138889555Y-104896889D01*
X139115333Y-104896889D01*
X139115333Y-105695578D01*
X139116077Y-105951267D01*
X139118418Y-106154589D01*
X139122522Y-106309607D01*
X139128554Y-106420381D01*
X139136679Y-106490970D01*
X139147062Y-106525436D01*
X139149200Y-106528134D01*
X139196413Y-106548646D01*
X139275738Y-106560680D01*
X139312889Y-106562000D01*
X139398487Y-106555035D01*
X139462170Y-106537481D01*
X139476578Y-106528134D01*
X139488004Y-106498329D01*
X139496867Y-106431715D01*
X139503353Y-106324179D01*
X139507646Y-106171611D01*
X139509933Y-105969899D01*
X139510444Y-105778622D01*
X139510444Y-105062977D01*
X139630389Y-105071655D01*
X139750333Y-105080334D01*
X139758760Y-105291646D01*
X139768210Y-105418018D01*
X139785200Y-105494499D01*
X139808149Y-105525882D01*
X139835832Y-105569036D01*
X139849239Y-105644886D01*
X139848527Y-105731561D01*
X139833852Y-105807186D01*
X139805835Y-105849636D01*
X139787183Y-105869157D01*
X139775337Y-105908997D01*
X139769374Y-105978611D01*
X139768370Y-106087456D01*
X139770557Y-106210872D01*
X139778555Y-106547889D01*
X139929013Y-106556499D01*
X140021387Y-106559047D01*
X140085265Y-106548685D01*
X140125748Y-106517002D01*
X140147935Y-106455589D01*
X140156925Y-106356035D01*
X140157818Y-106209928D01*
X140157528Y-106179603D01*
X140155242Y-106040711D01*
X140150684Y-105948245D01*
X140142133Y-105892187D01*
X140127867Y-105862522D01*
X140106164Y-105849232D01*
X140100439Y-105847569D01*
X140067865Y-105828813D01*
X140051587Y-105784971D01*
X140046717Y-105701454D01*
X140046666Y-105687111D01*
X140050166Y-105598199D01*
X140064217Y-105550410D01*
X140094144Y-105528668D01*
X140103641Y-105525817D01*
X140149923Y-105490220D01*
X140155696Y-105450848D01*
X140153866Y-105394186D01*
X140153578Y-105300104D01*
X140154869Y-105187604D01*
X140155166Y-105172056D01*
X140159555Y-104953334D01*
X140357111Y-104953334D01*
X140357111Y-105723800D01*
X140357893Y-105975008D01*
X140360355Y-106173873D01*
X140364668Y-106324478D01*
X140371004Y-106430905D01*
X140379535Y-106497237D01*
X140390434Y-106527555D01*
X140390977Y-106528134D01*
X140444269Y-106551605D01*
X140527683Y-106561258D01*
X140618093Y-106557514D01*
X140692372Y-106540798D01*
X140721997Y-106522080D01*
X140738337Y-106470919D01*
X140748498Y-106365205D01*
X140752357Y-106206506D01*
X140752157Y-106134025D01*
X140751106Y-105971553D01*
X140750576Y-105803364D01*
X140750610Y-105651854D01*
X140751052Y-105560111D01*
X140752917Y-105334334D01*
X140943828Y-105257083D01*
X141185390Y-105138475D01*
X141434491Y-104978651D01*
X141677178Y-104788587D01*
X141899497Y-104579258D01*
X142087497Y-104361641D01*
X142088234Y-104360667D01*
X139560866Y-104360667D01*
X139179858Y-104360667D01*
X139020029Y-104359453D01*
X138910096Y-104355396D01*
X138843553Y-104347872D01*
X138813897Y-104336259D01*
X138811591Y-104325389D01*
X138823519Y-104285786D01*
X138846783Y-104203428D01*
X138878106Y-104090077D01*
X138914208Y-103957498D01*
X138916810Y-103947874D01*
X139009288Y-103605638D01*
X138949415Y-103524541D01*
X138879469Y-103393786D01*
X138857343Y-103264841D01*
X138879891Y-103147051D01*
X138943968Y-103049756D01*
X139046430Y-102982300D01*
X139140249Y-102957709D01*
X139277473Y-102962642D01*
X139389415Y-103010772D01*
X139470770Y-103092509D01*
X139516236Y-103198260D01*
X139520507Y-103318431D01*
X139478280Y-103443432D01*
X139440783Y-103501226D01*
X139361714Y-103604890D01*
X139461290Y-103982779D01*
X139560866Y-104360667D01*
X142088234Y-104360667D01*
X142095460Y-104351120D01*
X142222632Y-104157746D01*
X142342769Y-103930991D01*
X142445210Y-103693518D01*
X142519296Y-103467988D01*
X142529054Y-103429334D01*
X142570772Y-103180865D01*
X142587271Y-102906442D01*
X142578532Y-102629298D01*
X142544535Y-102372667D01*
X142529994Y-102305584D01*
X142483014Y-102159334D01*
X141499897Y-102159334D01*
X141497642Y-102296497D01*
X141488983Y-102394012D01*
X141471185Y-102468556D01*
X141441510Y-102536805D01*
X141436360Y-102546604D01*
X141305300Y-102739932D01*
X141142302Y-102892941D01*
X141066635Y-102942881D01*
X140960341Y-102993460D01*
X140834557Y-103036319D01*
X140709341Y-103066129D01*
X140604751Y-103077563D01*
X140568777Y-103075133D01*
X140504195Y-103064524D01*
X140417056Y-103050419D01*
X140399444Y-103047590D01*
X140221870Y-102992509D01*
X140052962Y-102891016D01*
X139904334Y-102753065D01*
X139787601Y-102588613D01*
X139737163Y-102479926D01*
X139685248Y-102266714D01*
X139685257Y-102232103D01*
X138831334Y-102232103D01*
X138826552Y-102404143D01*
X138792007Y-102541042D01*
X138726943Y-102654816D01*
X138626837Y-102767518D01*
X138510158Y-102861325D01*
X138403708Y-102915736D01*
X138258316Y-102939789D01*
X138096720Y-102926334D01*
X137941913Y-102878478D01*
X137877430Y-102844610D01*
X137765543Y-102753896D01*
X137670069Y-102638029D01*
X137662635Y-102626338D01*
X137615269Y-102541402D01*
X137589344Y-102465174D01*
X137578763Y-102373537D01*
X137577222Y-102288417D01*
X137581284Y-102168457D01*
X137597294Y-102080266D01*
X137630989Y-101999510D01*
X137655819Y-101955070D01*
X137771462Y-101807444D01*
X137912562Y-101704932D01*
X138070358Y-101647758D01*
X138236086Y-101636145D01*
X138400984Y-101670320D01*
X138556291Y-101750506D01*
X138693245Y-101876927D01*
X138731984Y-101927498D01*
X138799174Y-102066712D01*
X138831334Y-102232103D01*
X139685257Y-102232103D01*
X139685306Y-102055913D01*
X139733072Y-101854740D01*
X139824278Y-101670414D01*
X139954658Y-101510151D01*
X140119947Y-101381171D01*
X140315879Y-101290690D01*
X140460933Y-101255401D01*
X140678966Y-101247262D01*
X140889396Y-101291367D01*
X141084045Y-101383521D01*
X141254739Y-101519528D01*
X141393301Y-101695190D01*
X141424802Y-101750111D01*
X141461163Y-101825263D01*
X141483571Y-101895465D01*
X141495281Y-101978438D01*
X141499542Y-102091905D01*
X141499897Y-102159334D01*
X142483014Y-102159334D01*
X142417812Y-101956361D01*
X142255615Y-101628383D01*
X142046941Y-101325063D01*
X141795328Y-101049816D01*
X141504315Y-100806054D01*
X141177439Y-100597190D01*
X140818239Y-100426638D01*
X140455889Y-100304744D01*
X140351846Y-100277226D01*
X140261804Y-100257099D01*
X140173670Y-100243219D01*
X140075351Y-100234441D01*
X139954757Y-100229619D01*
X139799793Y-100227609D01*
X139637444Y-100227256D01*
X139445278Y-100227795D01*
D14*
X150150000Y-90300000D03*
X147450000Y-90300000D03*
X125950000Y-91500000D03*
X123250000Y-91500000D03*
D15*
X162335000Y-88565000D03*
D16*
X162655000Y-84205000D03*
X162655000Y-97925000D03*
D15*
X162335000Y-93065000D03*
M02*
