G04 #@! TF.FileFunction,Legend,Top*
%FSLAX46Y46*%
G04 Gerber Fmt 4.6, Leading zero omitted, Abs format (unit mm)*
G04 Created by KiCad (PCBNEW 4.0.4+e1-6308~48~ubuntu16.04.1-stable) date Tue May  2 22:28:17 2017*
%MOMM*%
%LPD*%
G01*
G04 APERTURE LIST*
%ADD10C,0.100000*%
%ADD11C,0.300000*%
%ADD12C,0.120000*%
%ADD13C,0.150000*%
%ADD14R,1.650000X1.900000*%
%ADD15R,1.400000X1.400000*%
%ADD16R,0.908000X1.543000*%
%ADD17C,2.300000*%
%ADD18R,2.100000X1.700000*%
%ADD19C,3.400000*%
%ADD20R,1.900000X1.700000*%
%ADD21R,1.700000X1.900000*%
%ADD22R,1.700000X1.950000*%
%ADD23R,4.400000X4.400000*%
G04 APERTURE END LIST*
D10*
D11*
X122500001Y-95278571D02*
X122500001Y-95635714D01*
X122142858Y-95492857D02*
X122500001Y-95635714D01*
X122857143Y-95492857D01*
X122285715Y-95921429D02*
X122500001Y-95635714D01*
X122714286Y-95921429D01*
D12*
X121550000Y-90900000D02*
X121550000Y-89900000D01*
X119850000Y-89900000D02*
X119850000Y-90900000D01*
X155400000Y-92350000D02*
X155400000Y-90650000D01*
X155400000Y-90650000D02*
X152250000Y-90650000D01*
X155400000Y-92350000D02*
X152250000Y-92350000D01*
X155400000Y-90250000D02*
X155400000Y-88550000D01*
X155400000Y-88550000D02*
X152250000Y-88550000D01*
X155400000Y-90250000D02*
X152250000Y-90250000D01*
D13*
X121860000Y-89314000D02*
X126940000Y-89314000D01*
X126940000Y-89314000D02*
X126940000Y-93886000D01*
X126940000Y-93886000D02*
X121860000Y-93886000D01*
X121860000Y-93886000D02*
X121860000Y-89314000D01*
X121860000Y-90838000D02*
X122368000Y-90838000D01*
X122368000Y-90838000D02*
X122368000Y-92108000D01*
X122368000Y-92108000D02*
X121860000Y-92108000D01*
D12*
X158845000Y-83315000D02*
X161175000Y-83315000D01*
X158845000Y-98305000D02*
X160965000Y-98305000D01*
X158845000Y-83315000D02*
X158845000Y-98305000D01*
X172935000Y-83315000D02*
X172935000Y-98305000D01*
X164135000Y-83315000D02*
X172935000Y-83315000D01*
X164335000Y-98305000D02*
X172935000Y-98305000D01*
X149100000Y-96480000D02*
X147900000Y-96480000D01*
X147900000Y-94720000D02*
X149100000Y-94720000D01*
X149100000Y-94080000D02*
X147900000Y-94080000D01*
X147900000Y-92320000D02*
X149100000Y-92320000D01*
X154000000Y-87980000D02*
X152800000Y-87980000D01*
X152800000Y-86220000D02*
X154000000Y-86220000D01*
X118420000Y-100300000D02*
X118420000Y-99100000D01*
X120180000Y-99100000D02*
X120180000Y-100300000D01*
X139120000Y-94800000D02*
X139090000Y-94800000D01*
X132660000Y-94800000D02*
X132690000Y-94800000D01*
X132660000Y-88340000D02*
X132690000Y-88340000D01*
X139090000Y-88340000D02*
X139120000Y-88340000D01*
X137190000Y-94800000D02*
X134590000Y-94800000D01*
X139120000Y-88340000D02*
X139120000Y-94800000D01*
X137190000Y-88340000D02*
X134590000Y-88340000D01*
X132660000Y-88340000D02*
X132660000Y-94800000D01*
D10*
X149903111Y-109100000D02*
G75*
G03X149903111Y-109100000I-11253111J0D01*
G01*
D13*
X119357143Y-90366666D02*
X119404762Y-90414285D01*
X119452381Y-90557142D01*
X119452381Y-90652380D01*
X119404762Y-90795238D01*
X119309524Y-90890476D01*
X119214286Y-90938095D01*
X119023810Y-90985714D01*
X118880952Y-90985714D01*
X118690476Y-90938095D01*
X118595238Y-90890476D01*
X118500000Y-90795238D01*
X118452381Y-90652380D01*
X118452381Y-90557142D01*
X118500000Y-90414285D01*
X118547619Y-90366666D01*
X119452381Y-89414285D02*
X119452381Y-89985714D01*
X119452381Y-89700000D02*
X118452381Y-89700000D01*
X118595238Y-89795238D01*
X118690476Y-89890476D01*
X118738095Y-89985714D01*
X149661905Y-91952381D02*
X149661905Y-90952381D01*
X149900000Y-90952381D01*
X150042858Y-91000000D01*
X150138096Y-91095238D01*
X150185715Y-91190476D01*
X150233334Y-91380952D01*
X150233334Y-91523810D01*
X150185715Y-91714286D01*
X150138096Y-91809524D01*
X150042858Y-91904762D01*
X149900000Y-91952381D01*
X149661905Y-91952381D01*
X150566667Y-90952381D02*
X151185715Y-90952381D01*
X150852381Y-91333333D01*
X150995239Y-91333333D01*
X151090477Y-91380952D01*
X151138096Y-91428571D01*
X151185715Y-91523810D01*
X151185715Y-91761905D01*
X151138096Y-91857143D01*
X151090477Y-91904762D01*
X150995239Y-91952381D01*
X150709524Y-91952381D01*
X150614286Y-91904762D01*
X150566667Y-91857143D01*
X149761905Y-89852381D02*
X149761905Y-88852381D01*
X150000000Y-88852381D01*
X150142858Y-88900000D01*
X150238096Y-88995238D01*
X150285715Y-89090476D01*
X150333334Y-89280952D01*
X150333334Y-89423810D01*
X150285715Y-89614286D01*
X150238096Y-89709524D01*
X150142858Y-89804762D01*
X150000000Y-89852381D01*
X149761905Y-89852381D01*
X151190477Y-89185714D02*
X151190477Y-89852381D01*
X150952381Y-88804762D02*
X150714286Y-89519048D01*
X151333334Y-89519048D01*
X127223810Y-91852381D02*
X127223810Y-90852381D01*
X128271429Y-91757143D02*
X128223810Y-91804762D01*
X128080953Y-91852381D01*
X127985715Y-91852381D01*
X127842857Y-91804762D01*
X127747619Y-91709524D01*
X127700000Y-91614286D01*
X127652381Y-91423810D01*
X127652381Y-91280952D01*
X127700000Y-91090476D01*
X127747619Y-90995238D01*
X127842857Y-90900000D01*
X127985715Y-90852381D01*
X128080953Y-90852381D01*
X128223810Y-90900000D01*
X128271429Y-90947619D01*
X129223810Y-91852381D02*
X128652381Y-91852381D01*
X128938095Y-91852381D02*
X128938095Y-90852381D01*
X128842857Y-90995238D01*
X128747619Y-91090476D01*
X128652381Y-91138095D01*
X164352381Y-91638095D02*
X163352381Y-91638095D01*
X163352381Y-91257142D01*
X163400000Y-91161904D01*
X163447619Y-91114285D01*
X163542857Y-91066666D01*
X163685714Y-91066666D01*
X163780952Y-91114285D01*
X163828571Y-91161904D01*
X163876190Y-91257142D01*
X163876190Y-91638095D01*
X164352381Y-90114285D02*
X164352381Y-90685714D01*
X164352381Y-90400000D02*
X163352381Y-90400000D01*
X163495238Y-90495238D01*
X163590476Y-90590476D01*
X163638095Y-90685714D01*
X151343334Y-95852381D02*
X151010000Y-95376190D01*
X150771905Y-95852381D02*
X150771905Y-94852381D01*
X151152858Y-94852381D01*
X151248096Y-94900000D01*
X151295715Y-94947619D01*
X151343334Y-95042857D01*
X151343334Y-95185714D01*
X151295715Y-95280952D01*
X151248096Y-95328571D01*
X151152858Y-95376190D01*
X150771905Y-95376190D01*
X152295715Y-95852381D02*
X151724286Y-95852381D01*
X152010000Y-95852381D02*
X152010000Y-94852381D01*
X151914762Y-94995238D01*
X151819524Y-95090476D01*
X151724286Y-95138095D01*
X151363334Y-93722381D02*
X151030000Y-93246190D01*
X150791905Y-93722381D02*
X150791905Y-92722381D01*
X151172858Y-92722381D01*
X151268096Y-92770000D01*
X151315715Y-92817619D01*
X151363334Y-92912857D01*
X151363334Y-93055714D01*
X151315715Y-93150952D01*
X151268096Y-93198571D01*
X151172858Y-93246190D01*
X150791905Y-93246190D01*
X151744286Y-92817619D02*
X151791905Y-92770000D01*
X151887143Y-92722381D01*
X152125239Y-92722381D01*
X152220477Y-92770000D01*
X152268096Y-92817619D01*
X152315715Y-92912857D01*
X152315715Y-93008095D01*
X152268096Y-93150952D01*
X151696667Y-93722381D01*
X152315715Y-93722381D01*
X149563334Y-87682381D02*
X149230000Y-87206190D01*
X148991905Y-87682381D02*
X148991905Y-86682381D01*
X149372858Y-86682381D01*
X149468096Y-86730000D01*
X149515715Y-86777619D01*
X149563334Y-86872857D01*
X149563334Y-87015714D01*
X149515715Y-87110952D01*
X149468096Y-87158571D01*
X149372858Y-87206190D01*
X148991905Y-87206190D01*
X149896667Y-86682381D02*
X150515715Y-86682381D01*
X150182381Y-87063333D01*
X150325239Y-87063333D01*
X150420477Y-87110952D01*
X150468096Y-87158571D01*
X150515715Y-87253810D01*
X150515715Y-87491905D01*
X150468096Y-87587143D01*
X150420477Y-87634762D01*
X150325239Y-87682381D01*
X150039524Y-87682381D01*
X149944286Y-87634762D01*
X149896667Y-87587143D01*
X118092381Y-99636666D02*
X117616190Y-99970000D01*
X118092381Y-100208095D02*
X117092381Y-100208095D01*
X117092381Y-99827142D01*
X117140000Y-99731904D01*
X117187619Y-99684285D01*
X117282857Y-99636666D01*
X117425714Y-99636666D01*
X117520952Y-99684285D01*
X117568571Y-99731904D01*
X117616190Y-99827142D01*
X117616190Y-100208095D01*
X117425714Y-98779523D02*
X118092381Y-98779523D01*
X117044762Y-99017619D02*
X117759048Y-99255714D01*
X117759048Y-98636666D01*
X140344762Y-92903333D02*
X140392381Y-92760476D01*
X140392381Y-92522380D01*
X140344762Y-92427142D01*
X140297143Y-92379523D01*
X140201905Y-92331904D01*
X140106667Y-92331904D01*
X140011429Y-92379523D01*
X139963810Y-92427142D01*
X139916190Y-92522380D01*
X139868571Y-92712857D01*
X139820952Y-92808095D01*
X139773333Y-92855714D01*
X139678095Y-92903333D01*
X139582857Y-92903333D01*
X139487619Y-92855714D01*
X139440000Y-92808095D01*
X139392381Y-92712857D01*
X139392381Y-92474761D01*
X139440000Y-92331904D01*
X139392381Y-91998571D02*
X140392381Y-91760476D01*
X139678095Y-91569999D01*
X140392381Y-91379523D01*
X139392381Y-91141428D01*
X140392381Y-90236666D02*
X140392381Y-90808095D01*
X140392381Y-90522381D02*
X139392381Y-90522381D01*
X139535238Y-90617619D01*
X139630476Y-90712857D01*
X139678095Y-90808095D01*
X137764286Y-118428571D02*
X137907143Y-118476190D01*
X137954762Y-118523810D01*
X138002381Y-118619048D01*
X138002381Y-118761905D01*
X137954762Y-118857143D01*
X137907143Y-118904762D01*
X137811905Y-118952381D01*
X137430952Y-118952381D01*
X137430952Y-117952381D01*
X137764286Y-117952381D01*
X137859524Y-118000000D01*
X137907143Y-118047619D01*
X137954762Y-118142857D01*
X137954762Y-118238095D01*
X137907143Y-118333333D01*
X137859524Y-118380952D01*
X137764286Y-118428571D01*
X137430952Y-118428571D01*
X138288095Y-117952381D02*
X138859524Y-117952381D01*
X138573809Y-118952381D02*
X138573809Y-117952381D01*
X139716667Y-118952381D02*
X139145238Y-118952381D01*
X139430952Y-118952381D02*
X139430952Y-117952381D01*
X139335714Y-118095238D01*
X139240476Y-118190476D01*
X139145238Y-118238095D01*
X120595238Y-104357143D02*
X124404762Y-104357143D01*
X122500000Y-106261905D02*
X122500000Y-102452381D01*
%LPC*%
D14*
X120700000Y-89150000D03*
X120700000Y-91650000D03*
D15*
X154750000Y-91500000D03*
X152250000Y-91500000D03*
X154750000Y-89400000D03*
X152250000Y-89400000D03*
D16*
X122495000Y-88425000D03*
X123765000Y-88425000D03*
X125035000Y-88425000D03*
X126305000Y-88425000D03*
X126305000Y-94775000D03*
X125035000Y-94775000D03*
X123765000Y-94775000D03*
X122495000Y-94775000D03*
D17*
X162335000Y-88565000D03*
D18*
X159985000Y-87255000D03*
X159985000Y-89795000D03*
X159985000Y-91825000D03*
X159985000Y-94365000D03*
D19*
X162655000Y-84205000D03*
X162655000Y-97925000D03*
D17*
X162335000Y-93065000D03*
D20*
X147150000Y-95600000D03*
X149850000Y-95600000D03*
X147150000Y-93200000D03*
X149850000Y-93200000D03*
X152050000Y-87100000D03*
X154750000Y-87100000D03*
D21*
X119300000Y-98350000D03*
X119300000Y-101050000D03*
D22*
X133640000Y-87590000D03*
X138140000Y-87590000D03*
X138140000Y-95550000D03*
X133640000Y-95550000D03*
D23*
X122800000Y-109100000D03*
X154200000Y-109100000D03*
M02*
